<svg width="71" height="84" viewBox="0 0 71 84" fill="none" xmlns="http://www.w3.org/2000/svg">
<path d="M67.0138 20.4204H3.89459C1.7469 20.4204 0 18.6735 0 16.5258V3.89459C0 1.7469 1.7469 0 3.89459 0H67.0138C69.1615 0 70.9084 1.7469 70.9084 3.89459V16.5258C70.9084 18.6735 69.1615 20.4204 67.0138 20.4204ZM3.89459 2.14874C2.93196 2.14874 2.14874 2.93144 2.14874 3.89459V16.5258C2.14874 17.4889 2.93196 18.2716 3.89459 18.2716H67.0138C67.9765 18.2716 68.7597 17.4889 68.7597 16.5258V3.89459C68.7597 2.93144 67.9765 2.14874 67.0138 2.14874H3.89459Z" fill="#39A1FF"/>
<path d="M61.2023 13.7549C59.2476 13.7549 57.6576 12.1654 57.6576 10.2107C57.6576 8.2561 59.2476 6.66553 61.2023 6.66553C63.1569 6.66553 64.747 8.2561 64.747 10.2107C64.747 12.1654 63.1569 13.7549 61.2023 13.7549ZM61.2023 8.81427C60.4327 8.81427 59.8063 9.44063 59.8063 10.2107C59.8063 10.9798 60.4327 11.6062 61.2023 11.6062C61.9719 11.6062 62.5982 10.9798 62.5982 10.2107C62.5982 9.44063 61.9719 8.81427 61.2023 8.81427Z" fill="#39A1FF"/>
<path d="M50.3688 13.7549C48.4141 13.7549 46.8241 12.1654 46.8241 10.2107C46.8241 8.2561 48.4141 6.66553 50.3688 6.66553C52.3234 6.66553 53.9135 8.2561 53.9135 10.2107C53.9135 12.1654 52.3234 13.7549 50.3688 13.7549ZM50.3688 8.81427C49.5992 8.81427 48.9728 9.44063 48.9728 10.2107C48.9728 10.9798 49.5992 11.6062 50.3688 11.6062C51.1384 11.6062 51.7647 10.9798 51.7647 10.2107C51.7647 9.44063 51.1384 8.81427 50.3688 8.81427Z" fill="#39A1FF"/>
<path d="M39.3038 11.285H6.98355C6.39023 11.285 5.90918 10.8044 5.90918 10.2106C5.90918 9.61676 6.39023 9.13623 6.98355 9.13623H39.3038C39.8972 9.13623 40.3782 9.61676 40.3782 10.2106C40.3782 10.8044 39.8972 11.285 39.3038 11.285Z" fill="#39A1FF"/>
<path d="M35.4543 76.9085C34.8609 76.9085 34.3799 76.527 34.3799 74.8196V20.0889C34.3799 18.3816 34.8609 19 35.4543 19C36.0476 19 36.5286 18.3816 36.5286 20.0889V74.8196C36.5286 76.527 36.0476 76.9085 35.4543 76.9085Z" fill="#39A1FF"/>
<path d="M60.25 80.949H42.0397C41.4464 80.949 40.9653 80.4685 40.9653 79.8747C40.9653 79.2808 41.4464 78.8003 42.0397 78.8003H60.25C60.8433 78.8003 61.3243 79.2808 61.3243 79.8747C61.3243 80.4685 60.8433 80.949 60.25 80.949Z" fill="#39A1FF"/>
<path d="M28.8681 80.949H10.6579C10.0645 80.949 9.5835 80.4685 9.5835 79.8747C9.5835 79.2808 10.0645 78.8003 10.6579 78.8003H28.8681C29.4614 78.8003 29.9425 79.2808 29.9425 79.8747C29.9425 80.4685 29.4614 80.949 28.8681 80.949Z" fill="#39A1FF"/>
<path d="M42.0399 84.0001H28.8678C28.2745 84.0001 27.7935 83.5196 27.7935 82.9257V76.8341C27.7935 76.2403 28.2745 75.7598 28.8678 75.7598H42.0399C42.6332 75.7598 43.1142 76.2403 43.1142 76.8341V82.9257C43.1142 83.5196 42.6332 84.0001 42.0399 84.0001ZM29.9422 81.8514H40.9655V77.9085H29.9422V81.8514Z" fill="#39A1FF"/>
</svg>
