<svg width="170" height="175" viewBox="0 0 170 175" fill="none" xmlns="http://www.w3.org/2000/svg">
<circle cx="85" cy="88.6124" r="85" fill="url(#paint0_radial_1_181)"/>
<g filter="url(#filter0_d_1_181)">
<path d="M90.519 145.353C90.519 145.353 96.2867 151.241 97.691 156.055C99.0963 160.869 94.4931 160.968 90.1499 156.671C85.8045 152.374 83.1581 153.322 81.5457 149.816C79.9311 146.311 84.451 140.891 84.451 140.891L90.519 145.354V145.353Z" fill="url(#paint1_linear_1_181)"/>
</g>
<path d="M84.5819 141.829C83.2778 143.573 81.1085 147.237 82.1661 149.53C82.9313 151.191 83.9236 151.71 85.4303 152.493C86.8109 153.215 88.5313 154.11 90.6309 156.185C93.2357 158.763 95.7145 159.515 96.7215 158.914C97.3145 158.56 97.4303 157.588 97.0376 156.246C95.7549 151.848 90.5622 146.381 90.0705 145.87L84.5819 141.829ZM95.1755 160.412C93.5282 160.148 91.5423 159.006 89.6722 157.154C87.72 155.224 86.1673 154.413 84.7991 153.702C83.2362 152.887 81.8849 152.184 80.9273 150.101C79.1529 146.248 83.7335 140.687 83.9293 140.453L84.34 139.96L91.0067 144.876C91.2453 145.121 96.9094 150.943 98.3451 155.864C99.1395 158.58 98.1032 159.673 97.4179 160.083C96.8058 160.448 96.0362 160.55 95.1755 160.411V160.412Z" fill="#31283C"/>
<path d="M84.7406 152.758C84.7867 152.807 84.7384 152.882 84.681 152.852C83.3499 152.146 82.3305 151.488 81.5541 149.799C80.016 146.464 84.0329 141.398 84.429 140.912C84.4481 140.887 84.4773 140.887 84.5009 140.904L85.6903 141.779C85.7016 141.788 85.7106 141.801 85.7117 141.817L86.2596 145.322C86.2619 145.339 86.2585 145.354 86.2484 145.367L84.708 147.494C84.708 147.494 82.6252 150.523 84.7395 152.759L84.7406 152.758Z" fill="#31283C"/>
<path d="M84.588 141.815C83.0701 143.837 81.1549 147.311 82.1721 149.514C82.4635 150.145 82.7898 150.614 83.1611 150.99C82.9451 149.442 83.5955 147.914 84.148 147.107L85.5477 145.175L85.0797 142.175L84.588 141.814V141.815ZM84.939 153.71L84.3595 153.453C83.0037 152.733 81.8064 151.982 80.9333 150.087C79.2691 146.476 83.1117 141.453 83.8982 140.483L84.3022 139.984L84.8996 140.35L86.3095 141.39L86.3826 141.692L86.9756 145.499L86.7978 145.773L85.2608 147.893C85.2011 147.985 83.5325 150.487 85.2371 152.291L85.6366 152.709L84.939 153.709V153.71Z" fill="#31283C"/>
<path d="M97.7992 106.878C97.7992 106.878 95.6286 115.014 93.4052 123.734C91.8131 129.971 90.9546 136.377 90.4562 140.683C90.2593 142.389 90.3392 146.125 91.128 147.559C92.0484 149.229 93.0678 151.406 92.5108 152.023C91.6703 152.955 87.5375 150.49 84.702 147.509C84.1001 146.876 83.6635 146.072 83.4092 145.185C83.1031 144.114 83.093 142.958 83.3664 141.853C84.1563 138.654 85.0148 130.058 84.1541 122.399C83.012 112.244 84.495 104.889 87.2461 101.759C89.9994 98.6289 97.798 106.878 97.798 106.878H97.7992Z" fill="#FEFEFE"/>
<path d="M89.3462 101.769C89.1752 101.742 89.012 101.731 88.8556 101.733C88.3864 101.741 88.0364 101.892 87.7585 102.21C84.9219 105.438 83.7968 113.145 84.8298 122.323C85.695 130.034 84.8612 138.634 84.0252 142.018C83.7777 143.012 83.7912 144.044 84.0634 144.999C84.2907 145.797 84.6823 146.501 85.1931 147.041C87.9206 149.907 91.2061 151.653 91.9824 151.547C91.9982 151.319 91.9273 150.424 90.5298 147.887C89.6083 146.216 89.5858 142.257 89.7782 140.605C90.2733 136.336 91.1195 129.924 92.7432 123.567C94.6773 115.986 96.5923 108.767 97.0413 107.072C95.4559 105.46 91.7765 102.158 89.3473 101.769H89.3462ZM91.5302 152.869C89.5679 152.554 86.3105 150.191 84.2064 147.979C83.5437 147.282 83.0407 146.381 82.7538 145.371C82.4173 144.188 82.3993 142.917 82.7031 141.688C83.4064 138.845 84.3538 130.289 83.4761 122.476C82.387 112.78 83.6055 104.868 86.7357 101.31C87.2691 100.7 87.9757 100.384 88.8308 100.367C92.4078 100.305 97.7017 105.782 98.2936 106.409L98.5557 106.683L98.4556 107.052C98.4343 107.132 96.2604 115.283 94.0618 123.903C92.4607 130.181 91.6213 136.53 91.1319 140.761C90.926 142.535 91.0564 146.017 91.7237 147.228C93.7378 150.882 93.5071 151.932 93.0154 152.476C92.8444 152.667 92.5248 152.894 91.9723 152.901C91.8328 152.903 91.6866 152.891 91.5302 152.867V152.869Z" fill="#31283C"/>
<path d="M65.5619 95.7877L59.2068 94.7673C59.2068 94.7673 55.0999 90.0477 57.9905 83.1713C60.8834 76.2905 69.3098 89.9487 69.3098 89.9487L65.5619 95.7888V95.7877Z" fill="url(#paint2_linear_1_181)"/>
<g filter="url(#filter1_d_1_181)">
<path d="M71.3409 146.991C71.3409 146.991 72.0532 154.46 72.0796 157.914C72.1056 161.369 65.5286 164.658 63.1912 154.828C62.3059 151.104 61.9198 148.124 61.7833 145.863C61.5935 142.758 63.6474 139.972 66.6682 139.235L69.912 143.818L71.3428 146.99L71.3409 146.991Z" fill="url(#paint3_linear_1_181)"/>
</g>
<path d="M65.8248 140.243C63.6881 141.207 62.3167 143.407 62.4636 145.819C62.6267 148.489 63.0942 151.468 63.8558 154.671C64.8055 158.675 66.6547 160.91 68.8043 160.65C70.1913 160.481 71.4107 159.207 71.3999 157.919C71.3758 154.763 70.7635 148.112 70.6732 147.168L69.3161 144.159L66.3899 140.022C66.1964 140.087 66.0066 140.161 65.8239 140.243L65.8248 140.243ZM70.2149 161.655C69.8229 161.832 69.4054 161.95 68.9679 162.004C67.8794 162.136 64.202 162.02 62.5282 154.986C61.7489 151.706 61.2702 148.652 61.1041 145.902C60.8936 142.471 63.1658 139.388 66.5057 138.573L66.9557 138.462L70.533 143.537L72.0192 146.926C72.0488 147.232 72.7376 154.463 72.7627 157.907C72.7751 159.496 71.7048 160.982 70.2133 161.655L70.2149 161.655Z" fill="#31283C"/>
<path d="M61.9169 145.8C61.7295 142.727 63.7395 139.964 66.71 139.196C66.7646 139.183 66.8222 139.203 66.8541 139.249L68.9231 142.173C68.9662 142.232 68.9549 142.311 68.8938 142.351C67.8177 143.035 64.7158 145.258 62.4968 149.204C62.4363 149.313 62.2764 149.281 62.2592 149.159C62.0841 147.904 61.9758 146.783 61.9175 145.801L61.9169 145.8Z" fill="#31283C"/>
<path d="M65.9621 140.18C63.8273 141.143 62.4489 143.353 62.5956 145.759C62.6313 146.32 62.6792 146.906 62.7437 147.509C64.6467 144.686 66.8907 142.903 68.0401 142.104L66.5228 139.962C66.3312 140.025 66.1432 140.097 65.963 140.18L65.9621 140.18ZM62.7186 149.881C62.57 149.948 62.4039 149.97 62.2365 149.939C61.8973 149.874 61.6332 149.602 61.5853 149.258C61.4175 148.054 61.3008 146.906 61.2358 145.843C61.0278 142.459 63.2657 139.385 66.5399 138.538C66.8692 138.457 67.2087 138.58 67.4051 138.849L69.6476 142.02L69.6154 142.406C69.5749 142.619 69.4466 142.808 69.2616 142.926C68.3646 143.497 65.2758 145.652 63.0905 149.541C63.0042 149.697 62.8703 149.815 62.7183 149.883L62.7186 149.881Z" fill="#31283C"/>
<path d="M64.9685 143.549C65.0017 142.739 65.218 141.959 65.6031 141.247C66.7383 139.161 69.3086 134.224 70.7089 129.937C72.3931 124.783 72.6799 117.515 79.1461 113.319C79.149 113.313 79.1497 113.306 79.1525 113.3C79.5445 111.566 77.3883 105.95 77.3883 105.95L79.1481 99.8191L87.9666 97.0051C87.9666 97.0051 91.3058 104.476 91.3366 110.613C91.3687 116.751 87.9805 120.126 87.9805 120.126C87.9805 120.126 72.8264 135.607 71.7379 143.108C70.6494 150.609 72.1787 153.918 68.0896 154.367C64.8127 154.726 64.8293 146.738 64.9676 143.55L64.9685 143.549Z" fill="#FEFEFE"/>
<path d="M65.6496 143.578C65.4323 148.641 65.9962 152.31 67.1536 153.393C67.4098 153.632 67.6845 153.726 68.0167 153.69C70.2336 153.447 70.3741 152.443 70.5689 148.644C70.6438 147.133 70.7382 145.25 71.0648 143.008C72.173 135.375 86.8682 120.287 87.4931 119.648C87.5298 119.612 90.6866 116.371 90.6569 110.616C90.6298 105.64 88.337 99.6699 87.5844 97.8416L79.7052 100.357L78.1084 105.92C78.6095 107.252 80.2099 111.718 79.8168 113.45L79.7564 113.72L79.5193 113.89C74.6766 117.036 73.4396 122.069 72.3461 126.51C72.0311 127.795 71.7302 129.01 71.3592 130.148C69.9321 134.517 67.2794 139.595 66.2047 141.572C65.8672 142.195 65.6805 142.871 65.6502 143.579L65.6496 143.578ZM69.7268 154.653C69.3008 154.845 68.788 154.977 68.1657 155.045C67.4395 155.125 66.7666 154.897 66.2235 154.386C64.2164 152.509 64.1485 146.774 64.2871 143.521L64.29 143.519C64.3272 142.603 64.5687 141.728 65.0063 140.922C66.0631 138.976 68.6732 133.988 70.0632 129.724C70.4202 128.634 70.7129 127.443 71.0221 126.183C72.1596 121.571 73.4421 116.355 78.526 112.913C78.6139 111.628 77.5153 108.175 76.7542 106.194L76.6714 105.981L78.5945 99.2795L88.3417 96.1673L88.5908 96.7227C88.7289 97.0345 91.99 104.4 92.0207 110.608C92.0535 116.96 88.6095 120.461 88.463 120.608C88.3184 120.755 73.4597 136.007 72.4149 143.204C72.0996 145.383 72.0042 147.228 71.9306 148.713C71.7811 151.655 71.6743 153.776 69.7274 154.654L69.7268 154.653Z" fill="#31283C"/>
<path d="M59.5732 94.1364L65.2274 95.0432L68.5017 89.9433C66.3762 86.603 62.4515 81.7484 60.1764 81.9206C59.9423 81.9386 59.2256 81.9937 58.6202 83.436C56.2134 89.1603 58.8869 93.2307 59.5732 94.1364ZM65.8935 96.5327L58.8554 95.4021L58.6934 95.2153C58.5145 95.0094 54.3422 90.0963 57.3645 82.9061C57.9777 81.4413 58.8903 80.6526 60.0729 80.5604C63.9987 80.251 69.2995 88.6337 69.8902 89.5912L70.1153 89.9568L65.8935 96.5316V96.5327Z" fill="#31283C"/>
<path d="M110.135 98.0953L110.73 106.871C110.73 106.871 78.5152 118.146 59.5052 87.9114L85.0368 83.7948L103.941 90.301L110.135 98.0953Z" fill="url(#paint4_linear_1_181)"/>
<path d="M60.6415 88.419C77.9333 114.807 105.964 107.594 110.013 106.382L109.47 98.3543L103.533 90.8795L84.977 84.4948L60.6426 88.419H60.6415ZM89.1064 108.946C79.1249 107.342 67.6244 102.102 58.9301 88.2727L58.381 87.402L85.0962 83.0941L85.2583 83.1504L104.35 89.7207L110.801 97.838L111.447 107.34L110.954 107.513C110.777 107.575 101.028 110.858 89.1052 108.944L89.1064 108.946Z" fill="#31283C"/>
<path d="M63.3361 90.6777C63.3361 90.6777 67.9595 94.7437 77.7114 92.9864C87.4634 91.2256 69.0407 82.6617 69.0407 82.6617L61.1408 82.7191L60.3544 87.6199L63.3349 90.6777H63.3361Z" fill="#FEFEFE"/>
<path d="M63.7997 90.1771C64.1046 90.4269 68.5998 93.9359 77.5911 92.3136C78.9605 92.0672 79.8134 91.6476 79.8741 91.1931C80.08 89.609 74.3573 85.9031 68.8901 83.3447L61.7237 83.3953L61.0835 87.3859L63.8008 90.176L63.7997 90.1771ZM69.5212 93.8471C65.1701 93.1484 63.0177 91.3044 62.8838 91.1897L62.8467 91.1537L59.6241 87.8494L60.5569 82.0419L69.186 81.98L69.3255 82.0441C71.3902 83.0049 81.6643 87.963 81.2244 91.3686C81.0016 93.0843 78.6151 93.5129 77.8297 93.6547C74.4834 94.26 71.7199 94.1992 69.5201 93.8471H69.5212Z" fill="#31283C"/>
<path d="M108.078 43.4619C108.078 43.4619 108.85 51.6073 108.26 56.5328C108.251 56.6149 108.314 56.6835 108.398 56.6768C109.301 56.6273 113.963 56.4968 118.655 58.8133C122.351 60.6392 129.04 61.3919 129.04 61.3919C129.04 61.3919 131.661 59.6312 132.739 59.6177C133.737 59.6064 133.829 61.2063 132.364 62.4731C132.247 62.5766 132.306 62.7656 132.461 62.7645L136.957 62.7802C137.673 62.7847 138.303 63.2595 138.501 63.948C138.684 64.5893 138.451 65.2688 137.924 65.6761C136.384 66.8664 132.978 68.8645 129.405 66.8135L126.937 66.0597C126.937 66.0597 115.93 64.8447 106.285 63.5441C105.112 63.3855 103.98 63.039 102.923 62.5113C102.303 62.2031 101.873 61.6169 101.768 60.9329C101.372 58.3768 100.387 51.7704 99.8215 45.9618C99.1036 38.5747 105.504 41.0453 105.504 41.0453L108.08 43.4631L108.078 43.4619Z" fill="#FEFEFE"/>
<path d="M104.144 41.3994C103.345 41.2711 102.28 41.2565 101.519 41.8381C100.644 42.5042 100.301 43.8688 100.5 45.8951C101.062 51.6677 102.044 58.2616 102.44 60.8279C102.509 61.2903 102.803 61.6908 103.224 61.8989C104.212 62.394 105.281 62.7169 106.372 62.8665C115.899 64.1524 126.901 65.3686 127.013 65.381L127.075 65.3889L129.744 66.2214C132.91 68.0406 135.969 66.3249 137.505 65.1357C137.816 64.8961 137.949 64.5035 137.842 64.1356C137.729 63.7407 137.36 63.465 136.953 63.4617L132.456 63.4459C132.1 63.4414 131.794 63.2299 131.673 62.9003C131.547 62.5661 131.643 62.196 131.915 61.9575C132.804 61.1924 132.866 60.4195 132.76 60.2901C132.148 60.3059 130.409 61.2925 129.418 61.9575L129.211 62.097L128.963 62.0677C128.687 62.0362 122.11 61.2802 118.352 59.425C113.811 57.1827 109.297 57.3087 108.436 57.356C108.194 57.3706 107.959 57.2772 107.795 57.0995C107.631 56.9251 107.555 56.6888 107.585 56.4503C108.102 52.138 107.546 45.1931 107.425 43.7811L105.142 41.639C104.964 41.5805 104.597 41.4725 104.145 41.3994H104.144ZM105.902 64.1749C104.756 63.9915 103.653 63.6372 102.616 63.1196C101.8 62.7146 101.232 61.935 101.091 61.0349C100.694 58.4585 99.7081 51.8365 99.1421 46.0256C98.8957 43.4953 99.4201 41.7211 100.697 40.7502C102.675 39.2471 105.622 40.3598 105.747 40.4082L105.969 40.5466L108.733 43.1421L108.759 43.3963C108.788 43.7203 109.469 51.0208 109.004 55.9767C110.694 55.9587 114.819 56.1589 118.958 58.2043C122.11 59.7625 127.65 60.532 128.872 60.685C129.625 60.1945 131.641 58.9502 132.73 58.9367C133.346 58.93 133.834 59.2641 134.047 59.83C134.301 60.4949 134.124 61.3229 133.614 62.088L136.958 62.0992C137.97 62.1015 138.877 62.7855 139.155 63.7609C139.415 64.6688 139.094 65.633 138.339 66.2158C136.893 67.333 133.116 69.6764 129.134 67.4432L126.8 66.7288C125.887 66.6264 115.358 65.4564 106.194 64.2177C106.097 64.2064 106 64.1907 105.905 64.1749H105.902Z" fill="#31283C"/>
<path d="M108.019 19.3676C108.376 19.1538 108.818 19.4654 108.725 19.875C108.321 21.6537 107.851 25.1346 109.762 27.0055C112.399 29.5875 115.071 35.6662 110.658 42.2916C106.244 48.917 104.783 35.1633 104.783 35.1633L102.739 22.529L108.019 19.3687V19.3676Z" fill="#FF9900"/>
<path d="M103.485 22.8757L105.455 35.0522C105.794 38.2428 106.924 43.0659 108.284 43.399C108.741 43.4957 109.384 42.9647 110.089 41.9139C114.437 35.3863 111.463 29.6261 109.284 27.4918C107.314 25.5624 107.549 22.2682 107.957 20.197L103.485 22.8757ZM108.114 44.7546C108.065 44.7468 108.009 44.7355 107.959 44.7231C105.174 44.038 104.258 36.6981 104.104 35.2344L101.99 22.1838L107.665 18.7839C108.066 18.5443 108.569 18.5679 108.942 18.8413C109.316 19.1113 109.489 19.5771 109.387 20.0271C109.07 21.4177 108.519 24.8401 110.237 26.5209C112.696 28.9263 116.066 35.3987 111.221 42.6699C110.189 44.2191 109.144 44.92 108.113 44.7558L108.114 44.7546Z" fill="#31283C"/>
<g filter="url(#filter2_d_1_181)">
<path d="M107.795 36.087C107.795 36.087 111.698 41.6796 107.568 46.3756L105.091 46.5748C105.091 46.5748 100.658 64.6622 104.628 72.1022C110.884 83.823 113.672 97.3697 113.672 97.3697C113.672 97.3697 99.8933 113.956 73.5674 98.0493C73.5674 98.0493 69.096 94.3805 69.3109 89.9489C69.5269 85.5173 63.6974 82.5708 62.7781 87.6831L63.3362 90.6768C63.3362 90.6768 58.2729 89.4663 57.9916 83.1716C57.7137 76.8747 76.8068 75.1758 80.6392 69.0432C84.4693 62.9094 80.1126 48.0205 80.1126 48.0205L76.9475 33.1236L84.1441 27.2351L96.0936 26.1753L104.474 28.9666L107.798 36.0859L107.795 36.087Z" fill="url(#paint5_linear_1_181)"/>
</g>
<path d="M65.8277 84.3464C67.942 84.6862 70.1338 87.0274 69.9909 89.9829C69.7929 94.0106 73.9572 97.4859 73.9988 97.5208C97.9606 111.997 111.063 99.223 112.932 97.1765C112.46 95.0389 109.626 82.9142 104.028 72.4208C99.9803 64.8391 104.246 47.1612 104.429 46.4096L104.546 45.9315L107.231 45.7166C110.667 41.5325 107.379 36.6813 107.238 36.4731L107.178 36.3742L103.978 29.5203L96.0106 26.8663L84.4135 27.8935L77.6984 33.386L80.7792 47.8789C80.948 48.4493 85.1629 63.084 81.2158 69.4023C79.3266 72.4276 74.1957 74.3571 69.2337 76.2235C63.978 78.1991 58.5456 80.2422 58.6728 83.1392C58.8472 87.1005 61.0728 88.8669 62.4388 89.5835L62.0854 87.6844L62.1069 87.5618C62.5817 84.9292 64.2616 84.1641 65.6748 84.325C65.7254 84.3306 65.7783 84.3374 65.8301 84.3464H65.8277ZM89.946 105.161C85.0661 104.378 79.4807 102.42 73.2112 98.6312C72.94 98.4163 68.3977 94.635 68.6273 89.9165C68.7342 87.7069 67.0891 85.863 65.5161 85.6807C64.4787 85.5637 63.7552 86.2747 63.4683 87.6856L64.1985 91.5839L63.1769 91.3386C63.1217 91.3251 57.6083 89.9323 57.309 83.2011C57.138 79.3152 62.7796 77.1944 68.7532 74.9488C73.5026 73.1611 78.4129 71.3149 80.0601 68.6823C83.6877 62.8759 79.4987 48.3582 79.4559 48.212L76.1929 32.8584L83.8745 26.5738L96.1716 25.4836L104.964 28.4133L108.389 35.7531C108.797 36.3764 112.281 42.0455 108.078 46.8248L107.897 47.034L105.639 47.2118C104.984 50.1032 101.777 65.3161 105.228 71.7807C111.459 83.4542 114.308 97.0944 114.338 97.2316L114.403 97.5523L114.194 97.8054C114.086 97.9337 105.706 107.691 89.9449 105.161H89.946Z" fill="#31283C"/>
<path d="M105.448 45.761L104.435 45.4877C104.443 45.455 105.295 42.2419 104.841 39.8332L105.871 39.6385C106.371 42.2858 105.486 45.6193 105.448 45.761Z" fill="#36295E"/>
<path d="M63.7904 84.841L62.8385 84.4056C62.9049 84.256 64.5926 80.7165 73.6932 78.7454C82.1883 76.9071 83.8176 72.2977 83.8311 72.2505L84.8291 72.5756C84.7605 72.7872 83.0502 77.7914 73.9137 79.7704C65.423 81.6098 63.8062 84.8084 63.7893 84.8399L63.7904 84.841Z" fill="#36295E"/>
<path d="M76.687 98.244C76.193 97.5082 76.1042 96.0603 76.4507 94.3682C76.7601 92.8539 78.2105 87.628 83.8779 83.9547C90.4152 79.7144 90.2408 74.8834 90.2386 74.835L91.2861 74.781C91.2984 75.0038 91.4898 80.269 84.4462 84.8356C79.1242 88.2862 77.7671 93.1666 77.478 94.5786C77.1551 96.1458 77.2845 97.2551 77.5557 97.6578L76.6859 98.244H76.687Z" fill="#36295E"/>
<path d="M59.3168 84.8944C58.9702 83.6433 59.121 82.4912 59.7612 81.4708C61.3826 78.8899 65.6087 78.099 65.7899 78.0664L65.9767 79.0969C65.9362 79.1059 62.0206 79.8406 60.6502 82.03C60.1641 82.8006 60.0582 83.6455 60.3294 84.6131L59.3168 84.8932V84.8944Z" fill="#36295E"/>
<path d="M92.4009 61.8498C92.1759 61.8138 86.856 60.9284 83.1092 57.5948L83.8057 56.8129C87.3264 59.945 92.5146 60.8057 92.5675 60.8136L92.4009 61.8498Z" fill="#36295E"/>
<path d="M96.0238 103.23L96.1262 102.185C102.827 102.833 109.606 97.8905 110.96 96.843L109.529 89.7732L110.557 89.5651L112.114 97.2559L111.872 97.4551C111.551 97.7217 103.905 103.989 96.0238 103.229V103.23Z" fill="#36295E"/>
<path d="M107.84 58.7424L106.783 57.8806C107.731 56.7151 108.618 55.8972 108.653 55.8623L109.576 56.8658C109.568 56.8737 108.725 57.6556 107.84 58.7413V58.7424Z" fill="#31283C"/>
<path d="M80.8984 115.265L79.6101 114.812C79.6371 114.744 80.2154 113.108 80.8612 112.151L81.9919 112.915C81.4406 113.729 80.9029 115.251 80.8984 115.266V115.265Z" fill="#31283C"/>
<path d="M94.3443 43.9232C94.243 44.551 94.6706 45.1417 95.2985 45.243C95.9263 45.3442 96.5148 44.9156 96.6161 44.2878C96.7173 43.66 96.292 43.0704 95.6642 42.9692C95.0363 42.8679 94.4455 43.2955 94.3443 43.9232Z" fill="#FEFEFE"/>
<path d="M91.2352 41.9732C91.134 42.6009 91.5615 43.1916 92.1894 43.2929C92.815 43.393 93.4057 42.9655 93.507 42.3377C93.6082 41.7099 93.1807 41.1204 92.555 41.0191C91.9283 40.9179 91.3376 41.3454 91.2363 41.9732H91.2352Z" fill="#FEFEFE"/>
<path d="M95.3297 28.0364C98.2485 30.8885 101.067 31.1157 101.067 31.1157C107.909 24.9696 106.165 16.1829 106.165 16.1829C106.165 16.1829 98.5601 11.7851 93.8793 15.599L88.8385 17.9897C88.8385 17.9897 91.9587 27.3974 87.6087 29.7747C83.2565 32.1542 96.7823 41.8656 98.0403 42.067C99.2971 42.2695 101.228 36.4271 99.4231 30.9774L95.3297 28.0353V28.0364Z" fill="#FEFEFE"/>
<path d="M89.6579 18.3518C90.2857 20.5299 92.1097 28.0891 87.9308 30.3719C87.5291 30.5924 87.3873 30.8545 87.4345 31.2786C87.7845 34.3309 96.6082 40.7842 98.0811 41.3681C98.8012 40.8146 100.415 36.1445 98.7742 31.1909L98.7968 31.183C97.6873 30.724 96.2785 29.9196 94.8507 28.5268L95.8037 27.5502C97.9787 29.6743 100.1 30.2481 100.842 30.3932C106.366 25.2225 105.756 18.1684 105.544 16.6226C104.174 15.9104 98.0856 13.0483 94.3072 16.1276L94.1689 16.2142L89.6591 18.3518H89.6579ZM97.9292 42.7407C96.7377 42.5494 86.7989 35.6349 86.1057 31.6016C85.9235 30.5496 86.3398 29.689 87.2782 29.1759C90.4343 27.4535 89.0031 20.6705 88.1862 18.2033L87.9971 17.6318L93.5106 15.0183C98.4996 11.0446 106.177 15.4053 106.504 15.5921L106.77 15.7484L106.831 16.0488C106.905 16.4235 108.568 25.29 101.519 31.6229L101.299 31.8187L101.008 31.7951C100.974 31.7894 100.732 31.7692 100.337 31.6792C101.467 36.05 100.505 40.6256 99.2052 42.1534C98.7146 42.7294 98.2386 42.7891 97.928 42.7396L97.9292 42.7407Z" fill="#31283C"/>
<path d="M78.1582 45.7827C78.1582 45.7827 72.476 51.6701 68.3511 54.4276C68.2825 54.4738 68.2747 54.5672 68.3298 54.6279C68.9554 55.2782 72.0901 58.7344 73.3818 63.8038C74.4001 67.7978 79.7966 75.6506 79.7966 75.6506C79.7966 75.6506 82.839 76.4956 83.5501 77.3056C84.2083 78.0549 83.0528 79.1676 81.1378 78.8796C80.9836 78.8571 80.879 79.0247 80.9791 79.1417L83.8945 82.5664C84.358 83.112 84.4053 83.8995 84.0115 84.4969C83.6435 85.0538 82.9774 85.3182 82.3237 85.1832C80.4188 84.7895 76.6842 83.5058 75.9169 79.4567L74.8851 77.093C74.8851 77.093 67.028 65.6568 61.7385 57.49C61.0971 56.4977 60.6223 55.4109 60.3354 54.2645C60.1678 53.594 60.3309 52.8874 60.7832 52.362C62.4665 50.3988 66.8445 45.3518 70.8873 41.1408C76.0271 35.7889 78.3169 42.2546 78.3169 42.2546L78.1582 45.7839V45.7827Z" fill="#FEFEFE"/>
<path d="M76.1981 40.2946C75.8876 40.0369 75.5298 39.8333 75.1236 39.7456C74.0479 39.516 72.7899 40.145 71.379 41.612C67.3542 45.804 62.9896 50.8352 61.303 52.8029C60.998 53.1596 60.8844 53.6422 60.998 54.0967C61.267 55.1711 61.7091 56.1882 62.3122 57.1175C67.5353 65.1841 75.3689 76.5921 75.4477 76.7046L75.5095 76.8194L76.5875 79.3294C77.2682 82.9239 80.5604 84.1221 82.4631 84.5181C82.8457 84.5969 83.2316 84.4405 83.4432 84.121C83.6693 83.7767 83.6423 83.3222 83.3768 83.0072L80.4614 79.5825C80.2319 79.3136 80.1937 78.9412 80.3658 78.6307C80.5369 78.3236 80.889 78.1514 81.2424 78.2032C82.3957 78.3787 83.0247 77.9219 83.0551 77.7599C82.6759 77.3425 80.9835 76.6889 79.613 76.3075L79.3746 76.2411L79.235 76.0364C79.0111 75.7123 73.7576 68.0361 72.7213 63.9724C71.4701 59.0638 68.4355 55.719 67.8391 55.098C67.6704 54.9247 67.5905 54.6874 67.6164 54.4477C67.6412 54.2103 67.7705 53.9966 67.9719 53.8627C71.5826 51.4472 76.4952 46.5071 77.4876 45.4946L77.6271 42.3681C77.4854 42.0215 77.0049 40.9696 76.1959 40.2946H76.1981ZM77.7194 83.7902C76.5988 82.8564 75.6378 81.5311 75.2632 79.6579L74.2876 77.4258C73.698 76.5629 66.2188 65.6577 61.169 57.8589C60.4838 56.8036 59.9831 55.6493 59.676 54.432C59.4532 53.5477 59.6748 52.6083 60.2678 51.9175C61.9646 49.9419 66.3482 44.8882 70.3955 40.6703C72.1576 38.8365 73.8465 38.0782 75.415 38.4169C77.8432 38.9434 78.9166 41.9023 78.9628 42.0283L78.9999 42.2871L78.8299 46.074L78.651 46.2596C78.4282 46.4925 73.3266 51.7611 69.2613 54.6334C70.3753 55.9092 72.9059 59.1696 74.0457 63.6383C74.9368 67.1214 79.3836 73.82 80.2241 75.0665C81.0826 75.3163 83.3431 76.0352 84.0654 76.8576C84.4671 77.3155 84.5335 77.9084 84.2432 78.4406C83.9023 79.0639 83.1596 79.47 82.2471 79.5791L84.4165 82.1262C85.0725 82.8992 85.1422 84.0298 84.5819 84.8736C84.0598 85.6623 83.1215 86.0459 82.1875 85.8535C81.1479 85.6387 79.2801 85.093 77.7205 83.7936L77.7194 83.7902Z" fill="#31283C"/>
<path d="M82.7099 41.2726C82.7099 41.2726 81.9133 43.1694 76.9467 47.3209C76.6227 47.592 76.1523 47.6067 75.8181 47.3502C74.1967 46.1103 69.786 42.4775 70.8437 40.4119C72.1298 37.8952 79.8103 32.829 82.1799 34.421C85.956 36.9546 82.7088 41.2737 82.7088 41.2737L82.7099 41.2726Z" fill="url(#paint6_linear_1_181)"/>
<path d="M82.145 35.2389C82.0381 35.1523 81.9245 35.0679 81.8018 34.9846C81.4395 34.7416 80.7441 34.736 79.8485 34.9689C76.8116 35.7542 72.3232 39.0191 71.4512 40.7235C70.9179 41.7653 72.8497 44.2146 76.2309 46.8078C76.3119 46.8685 76.429 46.8652 76.5122 46.7965C81.2031 42.8735 82.0763 41.0172 82.0853 41.0003L82.163 40.863C82.1776 40.845 83.593 38.9201 83.2825 37.0896C83.1576 36.3662 82.7829 35.7576 82.1438 35.2389H82.145ZM74.5668 47.2308C71.8258 45.0066 69.1806 42.1703 70.236 40.1025C71.3522 37.9188 76.2917 34.4818 79.5064 33.6503C80.8229 33.3095 81.8502 33.3769 82.5624 33.854C83.7247 34.6336 84.4201 35.6507 84.6271 36.8702C85.0029 39.0922 83.5818 41.223 83.2994 41.6202C83.0777 42.0736 81.9413 44.0379 77.3855 47.844C76.8195 48.3176 75.9868 48.339 75.404 47.8923C75.126 47.6797 74.8469 47.4592 74.5668 47.2319V47.2308Z" fill="#31283C"/>
<path d="M79.5927 45.5758L78.7984 44.8929C78.84 44.8457 82.9493 40.0282 83.0427 35.8441C83.046 35.8025 83.1361 34.3399 82.1077 33.7031L82.6555 32.8098C84.2376 33.7852 84.0958 35.8126 84.0902 35.897C83.9889 40.4298 79.7728 45.3699 79.5938 45.5758H79.5927Z" fill="#36295E"/>
<g filter="url(#filter3_d_1_181)">
<path d="M103.18 28.8685C103.18 28.8685 102.312 32.1346 104.081 34.1056C105.135 35.2802 105.503 37.1208 105.63 38.4179C105.676 38.9028 106.313 39.0559 106.572 38.6418C107.916 36.4772 109.239 33.1156 107.413 29.1813C105.173 24.3582 108.222 20.6781 108.222 20.6781C112.417 12.4709 104.867 9.42309 104.867 9.42309C104.867 9.42309 100.399 3.24767 93.1495 8.23503C85.8955 13.2246 81.3025 15.2655 76.84 12.7634C72.3787 10.2612 66.2645 13.2438 66.9992 18.4258C67.545 22.2757 71.8972 21.5635 72.3743 19.5778C72.4429 19.2831 72.1469 19.0389 71.8487 19.0907C71.366 19.1762 70.6459 19.0704 70.0417 18.0219C69.0324 16.2735 74.0743 14.9865 75.2884 18.5416C76.507 22.0946 73.1607 25.1705 69.101 25.1153C66.7022 25.0805 65.4881 23.7135 64.8951 22.6008C64.6904 22.2195 64.1188 22.3376 64.0772 22.7685C63.8837 24.7609 64.2122 28.0281 68.1886 28.936C74.0283 30.2714 78.0125 25.2425 78.0125 25.2425C78.0125 25.2425 79.1624 28.2677 76.3911 30.7001C73.2034 33.497 75.9321 38.8129 79.8949 36.3726C79.8949 36.3726 76.6982 34.136 80.5914 31.4235C83.8319 29.1655 84.5498 33.3496 84.5498 33.3496C84.5498 33.3496 88.5824 33.4025 89.3385 28.4624C89.3385 28.4624 93.0797 27.4138 92.5317 23.7405C92.0344 20.4115 94.6335 20.668 94.6335 20.668C94.7416 21.4915 95.5258 22.0372 96.3438 21.8752C97.6727 21.6119 99.5438 20.8266 100.619 18.563L105.681 18.8983C106.154 20.2641 106.91 22.3218 105.624 24.7756C104.338 27.2282 103.179 28.864 103.179 28.864L103.18 28.8685Z" fill="#FFAE00"/>
</g>
<path d="M103.813 29.1522C103.695 29.6956 103.256 32.1674 104.588 33.6513C105.626 34.8078 106.066 36.492 106.25 37.8511C107.875 35.0058 108.057 32.1887 106.796 29.4706C106.165 28.1138 105.921 26.8447 105.903 25.7062C104.919 27.5164 104.072 28.7787 103.813 29.1522ZM78.2244 23.887L78.6509 25.0019C78.7049 25.1448 79.9347 28.5019 76.8416 31.2167C75.3732 32.5049 75.4272 34.3499 76.2272 35.4322C76.8303 36.249 77.7315 36.5055 78.7273 36.1793C78.3493 35.7079 77.979 35.0328 77.979 34.2048C77.9813 33.019 78.7284 31.8951 80.2024 30.8679C81.3219 30.0871 82.3471 29.8857 83.236 30.2559C84.3206 30.7093 84.8415 31.8782 85.0688 32.6185C86.0533 32.4396 88.1597 31.669 88.6649 28.3635L88.7324 27.9293L89.1555 27.8089C89.2815 27.7729 92.3082 26.865 91.8593 23.8431C91.6579 22.4975 91.8863 21.4647 92.5389 20.7796C93.3862 19.8908 94.5698 19.9785 94.7026 19.9909L95.2393 20.0449L95.3091 20.5793C95.3361 20.7852 95.4419 20.963 95.6084 21.0833C95.7839 21.2082 95.9977 21.251 96.2092 21.2093C97.4177 20.9697 99.057 20.2632 100.003 18.2718L100.204 17.8544L106.175 18.2504L106.325 18.6768C106.57 19.3811 106.885 20.2879 106.984 21.3421C107.271 20.8066 107.533 20.4488 107.644 20.3082C108.854 17.9163 109.123 15.7776 108.444 13.9494C107.438 11.2369 104.64 10.0634 104.612 10.0533L104.433 9.98131L104.317 9.82381C104.146 9.59317 100.136 4.25816 93.5357 8.79662C86.2041 13.8369 81.322 16.0543 76.5062 13.3565C74.4246 12.1875 71.7197 12.2978 69.7787 13.6254C68.1731 14.7234 67.4057 16.438 67.6735 18.3292C67.9425 20.2204 69.2015 20.4825 69.7371 20.5062C70.4628 20.5422 71.1797 20.2373 71.5251 19.7929C70.922 19.7771 70.1084 19.5004 69.4513 18.3618C69.1396 17.8207 69.1543 17.2233 69.4929 16.7193C70.033 15.9103 71.3416 15.4637 72.6761 15.6369C74.2682 15.8473 75.4238 16.8205 75.9369 18.3213C76.4894 19.9414 76.2418 21.5952 75.2382 22.979C73.9521 24.751 71.597 25.8299 69.0912 25.795C67.2493 25.7714 65.7202 24.9951 64.7165 23.6001C64.7064 25.498 65.4176 27.603 68.343 28.2747C73.6651 29.4751 77.4435 24.8646 77.4806 24.8174L78.2255 23.8847L78.2244 23.887ZM77.3883 37.643C76.4038 37.4855 75.6219 36.9083 75.1302 36.2412C73.9701 34.6706 73.8621 32.0166 75.9414 30.1918C77.3029 28.9992 77.5819 27.6458 77.5695 26.7007C75.9751 28.1858 72.5591 30.6429 68.037 29.6022C64.738 28.8473 63.0445 26.3328 63.399 22.7034C63.4462 22.2061 63.8086 21.8067 64.2958 21.7122C64.7796 21.6143 65.2634 21.8461 65.4952 22.2838C66.2434 23.6867 67.4553 24.4101 69.1105 24.4337C71.1785 24.4641 73.1059 23.6001 74.1332 22.1814C74.6553 21.4625 75.1661 20.2868 74.644 18.7635C74.1805 17.4033 73.0981 17.0781 72.4961 16.9904C71.5678 16.8689 70.8117 17.1974 70.6226 17.4809C70.5866 17.5327 70.5675 17.572 70.6305 17.6834C71.12 18.5306 71.5801 18.4484 71.7298 18.4203C72.1112 18.3551 72.5107 18.4867 72.774 18.7657C73.0204 19.0279 73.1183 19.3901 73.0373 19.7366C72.7245 21.0316 71.2786 21.9485 69.6718 21.8731C68.2879 21.8045 66.6609 20.8932 66.3256 18.5249C65.9813 16.1027 66.9602 13.9055 69.008 12.5037C71.4035 10.8634 74.6092 10.7317 77.1757 12.1707C81.3692 14.5254 85.8891 12.4047 92.7628 7.6772C99.7963 2.83835 104.487 7.89097 105.297 8.86977C106.005 9.19491 108.638 10.5765 109.718 13.4633C110.546 15.6819 110.247 18.2156 108.827 20.9911L108.746 21.1148C108.635 21.2509 106.01 24.5406 108.034 28.8968C109.565 32.1977 109.268 35.5976 107.152 39.0009C106.878 39.4408 106.365 39.6467 105.87 39.5331C105.365 39.4138 105.003 39.0032 104.952 38.4845C104.834 37.2616 104.5 35.5909 103.576 34.5614C101.585 32.3406 102.486 28.8417 102.524 28.6943L102.625 28.4749C102.636 28.4592 103.775 26.8436 105.024 24.463C106.051 22.4998 105.618 20.8302 105.186 19.5521L101.025 19.2754C99.8143 21.4613 97.9071 22.2612 96.4792 22.547C95.8975 22.664 95.2944 22.5301 94.8185 22.1904C94.5248 21.9789 94.2953 21.7044 94.1457 21.3871C93.9432 21.4332 93.7057 21.5311 93.5223 21.7257C93.0959 22.1814 93.1172 23.0218 93.2095 23.6439C93.6697 26.7232 91.4677 28.3928 89.9442 28.9823C88.945 34.0304 84.5895 34.0327 84.5445 34.0349L83.9807 34.0248L83.8817 33.4679C83.803 33.028 83.4418 31.8152 82.7116 31.5114C82.2683 31.3292 81.6944 31.4912 80.9833 31.9851C80.2384 32.506 79.3507 33.3104 79.3451 34.1992C79.3383 35.1285 80.2811 35.8125 80.2913 35.8215L81.1262 36.4178L80.2564 36.9578C79.1909 37.6126 78.2188 37.7769 77.3906 37.6441L77.3883 37.643Z" fill="#31283C"/>
<path d="M87.8788 27.3748C87.7258 27.2387 84.1196 23.9794 85.9514 18.5285C87.8102 12.9989 92.5752 13.3646 92.6247 13.3691L92.5043 14.727C92.3524 14.7135 88.7519 14.4795 87.2441 18.9628C85.697 23.5654 88.7497 26.3229 88.7789 26.351L87.8788 27.3737V27.3748Z" fill="#31283C"/>
<path d="M81.2272 29.1885L80.4846 28.0444C83.6239 26.0012 82.5797 20.6291 82.5695 20.5762L83.9064 20.304C83.9592 20.5616 85.1462 26.6358 81.2283 29.1885H81.2272Z" fill="#31283C"/>
<path d="M103.124 14.1538L101.796 13.8422L102.46 13.9974L101.795 13.8467C101.799 13.822 102.311 11.4773 100.812 9.80551C99.1823 7.98856 96.5887 7.15716 95.5231 7.67693L94.9212 6.45289C96.6675 5.6001 99.8923 6.73865 101.827 8.89424C103.81 11.1038 103.152 14.0312 103.124 14.1516V14.1538Z" fill="#31283C"/>
<path d="M96.1343 17.0838C96.1298 17.0231 96.0003 15.6078 94.2192 14.9946L94.6636 13.7053C97.3348 14.6234 97.489 16.9061 97.4946 17.0028L96.1331 17.0838H96.1343Z" fill="#31283C"/>
<path d="M105.519 18.6755L104.21 18.2941C104.217 18.2761 104.788 15.855 104.34 14.0741L105.665 13.7433C106.203 15.8921 105.548 18.5889 105.521 18.6766L105.519 18.6755Z" fill="#31283C"/>
<path d="M101.772 26.9719C101.464 26.9224 101.032 26.7762 100.506 26.397L101.117 25.5454C101.401 25.749 101.624 25.8514 101.782 25.8975L102.387 24.1379L103.379 24.4766L102.547 26.9033L102.267 26.9697C102.21 26.9843 102.039 27.0147 101.773 26.9719H101.772Z" fill="#31283C"/>
<path d="M100.879 28.7819C99.7137 28.5951 99.1635 27.6489 99.1376 27.6039L100.049 27.083C100.066 27.1134 100.491 27.8188 101.401 27.7626L101.469 28.8089C101.258 28.8224 101.062 28.8122 100.879 28.783V28.7819Z" fill="#31283C"/>
<path d="M101.768 22.9849C101.603 23.6014 101.148 24.0143 100.752 23.9074C100.356 23.8006 100.168 23.2167 100.334 22.6024C100.498 21.9848 100.954 21.573 101.35 21.6776C101.746 21.7834 101.935 22.3695 101.768 22.9849Z" fill="#31283C"/>
<path d="M105.473 24.086C105.308 24.7036 104.852 25.1154 104.456 25.0085C104.06 24.9016 103.871 24.3177 104.037 23.7012C104.203 23.0858 104.659 22.6718 105.055 22.7787C105.451 22.8844 105.639 23.4706 105.473 24.086Z" fill="#31283C"/>
<g filter="url(#filter4_d_1_181)">
<circle cx="132.268" cy="58.2696" r="7.34752" fill="url(#paint7_linear_1_181)"/>
<circle cx="132.268" cy="58.2696" r="6.84752" stroke="#31283C"/>
</g>
<path d="M133.087 52.467C132.911 52.8089 132.4 53.0891 131.468 53.0769C130.569 53.0652 129.43 52.7734 128.281 52.1804C127.132 51.5875 126.234 50.8285 125.704 50.1027C125.154 49.3499 125.086 48.7714 125.263 48.4296C125.439 48.0877 125.95 47.8075 126.882 47.8197C127.781 47.8314 128.92 48.1232 130.069 48.7161C131.218 49.309 132.116 50.0681 132.646 50.7939C133.196 51.5467 133.264 52.1251 133.087 52.467Z" fill="#97DE8C" stroke="#31283C"/>
<defs>
<filter id="filter0_d_1_181" x="69.1972" y="135.891" width="34.7514" height="36.8936" filterUnits="userSpaceOnUse" color-interpolation-filters="sRGB">
<feFlood flood-opacity="0" result="BackgroundImageFix"/>
<feColorMatrix in="SourceAlpha" type="matrix" values="0 0 0 0 0 0 0 0 0 0 0 0 0 0 0 0 0 0 127 0" result="hardAlpha"/>
<feOffset dx="-3" dy="4"/>
<feGaussianBlur stdDeviation="4.5"/>
<feColorMatrix type="matrix" values="0 0 0 0 0.988235 0 0 0 0 0.552941 0 0 0 0 0.101961 0 0 0 0.8 0"/>
<feBlend mode="normal" in2="BackgroundImageFix" result="effect1_dropShadow_1_181"/>
<feBlend mode="normal" in="SourceGraphic" in2="effect1_dropShadow_1_181" result="shape"/>
</filter>
<filter id="filter1_d_1_181" x="49.7712" y="134.235" width="28.3084" height="40.1185" filterUnits="userSpaceOnUse" color-interpolation-filters="sRGB">
<feFlood flood-opacity="0" result="BackgroundImageFix"/>
<feColorMatrix in="SourceAlpha" type="matrix" values="0 0 0 0 0 0 0 0 0 0 0 0 0 0 0 0 0 0 127 0" result="hardAlpha"/>
<feOffset dx="-3" dy="4"/>
<feGaussianBlur stdDeviation="4.5"/>
<feColorMatrix type="matrix" values="0 0 0 0 0.988235 0 0 0 0 0.552941 0 0 0 0 0.101961 0 0 0 0.8 0"/>
<feBlend mode="normal" in2="BackgroundImageFix" result="effect1_dropShadow_1_181"/>
<feBlend mode="normal" in="SourceGraphic" in2="effect1_dropShadow_1_181" result="shape"/>
</filter>
<filter id="filter2_d_1_181" x="41.9886" y="18.1753" width="71.6837" height="94.7719" filterUnits="userSpaceOnUse" color-interpolation-filters="sRGB">
<feFlood flood-opacity="0" result="BackgroundImageFix"/>
<feColorMatrix in="SourceAlpha" type="matrix" values="0 0 0 0 0 0 0 0 0 0 0 0 0 0 0 0 0 0 127 0" result="hardAlpha"/>
<feOffset dx="-8"/>
<feGaussianBlur stdDeviation="4"/>
<feColorMatrix type="matrix" values="0 0 0 0 1 0 0 0 0 0.431373 0 0 0 0 0.478431 0 0 0 0.6 0"/>
<feBlend mode="normal" in2="BackgroundImageFix" result="effect1_dropShadow_1_181"/>
<feBlend mode="normal" in="SourceGraphic" in2="effect1_dropShadow_1_181" result="shape"/>
</filter>
<filter id="filter3_d_1_181" x="54.035" y="0.289429" width="57.4561" height="44.5922" filterUnits="userSpaceOnUse" color-interpolation-filters="sRGB">
<feFlood flood-opacity="0" result="BackgroundImageFix"/>
<feColorMatrix in="SourceAlpha" type="matrix" values="0 0 0 0 0 0 0 0 0 0 0 0 0 0 0 0 0 0 127 0" result="hardAlpha"/>
<feOffset dx="-4"/>
<feGaussianBlur stdDeviation="3"/>
<feColorMatrix type="matrix" values="0 0 0 0 1 0 0 0 0 0.6 0 0 0 0 0 0 0 0 0.6 0"/>
<feBlend mode="normal" in2="BackgroundImageFix" result="effect1_dropShadow_1_181"/>
<feBlend mode="normal" in="SourceGraphic" in2="effect1_dropShadow_1_181" result="shape"/>
</filter>
<filter id="filter4_d_1_181" x="108.92" y="41.9221" width="40.695" height="40.6951" filterUnits="userSpaceOnUse" color-interpolation-filters="sRGB">
<feFlood flood-opacity="0" result="BackgroundImageFix"/>
<feColorMatrix in="SourceAlpha" type="matrix" values="0 0 0 0 0 0 0 0 0 0 0 0 0 0 0 0 0 0 127 0" result="hardAlpha"/>
<feMorphology radius="4" operator="dilate" in="SourceAlpha" result="effect1_dropShadow_1_181"/>
<feOffset dx="-3" dy="4"/>
<feGaussianBlur stdDeviation="4.5"/>
<feColorMatrix type="matrix" values="0 0 0 0 1 0 0 0 0 0.431373 0 0 0 0 0.478431 0 0 0 1 0"/>
<feBlend mode="overlay" in2="BackgroundImageFix" result="effect1_dropShadow_1_181"/>
<feBlend mode="normal" in="SourceGraphic" in2="effect1_dropShadow_1_181" result="shape"/>
</filter>
<radialGradient id="paint0_radial_1_181" cx="0" cy="0" r="1" gradientUnits="userSpaceOnUse" gradientTransform="translate(85 88.6124) rotate(90) scale(85)">
<stop stop-color="#7795FF"/>
<stop offset="1" stop-color="#331E87"/>
</radialGradient>
<linearGradient id="paint1_linear_1_181" x1="81.1972" y1="150.338" x2="97.9486" y2="150.338" gradientUnits="userSpaceOnUse">
<stop stop-color="#A445B2"/>
<stop offset="0.52" stop-color="#D41872"/>
<stop offset="1" stop-color="#FF0066"/>
</linearGradient>
<linearGradient id="paint2_linear_1_181" x1="56.9598" y1="88.5113" x2="69.3098" y2="88.5113" gradientUnits="userSpaceOnUse">
<stop stop-color="#A445B2"/>
<stop offset="0.52" stop-color="#D41872"/>
<stop offset="1" stop-color="#FF0066"/>
</linearGradient>
<linearGradient id="paint3_linear_1_181" x1="61.7238" y1="154.269" x2="72.2343" y2="147.34" gradientUnits="userSpaceOnUse">
<stop stop-color="#A445B2"/>
<stop offset="0.52" stop-color="#D41872"/>
<stop offset="1" stop-color="#FF0066"/>
</linearGradient>
<linearGradient id="paint4_linear_1_181" x1="59.5052" y1="96.3617" x2="110.73" y2="96.3617" gradientUnits="userSpaceOnUse">
<stop stop-color="#A445B2"/>
<stop offset="0.52" stop-color="#D41872"/>
<stop offset="1" stop-color="#FF0066"/>
</linearGradient>
<linearGradient id="paint5_linear_1_181" x1="57.9886" y1="65.5612" x2="113.672" y2="65.5612" gradientUnits="userSpaceOnUse">
<stop stop-color="#A445B2"/>
<stop offset="0.52" stop-color="#D41872"/>
<stop offset="1" stop-color="#FF0066"/>
</linearGradient>
<linearGradient id="paint6_linear_1_181" x1="70.6818" y1="40.8256" x2="84.0072" y2="40.8256" gradientUnits="userSpaceOnUse">
<stop stop-color="#A445B2"/>
<stop offset="0.52" stop-color="#D41872"/>
<stop offset="1" stop-color="#FF0066"/>
</linearGradient>
<linearGradient id="paint7_linear_1_181" x1="124.92" y1="58.2696" x2="139.615" y2="58.2696" gradientUnits="userSpaceOnUse">
<stop stop-color="#A445B2"/>
<stop offset="0.52" stop-color="#D41872"/>
<stop offset="1" stop-color="#FF0066"/>
</linearGradient>
</defs>
</svg>
