<svg width="170" height="185" viewBox="0 0 170 185" fill="none" xmlns="http://www.w3.org/2000/svg">
<circle cx="85" cy="99.6124" r="85" fill="url(#paint0_radial_1_240)"/>
<g filter="url(#filter0_d_1_240)">
<path d="M89.17 1.26092L89.3471 64.0573C89.3471 68.1138 90.8935 70.9204 93.4318 72.2317L130.811 93.5997C128.758 92.138 127.357 88.9657 127.357 85.3617V23.3072L89.1689 1.25977L89.17 1.26092Z" fill="#E9F1FA"/>
</g>
<path fill-rule="evenodd" clip-rule="evenodd" d="M93.1377 46.5105L122.737 63.5975V60.3616L93.1377 43.2745V46.5105Z" fill="url(#paint1_linear_1_240)"/>
<path fill-rule="evenodd" clip-rule="evenodd" d="M93.1377 38.9521L122.737 56.0392V52.8032L93.1377 35.7162V38.9521Z" fill="url(#paint2_linear_1_240)"/>
<path fill-rule="evenodd" clip-rule="evenodd" d="M93.1377 31.3937L122.737 48.4807V45.2448L93.1377 28.1577V31.3937Z" fill="url(#paint3_linear_1_240)"/>
<path fill-rule="evenodd" clip-rule="evenodd" d="M93.1377 23.8352L122.737 40.9222V37.6863L93.1377 20.5992V23.8352Z" fill="url(#paint4_linear_1_240)"/>
<path fill-rule="evenodd" clip-rule="evenodd" d="M93.1377 16.2768L122.737 33.3639V30.1279L93.1377 13.0409V16.2768Z" fill="url(#paint5_linear_1_240)"/>
<path d="M135.606 95.5418C137.303 95.5418 139.145 95.1529 141.058 94.3833C141.698 94.1275 142.346 93.8266 143 93.484L142.999 91.6241C140.384 93.1345 137.863 93.8914 135.682 93.8914C134.31 93.8914 133.07 93.5905 132.03 92.9863C129.842 91.7248 128.636 89.137 128.636 85.6881V22.6753L127.655 23.2366L126.961 23.6359V85.6881C126.961 85.7136 126.961 85.7402 126.961 85.7657C126.975 88.5907 127.716 90.9471 129.092 92.6438C129.68 93.3671 130.381 93.9701 131.191 94.4365C132.468 95.1795 133.969 95.5418 135.605 95.5418H135.606Z" fill="#BAD3EF"/>
<path d="M127.356 23.0046L129.03 22.0416L90.8416 0L89.169 0.961754L127.356 23.0046Z" fill="#CADEF4"/>
<path d="M66.378 171.011C66.9128 171.56 68.7243 172.779 70.4177 172.72C70.6619 172.72 70.9165 172.686 71.1526 172.618C73.0243 172.083 82.8432 167.335 83.5805 165.727C84.3178 164.128 85.4511 159.921 85.054 159.379C84.657 158.845 83.6488 158.312 82.9115 158.516C82.1846 158.71 76.1633 161.122 73.691 160.987C73.2361 160.961 72.7257 161.098 72.184 161.343C69.8146 162.391 67.0042 165.465 67.0042 165.465C67.0042 165.465 65.7692 170.373 66.3769 171.009L66.378 171.011Z" fill="#2D2829"/>
<path d="M70.4166 172.72C70.6608 172.72 70.9154 172.686 71.1515 172.618C73.0232 172.083 82.8421 167.335 83.5794 165.727C84.2091 164.358 85.1316 161.08 85.1362 159.825C85.1362 159.61 85.1108 159.458 85.0529 159.379C84.7149 158.925 83.9348 158.469 83.2553 158.469C83.135 158.469 83.0203 158.486 82.9104 158.515C82.4115 158.648 79.4195 159.827 76.792 160.507L76.6206 165.778C76.6206 166.54 76.1218 167.293 75.1229 167.868C74.5639 168.198 73.9122 168.427 73.2084 168.572C73.058 168.602 72.904 168.629 72.7512 168.651L72.7106 168.741C72.7106 168.741 72.3206 170.983 70.4177 172.719L70.4166 172.72Z" fill="#2A2726"/>
<path d="M46.7704 160.081L46.8468 160.563C47.1258 161.157 47.9996 162.622 49.8006 162.671C50.9604 162.704 51.9246 162.704 52.9097 162.459C53.8472 162.222 54.8032 161.763 55.9896 160.909C57.1078 160.106 58.7826 157.288 60.5513 156.087C62.3129 154.892 65.5065 152.657 65.5065 152.657C65.5065 152.657 65.4358 150.862 65.2761 150.499C65.1071 150.137 60.3487 150.465 59.3487 150.76C58.5026 151.015 54.7766 152.995 53.6353 153.616C53.4235 153.723 53.2951 153.792 53.2951 153.792L47.3375 155.891L46.7693 160.081H46.7704Z" fill="#2D2829"/>
<path d="M52.908 162.46C53.8456 162.223 54.8017 161.765 55.9881 160.91C57.1062 160.107 58.9154 158.354 60.6829 157.151C62.4446 155.957 64.2421 154.818 64.7584 154.335C65.7804 153.38 65.5674 151.927 65.4076 151.564C65.3567 151.449 64.8509 151.404 64.1518 151.404C62.6228 151.404 60.1666 151.623 59.4813 151.826C59.0218 151.966 57.5785 151.55 56.2949 152.212C56.3065 153.741 56.3134 154.868 56.3134 155.353C56.3134 155.522 56.3134 155.612 56.3099 155.612C56.3099 156.183 56.024 156.753 55.4511 157.251C55.2636 158.325 54.6836 160.421 52.9069 162.46H52.908Z" fill="#2A2726"/>
<path d="M40.8018 106.601C41.0055 107.616 46.7606 111.824 46.7606 111.824L47.2861 110.74L48.9887 107.259L45.0602 97.0945L42.0785 97.5944L41.2417 98.4405C41.2417 98.4405 40.59 105.576 40.8018 106.601Z" fill="white"/>
<path d="M41.3712 106.486C41.4951 107.104 45.1204 109.874 46.5429 110.94L48.3543 107.233L44.6886 97.7447L42.3586 98.1359L41.8019 98.6972C41.6977 99.8754 41.1976 105.652 41.3712 106.485V106.486ZM46.4121 112.288C46.3959 112.275 40.4835 107.977 40.2311 106.714C40.0019 105.581 40.6605 98.4125 40.6617 98.3917L40.6791 98.181L41.7984 97.0515L45.4305 96.4415L49.6206 107.285L46.9757 112.709L46.4121 112.287V112.288Z" fill="#2B2A29"/>
<path d="M45.6847 109.197C45.4277 104.651 45.1394 100.526 45.0804 99.6813C44.8836 99.7484 44.6834 99.8051 44.4751 99.8549C43.967 99.9729 43.4264 100.028 42.8882 100.028C42.6532 100.028 42.4159 100.017 42.1809 99.9972L42.4437 106.077L45.6835 109.198L45.6847 109.197Z" fill="white"/>
<g filter="url(#filter1_d_1_240)">
<path d="M38.5667 97.6778C38.6431 98.2622 39.0562 98.8455 39.8283 99.2946C41.0888 100.024 42.9281 100.208 44.4768 99.8536C45.0092 99.7274 45.5093 99.5492 45.9411 99.2946C46.7883 98.8027 47.2039 98.1697 47.2039 97.5331L47.1854 97.297L47.0164 96.8075C46.9492 96.6107 46.8728 96.3653 46.7802 96.0702C46.4237 94.9939 45.8913 93.2671 45.3415 91.2186C44.2083 86.9862 42.9871 81.3488 43.1318 76.9902C43.2765 72.6282 44.6227 68.8726 45.7999 66.3577C46.7965 64.2664 47.6784 63.0315 47.6784 63.0315V48.0311C47.5928 48.0566 47.0847 48.2348 46.3902 48.6318C45.9075 48.9107 45.3485 49.2834 44.7917 49.7903C43.3437 51.1027 36.291 69.0844 35.6555 73.5101C35.0212 77.9369 38.5689 97.6766 38.5689 97.6766L38.5667 97.6778Z" fill="url(#paint6_linear_1_240)"/>
</g>
<path d="M39.1428 97.6035C39.1683 97.8014 39.2586 98.0063 39.4114 98.203C39.5746 98.4125 39.8108 98.6139 40.1198 98.7933C40.6673 99.1104 41.3514 99.3129 42.0725 99.3997C42.8306 99.49 43.6235 99.4541 44.3446 99.2897C44.5935 99.2307 44.8284 99.1613 45.0425 99.0814C45.2578 99.0004 45.4603 98.9055 45.6455 98.7967C45.9905 98.5965 46.2429 98.3778 46.4038 98.1521C46.5462 97.9507 46.6191 97.7459 46.6214 97.5468L46.611 97.4102C46.4825 97.0376 46.3308 96.6302 46.2289 96.254C46.0368 95.6765 45.7868 94.8849 45.5009 93.9208C45.2682 93.1373 45.0217 92.2728 44.7798 91.3712C44.2103 89.2428 43.6165 86.7592 43.1848 84.2524C42.7507 81.7375 42.4787 79.1994 42.5528 76.975C42.6269 74.7413 43.0077 72.6662 43.5205 70.8295C44.0309 68.9997 44.6756 67.3979 45.2764 66.1156C46.097 64.39 46.839 63.2396 47.0983 62.8542V48.9151L46.6815 49.1385C46.4558 49.2681 46.2104 49.4221 45.9581 49.6014C45.7115 49.7739 45.4523 49.9799 45.1861 50.2229C44.5031 50.8386 42.326 55.858 40.2738 61.1876C38.335 66.2198 36.5362 71.4926 36.2352 73.5955C35.6148 77.9228 39.1371 97.526 39.1463 97.5827L39.1486 97.6058L39.1428 97.6035ZM38.497 98.9159C38.218 98.5583 38.0513 98.1694 37.9946 97.7759C37.9842 97.7192 34.4308 77.9552 35.079 73.43C35.3915 71.2473 37.2203 65.8737 39.1857 60.771C41.2888 55.3072 43.5853 50.1049 44.4001 49.3642C44.6883 49.1003 44.9881 48.863 45.2821 48.6559C45.5657 48.4522 45.8435 48.2786 46.0981 48.1316C46.3759 47.9719 46.6214 47.8481 46.8251 47.7532C47.1908 47.5853 47.4512 47.4951 47.5161 47.4766L48.2591 47.2601V63.2107L48.1608 63.3576C48.1585 63.3611 47.2962 64.5694 46.3227 66.6109C45.7463 67.8389 45.127 69.3758 44.6363 71.1385C44.1455 72.8988 43.7797 74.8836 43.7103 77.0108C43.6397 79.1427 43.9059 81.6055 44.3283 84.0568C44.7531 86.5161 45.3389 88.9674 45.9015 91.0714C46.1526 92.0077 46.3945 92.8572 46.6132 93.5945C46.8795 94.4949 47.1307 95.2842 47.3309 95.8906C47.4015 96.2471 47.6307 96.8165 47.7592 97.188L47.7846 97.5352C47.7846 97.982 47.64 98.4217 47.3494 98.8268C47.0925 99.1833 46.7209 99.5143 46.2359 99.7967C45.9905 99.9413 45.7266 100.065 45.4511 100.168C45.1745 100.271 44.892 100.356 44.6084 100.422C43.7542 100.616 42.8225 100.66 41.9358 100.555C41.0666 100.449 40.2286 100.198 39.5376 99.799C39.0966 99.5432 38.7504 99.2423 38.497 98.9171V98.9159Z" fill="#2B2A29"/>
<path d="M44.4205 99.2956C44.6254 99.247 44.8232 99.1903 45.0165 99.1255C45.0073 99.0248 45.005 98.9704 45.005 98.9704C44.814 97.7714 44.983 96.2101 45.2851 94.6905C44.9703 94.4637 44.8117 94.326 44.8117 94.326C44.8117 94.326 45.0119 92.9268 45.2712 90.7926C44.2144 86.853 43.0835 81.6762 43.0835 77.4936C43.0835 77.2517 43.0882 77.0121 43.0952 76.7783C43.2376 72.4823 44.564 68.7834 45.7227 66.3067C45.5849 65.1597 45.4402 64.014 45.3036 62.8508C45.1902 63.0175 40.8347 69.4975 40.7606 75.768C40.6946 81.1207 43.5281 95.0528 44.4216 99.2968L44.4205 99.2956Z" fill="#EB8825"/>
<path d="M45.0685 99.5236C45.0685 99.5236 46.1935 115.2 46.1078 120.899C46.0338 126.604 45.6936 130.04 45.5246 131.294C45.3556 132.554 46.0674 155.612 46.0674 155.612C46.0674 156.364 46.5663 157.12 47.5652 157.705C49.0896 158.574 51.3328 158.787 53.1952 158.328C53.7785 158.187 54.3283 157.981 54.811 157.705C55.8111 157.12 56.3111 156.364 56.3111 155.612C56.3458 155.612 56.09 133.139 56.3458 129.534C56.524 126.994 58.0635 118.13 58.9525 113.144L66.3765 132.555V165.78C66.3765 166.542 66.8777 167.295 67.8766 167.871C69.3154 168.71 71.4058 168.938 73.208 168.574C73.9118 168.43 74.5635 168.2 75.1225 167.871C76.1214 167.295 76.6202 166.542 76.6202 165.78L77.7117 132.175C77.7117 132.175 77.4837 107.771 73.2253 93.5158L67.8917 92.7369L46.9227 89.6549C46.9227 89.6549 44.5187 96.0631 45.0685 99.5259V99.5236Z" fill="#2D283C"/>
<path d="M53.195 158.329C53.7784 158.187 54.3282 157.981 54.8109 157.705C55.0551 157.562 55.2669 157.409 55.4521 157.251C56.0239 156.752 56.3109 156.182 56.3109 155.612C56.3144 155.612 56.3144 155.522 56.3144 155.353C56.3144 153.755 56.2311 145.136 56.2311 138.193C56.2311 138.182 56.2311 138.171 56.2311 138.16C56.2311 138.148 56.2311 138.138 56.2311 138.126C56.2311 134.164 56.2578 130.758 56.3469 129.535C56.5251 126.996 58.0645 118.132 58.9535 113.146L55.6859 107.297L52.8674 131.297L53.1973 158.331L53.195 158.329Z" fill="#31283C"/>
<path d="M73.2059 168.573C73.9097 168.428 74.5613 168.199 75.1204 167.869C76.1193 167.294 76.6182 166.541 76.6182 165.779L77.7097 132.173C77.7097 132.173 77.5129 110.992 74.0428 96.5688C73.2465 97.4056 71.6921 98.2227 68.9824 98.7539C68.2451 98.8974 67.421 99.0213 66.5043 99.1173C67.774 104.035 72.7083 123.401 73.1655 129.194C73.596 134.629 73.3252 159.583 73.2059 168.573Z" fill="#31283C"/>
<path d="M102.175 43.9629L105.795 50.6917L106.39 49.5378L109.292 43.8645C109.514 43.4363 109.941 43.1469 110.422 43.1307C110.628 43.1238 110.88 43.0995 111.192 43.0474C112.361 42.8564 113.086 38.2062 112.864 37.0998C112.796 36.7561 112.422 36.2827 111.933 35.7862C110.986 34.8245 109.619 33.7863 109.268 33.519L109.184 33.4577C109.184 33.4577 111.559 30.1893 112.003 28.8989C112.133 28.5181 112.117 28.2508 112.011 28.0748C111.774 27.6397 111.086 27.6779 110.834 27.7311C110.52 27.8063 104.9 33.4183 103.442 34.8766C103.221 35.1069 103.076 35.3974 103.045 35.7168C102.915 36.9089 102.626 39.9249 102.817 40.8265C103.061 41.9549 102.297 43.8876 102.175 43.9629Z" fill="#FEFEFE"/>
<path d="M102.81 43.9168L105.784 49.4454L108.775 43.6009C108.932 43.2918 109.168 43.0349 109.448 42.852C109.727 42.6715 110.056 42.5616 110.402 42.5511L110.707 42.5292L111.11 42.4713C111.404 42.381 111.726 41.4054 111.974 40.3221C112.255 39.0884 112.385 37.7667 112.298 37.2401L112.292 37.21C112.275 37.1255 112.2 36.997 112.085 36.8408C111.943 36.6452 111.744 36.4242 111.517 36.1927C110.614 35.2749 109.296 34.2715 108.929 33.9914C108.75 33.8491 108.55 33.7137 108.365 33.5783L108.718 33.1084C108.725 33.0991 111.032 29.9268 111.45 28.7093C111.491 28.5866 111.512 28.4894 111.512 28.4211L111.51 28.3748L111.498 28.3517C111.49 28.3366 111.453 28.3216 111.41 28.3089C111.253 28.2637 111.066 28.2764 110.965 28.2961C110.886 28.3494 109.51 29.6907 107.973 31.1987C106.353 32.7866 104.593 34.5446 103.859 35.2784C103.791 35.349 103.733 35.4311 103.692 35.5179C103.654 35.599 103.629 35.6846 103.62 35.7714V35.7784C103.543 36.4994 103.405 37.8905 103.353 39.0571C103.322 39.7747 103.321 40.4008 103.383 40.704C103.494 41.2109 103.44 41.8266 103.323 42.4018C103.207 42.9643 102.995 43.5245 102.809 43.918L102.81 43.9168ZM105.284 50.9662L101.404 43.7559L101.868 43.4689C101.884 43.4585 102.041 42.881 102.186 42.1692C102.276 41.7329 102.32 41.2815 102.248 40.9494C102.163 40.542 102.16 39.8152 102.195 39.0062C102.249 37.7968 102.389 36.3837 102.466 35.6557C102.49 35.4312 102.551 35.2171 102.642 35.0226C102.737 34.8212 102.867 34.6361 103.022 34.4752L103.031 34.4659C103.761 33.7368 105.533 31.9672 107.159 30.3724C108.845 28.7186 110.418 27.2348 110.696 27.1677L110.715 27.1631C110.922 27.1203 111.35 27.0844 111.734 27.1966C112.041 27.2858 112.327 27.4628 112.506 27.7765C112.615 27.9547 112.677 28.1746 112.673 28.435C112.671 28.6294 112.631 28.8482 112.55 29.0866C112.19 30.1363 110.666 32.3642 109.981 33.3364C110.56 33.7854 111.58 34.6025 112.345 35.3802C112.606 35.6441 112.841 35.9091 113.024 36.1603C113.234 36.4496 113.383 36.7309 113.434 36.9901L113.445 37.0561C113.552 37.7077 113.42 39.2226 113.108 40.5836C112.767 42.0755 112.166 43.4458 111.322 43.6147C111.183 43.6506 110.974 43.6657 110.826 43.6853L110.438 43.712C110.311 43.7154 110.186 43.7582 110.08 43.8265C109.968 43.8994 109.871 44.0059 109.807 44.1321C108.475 46.7349 107.146 49.3401 105.805 51.9395L105.283 50.9685L105.284 50.9662Z" fill="#2B2A29"/>
<g filter="url(#filter2_d_1_240)">
<path d="M44.8731 94.8076C44.8731 94.8076 45.5004 95.3596 46.7783 96.0714C49.1395 97.3896 53.7382 99.2865 60.7722 99.3536C64.2678 99.3872 66.9509 99.1499 68.9834 98.7541C73.2591 97.915 74.6549 96.3665 74.7406 95.1478C74.8517 93.3621 71.965 83.0837 72.7521 78.5469C73.0565 76.7889 74.1908 74.1628 75.1642 71.2093C75.442 70.3552 75.706 69.4733 75.9247 68.5752C76.647 65.7073 76.9664 62.6866 76.0867 59.9078C75.7395 58.8072 75.2047 57.7401 74.4269 56.7413C74.4269 56.7413 70.7276 53.2126 63.0918 50.6479C61.1773 49.9963 59.0186 49.4118 56.6053 48.9628C53.9396 48.4536 50.958 48.1156 47.6742 48.0311C47.6314 48.0902 47.4798 48.317 47.2587 48.692C46.4126 50.1803 44.5572 54.0748 44.9901 59.1868C45.2031 61.6762 45.5156 64.0222 45.7957 66.3589C46.276 70.2186 46.6846 74.061 46.4716 78.5469C46.2679 82.8996 45.7274 87.9283 45.3373 91.2198C45.0746 93.3863 44.8708 94.8076 44.8708 94.8076H44.8731Z" fill="url(#paint7_linear_1_240)"/>
</g>
<path d="M45.4935 94.5633C45.7562 94.7635 46.2713 95.1258 47.0607 95.5644C48.2101 96.2067 49.9081 96.9902 52.1779 97.6222C54.4616 98.2587 57.3205 98.7413 60.7767 98.7737C62.4296 98.7899 63.91 98.7425 65.2295 98.6464C66.6335 98.5434 67.842 98.3837 68.8722 98.1835C70.7044 97.8235 71.9741 97.3363 72.8167 96.8085C73.752 96.2229 74.1259 95.6165 74.1606 95.1095C74.1918 94.5668 73.8829 92.9823 73.4928 90.9836C72.7231 87.0417 71.6442 81.5293 72.179 78.4484C72.385 77.2587 72.9395 75.7298 73.575 73.9822C73.9072 73.0668 74.2637 72.0865 74.6121 71.0263C74.7556 70.5866 74.8898 70.156 75.0102 69.7463C75.1352 69.3193 75.2533 68.8818 75.3609 68.4385C75.7139 67.0312 75.9697 65.5961 76.0265 64.1841C76.0843 62.7895 75.9513 61.4042 75.5323 60.0825C75.3691 59.5628 75.1607 59.0501 74.9026 58.5525C74.6514 58.0664 74.3527 57.5942 74.002 57.1394C73.6733 56.835 70.0689 53.6025 62.9088 51.1987C61.9574 50.8758 60.9515 50.5691 59.8912 50.2913C58.8206 50.0113 57.691 49.7555 56.5022 49.5344C55.141 49.2752 53.7034 49.0611 52.1894 48.9025C50.8456 48.7625 49.4428 48.6664 47.9844 48.6213L47.7609 48.9882C47.3535 49.7069 46.7042 51.002 46.2065 52.7403C45.7076 54.4821 45.3626 56.6649 45.5721 59.1393C45.7377 61.0778 45.9669 62.9377 46.1903 64.772L46.3743 66.2882C46.6151 68.2198 46.8373 70.1502 46.975 72.1791C47.1116 74.1986 47.1603 76.3027 47.0538 78.5734C46.9519 80.755 46.7644 83.1125 46.5537 85.3346C46.3396 87.5984 46.1081 89.6689 45.916 91.2868C45.7285 92.8354 45.5676 94.0193 45.4923 94.5621L45.4935 94.5633ZM46.497 96.5782C45.1508 95.8294 44.4622 95.2207 44.461 95.2195L44.2561 95.0147L44.2978 94.7265C44.2978 94.723 44.4968 93.3342 44.7619 91.1526C44.961 89.4802 45.196 87.3877 45.3998 85.227C45.6081 83.0269 45.7944 80.6913 45.8951 78.5225C45.9992 76.3073 45.9507 74.2449 45.8164 72.2578C45.6833 70.2799 45.461 68.3587 45.2203 66.4305L45.0362 64.9144C44.8105 63.0696 44.5802 61.2005 44.4135 59.2365C44.1913 56.6012 44.5582 54.2784 45.0883 52.4243C45.6196 50.5726 46.3187 49.1791 46.7574 48.4083L47.0063 47.9986L47.2111 47.685L47.3894 47.4454L47.6915 47.4535C49.3085 47.494 50.8491 47.597 52.3098 47.7487C53.8643 47.9107 55.3354 48.1294 56.7175 48.3945C57.9397 48.6224 59.0949 48.884 60.183 49.1699C61.2826 49.4581 62.3162 49.7717 63.2803 50.1004C71.0389 52.7056 74.8192 56.313 74.8296 56.3223L74.8864 56.3859C75.3008 56.9171 75.6492 57.4646 75.9374 58.0213C76.2268 58.5803 76.4605 59.1531 76.6434 59.733C77.1041 61.1878 77.2511 62.705 77.1886 64.2304C77.1272 65.7396 76.8598 67.2522 76.4906 68.7163C76.3795 69.1677 76.2557 69.6213 76.126 70.0704C75.9895 70.5379 75.8528 70.9777 75.7186 71.3898C75.3829 72.4094 75.0125 73.429 74.6687 74.3792C74.0529 76.0735 73.5147 77.5561 73.3272 78.6451C72.8295 81.5177 73.8828 86.9074 74.6364 90.7626C75.0438 92.8446 75.3655 94.495 75.3238 95.1836C75.2648 96.0285 74.737 96.9764 73.4337 97.7923C72.4776 98.3918 71.0759 98.9369 69.0978 99.3246C68.019 99.5341 66.7644 99.7007 65.3141 99.8061C63.9888 99.9021 62.4783 99.9496 60.7698 99.9334C57.1944 99.8998 54.2347 99.3998 51.87 98.7401C49.4948 98.0793 47.71 97.2541 46.4981 96.5771L46.497 96.5782Z" fill="#2B2A29"/>
<path d="M68.2933 98.2646C69.9936 97.9301 73.9764 97.3272 74.135 95.0819C74.1373 95.0449 74.1373 95.0079 74.1373 94.9662C74.1326 93.1515 72.6199 85.3371 72.6153 80.423C72.6153 79.7309 72.6569 79.0978 72.7529 78.5469C73.0573 76.7889 74.1916 74.1629 75.1651 71.2093C74.834 71.2186 74.554 71.2186 74.3272 71.2186C72.1303 71.2186 70.3119 71.0045 69.1243 69.4768C68.8697 71.9119 68.277 77.3375 67.6658 81.3246C67.0211 85.4806 67.6763 94.4118 68.2944 98.2635L68.2933 98.2646Z" fill="#E6791F"/>
<path d="M70.493 58.3405C71.0613 57.9435 71.6204 57.6299 72.11 57.3938C72.5741 57.1681 73.0707 57.0581 73.5696 57.0581C73.6367 57.0581 73.7026 57.0605 73.7709 57.0628C73.7709 57.0628 70.7939 54.2227 64.6685 51.7876C64.6685 51.7876 64.6709 51.7876 64.6709 51.7899C64.5691 51.8061 63.5944 52.5005 62.1718 52.813C62.1232 52.8246 62.0723 52.8362 62.0214 52.8454C67.2219 56.8325 66.5089 56.7052 70.4941 58.3405H70.493Z" fill="#E6791F"/>
<path d="M54.2051 50.0735C54.2051 50.0283 54.2028 49.9786 54.2028 49.9242C54.1993 49.6881 54.1982 49.4439 54.1924 49.2008C52.1865 48.9161 50.3102 48.665 47.9953 48.606C47.9524 48.665 47.802 48.8918 47.5798 49.2668L48.2811 49.327C50.2211 49.4994 52.5638 49.879 54.2039 50.0735H54.2051Z" fill="#E6791F"/>
<path d="M54.1269 47.0771C54.1512 47.753 54.1605 48.5492 54.1697 49.2841C54.179 50.2089 54.194 50.004 54.194 49.8003C54.2126 50.1325 54.3468 50.8766 55.2948 51.4021C57.1919 52.4495 59.6295 52.6809 61.6366 52.637C62.0602 52.6277 62.4572 52.5779 62.8288 52.4923C64.2525 52.1787 65.2259 51.4842 65.3278 51.4692C65.293 51.2725 65.2075 50.0642 65.0975 47.6673C65.0825 47.3722 65.2665 47.0921 65.5466 47.0088C66.4193 46.7357 68.1046 46.0933 69.1278 43.9684C69.857 42.4627 70.2807 34.793 70.2876 34.6993C70.2969 34.5812 70.1522 34.6067 69.8721 34.7421C69.5086 34.9191 68.9333 35.2918 68.2053 35.7987L67.8245 36.0707C63.3034 39.2962 54.1269 46.8201 54.1269 47.0759V47.0771Z" fill="#FEFEFE"/>
<path d="M50.3855 37.4346C50.6737 38.6116 51.8428 41.2527 52.0616 42.4447C52.2479 43.4863 54.1276 47.0776 54.1276 47.0776C55.8546 48.1342 58.7506 48.4976 60.2137 48.4132C60.5517 48.3865 60.8167 48.346 60.9672 48.2847L61.4094 48.0903C62.9743 47.3715 64.1272 45.9758 64.5323 44.2976L64.6249 43.9099C64.7696 43.3255 64.7939 42.7236 64.751 42.1299C64.7256 41.8163 64.7175 41.4714 64.7349 41.0825C64.8367 39.0317 65.7766 38.7366 66.4873 38.6012C67.2165 38.4415 67.3333 40.6763 67.3333 40.6763L68.3172 40.3627L68.4619 37.1788C68.4619 36.8501 68.5801 36.5365 68.7907 36.2819C69.5616 35.4023 72.2712 34.834 72.2608 31.4326C72.2608 29.8841 70.6102 24.4746 62.3805 24.389C61.289 24.382 60.0783 24.4561 58.7403 24.6598C49.8253 25.9896 49.6748 34.4625 50.3843 37.4346H50.3855Z" fill="#2D2829"/>
<path d="M60.2132 48.4131C60.5512 48.3865 60.8162 48.346 60.9667 48.2847L61.4089 48.0902C61.9321 47.8495 62.4102 47.5312 62.8292 47.1551C63.6614 46.404 64.261 45.4145 64.5318 44.2976L64.6244 43.9099C64.7285 43.4875 64.7713 43.0604 64.7713 42.6334C64.769 42.4644 64.7644 42.2977 64.7505 42.1299C64.7343 41.9251 64.7251 41.7063 64.7251 41.4679C64.7251 41.3441 64.7286 41.2156 64.7344 41.0825C64.8362 39.0317 65.776 38.7366 66.4867 38.6012C66.5122 38.5965 66.5365 38.5919 66.562 38.5919C67.2218 38.5919 67.3328 40.6751 67.3328 40.6751L68.3166 40.3615L68.4613 37.1776C68.4613 36.849 68.5795 36.5353 68.7901 36.2807C69.561 35.4011 72.2706 34.8329 72.2602 31.4314C72.2602 29.8829 70.6096 24.4735 62.38 24.3878C64.9796 25.7338 69.5517 28.5948 67.3166 31.2948C64.2678 34.9775 63.7308 38.8002 63.4808 42.3602C63.2192 46.0915 61.7874 47.125 60.2132 48.412V48.4131Z" fill="#2A2726"/>
<g filter="url(#filter3_d_1_240)">
<path d="M67.9581 64.4655C68.354 69.9305 70.6921 70.4513 73.9527 70.4513C74.1587 70.4513 74.4098 70.4513 74.7084 70.4432C79.145 70.3355 93.2096 69.4895 94.5315 68.6331C95.8533 67.7847 106.306 51.9338 107.734 49.7649L107.901 49.5207C108.086 49.1851 108.184 48.7661 108.184 48.2684C108.184 47.0474 107.588 45.6204 106.672 44.4226C106.061 43.6356 105.312 42.94 104.503 42.4736C102.922 41.5582 101.571 41.7873 101.052 42.903L90.2002 58.4542C89.7731 58.6452 87.4825 59.6301 84.5043 59.6683C81.2575 59.7146 78.0524 59.0202 75.1124 57.6603C74.7687 57.5006 74.4087 57.4172 74.0418 57.3929C73.529 57.3617 73.0186 57.4624 72.544 57.6915C72.103 57.9057 71.5983 58.188 71.0856 58.5457C69.4524 59.6764 67.7486 61.5617 67.9546 64.4643L67.9581 64.4655Z" fill="url(#paint8_linear_1_240)"/>
</g>
<path d="M68.5358 64.4247C68.7198 66.9697 69.3241 68.3389 70.2362 69.0506C71.139 69.7555 72.4331 69.8689 73.9505 69.8689L74.6936 69.8631C77.3234 69.7994 83.3492 69.4742 88.0775 69.0425C91.2282 68.7555 93.7665 68.4349 94.2133 68.1456C94.7978 67.7706 97.6892 63.6551 100.612 59.366C103.607 54.9692 106.545 50.5157 107.248 49.4464L107.4 49.2241C107.463 49.1049 107.513 48.9707 107.546 48.8214C107.582 48.6605 107.602 48.4753 107.602 48.2682C107.602 47.7427 107.473 47.1652 107.245 46.5854C107.001 45.9639 106.643 45.3413 106.211 44.7742C105.919 44.398 105.595 44.045 105.25 43.736C104.917 43.4386 104.568 43.1805 104.215 42.9768L103.847 42.7847C103.294 42.5301 102.802 42.4433 102.408 42.5127C102.073 42.5706 101.803 42.7534 101.635 43.0439C99.5134 47.127 93.5119 54.7597 90.5846 58.9204L90.4387 58.9864C90.2153 59.087 89.5047 59.3949 88.463 59.6808C87.4293 59.9655 86.0612 60.2305 84.5136 60.2502C82.8492 60.2745 81.1974 60.109 79.5908 59.7652C77.9692 59.4192 76.3858 58.8891 74.8719 58.1889C74.733 58.1241 74.5918 58.0744 74.4517 58.0408C74.3059 58.0049 74.1565 57.9829 74.006 57.9737C73.7977 57.9609 73.5917 57.9748 73.3926 58.0153C73.1889 58.057 72.9898 58.1241 72.7999 58.2156C72.5881 58.3186 72.3496 58.4447 72.0927 58.5952C71.8716 58.7225 71.6447 58.866 71.4214 59.0222C70.6586 59.5511 69.8831 60.2502 69.3286 61.146C68.7835 62.0267 68.4455 63.1088 68.5393 64.4247H68.5358ZM69.5219 69.9649C68.3517 69.0506 67.5866 67.4246 67.3759 64.5057C67.2637 62.9202 67.6746 61.6077 68.3379 60.536C68.9895 59.4829 69.8843 58.6716 70.757 58.0686C71.0117 57.8915 71.2628 57.7318 71.5024 57.5918C71.7686 57.4344 72.036 57.292 72.2918 57.1693C72.5731 57.0339 72.8671 56.9344 73.1657 56.8754C73.4678 56.8163 73.7746 56.7955 74.0767 56.814C74.2966 56.8279 74.5119 56.8603 74.7237 56.9135C74.9401 56.9668 75.1519 57.0409 75.3557 57.1346C76.7898 57.7966 78.2911 58.3 79.8294 58.6276C81.3607 58.9551 82.9279 59.1125 84.4975 59.0894C85.927 59.0708 87.1955 58.8243 88.1562 58.5605C88.9456 58.3429 89.5267 58.1137 89.8195 57.9887L100.544 42.618L100.628 42.4606C100.975 41.8611 101.524 41.485 102.206 41.3658C102.83 41.257 103.561 41.3704 104.335 41.7303C104.492 41.8056 104.646 41.8854 104.794 41.9711C105.229 42.2222 105.643 42.5289 106.024 42.8715C106.425 43.2326 106.8 43.6388 107.131 44.067C107.632 44.7221 108.044 45.4419 108.328 46.1618C108.608 46.8747 108.766 47.5958 108.766 48.267C108.766 48.5517 108.736 48.8225 108.679 49.076C108.619 49.3422 108.529 49.5841 108.411 49.7993C108.357 49.8966 108.274 50.0007 108.211 50.0933C107.476 51.2102 104.48 55.7516 101.573 60.021C98.5816 64.4108 95.5849 68.6467 94.8453 69.1212C94.2167 69.524 91.4944 69.8955 88.184 70.1976C83.4279 70.6316 77.3674 70.9579 74.7214 71.0227L73.9516 71.0332C72.2096 71.0332 70.7026 70.885 69.5232 69.9649H69.5219Z" fill="#2B2A29"/>
<path d="M94.6875 67.5784C95.3067 67.1826 98.0454 63.3008 100.815 59.2385C103.633 55.1068 106.481 50.7864 107.161 49.7529L107.319 49.5226C107.493 49.2055 107.586 48.8097 107.586 48.3387C107.586 47.1859 107.023 45.8376 106.158 44.7046C106.158 44.7046 92.545 67.3399 94.6875 67.5772V67.5784Z" fill="#EB8825"/>
<path d="M52.9116 49.0114C52.7924 48.714 52.9371 48.3749 53.2345 48.2569C53.532 48.1377 53.8712 48.2823 53.9893 48.5798C54.1699 49.0311 54.3862 49.5566 54.6582 50.001C54.8978 50.391 55.1826 50.722 55.5217 50.8667C57.2765 51.6143 59.1192 52.0286 60.8218 52.0402C62.403 52.0506 63.8649 51.715 65.0155 50.9813C65.2851 50.81 65.644 50.8898 65.8164 51.1583C65.9877 51.428 65.9078 51.7868 65.6393 51.9592C64.2931 52.8191 62.6149 53.2115 60.8184 53.1999C58.956 53.1871 56.957 52.7416 55.0669 51.9361C54.4696 51.6826 54.0194 51.1826 53.6663 50.6074C53.348 50.0878 53.1095 49.508 52.9116 49.0126V49.0114Z" fill="#2B2A29"/>
<defs>
<filter id="filter0_d_1_240" x="83.1689" y="1.25977" width="49.6424" height="100.34" filterUnits="userSpaceOnUse" color-interpolation-filters="sRGB">
<feFlood flood-opacity="0" result="BackgroundImageFix"/>
<feColorMatrix in="SourceAlpha" type="matrix" values="0 0 0 0 0 0 0 0 0 0 0 0 0 0 0 0 0 0 127 0" result="hardAlpha"/>
<feOffset dx="-2" dy="4"/>
<feGaussianBlur stdDeviation="2"/>
<feColorMatrix type="matrix" values="0 0 0 0 1 0 0 0 0 1 0 0 0 0 1 0 0 0 0.25 0"/>
<feBlend mode="normal" in2="BackgroundImageFix" result="effect1_dropShadow_1_240"/>
<feBlend mode="normal" in="SourceGraphic" in2="effect1_dropShadow_1_240" result="shape"/>
</filter>
<filter id="filter1_d_1_240" x="25.5796" y="42.0311" width="24.0988" height="63.9969" filterUnits="userSpaceOnUse" color-interpolation-filters="sRGB">
<feFlood flood-opacity="0" result="BackgroundImageFix"/>
<feColorMatrix in="SourceAlpha" type="matrix" values="0 0 0 0 0 0 0 0 0 0 0 0 0 0 0 0 0 0 127 0" result="hardAlpha"/>
<feOffset dx="-4"/>
<feGaussianBlur stdDeviation="3"/>
<feColorMatrix type="matrix" values="0 0 0 0 1 0 0 0 0 0.6 0 0 0 0 0 0 0 0 0.6 0"/>
<feBlend mode="normal" in2="BackgroundImageFix" result="effect1_dropShadow_1_240"/>
<feBlend mode="normal" in="SourceGraphic" in2="effect1_dropShadow_1_240" result="shape"/>
</filter>
<filter id="filter2_d_1_240" x="34.8708" y="42.0311" width="43.7489" height="63.3257" filterUnits="userSpaceOnUse" color-interpolation-filters="sRGB">
<feFlood flood-opacity="0" result="BackgroundImageFix"/>
<feColorMatrix in="SourceAlpha" type="matrix" values="0 0 0 0 0 0 0 0 0 0 0 0 0 0 0 0 0 0 127 0" result="hardAlpha"/>
<feOffset dx="-4"/>
<feGaussianBlur stdDeviation="3"/>
<feColorMatrix type="matrix" values="0 0 0 0 1 0 0 0 0 0.6 0 0 0 0 0 0 0 0 0.6 0"/>
<feBlend mode="normal" in2="BackgroundImageFix" result="effect1_dropShadow_1_240"/>
<feBlend mode="normal" in="SourceGraphic" in2="effect1_dropShadow_1_240" result="shape"/>
</filter>
<filter id="filter3_d_1_240" x="57.9376" y="35.9067" width="52.2462" height="40.5446" filterUnits="userSpaceOnUse" color-interpolation-filters="sRGB">
<feFlood flood-opacity="0" result="BackgroundImageFix"/>
<feColorMatrix in="SourceAlpha" type="matrix" values="0 0 0 0 0 0 0 0 0 0 0 0 0 0 0 0 0 0 127 0" result="hardAlpha"/>
<feOffset dx="-4"/>
<feGaussianBlur stdDeviation="3"/>
<feColorMatrix type="matrix" values="0 0 0 0 1 0 0 0 0 0.6 0 0 0 0 0 0 0 0 0.6 0"/>
<feBlend mode="normal" in2="BackgroundImageFix" result="effect1_dropShadow_1_240"/>
<feBlend mode="normal" in="SourceGraphic" in2="effect1_dropShadow_1_240" result="shape"/>
</filter>
<radialGradient id="paint0_radial_1_240" cx="0" cy="0" r="1" gradientUnits="userSpaceOnUse" gradientTransform="translate(85 99.6124) rotate(90) scale(85)">
<stop stop-color="#7795FF"/>
<stop offset="1" stop-color="#331E87"/>
</radialGradient>
<linearGradient id="paint1_linear_1_240" x1="151.706" y1="-42.0103" x2="63.3425" y2="150.15" gradientUnits="userSpaceOnUse">
<stop stop-color="#37317A"/>
<stop offset="0.988235" stop-color="#57B2E5"/>
<stop offset="1" stop-color="#57B2E5"/>
</linearGradient>
<linearGradient id="paint2_linear_1_240" x1="151.706" y1="-49.5686" x2="63.3425" y2="142.592" gradientUnits="userSpaceOnUse">
<stop stop-color="#37317A"/>
<stop offset="0.988235" stop-color="#57B2E5"/>
<stop offset="1" stop-color="#57B2E5"/>
</linearGradient>
<linearGradient id="paint3_linear_1_240" x1="151.706" y1="-57.1271" x2="63.3425" y2="135.034" gradientUnits="userSpaceOnUse">
<stop stop-color="#37317A"/>
<stop offset="0.988235" stop-color="#57B2E5"/>
<stop offset="1" stop-color="#57B2E5"/>
</linearGradient>
<linearGradient id="paint4_linear_1_240" x1="151.706" y1="-64.6855" x2="63.3425" y2="127.475" gradientUnits="userSpaceOnUse">
<stop stop-color="#37317A"/>
<stop offset="0.988235" stop-color="#57B2E5"/>
<stop offset="1" stop-color="#57B2E5"/>
</linearGradient>
<linearGradient id="paint5_linear_1_240" x1="151.706" y1="-72.2439" x2="63.3425" y2="119.917" gradientUnits="userSpaceOnUse">
<stop stop-color="#37317A"/>
<stop offset="0.988235" stop-color="#57B2E5"/>
<stop offset="1" stop-color="#57B2E5"/>
</linearGradient>
<linearGradient id="paint6_linear_1_240" x1="35.5796" y1="74.0296" x2="47.6784" y2="74.0296" gradientUnits="userSpaceOnUse">
<stop stop-color="#F9D423"/>
<stop offset="1" stop-color="#FF4E50"/>
</linearGradient>
<linearGradient id="paint7_linear_1_240" x1="44.8708" y1="73.694" x2="76.6197" y2="73.694" gradientUnits="userSpaceOnUse">
<stop stop-color="#F9D423"/>
<stop offset="1" stop-color="#FF4E50"/>
</linearGradient>
<linearGradient id="paint8_linear_1_240" x1="67.9376" y1="56.179" x2="108.184" y2="56.179" gradientUnits="userSpaceOnUse">
<stop stop-color="#F9D423"/>
<stop offset="1" stop-color="#FF4E50"/>
</linearGradient>
</defs>
</svg>
