<svg width="180" height="171" viewBox="0 0 180 171" fill="none" xmlns="http://www.w3.org/2000/svg">
<circle cx="95" cy="85.6124" r="85" fill="url(#paint0_radial_1_280)"/>
<g filter="url(#filter0_d_1_280)">
<path fill-rule="evenodd" clip-rule="evenodd" d="M8.18767 128.749L7.79443 122.338C104.137 117.116 49.0313 119.962 145.331 114.751L169.163 134.579L169.26 140.477L28.6931 149.397C21.8074 142.493 14.9401 135.588 8.18767 128.748V128.749Z" fill="url(#paint1_linear_1_280)"/>
<path d="M8.58741 122.326L8.98064 128.737L7.39477 128.76L7.00149 122.349L7.71452 121.545L8.58741 122.326ZM7.00149 122.349C6.97485 121.911 7.30839 121.55 7.74575 121.543C8.18311 121.537 8.56076 121.888 8.58741 122.326L7.00149 122.349ZM145.822 114.15L144.84 115.351L145.411 115.543L136.818 116.009L129.055 116.43L122.07 116.809L115.804 117.151L110.205 117.457L105.215 117.731L100.78 117.975L96.8433 118.193L93.3499 118.386L90.2452 118.56L87.4731 118.716L84.9785 118.858L82.7054 118.986L80.5985 119.107L78.6019 119.222L76.6604 119.333L74.7189 119.445L72.7214 119.56L70.6136 119.68L68.3386 119.81L65.8421 119.95L63.0682 120.106L59.9617 120.28L56.4664 120.475L52.5274 120.692L48.0895 120.938L43.0966 121.212L37.4936 121.519L31.2254 121.861L24.2359 122.241L16.47 122.664L7.87254 123.131L7.71268 121.546L16.3101 121.079L24.076 120.657L31.0656 120.276L37.3337 119.935L42.9358 119.628L47.9287 119.353L52.3657 119.108L56.3047 118.89L59.8 118.695L62.9056 118.522L65.6795 118.365L68.175 118.225L70.4491 118.095L72.5569 117.975L74.5544 117.86L76.4959 117.748L78.4374 117.637L80.434 117.522L82.5418 117.402L84.815 117.273L87.3105 117.131L90.0826 116.975L93.1882 116.802L96.6816 116.608L100.619 116.39L105.054 116.146L110.044 115.872L115.644 115.566L121.91 115.224L128.896 114.845L136.658 114.424L145.252 113.958L145.823 114.15H145.822ZM145.251 113.958C145.687 113.934 146.078 114.271 146.122 114.708C146.166 115.145 145.847 115.52 145.411 115.543L145.251 113.958ZM168.672 135.179L144.839 115.351L145.821 114.15L169.654 133.978L169.957 134.603L168.672 135.179ZM169.654 133.978C169.998 134.265 170.058 134.766 169.787 135.098C169.516 135.43 169.016 135.465 168.672 135.179L169.654 133.978ZM168.466 140.453L168.368 134.555L169.957 134.603L170.054 140.501L169.347 141.269L168.466 140.453ZM170.054 140.501C170.062 140.939 169.712 141.284 169.272 141.271C168.834 141.258 168.472 140.891 168.465 140.453L170.053 140.501H170.054ZM28.6049 148.605L169.172 139.685L169.346 141.269L28.7786 150.189L28.1418 149.944L28.6049 148.604V148.605ZM28.7786 150.189C28.3431 150.217 27.9498 149.884 27.902 149.447C27.8542 149.009 28.1694 148.632 28.6049 148.605L28.7786 150.189ZM7.39383 128.76L8.97975 128.737L8.739 128.205L9.37209 128.846L10.0061 129.487L10.641 130.13L11.2768 130.772L11.9126 131.415L12.5484 132.058L13.1861 132.701L13.8238 133.345L14.4614 133.989L15.1 134.633L15.7386 135.278L16.3781 135.923L17.0185 136.568L17.659 137.213L18.3003 137.859L18.9416 138.505L19.5839 139.15L20.2262 139.796L20.8684 140.442L21.5116 141.089L22.1548 141.736L22.7989 142.383L23.442 143.029L24.0861 143.675L24.7311 144.323L25.3753 144.97L26.0203 145.616L26.6653 146.263L27.3103 146.911L27.9553 147.559L28.6003 148.205L29.2454 148.853L28.1464 149.947L27.5005 149.3L26.8555 148.652L26.2105 148.004L25.5654 147.357L24.9204 146.71L24.2754 146.063L23.6304 145.415L22.9863 144.768L22.3413 144.122L21.6981 143.475L21.054 142.828L20.4108 142.181L19.7676 141.535L19.1245 140.889L18.4822 140.242L17.8399 139.596L17.1986 138.95L16.5573 138.304L15.9159 137.659L15.2755 137.014L14.636 136.369L13.9974 135.724L13.3588 135.08L12.7203 134.435L12.0826 133.791L11.445 133.148L10.8082 132.504L10.1724 131.86L9.53656 131.218L8.90164 130.576L8.26672 129.934L7.63368 129.293L7.39293 128.761L7.39383 128.76ZM7.63457 129.292C7.31942 128.973 7.31113 128.47 7.61618 128.17C7.92123 127.87 8.42479 127.885 8.73995 128.204L7.63457 129.292Z" fill="white"/>
<path d="M27.1924 142.686C27.1658 142.247 27.4993 141.886 27.9367 141.88C28.374 141.874 28.7517 142.224 28.7783 142.663L27.1924 142.686ZM27.5857 149.096L27.1924 142.686L28.7783 142.663L29.1715 149.074L27.5857 149.096ZM29.1715 149.074C29.1982 149.512 28.8646 149.873 28.4273 149.879C27.9899 149.886 27.6123 149.535 27.5857 149.096L29.1715 149.074Z" fill="white"/>
<path fill-rule="evenodd" clip-rule="evenodd" d="M61.0898 140.803L65.1529 140.743L65.5038 146.464L61.45 146.663L61.0898 140.803Z" fill="white"/>
<path fill-rule="evenodd" clip-rule="evenodd" d="M54.085 141.251L56.1523 141.22L56.507 147.001L54.4452 147.119L54.085 141.251Z" fill="white"/>
<path fill-rule="evenodd" clip-rule="evenodd" d="M46.4165 141.784L47.9555 141.761L48.3065 147.49L46.7703 147.548L46.4165 141.784Z" fill="white"/>
<path d="M49.7128 131.712C50.559 132.61 50.7841 133.372 50.3881 133.996C49.9921 134.62 49.0908 134.967 47.6831 135.038C45.9824 135.126 44.3799 134.902 42.8776 134.371C41.3754 133.84 40.1212 133.047 39.1151 131.991L41.8421 131.852C42.4237 132.444 43.0973 132.872 43.8608 133.135C44.6243 133.398 45.4054 133.509 46.2029 133.468C46.836 133.436 47.2209 133.268 47.3587 132.964C47.4966 132.66 47.3643 132.294 46.9609 131.866C46.1395 130.993 44.9422 130.597 43.3711 130.677L42.421 130.726L41.1144 129.339C41.2623 129.341 41.5132 129.331 41.8651 129.314C43.3775 129.237 43.7358 128.775 42.9383 127.929C42.6011 127.57 42.1702 127.302 41.6455 127.123C41.12 126.944 40.5705 126.869 39.9962 126.899C39.3163 126.934 38.8835 127.081 38.6988 127.341C38.5141 127.602 38.6079 127.957 38.98 128.403L36.3761 128.536C35.4719 127.549 35.2487 126.783 35.7062 126.239C36.1647 125.694 37.1028 125.386 38.5224 125.313C39.8124 125.248 41.1007 125.431 42.3879 125.864C43.6743 126.297 44.6785 126.897 45.4026 127.665C45.8381 128.128 46.043 128.54 46.0145 128.902C45.9879 129.265 45.737 129.509 45.2647 129.634C46.031 129.677 46.8259 129.888 47.6501 130.267C48.4733 130.645 49.1606 131.127 49.711 131.712H49.7128ZM52.6806 124.784L66.2369 133.874L63.3518 134.021L60.407 131.99L55.7449 132.228L56.6848 134.361L53.8705 134.505L49.8488 124.929L52.6815 124.785L52.6806 124.784ZM58.3332 130.531L53.4129 127.147L55.008 130.701L58.3332 130.531ZM70.5821 123.883L69.1377 127.813L79.8162 133.18L76.3679 133.355L68.6231 129.361L68.1316 130.62L70.9661 133.631L68.2565 133.769L59.4799 124.449L62.1895 124.311L65.8382 128.186L67.1153 124.06L70.5821 123.882V123.883ZM79.2925 123.426L92.8489 132.516L89.9638 132.663L87.0189 130.632L82.3568 130.87L83.2968 133.004L80.4815 133.147L76.4607 123.571L79.2925 123.427V123.426ZM84.9452 129.173L80.0248 125.789L81.6199 129.343L84.9452 129.173ZM101.652 129.061C102.498 129.96 102.723 130.721 102.327 131.345C101.931 131.969 101.03 132.317 99.6225 132.389C97.9217 132.476 96.3193 132.253 94.8179 131.722C93.3156 131.191 92.0615 130.397 91.0553 129.341L93.7824 129.203C94.364 129.794 95.0384 130.223 95.802 130.485C96.5655 130.748 97.3465 130.859 98.1441 130.819C98.7771 130.787 99.1621 130.619 99.3009 130.313C99.4387 130.009 99.3064 129.644 98.903 129.216C98.0816 128.343 96.8844 127.947 95.3132 128.027L94.3631 128.076L93.0565 126.688C93.2045 126.69 93.4553 126.681 93.8072 126.663C95.3205 126.586 95.6779 126.124 94.8804 125.278C94.5432 124.92 94.1123 124.651 93.5876 124.472C93.0621 124.293 92.5126 124.219 91.9383 124.248C91.2584 124.283 90.8256 124.431 90.6409 124.691C90.4562 124.952 90.55 125.307 90.9221 125.753L88.3191 125.885C87.414 124.899 87.1907 124.132 87.6492 123.588C88.1068 123.044 89.0459 122.735 90.4655 122.662C91.7546 122.597 93.0437 122.78 94.33 123.213C95.6164 123.645 96.6206 124.246 97.3447 125.014C97.7802 125.476 97.9851 125.889 97.9576 126.252C97.93 126.615 97.6801 126.858 97.2078 126.983C97.9732 127.026 98.7679 127.237 99.5921 127.616C100.415 127.995 101.103 128.477 101.653 129.061H101.652ZM104.62 122.133L118.176 131.223L115.291 131.37L112.346 129.339L107.684 129.577L108.624 131.71L105.809 131.853L101.787 122.277L104.62 122.133ZM110.273 127.881L105.352 124.496L106.947 128.051L110.273 127.881ZM119.389 121.393L121.029 123.134L117.264 123.326L124.401 130.904L121.639 131.045L114.502 123.466L110.737 123.658L109.096 121.917L119.388 121.393H119.389ZM137.813 127.079C138.751 128.073 139.041 128.843 138.687 129.387C138.333 129.93 137.452 130.238 136.045 130.311L130.503 130.594L121.726 121.274L124.453 121.135L127.609 124.486L130.565 124.335C131.891 124.267 133.2 124.464 134.494 124.923C135.786 125.383 136.895 126.102 137.814 127.08L137.813 127.079ZM135.115 127.189C134.277 126.299 133.142 125.891 131.711 125.963L129.124 126.096L131.651 128.779L134.255 128.646C135.673 128.573 135.96 128.087 135.114 127.189H135.115Z" fill="white"/>
<mask id="path-9-inside-1_1_280" fill="white">
<path d="M145.144 114.613L7.14355 121.613L28.6436 144.113L170.144 134.613L145.144 114.613Z"/>
</mask>
<path d="M7.14355 121.613L7.04224 119.615C6.26096 119.655 5.57451 120.146 5.28528 120.873C4.99604 121.6 5.15713 122.429 5.69757 122.994L7.14355 121.613ZM145.144 114.613L146.393 113.051C146.011 112.745 145.531 112.59 145.042 112.615L145.144 114.613ZM170.144 134.613L170.278 136.608L171.393 133.051L170.144 134.613ZM28.6436 144.113L27.1976 145.494C27.6072 145.923 28.1859 146.148 28.7775 146.108L28.6436 144.113ZM7.24487 123.61L145.245 116.61L145.042 112.615L7.04224 119.615L7.24487 123.61ZM143.894 116.174L168.894 136.174L171.393 133.051L146.393 113.051L143.894 116.174ZM170.01 132.617L28.5096 142.117L28.7775 146.108L170.278 136.608L170.01 132.617ZM30.0895 142.731L8.58954 120.231L5.69757 122.994L27.1976 145.494L30.0895 142.731Z" fill="white" mask="url(#path-9-inside-1_1_280)"/>
</g>
<g filter="url(#filter1_d_1_280)">
<path d="M136.782 103.846C136.782 103.846 139.654 109.258 141.188 111.625C142.724 113.993 148.686 113.279 145.861 105.527C144.791 102.59 143.715 100.385 142.792 98.7814C141.525 96.5793 138.873 95.6027 136.482 96.458L136.33 101.041L136.781 103.846H136.782Z" fill="url(#paint2_linear_1_280)"/>
</g>
<path d="M137.51 96.7658C139.4 96.4626 141.324 97.3465 142.308 99.0571C143.397 100.951 144.417 103.191 145.338 105.718C146.49 108.875 146.234 111.229 144.652 112.018C143.63 112.526 142.226 112.206 141.654 111.323C140.252 109.16 137.68 104.351 137.317 103.666L136.89 101.005L137.026 96.8696C137.187 96.8265 137.349 96.7915 137.51 96.7658ZM144.142 113.338C144.488 113.282 144.826 113.175 145.149 113.015C145.95 112.616 148.405 110.884 146.384 105.336C145.442 102.749 144.395 100.452 143.272 98.5022C141.874 96.0685 138.939 94.9881 136.296 95.9335L135.939 96.0602L135.781 101.128L136.291 104.106C136.409 104.329 139.189 109.568 140.72 111.927C141.425 113.016 142.823 113.548 144.142 113.337L144.142 113.338Z" fill="#31283C"/>
<path d="M142.672 98.7988C141.419 96.6196 138.806 95.6393 136.436 96.4505C136.393 96.4661 136.362 96.5057 136.361 96.5516L136.265 99.4749C136.262 99.5347 136.305 99.5834 136.365 99.5834C137.406 99.5659 140.52 99.6872 143.807 101.38C143.897 101.427 143.991 101.334 143.948 101.243C143.503 100.308 143.073 99.4952 142.672 98.7997V98.7988Z" fill="#31283C"/>
<path d="M137.389 96.7851C139.277 96.4819 141.21 97.3694 142.191 99.0755C142.419 99.4742 142.65 99.895 142.877 100.335C140.311 99.2657 137.979 99.059 136.836 99.0305L136.908 96.888C137.067 96.8448 137.228 96.8099 137.388 96.7851H137.389ZM143.96 101.941C144.091 101.92 144.215 101.86 144.315 101.764C144.517 101.567 144.575 101.263 144.453 101.007C144.026 100.111 143.59 99.2758 143.156 98.5215C141.777 96.1209 138.87 95.0313 136.257 95.9252C135.996 96.018 135.819 96.2541 135.806 96.526L135.703 99.6956L135.898 99.9446C136.021 100.071 136.194 100.143 136.373 100.14C137.242 100.127 140.316 100.207 143.554 101.877C143.683 101.944 143.827 101.964 143.961 101.942L143.96 101.941Z" fill="#31283C"/>
<path d="M139.58 98.6354C139.194 98.0979 138.696 97.6633 138.113 97.351C136.401 96.4387 132.43 94.2283 129.549 91.9351C126.084 89.1781 122.622 84.352 116.327 84.397C116.322 84.3943 116.319 84.3897 116.314 84.3869C115.267 83.3809 114.214 78.5834 114.214 78.5834L110.258 75.1942L102.981 77.2393C102.981 77.2393 104.062 83.8339 106.799 88.0315C109.537 92.231 113.364 93.0091 113.364 93.0091C113.364 93.0091 130.653 96.752 134.767 101.377C138.88 106.002 139.325 108.945 142.315 107.414C144.71 106.185 141.108 100.747 139.581 98.6354H139.58Z" fill="#FEFEFE"/>
<path d="M139.129 98.9614C141.553 102.316 142.817 105.07 142.515 106.329C142.448 106.607 142.303 106.794 142.06 106.919C140.439 107.75 139.892 107.129 138.052 104.626C137.322 103.629 136.411 102.388 135.181 101.006C130.994 96.3008 114.194 92.6186 113.481 92.4642C113.439 92.4559 109.83 91.6649 107.264 87.7282C105.046 84.3234 103.926 79.2227 103.617 77.6379L110.12 75.8115L113.709 78.8864C113.966 80.0201 114.882 83.7841 115.929 84.7883L116.091 84.9454L116.329 84.9546C121.045 84.9224 124.15 87.798 126.892 90.3346C127.684 91.0687 128.436 91.7623 129.2 92.3714C132.137 94.7086 136.227 96.9779 137.849 97.8433C138.359 98.1162 138.79 98.4928 139.129 98.9623V98.9614ZM141.327 108.344C141.703 108.284 142.112 108.143 142.567 107.91C143.098 107.638 143.455 107.18 143.595 106.588C144.12 104.406 141.589 100.465 140.032 98.31H140.029C139.592 97.7018 139.034 97.214 138.374 96.8612C136.778 96.0095 132.757 93.7817 129.893 91.4996C129.16 90.9171 128.425 90.2363 127.647 89.516C124.799 86.883 121.58 83.9036 116.567 83.842C115.93 83.0051 115.126 80.157 114.755 78.4647L114.716 78.2819L110.393 74.5776L102.348 76.8368L102.428 77.3274C102.474 77.6021 103.561 84.0891 106.331 88.3355C109.163 92.681 113.085 93.5198 113.251 93.5547C113.416 93.5896 130.401 97.3095 134.348 101.747C135.543 103.091 136.437 104.306 137.154 105.285C138.579 107.223 139.605 108.622 141.327 108.345V108.344Z" fill="#31283C"/>
<path d="M97.2555 120.725C97.2555 120.725 92.5455 125.533 91.3988 129.464C90.2512 133.395 94.0102 133.476 97.5569 129.967C101.105 126.458 103.266 127.232 104.583 124.37C105.902 121.507 102.211 117.081 102.211 117.081L97.2555 120.725Z" fill="url(#paint3_linear_1_280)"/>
<g filter="url(#filter2_d_1_280)">
<path d="M102.103 117.847C103.168 119.271 104.94 122.263 104.076 124.135C103.451 125.492 102.641 125.916 101.411 126.555C100.283 127.145 98.8783 127.876 97.1638 129.571C95.0367 131.675 93.0125 132.289 92.1902 131.798C91.706 131.51 91.6114 130.716 91.932 129.62C92.9795 126.029 97.2199 121.564 97.6214 121.147L102.103 117.847ZM93.4527 133.022C94.7978 132.806 96.4196 131.874 97.9467 130.362C99.5408 128.785 100.809 128.124 101.926 127.543C103.202 126.877 104.306 126.303 105.088 124.602C106.537 121.456 102.796 116.914 102.636 116.723L102.301 116.321L96.8569 120.336C96.6621 120.535 92.0368 125.289 90.8644 129.308C90.2157 131.526 91.0619 132.419 91.6215 132.753C92.1213 133.052 92.7498 133.134 93.4527 133.021V133.022Z" fill="#31283C"/>
</g>
<path d="M101.974 126.772C101.936 126.812 101.975 126.873 102.022 126.848C103.109 126.272 103.942 125.735 104.576 124.356C105.832 121.632 102.552 117.495 102.228 117.098C102.213 117.078 102.189 117.078 102.169 117.092L101.198 117.806C101.189 117.814 101.182 117.825 101.181 117.838L100.733 120.699C100.731 120.713 100.734 120.726 100.742 120.736L102 122.473C102 122.473 103.701 124.947 101.975 126.773L101.974 126.772Z" fill="#31283C"/>
<path d="M102.098 117.836C103.338 119.487 104.902 122.324 104.071 124.123C103.833 124.638 103.567 125.021 103.264 125.328C103.44 124.064 102.909 122.816 102.458 122.157L101.315 120.579L101.697 118.13L102.098 117.835V117.836ZM101.812 127.549L102.285 127.339C103.392 126.751 104.37 126.138 105.083 124.59C106.442 121.642 103.304 117.54 102.662 116.748L102.332 116.34L101.844 116.64L100.693 117.488L100.633 117.736L100.149 120.844L100.294 121.068L101.549 122.799C101.598 122.874 102.96 124.917 101.568 126.39L101.242 126.732L101.812 127.548V127.549Z" fill="#31283C"/>
<path d="M91.3102 89.3058C91.3102 89.3058 93.0827 95.95 94.8983 103.071C96.1984 108.163 96.8995 113.395 97.3065 116.911C97.4673 118.304 97.402 121.355 96.7579 122.526C96.0063 123.89 95.1738 125.668 95.6287 126.171C96.315 126.933 99.6899 124.92 102.005 122.485C102.497 121.968 102.853 121.312 103.061 120.587C103.311 119.713 103.319 118.769 103.096 117.867C102.451 115.254 101.75 108.235 102.453 101.98C103.385 93.6881 102.174 87.6815 99.9278 85.1256C97.6795 82.5697 91.3112 89.3058 91.3112 89.3058H91.3102Z" fill="#FEFEFE"/>
<path d="M98.2129 85.134C98.3526 85.112 98.4858 85.1028 98.6136 85.1046C98.9967 85.1111 99.2825 85.2342 99.5094 85.4942C101.826 88.13 102.745 94.4241 101.901 101.918C101.194 108.215 101.875 115.238 102.558 118.001C102.76 118.813 102.749 119.656 102.527 120.436C102.341 121.087 102.021 121.662 101.604 122.103C99.3771 124.443 96.6941 125.869 96.0601 125.783C96.0473 125.596 96.1052 124.866 97.2464 122.794C97.9989 121.43 98.0172 118.197 97.8601 116.847C97.4558 113.362 96.7648 108.126 95.439 102.934C93.8595 96.7439 92.2957 90.8485 91.9291 89.4649C93.2237 88.1484 96.2283 85.4519 98.212 85.134H98.2129ZM96.4295 126.862C98.0319 126.605 100.692 124.676 102.41 122.87C102.951 122.3 103.362 121.564 103.596 120.74C103.871 119.773 103.886 118.735 103.638 117.732C103.063 115.41 102.29 108.424 103.006 102.043C103.896 94.1256 102.901 87.6651 100.345 84.7592C99.9091 84.2612 99.3321 84.0031 98.6338 83.9893C95.7128 83.9388 91.3898 88.4111 90.9065 88.9228L90.6924 89.147L90.7741 89.4483C90.7916 89.5136 92.5667 96.1697 94.3621 103.209C95.6696 108.335 96.355 113.52 96.7547 116.975C96.9229 118.424 96.8163 121.267 96.2715 122.256C94.6268 125.24 94.8151 126.097 95.2166 126.542C95.3563 126.698 95.6173 126.883 96.0684 126.889C96.1823 126.89 96.3018 126.881 96.4295 126.86V126.862Z" fill="#31283C"/>
<path d="M117.635 80.2498L122.824 79.4165C122.824 79.4165 126.178 75.5625 123.818 69.9472C121.455 64.3284 114.574 75.4816 114.574 75.4816L117.635 80.2507V80.2498Z" fill="url(#paint4_linear_1_280)"/>
<path d="M122.525 78.9012L117.908 79.6417L115.234 75.4772C116.97 72.7495 120.175 68.7852 122.033 68.9258C122.224 68.9405 122.809 68.9855 123.304 70.1633C125.269 74.8378 123.086 78.1617 122.525 78.9012ZM117.364 80.8581L123.112 79.9348L123.244 79.7823C123.39 79.6142 126.797 75.6021 124.329 69.7306C123.828 68.5344 123.083 67.8904 122.117 67.815C118.912 67.5624 114.583 74.4078 114.101 75.1896L113.917 75.4882L117.364 80.8572V80.8581Z" fill="#31283C"/>
<path d="M81.2362 82.1341L80.7502 89.3001C80.7502 89.3001 107.057 98.5075 122.581 73.8179L101.732 70.4563L86.2944 75.7693L81.2362 82.1341Z" fill="url(#paint5_linear_1_280)"/>
<path d="M121.653 74.2324C107.533 95.7811 84.6431 89.8911 81.3363 88.9008L81.7801 82.3457L86.6278 76.2417L101.781 71.028L121.652 74.2324H121.653ZM98.4089 90.9945C106.56 89.6854 115.951 85.406 123.051 74.113L123.499 73.4019L101.684 69.8842L101.551 69.9301L85.9607 75.2954L80.6931 81.924L80.1656 89.6835L80.5681 89.825C80.7123 89.8755 88.674 92.5564 98.4099 90.9936L98.4089 90.9945Z" fill="#31283C"/>
<path d="M119.453 76.0769C119.453 76.0769 115.678 79.3971 107.714 77.9621C99.7508 76.5243 114.795 69.531 114.795 69.531L121.246 69.5779L121.888 73.5798L119.454 76.0769H119.453Z" fill="url(#paint6_linear_1_280)"/>
<path d="M119.074 75.6681C118.825 75.872 115.154 78.7375 107.812 77.4127C106.694 77.2115 105.997 76.8688 105.947 76.4977C105.779 75.2041 110.452 72.1778 114.917 70.0887L120.769 70.13L121.292 73.3887L119.073 75.6671L119.074 75.6681ZM114.402 78.6649C117.955 78.0944 119.712 76.5886 119.822 76.4949L119.852 76.4655L122.484 73.7672L121.722 69.0248L114.675 68.9742L114.561 69.0266C112.875 69.8112 104.486 73.86 104.845 76.641C105.027 78.042 106.976 78.3921 107.617 78.5078C110.35 79.0021 112.606 78.9525 114.403 78.6649H114.402Z" fill="#31283C"/>
<path d="M83.1992 40.262C83.1992 40.262 86.6294 45.9955 89.3988 48.9519C89.4445 49.0016 89.4362 49.0772 89.3781 49.113C88.7596 49.5173 85.6287 51.6852 83.6609 55.4782C82.1113 58.4669 78.0731 62.1963 78.0731 62.1963C78.0731 62.1963 75.4973 62.3046 74.7814 62.8169C74.1191 63.292 74.8319 64.3895 76.4085 64.5148C76.5355 64.5264 76.5884 64.6791 76.4857 64.7534L73.5344 66.9376C73.0656 67.2866 72.8805 67.9037 73.0831 68.4525C73.2724 68.9632 73.7542 69.2978 74.2984 69.3107C75.8869 69.3498 79.0943 69.018 80.4545 65.9405L81.7138 64.2515C81.7138 64.2515 88.3704 58.1298 94.0889 52.6107C94.7838 51.9395 95.3612 51.1642 95.8021 50.3056C96.0611 49.8029 96.0606 49.2094 95.7988 48.7086C94.8236 46.835 92.2774 42.0114 89.8415 37.9152C86.7423 32.7067 83.725 37.4269 83.725 37.4269L83.1983 40.2638L83.1992 40.262Z" fill="#FEFEFE"/>
<path d="M84.7916 37.0021C85.2554 36.5314 85.9488 36.0072 86.7313 36.0217C87.6287 36.0373 88.5143 36.7694 89.3629 38.1992C91.7844 42.2695 94.326 47.0839 95.3061 48.9642C95.4844 49.3017 95.4841 49.7078 95.3078 50.0482C94.897 50.8516 94.3497 51.5809 93.7038 52.207C88.056 57.6594 81.4036 63.7791 81.3363 63.8411L81.2994 63.8762L79.9456 65.7144C78.7414 68.4425 75.8985 68.7926 74.3128 68.7526C73.9926 68.745 73.7154 68.5508 73.6079 68.257C73.491 67.9428 73.6006 67.5829 73.867 67.3838L76.8183 65.1995C77.0509 65.0241 77.15 64.737 77.0699 64.4618C76.9913 64.181 76.7493 63.9837 76.4548 63.9584C75.5 63.8847 75.0856 63.4059 75.0926 63.2697C75.5031 62.9841 77.1249 62.7923 78.098 62.7512L78.3017 62.7429L78.4511 62.6034C78.6173 62.4494 82.5798 58.7722 84.156 55.7343C86.0605 52.0631 89.0922 49.9634 89.6815 49.5784C89.8478 49.471 89.9574 49.2959 89.9795 49.0995C90.0033 48.9053 89.9388 48.7133 89.8034 48.5711C87.3786 45.9829 84.3866 41.1438 83.784 40.1558L84.2507 37.6423C84.3394 37.5179 84.5286 37.2694 84.7909 37.0026L84.7916 37.0021ZM94.6459 52.8407C95.3118 52.1657 95.8661 51.3993 96.2986 50.5572C96.6396 49.8963 96.6366 49.1084 96.294 48.4481C95.3097 46.5606 92.7568 41.7261 90.3197 37.6284C89.2586 35.8442 88.0557 34.9301 86.7458 34.9086C84.7174 34.8758 83.3161 37.0328 83.2572 37.125L83.1783 37.3232L82.6138 40.3679L82.7198 40.5477C82.8572 40.7751 85.9388 45.9087 88.6407 48.9454C87.5198 49.7506 84.9021 51.8768 83.1675 55.2236C81.8461 57.7734 78.5728 60.9579 77.8427 61.6494C77.1094 61.6911 75.1816 61.8465 74.4583 62.3642C74.0493 62.6579 73.8902 63.1134 74.0231 63.5891C74.178 64.1491 74.6945 64.6087 75.3999 64.8657L73.2046 66.4898C72.54 66.9804 72.2739 67.869 72.5626 68.6453C72.8305 69.3685 73.5077 69.848 74.2863 69.8665C75.778 69.9026 79.3968 69.6186 80.9376 66.2236L82.1279 64.6253C82.6796 64.1162 89.0426 58.2559 94.4748 53.0097C94.533 52.9556 94.5891 52.8984 94.6444 52.8418L94.6459 52.8407Z" fill="#31283C"/>
<path d="M82.9644 17.8449C82.6732 17.6703 82.3121 17.9248 82.3884 18.2592C82.7182 19.7117 83.1014 22.5542 81.5412 24.082C79.3875 26.1905 77.2063 31.1543 80.8099 36.5646C84.4144 41.975 85.607 30.7437 85.607 30.7437L87.2765 20.4264L82.9644 17.8458V17.8449Z" fill="#7685FA"/>
<path d="M86.6668 20.7097L85.058 30.653C84.7814 33.2585 83.8589 37.197 82.748 37.469C82.375 37.548 81.8494 37.1144 81.2742 36.2563C77.7239 30.9259 80.1523 26.222 81.9311 24.4792C83.54 22.9036 83.3481 20.2136 83.0154 18.5222L86.6668 20.7097ZM82.8868 38.576C82.9272 38.5696 82.9722 38.5604 83.0136 38.5503C85.2877 37.9908 86.0356 31.9971 86.1615 30.8018L87.8879 20.1447L83.2534 17.3683C82.9263 17.1726 82.5155 17.1919 82.2105 17.4152C81.9054 17.6356 81.764 18.016 81.8476 18.3835C82.1058 19.519 82.556 22.3138 81.1529 23.6863C79.1453 25.6506 76.3934 30.936 80.3498 36.8736C81.1924 38.1387 82.046 38.7111 82.8877 38.577L82.8868 38.576Z" fill="#31283C"/>
<g filter="url(#filter3_d_1_280)">
<path d="M83.1474 31.498C83.1474 31.498 79.961 36.0649 83.3331 39.8997L85.3563 40.0623C85.3563 40.0623 88.9756 54.8326 85.734 60.9081C80.6253 70.4793 78.3484 81.5416 78.3484 81.5416C78.3484 81.5416 89.6004 95.0863 111.098 82.0965C111.098 82.0965 114.75 79.1005 114.574 75.4817C114.398 71.8629 119.158 69.4567 119.909 73.6314L119.453 76.0761C119.453 76.0761 123.588 75.0876 123.817 69.9473C124.044 64.8053 108.453 63.418 105.323 58.41C102.196 53.4012 105.753 41.2429 105.753 41.2429L108.338 29.0781L102.461 24.2695L92.7032 23.4041L85.8598 25.6834L83.1456 31.4971L83.1474 31.498Z" fill="url(#paint7_linear_1_280)"/>
</g>
<path d="M117.418 70.9068C115.691 71.1842 113.901 73.0961 114.018 75.5096C114.18 78.7986 110.779 81.6365 110.745 81.665C91.1779 93.4862 80.4781 83.055 78.952 81.3839C79.3379 79.6383 81.6515 69.7373 86.2236 61.1684C89.5286 54.9771 86.0453 40.5413 85.8955 39.9275L85.8 39.5371L83.6076 39.3616C80.8015 35.9449 83.4864 31.9834 83.6022 31.8134L83.6509 31.7326L86.264 26.1357L92.7702 23.9685L102.24 24.8072L107.724 29.2924L105.208 41.1274C105.07 41.5932 101.628 53.5439 104.852 58.7034C106.394 61.1739 110.584 62.7495 114.636 64.2736C118.928 65.8869 123.364 67.5553 123.26 69.921C123.118 73.1558 121.3 74.5982 120.185 75.1834L120.474 73.6326L120.456 73.5325C120.068 71.3827 118.697 70.758 117.542 70.8893C117.501 70.8939 117.458 70.8994 117.416 70.9068H117.418ZM97.7226 87.904C101.708 87.2646 106.269 85.666 111.388 82.5718C111.61 82.3963 115.319 79.3085 115.131 75.4554C115.044 73.651 116.388 72.1452 117.672 71.9964C118.519 71.9008 119.11 72.4815 119.344 73.6336L118.748 76.8169L119.582 76.6166C119.627 76.6056 124.13 75.4682 124.374 69.9715C124.514 66.7983 119.907 65.0665 115.029 63.2327C111.15 61.7729 107.141 60.2652 105.795 58.1154C102.833 53.3739 106.254 41.5188 106.289 41.3993L108.953 28.8616L102.681 23.7296L92.6387 22.8394L85.4591 25.2317L82.6622 31.2254C82.3286 31.7344 79.484 36.3638 82.9158 40.2666L83.0637 40.4374L84.9078 40.5826C85.4426 42.9437 88.0611 55.3666 85.2431 60.6456C80.1547 70.1782 77.8282 81.3168 77.8043 81.4289L77.751 81.6907L77.922 81.8974C78.0102 82.0022 84.8526 89.9702 97.7235 87.904H97.7226Z" fill="#31283C"/>
<path d="M85.064 39.3978L85.8909 39.1746C85.8844 39.1479 85.1889 36.5241 85.5601 34.5571L84.7185 34.3982C84.3106 36.5599 85.0327 39.2821 85.064 39.3978Z" fill="#36295E"/>
<path d="M119.082 71.3106L119.859 70.9551C119.805 70.8329 118.427 67.9426 110.995 66.333C104.058 64.8318 102.728 61.0678 102.717 61.0292L101.902 61.2947C101.958 61.4674 103.354 65.5539 110.815 67.1699C117.749 68.672 119.069 71.284 119.083 71.3097L119.082 71.3106Z" fill="#36295E"/>
<path d="M108.551 82.2555C108.954 81.6546 109.027 80.4723 108.744 79.0905C108.491 77.8539 107.307 73.5864 102.678 70.5868C97.3401 67.1242 97.4825 63.1792 97.4843 63.1397L96.629 63.0956C96.6189 63.2775 96.4626 67.5771 102.214 71.3062C106.56 74.1239 107.669 78.1093 107.905 79.2623C108.168 80.5421 108.063 81.4479 107.841 81.7768L108.552 82.2555H108.551Z" fill="#36295E"/>
<path d="M122.735 71.3542C123.018 70.3325 122.895 69.3918 122.372 68.5585C121.048 66.4509 117.597 65.8051 117.449 65.7784L117.297 66.62C117.33 66.6273 120.527 67.2273 121.646 69.0151C122.043 69.6444 122.13 70.3344 121.908 71.1245L122.735 71.3532V71.3542Z" fill="#36295E"/>
<path d="M95.7184 52.5359C95.9021 52.5065 100.246 51.7834 103.306 49.0612L102.737 48.4227C99.8622 50.9805 95.6255 51.6833 95.5823 51.6897L95.7184 52.5359Z" fill="#36295E"/>
<path d="M92.7603 86.3271L92.6766 85.4736C87.205 86.0028 81.6691 81.9669 80.5637 81.1115L81.7316 75.3383L80.8927 75.1683L79.621 81.4487L79.8185 81.6113C80.0804 81.8291 86.3248 86.9473 92.7603 86.3262V86.3271Z" fill="#36295E"/>
<path d="M116.539 86.3685L117.591 85.9992C117.569 85.9432 117.097 84.6073 116.569 83.8264L115.646 84.4502C116.096 85.1145 116.535 86.3575 116.539 86.3694V86.3685Z" fill="#31283C"/>
<path d="M94.1314 37.8972C94.2141 38.4098 93.8649 38.8922 93.3522 38.9748C92.8395 39.0575 92.359 38.7075 92.2763 38.1948C92.1936 37.6822 92.5409 37.2008 93.0536 37.1181C93.5663 37.0354 94.0487 37.3845 94.1314 37.8972Z" fill="#FEFEFE"/>
<path d="M96.6704 36.3046C96.7531 36.8173 96.404 37.2996 95.8912 37.3823C95.3804 37.4641 94.898 37.1149 94.8153 36.6023C94.7326 36.0896 95.0817 35.6082 95.5926 35.5255C96.1044 35.4429 96.5868 35.792 96.6695 36.3046H96.6704Z" fill="#FEFEFE"/>
<path d="M93.327 24.9238C90.9436 27.2528 88.6419 27.4384 88.6419 27.4384C83.0545 22.4194 84.4787 15.2442 84.4787 15.2442C84.4787 15.2442 90.6891 11.6529 94.5114 14.7674L98.6278 16.7197C98.6278 16.7197 96.0798 24.402 99.632 26.3433C103.186 28.2864 92.1408 36.2167 91.1136 36.3812C90.0872 36.5466 88.5105 31.7757 89.9843 27.3254L93.327 24.9229V24.9238Z" fill="#FEFEFE"/>
<path d="M97.9585 17.0155C97.4458 18.7941 95.9564 24.967 99.3689 26.831C99.6969 27.0111 99.8127 27.2252 99.7741 27.5715C99.4884 30.064 92.2829 35.3338 91.0801 35.8106C90.4921 35.3586 89.1745 31.545 90.5141 27.4999L90.4957 27.4934C91.4017 27.1186 92.5521 26.4617 93.7181 25.3244L92.9399 24.5269C91.1638 26.2615 89.4317 26.73 88.8253 26.8485C84.3148 22.6261 84.8128 16.8657 84.9855 15.6034C86.1047 15.0218 91.0765 12.6846 94.1619 15.1992L94.2749 15.2699L97.9575 17.0155H97.9585ZM91.2041 36.9315C92.1772 36.7753 100.293 31.1288 100.859 27.8352C101.008 26.9762 100.668 26.2734 99.9018 25.8545C97.3245 24.4479 98.4932 18.9089 99.1603 16.8942L99.3147 16.4275L94.8124 14.2933C90.7383 11.0484 84.4691 14.6093 84.2017 14.7618L83.9849 14.8895L83.9353 15.1349C83.8747 15.4408 82.5166 22.6812 88.2731 27.8527L88.4523 28.0125L88.6903 27.9932C88.7178 27.9887 88.9154 27.9721 89.2379 27.8986C88.3154 31.4678 89.1009 35.2043 90.1622 36.4519C90.5628 36.9223 90.9515 36.971 91.2051 36.9305L91.2041 36.9315Z" fill="#31283C"/>
<path d="M107.349 39.4156C107.349 39.4156 111.989 44.2233 115.358 46.4751C115.414 46.5128 115.42 46.589 115.375 46.6386C114.864 47.1697 112.304 49.992 111.249 54.1317C110.418 57.3932 106.011 63.8058 106.011 63.8058C106.011 63.8058 103.527 64.4958 102.946 65.1573C102.409 65.7692 103.352 66.6778 104.916 66.4426C105.042 66.4242 105.127 66.5611 105.046 66.6566L102.665 69.4532C102.286 69.8988 102.248 70.5419 102.569 71.0297C102.87 71.4845 103.414 71.7004 103.948 71.5902C105.503 71.2686 108.553 70.2203 109.179 66.9139L110.022 64.9836C110.022 64.9836 116.438 55.6448 120.757 48.9759C121.281 48.1655 121.669 47.2781 121.903 46.3419C122.04 45.7943 121.907 45.2174 121.538 44.7883C120.163 43.1852 116.588 39.0638 113.287 35.625C109.089 31.2547 107.219 36.5346 107.219 36.5346L107.349 39.4166V39.4156Z" fill="#FEFEFE"/>
<path d="M108.95 34.934C109.203 34.7236 109.495 34.5573 109.827 34.4857C110.705 34.2982 111.733 34.8118 112.885 36.0098C116.172 39.433 119.736 43.5415 121.113 45.1483C121.362 45.4395 121.455 45.8337 121.362 46.2048C121.142 47.0822 120.781 47.9127 120.289 48.6716C116.024 55.2588 109.627 64.5746 109.562 64.6665L109.512 64.7602L108.632 66.8099C108.076 69.7452 105.387 70.7236 103.834 71.047C103.521 71.1113 103.206 70.9836 103.033 70.7227C102.849 70.4416 102.871 70.0704 103.087 69.8132L105.468 67.0166C105.656 66.797 105.687 66.4929 105.546 66.2393C105.407 65.9885 105.119 65.848 104.83 65.8902C103.889 66.0336 103.375 65.6605 103.35 65.5282C103.66 65.1874 105.042 64.6536 106.161 64.3422L106.356 64.288L106.47 64.1208C106.652 63.8562 110.943 57.5878 111.789 54.2694C112.811 50.261 115.289 47.5296 115.776 47.0225C115.913 46.881 115.979 46.6872 115.957 46.4915C115.937 46.2976 115.832 46.1231 115.667 46.0137C112.719 44.0412 108.707 40.0072 107.897 39.1803L107.783 36.6272C107.898 36.3442 108.291 35.4852 108.951 34.934H108.95ZM107.707 70.4526C108.622 69.69 109.407 68.6078 109.713 67.0781L110.51 65.2554C110.991 64.5507 117.099 55.6456 121.222 49.277C121.782 48.4153 122.191 47.4727 122.442 46.4786C122.624 45.7565 122.443 44.9894 121.958 44.4253C120.573 42.812 116.993 38.6851 113.688 35.2408C112.249 33.7433 110.87 33.1241 109.589 33.4006C107.606 33.8306 106.73 36.2468 106.692 36.3497L106.662 36.561L106.8 39.6534L106.947 39.805C107.128 39.9952 111.294 44.2976 114.614 46.6431C113.705 47.6849 111.638 50.3473 110.707 53.9965C109.98 56.8409 106.348 62.3109 105.662 63.3288C104.961 63.5328 103.115 64.1199 102.525 64.7914C102.197 65.1654 102.143 65.6495 102.38 66.0841C102.658 66.593 103.265 66.9247 104.01 67.0138L102.238 69.0938C101.703 69.725 101.646 70.6483 102.103 71.3373C102.53 71.9813 103.296 72.2946 104.059 72.1375C104.908 71.962 106.433 71.5165 107.706 70.4553L107.707 70.4526Z" fill="#31283C"/>
<path d="M103.632 35.7326C103.632 35.7326 104.283 37.2815 108.339 40.6716C108.603 40.893 108.987 40.905 109.26 40.6955C110.584 39.6831 114.186 36.7165 113.322 35.0297C112.272 32.9746 106 28.8375 104.065 30.1375C100.982 32.2065 103.633 35.7335 103.633 35.7335L103.632 35.7326Z" fill="url(#paint8_linear_1_280)"/>
<path d="M104.093 30.8055C104.18 30.7348 104.273 30.6659 104.373 30.5979C104.669 30.3995 105.237 30.3949 105.969 30.5851C108.448 31.2263 112.114 33.8924 112.826 35.2843C113.261 36.135 111.684 38.1351 108.923 40.2527C108.856 40.3023 108.761 40.2996 108.693 40.2435C104.862 37.0399 104.149 35.5241 104.142 35.5103L104.078 35.3982C104.066 35.3835 102.911 33.8116 103.164 32.3168C103.266 31.7261 103.572 31.2291 104.094 30.8055H104.093ZM110.282 40.5982C112.52 38.7818 114.68 36.4658 113.818 34.7771C112.907 32.9939 108.873 30.1872 106.248 29.5083C105.173 29.2299 104.334 29.2851 103.752 29.6746C102.803 30.3113 102.235 31.1418 102.066 32.1377C101.759 33.9521 102.92 35.6922 103.15 36.0165C103.331 36.3867 104.259 37.9908 107.98 41.0988C108.442 41.4856 109.122 41.5031 109.598 41.1383C109.825 40.9647 110.053 40.7847 110.282 40.5991V40.5982Z" fill="#31283C"/>
<path d="M86.9158 25.6034C86.9158 25.6034 87.6252 28.2705 86.1808 29.8801C85.3198 30.8392 85.0194 32.3422 84.9156 33.4015C84.8779 33.7975 84.3579 33.9224 84.1465 33.5843C83.0486 31.8167 81.9681 29.0716 83.4593 25.8588C85.2887 21.9203 82.7986 18.9151 82.7986 18.9151C79.3733 12.2131 85.5386 9.72423 85.5386 9.72423C85.5386 9.72423 89.1872 4.68137 95.1072 8.75406C101.031 12.8286 104.781 14.4951 108.425 12.4519C112.069 10.4087 117.061 12.8442 116.461 17.0758C116.016 20.2197 112.462 19.6381 112.072 18.0166C112.016 17.7759 112.258 17.5765 112.501 17.6188C112.896 17.6886 113.484 17.6023 113.977 16.746C114.801 15.3183 110.684 14.2673 109.693 17.1705C108.697 20.0718 111.43 22.5836 114.745 22.5385C116.704 22.5101 117.695 21.3938 118.18 20.4852C118.347 20.1738 118.814 20.2702 118.848 20.6221C119.006 22.2492 118.737 24.9171 115.49 25.6585C110.722 26.749 107.468 22.6424 107.468 22.6424C107.468 22.6424 106.529 25.1128 108.792 27.0991C111.395 29.383 109.167 33.724 105.931 31.7313C105.931 31.7313 108.541 29.9048 105.362 27.6898C102.716 25.8459 102.13 29.2627 102.13 29.2627C102.13 29.2627 98.8367 29.3058 98.2192 25.2717C98.2192 25.2717 95.1642 24.4155 95.6116 21.4159C96.0177 18.6974 93.8953 18.9068 93.8953 18.9068C93.8071 19.5793 93.1666 20.0249 92.4987 19.8926C91.4135 19.6776 89.8855 19.0364 89.0071 17.1879L84.8742 17.4617C84.4874 18.577 83.87 20.2574 84.9202 22.2611C85.9704 24.2639 86.9168 25.5997 86.9168 25.5997L86.9158 25.6034Z" fill="#FF6E7A"/>
<g filter="url(#filter4_d_1_280)">
<path d="M86.3992 25.8351C86.4956 26.2788 86.854 28.2972 85.7661 29.509C84.919 30.4535 84.5598 31.8288 84.4091 32.9386C83.0823 30.6151 82.9334 28.3147 83.9634 26.095C84.4788 24.9871 84.6783 23.9507 84.693 23.021C85.496 24.4992 86.1878 25.53 86.3992 25.8351ZM107.295 21.5354L106.947 22.4459C106.903 22.5626 105.898 25.304 108.424 27.5209C109.623 28.5728 109.579 30.0795 108.926 30.9633C108.433 31.6303 107.698 31.8398 106.884 31.5734C107.193 31.1884 107.495 30.6372 107.495 29.961C107.494 28.9927 106.883 28.0749 105.68 27.2361C104.766 26.5985 103.928 26.434 103.203 26.7363C102.317 27.1065 101.892 28.0611 101.706 28.6656C100.902 28.5195 99.1818 27.8902 98.7693 25.191L98.7142 24.8364L98.3687 24.7381C98.2658 24.7087 95.7942 23.9673 96.1608 21.4996C96.3252 20.4008 96.1387 19.5574 95.6058 18.9979C94.9139 18.2721 93.9474 18.3438 93.8389 18.3539L93.4006 18.398L93.3436 18.8344C93.3216 19.0025 93.2352 19.1477 93.0992 19.246C92.9559 19.348 92.7813 19.3829 92.6086 19.3489C91.6218 19.1532 90.2831 18.5762 89.5103 16.9501L89.3468 16.6093L84.4706 16.9326L84.3484 17.2808C84.1481 17.856 83.8908 18.5964 83.81 19.4573C83.5757 19.02 83.3616 18.7278 83.2706 18.613C82.2829 16.6598 82.0633 14.9133 82.6174 13.4204C83.4388 11.2054 85.7239 10.2471 85.7468 10.2389L85.8929 10.1801L85.9876 10.0514C86.1272 9.86311 89.402 5.50653 94.7918 9.21265C100.779 13.3285 104.766 15.1393 108.698 12.9362C110.398 11.9817 112.607 12.0717 114.192 13.1558C115.503 14.0525 116.13 15.4526 115.911 16.997C115.691 18.5413 114.663 18.7554 114.226 18.7747C113.633 18.8041 113.048 18.5551 112.766 18.1922C113.258 18.1793 113.923 17.9533 114.459 17.0236C114.714 16.5817 114.702 16.0939 114.425 15.6823C113.984 15.0217 112.916 14.657 111.826 14.7985C110.526 14.9703 109.582 15.765 109.163 16.9905C108.712 18.3135 108.914 19.664 109.734 20.794C110.784 22.241 112.707 23.1221 114.753 23.0936C116.257 23.0743 117.506 22.4404 118.326 21.3012C118.334 22.851 117.753 24.57 115.364 25.1184C111.018 26.0987 107.933 22.3338 107.902 22.2952L107.294 21.5336L107.295 21.5354ZM107.978 32.7686C108.782 32.64 109.42 32.1687 109.822 31.6239C110.769 30.3414 110.857 28.1741 109.159 26.6839C108.048 25.7101 107.82 24.6049 107.83 23.8332C109.132 25.0459 111.921 27.0524 115.614 26.2025C118.308 25.5861 119.691 23.5327 119.402 20.5689C119.363 20.1629 119.067 19.8367 118.669 19.7596C118.274 19.6796 117.879 19.8689 117.69 20.2263C117.079 21.3719 116.089 21.9626 114.738 21.9819C113.049 22.0067 111.475 21.3012 110.636 20.1426C110.21 19.5556 109.792 18.5955 110.219 17.3516C110.597 16.2409 111.481 15.9753 111.973 15.9037C112.731 15.8045 113.348 16.0727 113.503 16.3043C113.532 16.3465 113.548 16.3787 113.496 16.4696C113.097 17.1614 112.721 17.0943 112.599 17.0714C112.287 17.0181 111.961 17.1256 111.746 17.3534C111.545 17.5675 111.465 17.8633 111.531 18.1463C111.786 19.2037 112.967 19.9525 114.279 19.8909C115.409 19.8349 116.738 19.0907 117.012 17.1568C117.293 15.1788 116.493 13.3846 114.821 12.2398C112.865 10.9004 110.247 10.7928 108.151 11.9679C104.727 13.8908 101.036 12.159 95.4229 8.29852C89.6794 4.34711 85.8488 8.47309 85.1873 9.27238C84.6093 9.53789 82.4593 10.6661 81.5772 13.0235C80.901 14.8352 81.1454 16.9042 82.3049 19.1707L82.3711 19.2717C82.462 19.3829 84.6056 22.0692 82.9527 25.6265C81.7022 28.322 81.9447 31.0984 83.673 33.8775C83.8963 34.2367 84.3153 34.4049 84.7196 34.3121C85.1322 34.2147 85.428 33.8794 85.4693 33.4558C85.5658 32.4572 85.8387 31.0929 86.5931 30.2522C88.2185 28.4387 87.4834 25.5815 87.4521 25.4611L87.3695 25.282C87.3603 25.2691 86.4304 23.9498 85.4105 22.0058C84.5716 20.4026 84.9254 19.0393 85.2783 17.9956L88.676 17.7696C89.6647 19.5547 91.2221 20.2079 92.3881 20.4412C92.8631 20.5368 93.3556 20.4275 93.7443 20.15C93.9841 19.9773 94.1715 19.7531 94.2937 19.4941C94.4591 19.5317 94.653 19.6116 94.8027 19.7706C95.151 20.1427 95.1335 20.8289 95.0582 21.337C94.6824 23.8515 96.4806 25.2149 97.7247 25.6963C98.5406 29.8186 102.097 29.8204 102.134 29.8223L102.594 29.814L102.675 29.3592C102.74 29 103.034 28.0097 103.631 27.7616C103.993 27.6128 104.461 27.7451 105.042 28.1484C105.65 28.5737 106.375 29.2306 106.38 29.9564C106.385 30.7153 105.616 31.2739 105.607 31.2812L104.925 31.7681L105.636 32.2091C106.506 32.7438 107.3 32.878 107.976 32.7695L107.978 32.7686Z" fill="#31283C"/>
</g>
<path d="M99.4113 24.3836C99.5363 24.2725 102.481 21.6109 100.985 17.1597C99.4673 12.6443 95.5762 12.9428 95.5358 12.9465L95.6341 14.0554C95.7581 14.0444 98.6984 13.8533 99.9296 17.5144C101.193 21.2729 98.7001 23.5246 98.6763 23.5476L99.4113 24.3827V24.3836Z" fill="#31283C"/>
<path d="M104.843 25.8647L105.45 24.9303C102.886 23.2619 103.739 18.875 103.747 18.8318L102.656 18.6095C102.612 18.8199 101.643 23.7801 104.842 25.8647H104.843Z" fill="#31283C"/>
<path d="M86.9623 13.5873L88.0466 13.3328L87.5045 13.4596L88.0475 13.3365C88.0438 13.3163 87.6258 11.4017 88.8506 10.0365C90.1811 8.55273 92.299 7.8738 93.1691 8.29825L93.6606 7.2987C92.2346 6.60231 89.6012 7.53205 88.0217 9.29231C86.4018 11.0967 86.9393 13.4872 86.9623 13.5855V13.5873Z" fill="#31283C"/>
<path d="M92.67 15.98C92.6737 15.9304 92.7794 14.7746 94.2339 14.2739L93.8709 13.2211C91.6896 13.9707 91.5637 15.8348 91.5591 15.9138L92.671 15.98H92.67Z" fill="#31283C"/>
<path d="M85.0063 17.2798L86.0757 16.9684C86.0702 16.9537 85.6034 14.9766 85.9691 13.5223L84.8878 13.2522C84.4477 15.0069 84.9832 17.2091 85.0053 17.2808L85.0063 17.2798Z" fill="#31283C"/>
<path d="M88.0662 24.0546C88.317 24.0142 88.6698 23.8948 89.0999 23.5851L88.601 22.8897C88.3685 23.056 88.1866 23.1396 88.0579 23.1772L87.5636 21.7404L86.7532 22.0169L87.4331 23.9986L87.6619 24.0528C87.7078 24.0647 87.8475 24.0895 88.0653 24.0546H88.0662Z" fill="#31283C"/>
<path d="M88.7947 25.5327C89.7466 25.3802 90.1959 24.6075 90.217 24.5708L89.4728 24.1454C89.459 24.1702 89.1117 24.7462 88.3684 24.7003L88.3133 25.5547C88.4851 25.5657 88.6458 25.5575 88.7947 25.5336V25.5327Z" fill="#31283C"/>
<path d="M88.0687 20.7988C88.2038 21.3023 88.575 21.6394 88.8985 21.5522C89.2219 21.4649 89.3753 20.9881 89.2402 20.4865C89.1061 19.9821 88.734 19.6458 88.4106 19.7313C88.0872 19.8176 87.9327 20.2963 88.0687 20.7988Z" fill="#31283C"/>
<path d="M85.0438 21.698C85.1788 22.2024 85.551 22.5386 85.8744 22.4513C86.1978 22.3641 86.3522 21.8872 86.2162 21.3838C86.0811 20.8812 85.709 20.5431 85.3855 20.6304C85.0621 20.7168 84.9087 21.1954 85.0438 21.698Z" fill="#31283C"/>
<defs>
<filter id="filter0_d_1_280" x="0" y="110.957" width="175.144" height="48.2335" filterUnits="userSpaceOnUse" color-interpolation-filters="sRGB">
<feFlood flood-opacity="0" result="BackgroundImageFix"/>
<feColorMatrix in="SourceAlpha" type="matrix" values="0 0 0 0 0 0 0 0 0 0 0 0 0 0 0 0 0 0 127 0" result="hardAlpha"/>
<feOffset dx="-1" dy="3"/>
<feGaussianBlur stdDeviation="3"/>
<feColorMatrix type="matrix" values="0 0 0 0 1 0 0 0 0 0.431373 0 0 0 0 0.478431 0 0 0 0.8 0"/>
<feBlend mode="normal" in2="BackgroundImageFix" result="effect1_dropShadow_1_280"/>
<feBlend mode="normal" in="SourceGraphic" in2="effect1_dropShadow_1_280" result="shape"/>
</filter>
<filter id="filter1_d_1_280" x="129.33" y="91.1503" width="28.2802" height="34.6715" filterUnits="userSpaceOnUse" color-interpolation-filters="sRGB">
<feFlood flood-opacity="0" result="BackgroundImageFix"/>
<feColorMatrix in="SourceAlpha" type="matrix" values="0 0 0 0 0 0 0 0 0 0 0 0 0 0 0 0 0 0 127 0" result="hardAlpha"/>
<feOffset dx="2" dy="4"/>
<feGaussianBlur stdDeviation="4.5"/>
<feColorMatrix type="matrix" values="0 0 0 0 1 0 0 0 0 0.6 0 0 0 0 0 0 0 0 1 0"/>
<feBlend mode="normal" in2="BackgroundImageFix" result="effect1_dropShadow_1_280"/>
<feBlend mode="normal" in="SourceGraphic" in2="effect1_dropShadow_1_280" result="shape"/>
</filter>
<filter id="filter2_d_1_280" x="83.6302" y="111.321" width="32.7905" height="34.7489" filterUnits="userSpaceOnUse" color-interpolation-filters="sRGB">
<feFlood flood-opacity="0" result="BackgroundImageFix"/>
<feColorMatrix in="SourceAlpha" type="matrix" values="0 0 0 0 0 0 0 0 0 0 0 0 0 0 0 0 0 0 127 0" result="hardAlpha"/>
<feOffset dx="2" dy="4"/>
<feGaussianBlur stdDeviation="4.5"/>
<feColorMatrix type="matrix" values="0 0 0 0 1 0 0 0 0 0.431373 0 0 0 0 0.478431 0 0 0 1 0"/>
<feBlend mode="normal" in2="BackgroundImageFix" result="effect1_dropShadow_1_280"/>
<feBlend mode="normal" in="SourceGraphic" in2="effect1_dropShadow_1_280" result="shape"/>
</filter>
<filter id="filter3_d_1_280" x="68.3484" y="17.4041" width="57.4714" height="76.3252" filterUnits="userSpaceOnUse" color-interpolation-filters="sRGB">
<feFlood flood-opacity="0" result="BackgroundImageFix"/>
<feColorMatrix in="SourceAlpha" type="matrix" values="0 0 0 0 0 0 0 0 0 0 0 0 0 0 0 0 0 0 127 0" result="hardAlpha"/>
<feOffset dx="-4"/>
<feGaussianBlur stdDeviation="3"/>
<feColorMatrix type="matrix" values="0 0 0 0 1 0 0 0 0 0.6 0 0 0 0 0 0 0 0 0.6 0"/>
<feBlend mode="normal" in2="BackgroundImageFix" result="effect1_dropShadow_1_280"/>
<feBlend mode="normal" in="SourceGraphic" in2="effect1_dropShadow_1_280" result="shape"/>
</filter>
<filter id="filter4_d_1_280" x="71.2044" y="0.612427" width="50.2349" height="39.7249" filterUnits="userSpaceOnUse" color-interpolation-filters="sRGB">
<feFlood flood-opacity="0" result="BackgroundImageFix"/>
<feColorMatrix in="SourceAlpha" type="matrix" values="0 0 0 0 0 0 0 0 0 0 0 0 0 0 0 0 0 0 127 0" result="hardAlpha"/>
<feOffset dx="-4"/>
<feGaussianBlur stdDeviation="3"/>
<feColorMatrix type="matrix" values="0 0 0 0 1 0 0 0 0 0.431373 0 0 0 0 0.478431 0 0 0 1 0"/>
<feBlend mode="normal" in2="BackgroundImageFix" result="effect1_dropShadow_1_280"/>
<feBlend mode="normal" in="SourceGraphic" in2="effect1_dropShadow_1_280" result="shape"/>
</filter>
<radialGradient id="paint0_radial_1_280" cx="0" cy="0" r="1" gradientUnits="userSpaceOnUse" gradientTransform="translate(95 85.6124) rotate(90) scale(85)">
<stop stop-color="#7795FF"/>
<stop offset="1" stop-color="#331E87"/>
</radialGradient>
<linearGradient id="paint1_linear_1_280" x1="7.79443" y1="132.074" x2="169.26" y2="132.074" gradientUnits="userSpaceOnUse">
<stop stop-color="#A445B2"/>
<stop offset="0.52" stop-color="#D41872"/>
<stop offset="1" stop-color="#FF0066"/>
</linearGradient>
<linearGradient id="paint2_linear_1_280" x1="146.61" y1="104.486" x2="136.33" y2="104.486" gradientUnits="userSpaceOnUse">
<stop stop-color="#F9D423"/>
<stop offset="1" stop-color="#FF4E50"/>
</linearGradient>
<linearGradient id="paint3_linear_1_280" x1="104.868" y1="124.796" x2="91.1885" y2="124.796" gradientUnits="userSpaceOnUse">
<stop stop-color="#F9D423"/>
<stop offset="1" stop-color="#FF4E50"/>
</linearGradient>
<linearGradient id="paint4_linear_1_280" x1="124.659" y1="74.3079" x2="114.574" y2="74.3079" gradientUnits="userSpaceOnUse">
<stop stop-color="#A445B2"/>
<stop offset="0.52" stop-color="#D41872"/>
<stop offset="1" stop-color="#FF0066"/>
</linearGradient>
<linearGradient id="paint5_linear_1_280" x1="122.581" y1="80.7184" x2="80.7502" y2="80.7184" gradientUnits="userSpaceOnUse">
<stop stop-color="#A445B2"/>
<stop offset="0.52" stop-color="#D41872"/>
<stop offset="1" stop-color="#FF0066"/>
</linearGradient>
<linearGradient id="paint6_linear_1_280" x1="121.888" y1="73.9265" x2="105.389" y2="73.9265" gradientUnits="userSpaceOnUse">
<stop stop-color="#A445B2"/>
<stop offset="0.52" stop-color="#D41872"/>
<stop offset="1" stop-color="#FF0066"/>
</linearGradient>
<linearGradient id="paint7_linear_1_280" x1="123.82" y1="55.5667" x2="78.3484" y2="55.5667" gradientUnits="userSpaceOnUse">
<stop stop-color="#A445B2"/>
<stop offset="0.52" stop-color="#D41872"/>
<stop offset="1" stop-color="#FF0066"/>
</linearGradient>
<linearGradient id="paint8_linear_1_280" x1="113.455" y1="35.3675" x2="102.573" y2="35.3675" gradientUnits="userSpaceOnUse">
<stop stop-color="#A445B2"/>
<stop offset="0.52" stop-color="#D41872"/>
<stop offset="1" stop-color="#FF0066"/>
</linearGradient>
</defs>
</svg>
