<svg width="25" height="17" viewBox="0 0 25 17" fill="none" xmlns="http://www.w3.org/2000/svg">
<path d="M2.58604 0C1.28507 0 0.241211 1.09423 0.241211 2.40894V14.5819C0.241211 15.8966 1.28507 17 2.58604 17H21.9309C23.2318 17 24.2757 15.8966 24.2757 14.5819V2.40894C24.2757 1.09423 23.2318 0 21.9309 0H2.58604H2.58604ZM2.58604 1.17241H21.9309C22.1044 1.17241 22.2682 1.22238 22.4163 1.29147L12.9821 10.2495C12.549 10.6606 11.987 10.6606 11.5532 10.2495L2.1006 1.29147C2.24874 1.22238 2.41255 1.17241 2.58604 1.17241H2.58604ZM1.43194 2.27155L8.10922 8.60077L1.54186 15.159C1.45961 14.9882 1.41362 14.7927 1.41362 14.5819V2.40894C1.41362 2.36134 1.4274 2.31742 1.4318 2.27155H1.43194ZM23.085 2.27155C23.0897 2.31742 23.1031 2.36134 23.1031 2.40894V14.5819C23.1031 14.7896 23.0549 14.9808 22.9749 15.1498L16.4259 8.59159L23.0848 2.27155H23.085ZM15.5742 9.40681L21.9858 15.8276C21.9674 15.8276 21.9494 15.8276 21.9309 15.8276H2.58604C2.5705 15.8276 2.55556 15.8276 2.54026 15.8276L8.96104 9.41595L10.7472 11.1013C11.5978 11.9077 12.9376 11.9088 13.7881 11.1013L15.5742 9.40681Z" fill="white"/>
</svg>
