<svg width="164" height="59" viewBox="0 0 164 59" fill="none" xmlns="http://www.w3.org/2000/svg">
<path fill-rule="evenodd" clip-rule="evenodd" d="M155.157 0C156.108 0 156.914 2.63467 157.211 6.30908C160.516 5.21333 163.108 5.02583 163.507 5.93652C163.848 6.71329 162.39 8.10124 160.023 9.54032C162.385 11.0111 163.811 12.4428 163.518 13.2318C163.173 14.1595 160.548 13.916 157.193 12.7667C156.882 16.3218 156.087 18.8493 155.157 18.8493C154.227 18.8493 153.432 16.3218 153.121 12.7667C149.766 13.916 147.141 14.1595 146.796 13.2318C146.501 12.4428 147.929 11.0111 150.291 9.54032C147.924 8.10124 146.467 6.71329 146.807 5.93652C147.208 5.02583 149.801 5.21576 153.103 6.30908C153.4 2.63467 154.208 0 155.157 0V0ZM159.638 9.76921C158.924 10.188 158.139 10.6093 157.303 11.0184C157.294 11.2765 157.28 11.5297 157.266 11.7805C159.606 12.4867 161.167 12.4964 161.474 11.912C161.704 11.4737 160.949 10.6726 159.641 9.77165L159.638 9.76921ZM151.04 9.08741C151.65 8.73434 152.306 8.3837 153.004 8.0428C153.022 7.5144 153.05 7.00305 153.087 6.50631C150.004 5.43004 147.496 5.2255 147.155 5.84886C146.84 6.42352 148.334 7.64102 151.04 9.08985V9.08741ZM150.676 9.76921C151.39 10.188 152.175 10.6093 153.011 11.0159C153.02 11.274 153.034 11.5273 153.048 11.7781C150.708 12.4842 149.147 12.494 148.841 11.9096C148.61 11.4713 149.366 10.6702 150.674 9.76921H150.676ZM153.4 11.2059C153.591 11.296 153.785 11.386 153.98 11.4761C153.801 11.5395 153.623 11.5979 153.451 11.6539C153.432 11.5078 153.416 11.3568 153.402 11.2059H153.4ZM155.157 11.9899C155.694 12.2139 156.221 12.4185 156.732 12.6035C156.391 14.7074 155.813 16.0929 155.157 16.0929C154.501 16.0929 153.923 14.7098 153.582 12.6035C154.093 12.4185 154.621 12.2139 155.159 11.9899H155.157ZM159.274 9.08741C158.664 8.73434 158.008 8.3837 157.31 8.0428C157.292 7.5144 157.264 7.00305 157.227 6.50631C160.311 5.43004 162.818 5.2255 163.159 5.84886C163.475 6.42352 161.98 7.64102 159.274 9.08985V9.08741ZM157.055 7.91861C156.714 7.75303 156.364 7.59232 156.004 7.43405C155.823 7.35369 155.641 7.27577 155.459 7.19785L155.484 7.18811C156.005 6.96409 156.518 6.76199 157.018 6.5818C157.038 7.01523 157.052 7.46327 157.057 7.91861H157.055ZM155.157 7.07123C154.524 6.81069 153.904 6.57936 153.308 6.37726C153.506 2.89034 154.259 0.294635 155.157 0.294635C156.055 0.294635 156.808 2.89034 157.006 6.37726C156.41 6.57936 155.79 6.81312 155.157 7.07123ZM151.415 9.28708C151.903 9.54276 152.428 9.8033 152.986 10.0687C152.983 9.85443 152.981 9.64016 152.981 9.42344C152.981 9.0728 152.986 8.7246 152.995 8.3837C152.428 8.68564 151.899 8.98758 151.417 9.28708H151.415ZM153.322 10.227C153.421 10.2733 153.52 10.3195 153.621 10.3658C154.153 10.6117 154.667 10.8333 155.157 11.0305C155.65 10.8333 156.163 10.6117 156.693 10.3658C156.794 10.3195 156.893 10.2733 156.992 10.227C157.034 9.59389 157.055 8.92914 157.057 8.2449C156.454 7.93322 155.816 7.62398 155.157 7.33178C154.498 7.62398 153.861 7.93079 153.257 8.2449C153.257 8.92914 153.28 9.59389 153.322 10.227ZM156.336 11.4737C156.516 11.537 156.693 11.5955 156.866 11.6515C156.884 11.5054 156.9 11.3544 156.914 11.2034C156.723 11.2935 156.53 11.3836 156.336 11.4737ZM158.899 9.28465C158.418 8.98514 157.888 8.68077 157.322 8.38126C157.331 8.72216 157.335 9.07037 157.335 9.42101C157.335 9.63772 157.333 9.85443 157.331 10.0663C157.888 9.80087 158.411 9.54032 158.901 9.28465H158.899ZM154.855 7.19542L154.832 7.18568C154.312 6.96166 153.798 6.75955 153.299 6.57936C153.278 7.01279 153.264 7.4584 153.26 7.91618C153.6 7.75303 153.95 7.58989 154.31 7.43161C154.492 7.35126 154.674 7.2709 154.855 7.19542Z" fill="white"/>
<path d="M0 41.541H6.0171L7.45402 36.24H14.908L16.3795 41.541H22.3966L14.2748 16.2706H8.12412L0.00230275 41.541H0ZM8.82415 31.2921L10.1943 26.3783C10.6295 24.7882 11.1638 22.0318 11.1638 22.0318H11.2305C11.2305 22.0318 11.7648 24.7882 12.2 26.3783L13.5379 31.2921H8.82415ZM22.217 28.8522C22.217 37.1239 27.8334 41.9647 33.9495 41.9647C36.2891 41.9647 38.7968 41.1173 40.2337 39.7732H40.3005C40.3005 39.7732 40.2683 40.304 40.2683 40.8324V41.5386H45.1478V27.2597H36.5908V32.5266H39.9666V34.4698C38.5965 35.5996 36.8579 36.3082 35.1193 36.3082C31.4096 36.3082 28.2663 33.4446 28.2663 28.638C28.2663 24.8905 30.3043 21.4985 35.3196 21.4985C37.3576 21.4985 39.7663 22.5237 41.1364 23.8313L43.9435 19.1999C41.4035 16.8331 37.9931 15.842 34.7509 15.842C27.465 15.842 22.217 21.4985 22.217 28.8498V28.8522ZM45.9377 41.541H51.9547L53.3917 36.24H60.8457L62.3171 41.541H68.3342L60.2124 16.2706H54.0618L45.94 41.541H45.9377ZM54.7618 31.2921L56.1319 26.3783C56.5672 24.7882 57.1014 22.0318 57.1014 22.0318H57.1682C57.1682 22.0318 57.7024 24.7882 58.1376 26.3783L59.4755 31.2921H54.7618ZM73.2345 41.541H79.0835V21.5716H86.3372V16.2706H65.9808V21.5716H73.2345V41.541ZM88.4649 41.541H103.907V36.24H94.3139V31.4674H101.6V26.1664H94.3139V21.5716H103.44V16.2706H88.4649V41.541ZM105.167 28.8522C105.167 36.3447 110.014 41.9647 117.701 41.9647C122.078 41.9647 125.221 40.0216 127.326 37.7229L124.319 33.1987C122.682 34.93 120.342 36.3082 117.968 36.3082C113.355 36.3082 111.216 32.456 111.216 28.7086C111.216 25.0682 113.187 21.4985 117.968 21.4985C120.107 21.4985 122.414 22.6649 123.95 24.0796L126.658 19.4142C124.319 16.9768 120.908 15.8445 117.701 15.8445C110.313 15.8445 105.167 21.501 105.167 28.8522ZM129.523 41.541H135.372V31.6452H144.063V41.541H149.912V16.2706H144.063V26.3783H135.372V16.2706H129.523V41.541Z" fill="white"/>
<path fill-rule="evenodd" clip-rule="evenodd" d="M73.3429 44.2026H149.903V59.0001H73.3429V44.2026Z" fill="#D8DBFF"/>
<path d="M77.283 54.9483H79.4338C81.4004 54.9483 82.6991 53.6918 82.6991 51.5247C82.6991 49.3673 81.4004 48.1205 79.4338 48.1205H77.283V54.9507V54.9483ZM78.188 54.1155V48.9509H79.367C80.8039 48.9509 81.7642 49.8494 81.7642 51.5247C81.7642 53.217 80.8131 54.1179 79.367 54.1179H78.188V54.1155ZM83.8113 54.9483H84.7163V48.1181H83.8113V54.9483ZM85.8216 51.5247C85.8216 53.6139 87.2586 55.0652 88.9971 55.0652C89.7939 55.0652 90.5423 54.7169 90.9821 54.2324H91.0005C91.0005 54.2324 90.9913 54.3785 90.9913 54.5221V54.9483H91.7881V51.5149H89.9136V52.3477H90.9568V53.3339C90.4893 53.8477 89.8215 54.1861 89.1261 54.1861C87.7813 54.1861 86.7566 53.0831 86.7566 51.5076C86.7566 50.0564 87.6707 48.8754 89.1814 48.8754C89.8399 48.8754 90.5814 49.1554 91.0121 49.5426L91.4703 48.8364C90.8209 48.2569 89.9528 48.0037 89.1192 48.0037C87.2355 48.0037 85.8262 49.5523 85.8262 51.5247H85.8216ZM92.9717 54.9483H93.8767V48.1181H92.9717V54.9483ZM96.8841 54.9483H97.7798V48.9509H100.002V48.1181H94.6596V48.9509H96.8818V54.9483H96.8841ZM99.5345 54.9483H100.458L101.107 52.9857H103.541L104.191 54.9483H105.123L102.809 48.1181H101.849L99.5345 54.9483ZM101.347 52.1919L102.07 50.0344C102.18 49.6765 102.316 49.058 102.316 49.058H102.335C102.335 49.058 102.482 49.6765 102.59 50.0344L103.304 52.1919H101.347ZM105.899 54.9483H109.706V54.1155H106.807V48.1181H105.902V54.9483H105.899ZM111.541 54.9483H112.465L113.114 52.9857H115.548L116.197 54.9483H117.13L114.816 48.1181H113.855L111.541 54.9483ZM113.353 52.1919L114.076 50.0344C114.187 49.6765 114.323 49.058 114.323 49.058H114.341C114.341 49.058 114.489 49.6765 114.597 50.0344L115.311 52.1919H113.353ZM117.358 51.5247C117.358 53.6139 118.795 55.0652 120.533 55.0652C121.33 55.0652 122.079 54.7169 122.518 54.2324H122.537C122.537 54.2324 122.528 54.3785 122.528 54.5221V54.9483H123.324V51.5149H121.45V52.3477H122.493V53.3339C122.026 53.8477 121.358 54.1861 120.662 54.1861C119.318 54.1861 118.293 53.0831 118.293 51.5076C118.293 50.0564 119.207 48.8754 120.718 48.8754C121.376 48.8754 122.118 49.1554 122.546 49.5426L123.004 48.8364C122.355 48.2569 121.487 48.0037 120.653 48.0037C118.769 48.0037 117.36 49.5523 117.36 51.5247H117.358ZM124.508 54.9483H128.423V54.1155H125.413V51.9191H127.727V51.0864H125.413V48.9484H128.268V48.1157H124.508V54.9458V54.9483ZM129.454 54.9483H130.359V50.5166C130.359 50.1294 130.304 49.5207 130.304 49.5207H130.322C130.322 49.5207 130.624 50.1392 130.852 50.5166L133.733 54.9483H134.619V48.1181H133.724V52.5498C133.724 52.937 133.779 53.5457 133.779 53.5457H133.76C133.76 53.5457 133.459 52.9272 133.231 52.5498L130.35 48.1181H129.454V54.9483ZM135.727 51.4954C135.727 53.497 137.035 55.0652 139.038 55.0652C140.183 55.0652 140.986 54.5611 141.537 53.9816L141.051 53.2949C140.53 53.8452 139.789 54.1837 139.066 54.1837C137.565 54.1837 136.66 52.9345 136.66 51.4857C136.66 50.0442 137.546 48.873 139.048 48.873C139.715 48.873 140.438 49.1725 140.913 49.6181L141.371 48.9022C140.749 48.2739 139.844 48.0012 139.011 48.0012C137.09 48.0012 135.727 49.5109 135.727 51.493V51.4954ZM143.876 54.9483H144.772V52.0555L146.941 48.1181H145.917L144.726 50.3632C144.526 50.7601 144.332 51.2252 144.332 51.2252H144.314C144.314 51.2252 144.114 50.7601 143.92 50.3632L142.732 48.1181H141.707L143.876 52.0555V54.9483Z" fill="#341F88"/>
<path fill-rule="evenodd" clip-rule="evenodd" d="M11.2837 47.0564L12.313 50.5336L15.7603 50.4946L12.9509 52.6058L14.0516 56.0586L11.2837 53.8841L8.51809 56.0586L9.61881 52.6058L6.80945 50.4946L10.2544 50.5336L11.2837 47.0564Z" fill="white"/>
<path fill-rule="evenodd" clip-rule="evenodd" d="M22.7627 47.0564L23.792 50.5336L27.2393 50.4946L24.4299 52.6058L25.5306 56.0586L22.7627 53.8841L19.9971 56.0586L21.0978 52.6058L18.2885 50.4946L21.7334 50.5336L22.7627 47.0564Z" fill="white"/>
<path fill-rule="evenodd" clip-rule="evenodd" d="M34.2416 47.0564L35.271 50.5336L38.7182 50.4946L35.9065 52.6058L37.0073 56.0586L34.2416 53.8841L31.476 56.0586L32.5768 52.6058L29.7674 50.4946L33.2123 50.5336L34.2416 47.0564Z" fill="white"/>
<path fill-rule="evenodd" clip-rule="evenodd" d="M45.7214 47.0564L46.7508 50.5336L50.198 50.4946L47.3863 52.6058L48.4871 56.0586L45.7214 53.8841L42.9558 56.0586L44.0566 52.6058L41.2472 50.4946L44.6921 50.5336L45.7214 47.0564Z" fill="white"/>
<path fill-rule="evenodd" clip-rule="evenodd" d="M57.2003 47.0564L58.2296 50.5336L61.6769 50.4946L58.8652 52.6058L59.9659 56.0586L57.2003 53.8841L54.4347 56.0586L55.5354 52.6058L52.7238 50.4946L56.171 50.5336L57.2003 47.0564Z" fill="white"/>
</svg>
