<svg width="255" height="450" viewBox="0 0 255 450" fill="none" xmlns="http://www.w3.org/2000/svg">
<g clip-path="url(#clip0_2_532)">
<path d="M249.847 13.0209L234.558 35.1252V181.863C234.558 192.935 225.549 207.126 214.472 213.519L49.0671 308.953L42.3588 312.852L31.0094 329.225L24.4182 338.777L4.02039 327.042C1.56329 325.054 0.0422363 321.779 0.0422363 317.218V146.855C0.0422363 145.101 0.276245 143.191 0.705261 141.28C2.14832 135.082 5.73645 128.493 10.5726 123.153C13.3807 119.956 16.6569 117.188 20.128 115.2L214.472 3.0408C217.709 1.16954 220.713 0.194923 223.443 0H225.51C227.616 0.155939 229.41 0.896647 230.853 2.06619L249.886 13.0599L249.847 13.0209Z" fill="#3A33BD"/>
<path d="M49.0643 308.954L42.3561 312.852L31.0067 329.226L24.3764 338.777L3.97864 327.043C1.52155 325.054 0.000488281 321.78 0.000488281 317.218V146.855C0.000488281 145.101 0.234497 143.191 0.663513 141.281L21.3343 152.157L49.0253 308.993L49.0643 308.954Z" fill="#31283C"/>
<path d="M40.5186 337.608C29.4422 344.002 20.4329 340.181 20.4329 329.109V158.746C20.4329 147.675 29.4422 133.484 40.5186 127.091L234.902 14.9319C245.978 8.53845 254.988 12.3589 254.988 23.4306V193.794C254.988 204.865 245.978 219.056 234.902 225.449L40.5186 337.608Z" fill="#372D6E"/>
<path d="M234.87 220.108L40.4868 332.267C32.2185 337.062 25.5103 334.216 25.5103 325.951V155.588C25.5103 147.323 32.2185 136.759 40.4868 131.963L234.87 19.8045C243.138 15.0094 249.847 17.8553 249.847 26.12V196.483C249.847 204.748 243.138 215.313 234.87 220.108Z" fill="#7685FA"/>
<path d="M76.136 156.134C76.136 163.619 70.0518 173.17 62.5635 177.498C55.0752 181.825 48.991 179.252 48.991 171.767C48.991 164.282 55.0752 154.691 62.5635 150.403C70.0518 146.076 76.136 148.649 76.136 156.134Z" fill="#CCE4FF"/>
<path d="M76.136 197.341C76.136 204.826 70.0518 214.377 62.5635 218.704C55.0752 223.032 48.991 220.459 48.991 212.974C48.991 205.488 55.0752 195.898 62.5635 191.61C70.0518 187.283 76.136 189.856 76.136 197.341Z" fill="#CCE4FF"/>
<path d="M76.136 238.547C76.136 246.033 70.0518 255.584 62.5635 259.911C55.0752 264.238 48.991 261.665 48.991 254.18C48.991 246.695 55.0752 237.105 62.5635 232.817C70.0518 228.489 76.136 231.062 76.136 238.547Z" fill="#CCE4FF"/>
<path d="M76.136 279.754C76.136 287.239 70.0518 296.791 62.5635 301.118C55.0752 305.445 48.991 302.872 48.991 295.387C48.991 287.902 55.0752 278.312 62.5635 274.024C70.0518 269.696 76.136 272.269 76.136 279.754Z" fill="#CCE4FF"/>
<path d="M114.434 133.367C114.434 140.852 108.35 150.443 100.861 154.731C93.3731 159.058 87.2888 156.485 87.2888 149C87.2888 141.515 93.3731 131.964 100.861 127.637C108.35 123.309 114.434 125.882 114.434 133.367Z" fill="#CCE4FF"/>
<path fill-rule="evenodd" clip-rule="evenodd" d="M161.973 79.53L234.321 38.3622L236.895 200.694L162.09 243.733L161.973 79.53Z" fill="#CCE4FF"/>
<path d="M114.434 174.574C114.434 182.059 108.35 191.649 100.861 195.938C93.3731 200.265 87.2888 197.692 87.2888 190.207C87.2888 182.722 93.3731 173.171 100.861 168.843C108.35 164.516 114.434 167.089 114.434 174.574Z" fill="#FF6E7A"/>
<path d="M197.815 86.3908C197.815 93.8758 191.731 103.466 184.242 107.754C176.754 112.082 170.67 109.509 170.67 102.024C170.67 94.5386 176.754 84.9873 184.242 80.66C191.731 76.3327 197.815 78.9057 197.815 86.3908Z" fill="#FF6E7A"/>
<path d="M114.434 215.781C114.434 223.266 108.35 232.856 100.861 237.144C93.3731 241.472 87.2888 238.899 87.2888 231.414C87.2888 223.929 93.3731 214.377 100.861 210.05C108.35 205.723 114.434 208.296 114.434 215.781Z" fill="#CCE4FF"/>
<path d="M114.434 256.949C114.434 264.434 108.35 274.024 100.861 278.312C93.3731 282.64 87.2888 280.067 87.2888 272.582C87.2888 265.097 93.3731 255.545 100.861 251.218C108.35 246.891 114.434 249.464 114.434 256.949Z" fill="#CCE4FF"/>
<path d="M150.778 111.068C150.778 118.553 144.694 128.143 137.205 132.431C129.717 136.759 123.633 134.186 123.633 126.701C123.633 119.215 129.717 109.664 137.205 105.337C144.694 101.01 150.778 103.583 150.778 111.068Z" fill="#CCE4FF"/>
<path d="M150.778 152.274C150.778 159.76 144.694 169.35 137.205 173.638C129.717 177.965 123.633 175.392 123.633 167.907C123.633 160.422 129.717 150.871 137.205 146.544C144.694 142.216 150.778 144.789 150.778 152.274Z" fill="#CCE4FF"/>
<path d="M150.778 193.481C150.778 200.966 144.694 210.556 137.205 214.845C129.717 219.172 123.633 216.599 123.633 209.114C123.633 201.629 129.717 192.078 137.205 187.75C144.694 183.423 150.778 185.996 150.778 193.481Z" fill="#CCE4FF"/>
<path d="M150.778 234.649C150.778 242.134 144.694 251.724 137.205 256.013C129.717 260.34 123.633 257.767 123.633 250.282C123.633 242.797 129.717 233.246 137.205 228.918C144.694 224.591 150.778 227.164 150.778 234.649Z" fill="#CCE4FF"/>
<path d="M204.96 423.959C203.595 423.803 201.761 423.647 200.162 423.569C199.538 424.115 198.524 424.66 197.705 424.894C196.691 425.167 195.716 425.284 194.741 425.284C193.766 425.245 193.181 424.972 193.025 424.309C192.869 423.608 193.571 422.477 195.443 420.489C195.833 421.542 197.354 421.931 199.304 421.97C201.722 422.048 203.946 421.619 206.715 420.684C209.211 419.826 211.551 418.657 213.345 416.98C215.139 415.304 215.763 413.862 215.217 412.887C214.554 411.756 212.994 411.328 210.108 411.25C207.183 411.172 204.258 411.717 200.981 412.926C197.9 414.056 194.624 416.201 191.504 419.086C188.228 422.087 186.551 424.27 187.097 425.635C187.721 427.194 189.515 427.896 192.401 427.974C194.819 428.052 196.964 427.662 199.148 427.038C201.332 426.415 203.244 425.323 204.96 423.998V423.959ZM199.928 416.785C201.059 415.772 202.425 415.109 203.907 414.602C205.272 414.134 206.559 413.745 207.534 413.784C208.509 413.823 209.25 414.056 209.484 414.524C209.679 414.992 209.211 415.694 208.041 416.785C206.91 417.799 205.818 418.618 204.57 419.086C203.322 419.553 202.035 419.826 200.825 419.787C199.85 419.748 199.187 419.397 198.992 418.93C198.758 418.345 199.031 417.643 199.967 416.785H199.928ZM173.719 424.504C175.201 423.179 176.684 421.814 178.283 420.372C180.974 420.45 183.392 420.528 186.044 420.606C187.097 419.592 188.15 418.696 189.281 417.604C186.59 417.526 184.172 417.448 181.52 417.37C183.002 416.045 184.445 414.68 186.044 413.238C184.601 413.199 182.885 413.16 181.442 413.082C179.882 414.524 178.4 415.85 176.684 417.214C174.265 417.136 171.808 417.058 169.156 416.98C167.986 418.111 166.933 418.969 165.88 419.982C168.571 420.06 170.989 420.138 173.407 420.216C171.808 421.658 170.326 422.984 168.844 424.348C170.56 424.387 172.237 424.465 173.719 424.504Z" fill="#FEFEFE"/>
<path d="M188.813 446.726C187.799 447.779 184.367 450.079 181.169 449.962C180.701 449.962 180.233 449.884 179.765 449.767C176.215 448.754 157.69 439.787 156.286 436.746C154.882 433.745 152.737 425.792 153.517 424.778C154.258 423.765 156.169 422.751 157.573 423.141C158.938 423.492 170.326 428.053 174.967 427.819C175.825 427.78 176.8 428.014 177.815 428.482C182.3 430.47 187.604 436.279 187.604 436.279C187.604 436.279 189.944 445.557 188.774 446.765L188.813 446.726Z" fill="#2D2829"/>
<path d="M181.202 449.962C180.734 449.962 180.266 449.884 179.798 449.767C176.249 448.753 157.723 439.787 156.319 436.746C155.11 434.173 153.394 427.974 153.394 425.596C153.394 425.206 153.433 424.895 153.55 424.739C154.174 423.881 155.656 423.023 156.943 423.023C157.177 423.023 157.372 423.062 157.606 423.101C158.542 423.335 164.198 425.596 169.151 426.883L169.463 436.824C169.463 438.266 170.399 439.67 172.31 440.761C173.363 441.385 174.611 441.814 175.937 442.087C176.21 442.126 176.522 442.204 176.795 442.243L176.873 442.399C176.873 442.399 177.614 446.648 181.202 449.923V449.962Z" fill="#2A2726"/>
<path d="M225.817 426.103L225.661 427C225.115 428.131 223.477 430.899 220.084 430.977C217.9 431.054 216.067 431.054 214.195 430.587C212.44 430.119 210.607 429.261 208.383 427.663C206.277 426.142 203.118 420.841 199.764 418.54C196.449 416.279 190.404 412.069 190.404 412.069C190.404 412.069 190.521 408.677 190.833 407.976C191.145 407.274 200.154 407.898 202.026 408.482C203.625 408.95 210.646 412.693 212.83 413.862C213.22 414.057 213.454 414.213 213.454 414.213L224.686 418.19L225.778 426.103H225.817Z" fill="#2D2829"/>
<path d="M214.241 430.586C212.486 430.118 210.653 429.26 208.43 427.662C206.324 426.142 202.891 422.828 199.576 420.567C196.261 418.306 192.868 416.162 191.893 415.265C189.982 413.472 190.372 410.704 190.684 410.041C190.762 409.807 191.737 409.729 193.063 409.729C195.949 409.729 200.59 410.158 201.877 410.509C202.735 410.782 205.465 410.002 207.884 411.249C207.845 414.134 207.845 416.278 207.845 417.175C207.845 417.487 207.845 417.682 207.845 417.682C207.845 418.774 208.391 419.826 209.483 420.762C209.834 422.789 210.926 426.765 214.28 430.586H214.241Z" fill="#2A2726"/>
<path d="M237.095 325.172C236.705 327.082 225.862 335.035 225.862 335.035L224.887 332.969L221.689 326.38L229.099 307.2L234.716 308.135L236.315 309.734C236.315 309.734 237.563 323.222 237.134 325.133L237.095 325.172Z" fill="#FEFEFE"/>
<path d="M236.044 324.938C235.81 326.107 228.946 331.331 226.294 333.358L222.862 326.341L229.804 308.447L234.211 309.188L235.264 310.24C235.459 312.463 236.395 323.378 236.083 324.938H236.044ZM226.528 335.892C226.567 335.853 237.721 327.745 238.189 325.366C238.618 323.222 237.37 309.695 237.37 309.656L237.331 309.266L235.225 307.122L228.361 305.952L220.444 326.419L225.436 336.672L226.489 335.892H226.528Z" fill="#2B2A29"/>
<path d="M227.891 330.045C228.359 321.469 228.905 313.672 229.022 312.073C229.412 312.19 229.763 312.307 230.153 312.385C231.128 312.619 232.142 312.697 233.156 312.697C233.585 312.697 234.053 312.658 234.482 312.619L233.975 324.081L227.852 329.967L227.891 330.045Z" fill="#FEFEFE"/>
<path d="M241.347 308.291C241.191 309.383 240.411 310.513 238.968 311.332C236.589 312.696 233.118 313.047 230.193 312.385C229.179 312.151 228.243 311.8 227.424 311.332C225.825 310.396 225.045 309.227 225.045 308.018L225.084 307.589L225.396 306.654C225.513 306.264 225.669 305.835 225.825 305.25C226.488 303.223 227.502 299.948 228.555 296.089C230.7 288.097 233.001 277.454 232.728 269.229C232.455 261.003 229.92 253.908 227.697 249.151C225.825 245.214 224.148 242.875 224.148 242.875V214.572C224.304 214.611 225.279 214.962 226.566 215.703C227.463 216.248 228.516 216.95 229.569 217.886C232.299 220.381 245.637 254.297 246.808 262.679C248.017 271.022 241.308 308.291 241.308 308.291H241.347Z" fill="#F9B234"/>
<path d="M240.254 308.175C240.215 308.565 240.02 308.916 239.747 309.305C239.435 309.695 239.006 310.085 238.421 310.436C237.368 311.021 236.081 311.411 234.716 311.567C233.273 311.722 231.791 311.683 230.426 311.372C229.958 311.255 229.529 311.138 229.1 310.982C228.71 310.826 228.32 310.631 227.969 310.436C227.306 310.046 226.838 309.656 226.526 309.227C226.253 308.838 226.136 308.448 226.097 308.097L226.136 307.824C226.37 307.122 226.682 306.343 226.877 305.641C227.228 304.549 227.696 303.068 228.242 301.236C228.671 299.754 229.139 298.117 229.607 296.44C230.699 292.425 231.791 287.747 232.61 282.991C233.429 278.235 233.936 273.44 233.819 269.268C233.663 265.058 232.961 261.12 231.986 257.651C231.011 254.181 229.802 251.179 228.671 248.762C227.111 245.487 225.707 243.343 225.239 242.603V216.288L226.019 216.717C226.448 216.951 226.916 217.263 227.384 217.574C227.852 217.886 228.32 218.276 228.827 218.744C230.114 219.914 234.209 229.387 238.109 239.445C241.775 248.957 245.168 258.898 245.753 262.875C246.924 271.061 240.293 308.058 240.254 308.175V308.214V308.175ZM241.463 310.67C242.009 310.007 242.321 309.266 242.399 308.526C242.399 308.409 249.147 271.1 247.899 262.563C247.314 258.43 243.842 248.294 240.137 238.665C236.159 228.334 231.83 218.549 230.309 217.146C229.763 216.639 229.217 216.21 228.632 215.82C228.086 215.43 227.579 215.118 227.072 214.846C226.721 214.651 224.888 213.637 224.654 213.559L222.86 213.598L222.977 243.304L223.172 243.577C223.172 243.577 224.81 245.877 226.643 249.737C227.735 252.037 228.905 254.961 229.841 258.274C230.777 261.588 231.44 265.331 231.596 269.346C231.713 273.362 231.245 278.001 230.426 282.64C229.607 287.279 228.515 291.918 227.462 295.895C226.994 297.649 226.526 299.247 226.136 300.651C225.629 302.366 225.161 303.848 224.771 304.978C224.654 305.641 224.225 306.732 223.952 307.434L223.913 308.097C223.913 308.955 224.186 309.773 224.732 310.553C225.2 311.216 225.902 311.839 226.838 312.385C227.306 312.658 227.813 312.892 228.32 313.087C228.827 313.282 229.373 313.438 229.919 313.555C231.518 313.906 233.273 314.023 234.95 313.789C236.588 313.594 238.187 313.126 239.474 312.346C240.293 311.878 240.956 311.294 241.424 310.67H241.463Z" fill="#2B2A29"/>
<path d="M230.267 311.372C229.877 311.294 229.526 311.177 229.136 311.06C229.136 310.865 229.175 310.748 229.175 310.748C229.526 308.487 229.214 305.524 228.629 302.678C229.214 302.249 229.526 301.976 229.526 301.976C229.526 301.976 229.136 299.325 228.668 295.31C230.657 287.864 232.802 278.118 232.802 270.204C232.802 269.736 232.802 269.307 232.763 268.839C232.49 260.73 229.994 253.752 227.81 249.074C228.083 246.891 228.356 244.747 228.59 242.564C228.785 242.875 237.014 255.117 237.17 266.929C237.287 277.026 231.944 303.341 230.267 311.333V311.372Z" fill="#EB8825"/>
<path d="M229.062 311.8C229.062 311.8 226.956 341.389 227.112 352.149C227.268 362.908 227.892 369.419 228.204 371.758C228.516 374.136 227.19 417.682 227.19 417.682C227.19 419.085 226.254 420.528 224.343 421.619C221.457 423.257 217.245 423.647 213.696 422.789C212.604 422.516 211.55 422.126 210.653 421.619C208.781 420.528 207.806 419.085 207.806 417.682C207.728 417.682 208.235 375.267 207.728 368.444C207.377 363.649 204.491 346.925 202.814 337.491L188.813 374.136V436.862C188.813 438.305 187.877 439.708 185.966 440.8C183.235 442.398 179.296 442.827 175.903 442.125C174.577 441.852 173.329 441.424 172.276 440.8C170.404 439.708 169.429 438.305 169.429 436.862L167.362 373.434C167.362 373.434 167.791 327.355 175.825 300.455L185.888 298.974L225.474 293.165C225.474 293.165 229.998 305.25 228.984 311.8H229.062Z" fill="#2D283C"/>
<path d="M213.696 422.789C212.604 422.517 211.551 422.127 210.654 421.62C210.185 421.347 209.795 421.074 209.444 420.762C208.352 419.827 207.806 418.735 207.806 417.682C207.806 417.682 207.806 417.526 207.806 417.176C207.806 414.174 207.962 397.878 207.962 384.779C207.962 384.74 207.962 384.74 207.962 384.701C207.962 384.662 207.962 384.662 207.962 384.623C207.962 377.138 207.923 370.706 207.728 368.406C207.377 363.611 204.491 346.886 202.814 337.452L208.976 326.419L214.281 371.719L213.657 422.75L213.696 422.789Z" fill="#31283C"/>
<path d="M175.903 442.126C174.577 441.853 173.329 441.425 172.276 440.801C170.404 439.709 169.429 438.306 169.429 436.863L167.362 373.435C167.362 373.435 167.752 333.437 174.304 306.226C175.825 307.824 178.75 309.345 183.859 310.358C185.263 310.631 186.824 310.865 188.54 311.06C186.161 320.338 176.839 356.906 175.942 367.821C175.123 378.074 175.63 425.207 175.864 442.165L175.903 442.126Z" fill="#31283C"/>
<path d="M126.717 209.777L120.516 221.278L119.502 219.29L114.549 209.583C114.159 208.842 113.457 208.374 112.599 208.335C112.248 208.335 111.819 208.296 111.273 208.179C109.284 207.867 108.035 199.914 108.425 198.004C108.542 197.419 109.167 196.601 110.025 195.743C111.624 194.106 113.964 192.312 114.588 191.884L114.744 191.767C114.744 191.767 110.688 186.192 109.908 183.97C109.674 183.307 109.713 182.878 109.908 182.566C110.298 181.825 111.507 181.903 111.936 181.981C112.482 182.098 122.076 191.689 124.572 194.184C124.962 194.573 125.196 195.08 125.235 195.626C125.469 197.653 125.937 202.838 125.625 204.359C125.196 206.308 126.522 209.583 126.717 209.739V209.777Z" fill="#FEFEFE"/>
<path d="M125.626 209.699L120.556 219.133L115.447 209.153C115.174 208.607 114.784 208.178 114.277 207.867C113.809 207.555 113.224 207.36 112.639 207.36L112.132 207.321L111.43 207.204C110.923 207.048 110.377 205.372 109.948 203.539C109.48 201.434 109.246 199.173 109.402 198.276V198.237C109.441 198.081 109.558 197.887 109.753 197.614C109.987 197.263 110.338 196.912 110.728 196.522C112.288 194.963 114.511 193.247 115.135 192.741C115.447 192.507 115.798 192.273 116.11 192.039L115.525 191.22C115.525 191.22 111.586 185.762 110.845 183.696C110.767 183.501 110.728 183.306 110.728 183.189V183.111L110.767 183.072C110.767 183.033 110.845 183.033 110.923 182.994C111.196 182.916 111.508 182.955 111.703 182.955C111.82 183.033 114.199 185.333 116.812 187.906C119.581 190.635 122.584 193.637 123.832 194.885C123.949 195.002 124.027 195.158 124.105 195.275C124.183 195.43 124.222 195.547 124.222 195.703C124.339 196.951 124.573 199.329 124.69 201.317C124.729 202.526 124.729 203.617 124.651 204.124C124.456 204.982 124.573 206.034 124.768 207.009C124.963 207.984 125.314 208.919 125.665 209.582L125.626 209.699ZM121.414 221.745L128.044 209.426L127.264 208.919C127.225 208.919 126.952 207.906 126.718 206.697C126.562 205.956 126.484 205.177 126.601 204.592C126.757 203.89 126.757 202.643 126.679 201.278C126.601 199.212 126.367 196.795 126.211 195.547C126.172 195.158 126.055 194.807 125.899 194.456C125.743 194.105 125.509 193.793 125.236 193.52C123.988 192.273 120.946 189.232 118.177 186.542C115.291 183.696 112.6 181.162 112.132 181.045H112.093C111.742 180.967 111.001 180.928 110.338 181.084C109.831 181.24 109.324 181.552 109.012 182.059C108.817 182.371 108.739 182.721 108.739 183.189C108.739 183.501 108.817 183.891 108.934 184.32C109.558 186.113 112.171 189.934 113.341 191.571C112.366 192.351 110.611 193.754 109.285 195.08C108.856 195.547 108.427 195.976 108.115 196.405C107.764 196.912 107.491 197.38 107.413 197.809V197.925C107.218 199.056 107.452 201.629 107.998 203.968C108.583 206.502 109.597 208.88 111.04 209.153C111.274 209.231 111.625 209.231 111.898 209.27L112.561 209.309C112.795 209.309 112.99 209.387 113.185 209.504C113.38 209.621 113.536 209.816 113.653 210.011C115.915 214.455 118.216 218.899 120.478 223.343L121.375 221.667L121.414 221.745Z" fill="#2B2A29"/>
<path d="M229.407 302.872C229.407 302.872 228.237 303.925 225.818 305.25C221.372 307.745 212.675 311.332 199.375 311.449C192.784 311.527 187.714 311.059 183.853 310.318C175.78 308.72 173.127 305.796 172.971 303.496C172.776 300.143 178.198 280.729 176.716 272.152C176.131 268.839 173.985 263.888 172.152 258.313C171.645 256.715 171.138 255.038 170.709 253.323C169.344 247.904 168.759 242.212 170.397 236.949C171.06 234.883 172.074 232.856 173.517 230.985C173.517 230.985 180.499 224.318 194.929 219.484C198.556 218.237 202.613 217.145 207.176 216.287C212.207 215.313 217.823 214.689 224.024 214.533C224.102 214.65 224.375 215.079 224.804 215.781C226.403 218.588 229.914 225.956 229.095 235.585C228.705 240.302 228.119 244.707 227.573 249.113C226.676 256.403 225.896 263.654 226.286 272.113C226.676 280.339 227.69 289.812 228.432 296.05C228.939 300.143 229.329 302.833 229.329 302.833L229.407 302.872Z" fill="#F5A021"/>
<path d="M228.243 302.444C227.736 302.834 226.761 303.497 225.278 304.315C223.094 305.524 219.896 307.005 215.606 308.214C211.277 309.422 205.895 310.319 199.381 310.397C196.261 310.436 193.453 310.358 190.957 310.163C188.305 309.968 186.043 309.656 184.093 309.305C180.622 308.643 178.243 307.707 176.644 306.694C174.889 305.602 174.187 304.432 174.109 303.497C174.031 302.483 174.616 299.481 175.357 295.7C176.8 288.254 178.828 277.845 177.853 272.036C177.463 269.775 176.41 266.89 175.201 263.615C174.577 261.9 173.914 260.029 173.25 258.041C172.977 257.222 172.743 256.403 172.509 255.624C172.275 254.805 172.041 253.986 171.846 253.168C171.183 250.517 170.715 247.788 170.598 245.137C170.481 242.486 170.754 239.874 171.534 237.379C171.846 236.404 172.236 235.43 172.743 234.494C173.212 233.558 173.797 232.701 174.46 231.843C175.084 231.258 181.87 225.177 195.403 220.615C197.197 219.992 199.108 219.446 201.098 218.9C203.126 218.354 205.271 217.886 207.494 217.458C210.068 216.951 212.798 216.561 215.645 216.249C218.18 215.976 220.832 215.82 223.601 215.703L224.03 216.405C224.81 217.769 226.02 220.226 226.956 223.5C227.892 226.775 228.555 230.907 228.165 235.585C227.853 239.25 227.424 242.759 226.995 246.228L226.644 249.074C226.176 252.739 225.785 256.364 225.512 260.185C225.239 264.005 225.161 267.982 225.356 272.27C225.551 276.402 225.903 280.847 226.293 285.018C226.683 289.306 227.151 293.205 227.502 296.246C227.853 299.169 228.165 301.392 228.282 302.444H228.243ZM226.332 306.265C228.867 304.861 230.154 303.692 230.193 303.692L230.583 303.302L230.505 302.756C230.505 302.756 230.115 300.144 229.647 296.012C229.257 292.854 228.828 288.916 228.438 284.823C228.048 280.652 227.697 276.246 227.502 272.153C227.307 267.982 227.385 264.083 227.658 260.341C227.892 256.598 228.321 252.973 228.789 249.347L229.14 246.501C229.569 243.032 229.998 239.484 230.31 235.78C230.739 230.79 230.037 226.424 229.023 222.915C228.009 219.407 226.683 216.795 225.863 215.352L225.395 214.573L225.005 213.988L224.654 213.52H224.069C221.027 213.598 218.102 213.793 215.333 214.066C212.408 214.378 209.6 214.768 207.026 215.274C204.725 215.703 202.541 216.21 200.474 216.756C198.406 217.302 196.456 217.886 194.623 218.51C179.959 223.422 172.821 230.245 172.821 230.245L172.704 230.362C171.924 231.375 171.261 232.389 170.715 233.441C170.169 234.494 169.74 235.585 169.389 236.677C168.531 239.406 168.258 242.291 168.375 245.176C168.492 248.022 168.999 250.867 169.701 253.635C169.896 254.493 170.13 255.351 170.403 256.208C170.676 257.105 170.91 257.924 171.183 258.703C171.807 260.614 172.509 262.563 173.173 264.356C174.343 267.553 175.357 270.36 175.708 272.426C176.644 277.845 174.655 288.02 173.25 295.31C172.47 299.247 171.885 302.366 171.963 303.653C172.08 305.251 173.055 307.044 175.552 308.565C177.346 309.695 179.998 310.709 183.742 311.45C185.77 311.839 188.149 312.151 190.879 312.346C193.375 312.541 196.222 312.619 199.459 312.58C206.207 312.502 211.784 311.567 216.269 310.319C220.754 309.072 224.108 307.512 226.41 306.226L226.332 306.265Z" fill="#2B2A29"/>
<path d="M185.186 309.422C181.988 308.798 174.46 307.667 174.148 303.418C174.148 303.34 174.148 303.262 174.148 303.184C174.148 299.753 176.995 285.017 177.034 275.739C177.034 274.413 176.956 273.244 176.761 272.191C176.176 268.878 174.928 263.108 173.095 257.533C177.073 257.65 180.935 257.923 183.626 254.492C184.094 259.092 185.225 269.891 186.356 277.415C187.565 285.251 186.317 302.132 185.186 309.383V309.422Z" fill="#E6791F"/>
<path d="M181.047 234.064C179.955 233.324 178.902 232.739 178.005 232.271C177.147 231.842 176.172 231.647 175.236 231.647C175.119 231.647 175.002 231.647 174.846 231.647C174.846 231.647 180.462 226.267 192.045 221.706C192.24 221.745 194.073 223.032 196.765 223.655C196.843 223.694 196.96 223.694 197.038 223.733C187.209 231.257 188.574 231.023 181.047 234.103V234.064Z" fill="#E6791F"/>
<path d="M211.776 218.432C211.776 218.354 211.776 218.237 211.776 218.159C211.776 217.73 211.776 217.262 211.776 216.794C215.559 216.249 219.109 215.781 223.477 215.664C223.555 215.781 223.828 216.21 224.257 216.911L222.931 217.028C219.265 217.34 214.857 218.081 211.737 218.432H211.776Z" fill="#E6791F"/>
<path d="M211.937 212.779C211.898 214.066 211.859 215.547 211.859 216.95C211.859 218.705 211.82 218.315 211.82 217.925C211.781 218.549 211.547 219.952 209.753 220.966C206.165 222.954 201.563 223.383 197.78 223.305C196.961 223.305 196.22 223.188 195.518 223.032C192.826 222.447 190.993 221.122 190.798 221.083C190.876 220.693 191.032 218.432 191.227 213.91C191.266 213.364 190.915 212.818 190.369 212.662C188.731 212.155 185.533 210.947 183.622 206.931C182.257 204.086 181.438 189.622 181.438 189.427C181.438 189.193 181.711 189.271 182.218 189.505C182.92 189.856 183.973 190.558 185.377 191.494L186.079 192C194.62 198.082 211.937 212.311 211.937 212.779Z" fill="#FEFEFE"/>
<path d="M210.84 212.779C210.801 213.987 210.762 215.391 210.762 216.755V217.886H210.723V218.081C210.606 218.315 210.567 218.509 210.567 218.704L210.489 218.86C210.294 219.25 209.904 219.679 209.241 220.069C207.759 220.887 206.043 221.433 204.327 221.784C202.104 222.213 199.842 222.33 197.814 222.291C197.463 222.291 197.112 222.252 196.761 222.213C196.41 222.174 196.098 222.096 195.786 222.057C194.07 221.667 192.705 220.965 192.003 220.576L192.12 218.86C192.198 217.73 192.276 216.17 192.354 214.104C192.393 213.597 192.237 213.052 191.964 212.662C191.691 212.233 191.262 211.921 190.755 211.765C190.013 211.531 188.882 211.141 187.79 210.362C186.698 209.582 185.528 208.412 184.67 206.619C183.656 204.514 182.954 195.002 182.681 191.181L182.993 191.376C183.461 191.649 184.046 192.078 184.787 192.585L185.489 193.091C189.272 195.781 194.772 200.07 199.764 204.085C205.77 208.88 210.918 212.974 210.918 212.974L210.84 212.779ZM212.946 216.755C212.946 215.43 212.985 214.026 213.024 212.779V212.74C213.024 212.194 207.486 207.282 201.051 202.136C196.059 198.12 190.52 193.793 186.698 191.064L185.957 190.557C185.294 190.09 184.67 189.7 184.085 189.31C183.539 188.959 183.032 188.686 182.681 188.491C182.291 188.296 181.979 188.179 181.745 188.179C180.731 188.062 180.263 188.491 180.341 189.505V189.583C180.419 190.947 181.238 204.475 182.642 207.399C183.695 209.582 185.099 211.024 186.503 211.999C187.868 212.974 189.194 213.441 190.091 213.714L190.13 213.753L190.169 213.87C190.091 215.858 189.974 217.418 189.935 218.626C189.857 219.991 189.779 220.732 189.779 220.926L189.584 222.018L190.716 222.174C190.677 222.174 190.637 222.174 190.677 222.213C191.418 222.642 193.095 223.577 195.318 224.084C195.708 224.162 196.098 224.24 196.527 224.279C196.917 224.318 197.346 224.357 197.814 224.357C199.998 224.396 202.416 224.279 204.756 223.811C206.706 223.421 208.617 222.837 210.333 221.862C211.464 221.238 212.088 220.459 212.478 219.757C212.634 219.484 212.712 219.211 212.79 218.977C212.868 218.86 212.907 218.743 212.946 218.587C213.024 218.47 213.024 216.833 213.024 216.755H212.946ZM190.638 222.135C190.677 222.135 190.638 222.135 190.638 222.135V222.135Z" fill="#2B2A29"/>
<path d="M218.997 194.573C218.451 196.795 216.228 201.785 215.838 204.046C215.487 205.996 211.938 212.779 211.938 212.779C208.662 214.767 203.202 215.469 200.433 215.313C199.809 215.274 199.302 215.196 199.029 215.079L198.21 214.728C195.246 213.364 193.061 210.752 192.32 207.555L192.164 206.814C191.891 205.723 191.852 204.592 191.93 203.462C191.969 202.877 192.008 202.214 191.969 201.473C191.774 197.614 190.019 197.029 188.654 196.795C187.289 196.483 187.055 200.694 187.055 200.694L185.183 200.109L184.91 194.105C184.91 193.482 184.676 192.897 184.286 192.429C182.843 190.753 177.695 189.7 177.734 183.268C177.734 180.344 180.854 170.13 196.377 169.974C198.444 169.974 200.706 170.091 203.241 170.481C220.089 172.976 220.362 188.998 219.036 194.612L218.997 194.573Z" fill="#2D2829"/>
<path d="M200.466 215.313C199.842 215.274 199.335 215.196 199.062 215.079L198.243 214.728C197.268 214.26 196.371 213.676 195.551 212.974C193.991 211.57 192.86 209.699 192.353 207.594L192.197 206.853C192.002 206.073 191.924 205.255 191.924 204.436C191.924 204.124 191.924 203.812 191.963 203.501C192.002 203.111 192.002 202.682 192.002 202.253C192.002 202.019 192.002 201.785 192.002 201.512C191.807 197.653 190.052 197.068 188.687 196.834C188.648 196.834 188.609 196.834 188.531 196.834C187.283 196.834 187.088 200.772 187.088 200.772L185.216 200.187L184.943 194.183C184.943 193.559 184.709 192.975 184.319 192.507C182.876 190.83 177.728 189.778 177.767 183.345C177.767 180.422 180.887 170.208 196.41 170.052C191.495 172.586 182.876 178.005 187.088 183.073C192.86 190.012 193.874 197.224 194.342 203.968C194.849 211.025 197.541 212.974 200.505 215.391L200.466 215.313Z" fill="#2A2726"/>
<path d="M185.22 244.864C184.557 254.22 180.501 255.975 174.923 255.975C174.572 255.975 174.143 255.975 173.636 255.975C166.031 255.78 142.045 253.48 139.783 251.998C137.521 250.556 119.658 223.461 117.201 219.758L116.928 219.329C116.616 218.744 116.46 218.042 116.46 217.185C116.46 215.08 117.474 212.663 119.034 210.596C120.087 209.232 121.374 208.062 122.739 207.283C125.431 205.723 127.771 206.113 128.629 208.023L147.193 234.611C147.934 234.923 151.835 236.638 156.944 236.677C162.482 236.755 167.981 235.586 173.012 233.246C173.597 232.974 174.221 232.818 174.845 232.779C175.703 232.74 176.6 232.896 177.42 233.285C178.161 233.636 179.019 234.143 179.916 234.728C182.724 236.677 185.61 239.874 185.259 244.864H185.22Z" fill="#F9B234"/>
<path d="M184.21 244.786C183.898 249.152 182.845 252.972 181.285 254.22C179.725 255.428 177.541 255.623 174.928 255.623H173.641C169.233 255.506 142.556 252.66 140.255 251.179C139.241 250.555 134.327 243.499 129.335 236.17C124.226 228.646 119.195 221.044 117.986 219.212L117.713 218.822C117.596 218.627 117.518 218.393 117.479 218.12C117.401 217.847 117.401 217.535 117.401 217.184C117.401 216.288 117.635 215.313 118.025 214.3C118.454 213.247 119.039 212.155 119.78 211.22C120.287 210.596 120.833 209.972 121.418 209.426C122.003 208.92 122.588 208.491 123.173 208.14L123.797 207.828C124.733 207.399 125.591 207.243 126.254 207.36C126.839 207.477 127.307 207.789 127.58 208.257C131.207 215.235 141.464 228.295 146.457 235.39L146.691 235.507C147.081 235.663 148.29 236.209 150.084 236.677C151.839 237.145 154.179 237.612 156.831 237.651C159.678 237.69 162.486 237.417 165.255 236.833C168.024 236.248 170.755 235.351 173.329 234.143C173.563 234.026 173.797 233.948 174.031 233.909C174.265 233.831 174.538 233.792 174.811 233.792C175.162 233.753 175.513 233.792 175.864 233.87C176.215 233.948 176.566 234.065 176.878 234.221C177.229 234.416 177.658 234.611 178.087 234.883C178.477 235.117 178.867 235.351 179.218 235.624C180.505 236.521 181.831 237.729 182.806 239.25C183.742 240.77 184.327 242.602 184.171 244.864L184.21 244.786ZM182.533 255.779C184.522 254.22 185.848 249.932 186.199 244.941C186.394 242.213 185.692 239.99 184.561 238.158C183.43 236.365 181.909 234.961 180.427 233.948C179.998 233.636 179.569 233.363 179.14 233.129C178.672 232.856 178.243 232.622 177.775 232.388C177.307 232.154 176.8 231.999 176.293 231.882C175.786 231.765 175.24 231.765 174.733 231.765C174.343 231.804 173.992 231.843 173.641 231.921C173.29 231.999 172.9 232.154 172.549 232.31C170.092 233.441 167.517 234.299 164.904 234.844C162.291 235.39 159.6 235.663 156.909 235.624C154.452 235.585 152.307 235.156 150.669 234.727C149.304 234.338 148.329 233.948 147.822 233.753L129.491 207.477L129.335 207.204C128.75 206.191 127.814 205.528 126.644 205.333C125.591 205.138 124.343 205.333 123.017 205.957C122.744 206.074 122.471 206.23 122.237 206.386C121.496 206.814 120.794 207.321 120.131 207.906C119.429 208.53 118.805 209.232 118.22 209.933C117.362 211.064 116.659 212.272 116.191 213.52C115.723 214.728 115.45 215.976 115.45 217.106C115.45 217.574 115.489 218.042 115.606 218.471C115.723 218.939 115.879 219.329 116.074 219.718C116.152 219.874 116.308 220.069 116.425 220.225C117.674 222.135 122.822 229.893 127.775 237.184C132.884 244.669 138.032 251.92 139.28 252.738C142.205 254.61 168.726 257.378 173.68 257.495H175.006C177.97 257.495 180.544 257.261 182.572 255.662L182.533 255.779Z" fill="#2B2A29"/>
<path d="M139.512 250.166C138.459 249.503 133.779 242.836 129.02 235.897C124.184 228.841 119.348 221.434 118.178 219.68L117.905 219.29C117.593 218.744 117.437 218.081 117.437 217.262C117.437 215.274 118.412 212.974 119.894 211.064C119.894 211.064 143.178 249.776 139.512 250.166Z" fill="#EB8825"/>
<path d="M214.238 216.444C214.472 215.898 214.199 215.235 213.614 215.002C213.068 214.768 212.405 215.04 212.171 215.625C211.82 216.483 211.43 217.458 210.923 218.315C210.455 219.056 209.948 219.68 209.285 219.953C205.97 221.356 202.498 222.136 199.261 222.175C196.258 222.175 193.528 221.551 191.344 220.186C190.837 219.875 190.174 220.031 189.823 220.537C189.511 221.044 189.667 221.707 190.174 222.058C192.709 223.695 195.868 224.436 199.261 224.397C202.771 224.358 206.555 223.539 210.104 222.019C211.235 221.551 212.093 220.576 212.756 219.524C213.341 218.549 213.809 217.458 214.199 216.522L214.238 216.444Z" fill="#2B2A29"/>
</g>
<defs>
<clipPath id="clip0_2_532">
<rect width="254.958" height="450" fill="white"/>
</clipPath>
</defs>
</svg>
