<svg width="146" height="145" viewBox="0 0 146 145" fill="none" xmlns="http://www.w3.org/2000/svg">
<circle cx="86" cy="84" r="60" fill="url(#paint0_radial_0_1)"/>
<g filter="url(#filter0_d_0_1)">
<path d="M109.627 18.3708L105.612 24.0637V61.8559C105.612 64.7109 103.241 68.3632 100.329 70.0179L56.8841 94.5983L55.1172 95.6014L52.1346 99.8196L50.4028 102.272L45.0411 99.2451C44.3938 98.7393 43.9915 97.8819 43.9915 96.7159V52.8365C43.9915 52.3821 44.0527 51.8934 44.1664 51.3962C44.5425 49.8015 45.4871 48.1039 46.7554 46.7321C47.4989 45.9091 48.356 45.1975 49.2744 44.6831L100.32 15.7988C101.168 15.3187 101.964 15.0615 102.673 15.01H103.215C103.766 15.0529 104.239 15.2415 104.615 15.5416L109.618 18.3708H109.627Z" fill="url(#paint1_linear_0_1)"/>
</g>
<path d="M56.8843 94.5901L55.1175 95.5932L52.1348 99.8114L50.3943 102.272L45.0325 99.2456C44.3853 98.7397 43.9829 97.8824 43.9829 96.7164V52.837C43.9829 52.3826 44.0442 51.8853 44.1579 51.3966L49.5896 54.1916L56.8668 94.5901H56.8843Z" fill="url(#paint2_linear_0_1)"/>
<path d="M54.6451 101.972C51.7325 103.618 49.3708 102.641 49.3708 99.7856V55.9062C49.3708 53.0512 51.7412 49.3989 54.6451 47.7528L105.699 18.8599C108.603 17.2138 110.974 18.1912 110.974 21.0462V64.9256C110.974 67.7806 108.603 71.4329 105.699 73.079L54.6451 101.972Z" fill="#372D6E"/>
<path d="M105.691 71.7073L54.6365 100.6C52.4673 101.826 50.7005 101.097 50.7005 98.9712V55.0917C50.7005 52.9655 52.4586 50.2391 54.6365 49.0045L105.691 20.1117C107.869 18.8771 109.627 19.6144 109.627 21.7406V65.6201C109.627 67.7463 107.869 70.4727 105.691 71.7073Z" fill="#7685FA"/>
<path d="M80.1676 80.3067L56.0618 93.9558V54.3803L80.1676 40.7397V80.3067Z" fill="#CAE0F5"/>
<path d="M83.6315 51.0706V41.5797L106.006 28.9423V38.4332L83.6315 51.0706Z" fill="url(#paint3_linear_0_1)"/>
<path d="M83.6315 54.1745V52.6484L106.006 40.011V41.5285L83.6315 54.1745Z" fill="#FEFEFE"/>
<path d="M83.6315 57.1922V55.6747L106.006 43.0287V44.5548L83.6315 57.1922Z" fill="#F6A409"/>
<path d="M58.3532 90.9121V71.3815L80.5523 58.8213V78.3518L58.3532 90.9121Z" fill="#FEFEFE"/>
<path d="M59.6924 67.6607V58.1697L81.8828 45.6095V55.1004L59.6924 67.6607Z" fill="url(#paint4_linear_0_1)"/>
<path d="M57.0151 56.652L59.6916 58.1695V67.6604L57.0151 66.1429V56.652Z" fill="#F5A021"/>
<path d="M59.6916 67.6604L57.0151 66.1429V56.652L59.6916 58.1695V67.6604Z" fill="#ED721D"/>
<path d="M79.2141 44.0918L81.8819 45.6093L59.6916 58.1696L57.0151 56.652L79.2141 44.0918Z" fill="#F5A021"/>
<path d="M59.6916 58.1696L57.0151 56.652L79.2141 44.0918L81.8819 45.6093L59.6916 58.1696Z" fill="url(#paint5_linear_0_1)"/>
<path d="M100.25 57.7753L111.962 64.3683L95.8859 73.4649L84.1828 66.8632L100.25 57.7753Z" fill="#E9F1FA"/>
<path d="M95.8942 73.4649L88.3633 69.221C88.0397 68.5094 87.7773 68.0035 87.6549 67.8921C87.4712 67.7292 87.2875 67.6092 87.1301 67.5149C86.9026 67.3862 86.7365 67.3262 86.7102 67.3177C86.1767 67.3348 85.6606 67.3605 85.1796 67.412L84.5848 67.0776C84.5848 67.0519 84.5848 67.0262 84.5848 67.009C84.5848 67.009 84.7072 66.7775 84.8472 66.4946L100.268 57.7667L111.979 64.3684L110.248 65.3457L109.959 65.5086L107.676 66.7947L106.539 67.4377L95.9117 73.4477L95.8942 73.4649Z" fill="#DCE8F7"/>
<path d="M111.963 65.6543L95.8949 74.7509V73.4648L111.963 64.3683V65.6543Z" fill="#E9F1FA"/>
<path d="M95.8946 74.7507L84.1828 68.1576V66.863L95.8946 73.4647V74.7507Z" fill="#E9F1FA"/>
<path d="M95.8949 74.751L89.0812 70.91C88.8276 70.2927 88.5827 69.7097 88.364 69.2124L95.9036 73.4564V74.7424L95.8949 74.751ZM84.5592 67.4892C84.5592 67.352 84.5592 67.2148 84.5679 67.0776L85.1627 67.412C84.9615 67.4377 84.7604 67.4549 84.5592 67.4806V67.4892Z" fill="#CFE0F4"/>
<path d="M102.253 58.5126C102.227 56.7379 101.929 54.9717 101.378 53.2827C101.273 52.9655 100.74 53.2142 100.574 53.6686L99.9176 55.4004C99.4716 56.575 98.352 57.6124 97.4074 57.7067L96.4102 57.8096C96.1653 57.8353 95.8679 58.0839 95.7105 58.3926L94.3198 61.2647C94.1448 61.6334 93.7687 61.8992 93.5151 61.8477L92.6229 61.6505C92.4305 61.6077 92.1506 61.8048 92.0107 62.0792L91.4771 63.0909C91.0748 63.8625 90.4275 64.5484 89.7365 64.9428C89.5004 65.5858 89.4479 66.2717 89.5791 66.9404L89.7365 67.712L102.288 60.8875L102.253 58.5212V58.5126Z" fill="url(#paint6_linear_0_1)"/>
<path d="M94.8714 71.5787C94.8714 71.5787 95.195 69.7611 95.4574 69.7611H95.9472C96.3671 69.7611 96.9006 69.401 97.2592 68.8694L98.3701 67.189C98.8249 66.5031 99.5858 66.2459 99.7958 66.7175C99.9445 67.0604 100.557 66.7175 100.714 66.203C100.714 66.203 101.851 61.7191 102.122 61.5562C102.332 61.4361 102.516 62.2764 102.595 62.6879C102.682 63.1423 102.953 63.4424 103.373 63.4938C103.522 63.5109 103.688 63.5024 103.863 63.4595L105.157 63.1594C105.534 63.0737 105.953 62.7479 106.242 62.3192C106.522 61.9077 106.977 61.8134 107.012 62.1735L107.405 64.4798L94.8626 71.5787H94.8714Z" fill="url(#paint7_linear_0_1)"/>
<path d="M57.0151 70.644L58.3533 71.3985V90.9119L57.0151 90.166V70.644Z" fill="#E9F1FA"/>
<path d="M58.3533 90.9119L57.0151 90.166V70.644L58.3533 71.3985V90.9119Z" fill="#CFE0F4"/>
<path d="M57.0151 70.644L58.3533 71.3985L80.5524 58.8211L79.2141 58.0752L57.0151 70.644Z" fill="#E9F1FA"/>
<path d="M58.3533 71.3985L57.0151 70.644L65.3332 65.9286L65.5168 66.2715C65.4994 66.3144 65.4906 66.3573 65.4731 66.4001C65.4206 66.5545 65.4031 66.7174 65.4031 66.8631C65.4031 67.0346 65.4381 67.1889 65.5081 67.3089L65.5256 67.3261L58.3533 71.3899V71.3985ZM68.5082 65.6371L68.0096 64.9341C67.9309 64.7712 67.8085 64.6683 67.6423 64.6168L79.2054 58.0667L80.5436 58.8125L68.5082 65.6371Z" fill="#DCE8F7"/>
<path d="M67.66 58.7783C67.66 60.7073 66.0681 63.1679 64.1001 64.2825C62.1321 65.3971 60.5402 64.7369 60.5402 62.8078C60.5402 60.8788 62.1321 58.4182 64.1001 57.3036C66.0681 56.1891 67.66 56.8492 67.66 58.7783Z" fill="url(#paint8_linear_0_1)"/>
<path d="M79.8795 51.628C79.8795 53.5571 78.2876 56.0177 76.3196 57.1322C74.3516 58.2468 72.7597 57.5866 72.7597 55.6576C72.7597 53.7285 74.3516 51.2679 76.3196 50.1534C78.2876 49.0388 79.8795 49.699 79.8795 51.628Z" fill="url(#paint9_linear_0_1)"/>
<path d="M105.585 94.4957C105.227 94.3071 105.017 93.6983 105.017 93.1582C105.017 92.8753 105.078 92.6009 105.192 92.4123C105.454 91.9922 107.755 90.5004 108.857 89.7974C108.927 90.046 109.137 90.2861 109.478 90.4833C109.749 90.6376 110.081 90.749 110.431 90.8005C110.431 90.8005 105.909 92.8496 105.655 93.304C105.507 93.5783 105.428 93.8784 105.577 94.4957H105.585Z" fill="#2A2726"/>
<path d="M108.524 59.2327C108.218 59.2327 107.921 59.1213 107.658 58.9241C107.238 58.6068 106.976 58.0839 106.967 56.5921C106.967 55.6575 107.072 54.3372 107.317 52.451C107.947 47.5384 110.422 45.3264 110.422 45.3264L110.212 46.5524C109.897 47.3498 108.734 50.4105 108.375 53.1369C108.288 53.7714 108.192 54.3972 108.052 55.0231C107.798 56.1377 107.562 58.0924 108.542 59.2413C108.533 59.2413 108.533 59.2413 108.524 59.2413V59.2327Z" fill="#F08D25"/>
<path d="M113.256 91.0061C113.116 91.2976 111.174 91.7862 110.238 92.2921C109.303 92.7893 106.154 94.7527 105.594 94.4869C105.043 94.1954 104.85 92.9522 105.209 92.395C105.559 91.8377 109.46 89.4114 109.46 89.4114H112.792C112.792 89.4114 113.396 90.706 113.256 90.9975V91.0061Z" fill="#2D2829"/>
<path d="M120.018 94.547C120.061 94.89 119.913 95.2329 119.633 95.4301C118.504 96.236 115.373 98.328 113.256 98.3708C112.417 98.388 111.804 98.3108 111.376 98.1822C110.475 97.9164 110.379 97.4363 110.615 97.2048C110.965 96.8619 115.81 93.2953 115.81 93.2953H119.738C119.738 93.2953 119.939 93.8783 120.018 94.5385V94.547Z" fill="#2D2829"/>
<path d="M111.367 98.1822C110.728 97.9936 110.492 97.6935 110.492 97.462C110.492 97.3592 110.536 97.2734 110.606 97.2048C110.912 96.8962 114.734 94.0841 115.627 93.4325C115.635 93.5097 115.635 93.5439 115.635 93.5439C115.635 93.8612 115.845 94.187 116.283 94.427C116.37 94.4785 116.457 94.5213 116.554 94.5642C116.554 94.5642 111.498 97.1191 111.192 97.5049C111.043 97.6935 111.183 97.9679 111.358 98.1822H111.367Z" fill="#2A2726"/>
<path d="M115.076 69.6239C114.708 72.0673 113.178 78.4375 113.178 78.4375L113.248 89.5917C113.248 89.9089 113.029 90.2347 112.6 90.4748C112.014 90.8091 111.183 90.912 110.431 90.792C110.081 90.732 109.749 90.6291 109.478 90.4748C109.049 90.2347 108.83 89.9089 108.83 89.5917C108.83 89.5917 108.314 78.0174 108.14 75.0681C107.965 72.1188 109.145 63.5967 109.145 63.5967L110.746 63.6138L115.312 63.6567C115.312 63.6567 115.425 67.189 115.067 69.6325L115.076 69.6239Z" fill="#2C283C"/>
<path d="M119.562 75.8394C119.256 78.0771 119.212 80.3406 119.44 82.5954C119.755 85.7076 120.131 90.303 120.043 93.5438C120.043 93.8696 119.833 94.1868 119.396 94.4355C118.618 94.8727 117.41 94.9156 116.553 94.5726C116.457 94.5298 116.361 94.4869 116.282 94.4355C115.845 94.1954 115.635 93.8696 115.635 93.5524C115.635 93.5524 114.437 81.0693 113.947 79.106C113.457 77.1426 112.792 69.0235 112.792 69.0235V63.9994L119.807 63.3821C119.807 63.3821 120.577 65.9284 120.437 68.269C120.349 69.7694 119.93 73.1645 119.562 75.8394Z" fill="#2D283C"/>
<path d="M110.439 90.7919C110.089 90.7319 109.757 90.629 109.486 90.4747C109.057 90.2346 108.839 89.9088 108.839 89.5916C108.839 89.5916 108.638 85.0133 108.436 80.8809C108.375 79.6806 108.323 78.5231 108.27 77.52L109.81 76.6541C109.897 79.209 110.291 87.6625 110.439 90.7919ZM108.183 75.711L109.836 74.7765L108.183 75.711ZM110.343 68.0034L108.716 67.086C108.944 65.1055 109.154 63.588 109.154 63.588L110.194 63.991L110.693 64.1796C110.614 64.9426 110.483 66.3658 110.334 67.9948L110.343 68.0034Z" fill="#3B2B38"/>
<path d="M116.562 94.5643C116.466 94.5215 116.37 94.4786 116.291 94.4271C115.854 94.1871 115.644 93.8613 115.644 93.5441C115.644 93.5441 114.446 81.061 113.956 79.0976C113.833 78.6175 113.711 77.7773 113.58 76.7828C113.492 76.1312 113.413 75.4024 113.335 74.6651L113.929 74.3307C114.349 76.3369 114.778 78.4032 114.97 79.492C115.373 81.704 116.326 91.8637 116.571 94.5643H116.562ZM113.142 72.9075L113.571 72.6675L113.142 72.9075ZM112.88 69.4352L112.819 69.4009C112.801 69.1609 112.784 69.0151 112.784 69.0151C112.784 69.0151 112.819 69.1609 112.871 69.4267L112.88 69.4352Z" fill="#3B2B38"/>
<g filter="url(#filter1_d_0_1)">
<path d="M110.195 63.9909L111.41 64.4538C114.306 65.5598 120.288 64.188 120.288 64.188L121.836 48.2327C121.836 48.2327 120.463 46.6294 118.067 45.6863C117.708 45.5406 117.332 45.4206 116.93 45.3091C114.804 44.7604 113.825 44.9319 112.6 45.1119C111.419 45.292 110.396 45.2491 109.88 46.6809C108.288 51.0277 108.953 53.0853 109.163 53.9427C109.32 54.5942 109.259 59.0611 109.206 61.676V61.6846V61.8818V61.9504L109.198 62.4133L109.189 62.6362V62.8077V62.8591V62.8763L109.18 63.1849V63.2364L109.171 63.4164V63.4593V63.4936V63.5193V63.545V63.5622V63.5793L110.212 63.9823L110.195 63.9909Z" fill="url(#paint10_linear_0_1)"/>
<path d="M121.408 48.1448C121.481 48.2169 121.537 48.2759 121.577 48.3185L120.057 63.9827C120.032 63.988 120.004 63.9938 119.974 64.0001C119.807 64.0351 119.564 64.084 119.263 64.1392C118.661 64.2498 117.829 64.3857 116.908 64.4872C115.986 64.5888 114.979 64.6555 114.026 64.629C113.07 64.6024 112.185 64.4823 111.5 64.2203L111.499 64.2202L110.822 63.9621L110.835 63.9554L110.302 63.7491L109.422 63.4083L109.43 63.2485L109.43 63.2485V63.2364V63.1885L109.439 62.8834L109.439 62.8834V62.8763V62.8591V62.8077V62.6411L109.447 62.4231L109.447 62.4231L109.447 62.418L109.456 61.9551L109.456 61.9551V61.9504V61.8818V61.6846V61.6785C109.483 60.3707 109.511 58.5998 109.513 57.0734C109.514 56.31 109.509 55.606 109.493 55.0511C109.485 54.7738 109.475 54.5318 109.461 54.3373C109.448 54.1482 109.431 53.9881 109.406 53.8839L109.405 53.8832C109.395 53.8394 109.383 53.7928 109.37 53.7433C109.259 53.3051 109.09 52.6368 109.095 51.6217C109.102 50.4898 109.327 48.9174 110.115 46.7668L110.115 46.7668L110.115 46.7656C110.351 46.1117 110.687 45.8207 111.085 45.6585C111.293 45.5736 111.526 45.521 111.789 45.4785C111.92 45.4573 112.056 45.439 112.198 45.4201C112.209 45.4187 112.219 45.4173 112.23 45.4159C112.361 45.3985 112.498 45.3803 112.637 45.3592C112.673 45.3539 112.708 45.3487 112.743 45.3436C113.315 45.2591 113.822 45.1843 114.426 45.1872C115.064 45.1903 115.819 45.2808 116.865 45.5506C117.261 45.6604 117.626 45.7773 117.973 45.9179L117.973 45.918L117.975 45.919C119.144 46.379 120.065 47.0007 120.693 47.5077C121.007 47.761 121.247 47.985 121.408 48.1448Z" stroke="#2B2A29" stroke-width="0.5" stroke-miterlimit="22.9256"/>
</g>
<path d="M117.373 45.5572C117.338 45.6065 117.295 45.6672 117.245 45.7376C117.097 45.9444 116.884 46.2348 116.624 46.5682C116.104 47.2366 115.403 48.0714 114.669 48.7526C114.284 49.1108 113.889 49.4198 113.512 49.6403L113.191 47.5366V44.3046L113.334 44.2626L116.252 44.1001L117.373 45.5572Z" fill="#FEFEFE" stroke="#2B2A29" stroke-width="0.5" stroke-miterlimit="22.9256"/>
<path d="M116.895 59.7137L116.913 59.6527L116.895 59.7137Z" fill="#F08D25"/>
<mask id="path-42-inside-1_0_1" fill="white">
<path d="M116.624 59.0182L117.682 52.8795L117.673 52.7423V52.7252L117.664 52.5966C117.664 52.528 117.664 52.468 117.664 52.3994C117.664 52.3222 117.664 52.2536 117.673 52.1851V52.1765C117.673 52.0907 117.682 52.005 117.691 51.9279V51.9107L117.699 51.8164V51.7821L117.708 51.7049L117.717 51.6621L117.726 51.6192C117.734 51.5678 117.743 51.5249 117.752 51.4735L117.761 51.422L117.778 51.3448L117.787 51.3106L117.804 51.242L117.813 51.1905L117.822 51.1562L117.848 51.0705V51.0533L117.874 50.9676L117.892 50.9162L117.909 50.8647L117.927 50.8047L117.944 50.7447L117.962 50.7104L117.988 50.659L118.014 50.6075L118.032 50.5647L118.058 50.5046L118.075 50.4703L118.102 50.4103L118.128 50.3675L118.154 50.3246L118.18 50.2732L118.207 50.2303L118.224 50.196C118.25 50.1446 118.285 50.0931 118.312 50.0502L118.32 50.0417C118.355 49.9817 118.399 49.9216 118.443 49.8702L118.504 49.7845C118.548 49.7244 118.592 49.673 118.635 49.6216L118.661 49.5958L118.714 49.5358V49.5273L118.758 49.4758L118.775 49.4587C118.854 49.3729 118.941 49.2958 119.02 49.2186H119.029L119.081 49.1672L119.09 49.1586L119.151 49.1072L119.16 49.0986C119.221 49.0471 119.291 48.9957 119.352 48.9443L119.361 48.9357L119.414 48.9014L119.431 48.8928C119.554 48.8071 119.676 48.7213 119.799 48.6528L119.886 48.6013L119.912 48.5842L119.956 48.5584C120.008 48.5327 120.061 48.4984 120.113 48.4727L120.157 48.447L120.21 48.4213L120.245 48.4041L120.28 48.387L120.297 48.3784L120.35 48.3527L120.49 48.2927L120.533 48.2755L120.551 48.2669L120.586 48.2498L120.603 48.2412L120.691 48.2069L120.761 48.1812L120.787 48.1726L120.866 48.1469L120.971 48.1126L121.023 48.0955C121.102 48.0698 121.172 48.0526 121.224 48.0355L121.312 48.0183C122.326 48.2241 122.904 49.27 122.659 52.2022C122.423 55.1344 119.527 62.2761 117.682 62.6019C117.498 62.6362 117.271 62.6362 117 62.6105L116.895 62.6019H116.868L116.772 62.5933H116.763C116.693 62.5848 116.615 62.5676 116.536 62.5591L116.501 62.5505C116.431 62.5333 116.352 62.5248 116.282 62.5076L116.221 62.499L116.134 62.4819H116.125L115.985 62.4476H115.976L115.898 62.4305L115.81 62.4047C115.723 62.3876 115.644 62.3619 115.556 62.3361H115.548C115.408 62.2933 115.259 62.259 115.11 62.2075L115.075 62.199L114.953 62.1561L114.927 62.1475C114.778 62.1047 114.629 62.0532 114.472 62.0018L114.428 61.9846L114.341 61.9503L114.279 61.9246C114.131 61.8732 113.973 61.8132 113.816 61.7617L113.658 61.7017L113.641 61.6931L113.545 61.6588L113.492 61.6417C113.335 61.5817 113.169 61.5217 113.011 61.4531L112.862 61.3931L112.827 61.3759C111.883 60.9901 110.973 60.57 110.265 60.1842C110.168 60.1327 110.081 60.0813 109.994 60.0384L109.959 60.0127L109.932 59.9956L109.906 59.9784C109.626 59.8241 109.399 59.6698 109.215 59.5412L109.206 59.5326L109.189 59.5154L109.18 59.5069L109.154 59.4897L109.11 59.4554L109.101 59.4469L109.049 59.404L109.04 59.3954L108.996 59.3611L108.988 59.3525L108.953 59.3183L108.944 59.3011L108.909 59.2668L108.9 59.2582L108.883 59.2325L108.874 59.2239L108.848 59.1896C108.734 58.9925 108.743 58.7524 108.83 58.4866C109.11 57.6378 110.23 56.6262 110.23 56.6262L116.641 58.9925L116.624 59.0182Z"/>
</mask>
<path d="M116.624 59.0182L117.682 52.8795L117.673 52.7423V52.7252L117.664 52.5966C117.664 52.528 117.664 52.468 117.664 52.3994C117.664 52.3222 117.664 52.2536 117.673 52.1851V52.1765C117.673 52.0907 117.682 52.005 117.691 51.9279V51.9107L117.699 51.8164V51.7821L117.708 51.7049L117.717 51.6621L117.726 51.6192C117.734 51.5678 117.743 51.5249 117.752 51.4735L117.761 51.422L117.778 51.3448L117.787 51.3106L117.804 51.242L117.813 51.1905L117.822 51.1562L117.848 51.0705V51.0533L117.874 50.9676L117.892 50.9162L117.909 50.8647L117.927 50.8047L117.944 50.7447L117.962 50.7104L117.988 50.659L118.014 50.6075L118.032 50.5647L118.058 50.5046L118.075 50.4703L118.102 50.4103L118.128 50.3675L118.154 50.3246L118.18 50.2732L118.207 50.2303L118.224 50.196C118.25 50.1446 118.285 50.0931 118.312 50.0502L118.32 50.0417C118.355 49.9817 118.399 49.9216 118.443 49.8702L118.504 49.7845C118.548 49.7244 118.592 49.673 118.635 49.6216L118.661 49.5958L118.714 49.5358V49.5273L118.758 49.4758L118.775 49.4587C118.854 49.3729 118.941 49.2958 119.02 49.2186H119.029L119.081 49.1672L119.09 49.1586L119.151 49.1072L119.16 49.0986C119.221 49.0471 119.291 48.9957 119.352 48.9443L119.361 48.9357L119.414 48.9014L119.431 48.8928C119.554 48.8071 119.676 48.7213 119.799 48.6528L119.886 48.6013L119.912 48.5842L119.956 48.5584C120.008 48.5327 120.061 48.4984 120.113 48.4727L120.157 48.447L120.21 48.4213L120.245 48.4041L120.28 48.387L120.297 48.3784L120.35 48.3527L120.49 48.2927L120.533 48.2755L120.551 48.2669L120.586 48.2498L120.603 48.2412L120.691 48.2069L120.761 48.1812L120.787 48.1726L120.866 48.1469L120.971 48.1126L121.023 48.0955C121.102 48.0698 121.172 48.0526 121.224 48.0355L121.312 48.0183C122.326 48.2241 122.904 49.27 122.659 52.2022C122.423 55.1344 119.527 62.2761 117.682 62.6019C117.498 62.6362 117.271 62.6362 117 62.6105L116.895 62.6019H116.868L116.772 62.5933H116.763C116.693 62.5848 116.615 62.5676 116.536 62.5591L116.501 62.5505C116.431 62.5333 116.352 62.5248 116.282 62.5076L116.221 62.499L116.134 62.4819H116.125L115.985 62.4476H115.976L115.898 62.4305L115.81 62.4047C115.723 62.3876 115.644 62.3619 115.556 62.3361H115.548C115.408 62.2933 115.259 62.259 115.11 62.2075L115.075 62.199L114.953 62.1561L114.927 62.1475C114.778 62.1047 114.629 62.0532 114.472 62.0018L114.428 61.9846L114.341 61.9503L114.279 61.9246C114.131 61.8732 113.973 61.8132 113.816 61.7617L113.658 61.7017L113.641 61.6931L113.545 61.6588L113.492 61.6417C113.335 61.5817 113.169 61.5217 113.011 61.4531L112.862 61.3931L112.827 61.3759C111.883 60.9901 110.973 60.57 110.265 60.1842C110.168 60.1327 110.081 60.0813 109.994 60.0384L109.959 60.0127L109.932 59.9956L109.906 59.9784C109.626 59.8241 109.399 59.6698 109.215 59.5412L109.206 59.5326L109.189 59.5154L109.18 59.5069L109.154 59.4897L109.11 59.4554L109.101 59.4469L109.049 59.404L109.04 59.3954L108.996 59.3611L108.988 59.3525L108.953 59.3183L108.944 59.3011L108.909 59.2668L108.9 59.2582L108.883 59.2325L108.874 59.2239L108.848 59.1896C108.734 58.9925 108.743 58.7524 108.83 58.4866C109.11 57.6378 110.23 56.6262 110.23 56.6262L116.641 58.9925L116.624 59.0182Z" fill="url(#paint11_linear_0_1)" stroke="#2B2A29" stroke-miterlimit="22.9256" stroke-linejoin="round" mask="url(#path-42-inside-1_0_1)"/>
<path d="M108.699 55.6748L109.049 53.5314L110.71 50.9336C110.658 51.0536 110.675 51.1737 110.754 51.2937C110.824 51.3966 110.947 51.4994 111.13 51.5852C111.2 51.6195 111.27 51.6452 111.34 51.6709L108.699 55.6748Z" fill="#F08D25"/>
<path d="M113.282 51.585L113.081 51.6621C112.486 51.8593 111.664 51.8336 111.13 51.585C110.947 51.4992 110.824 51.3963 110.754 51.2935C110.614 51.0791 110.684 50.8476 110.956 50.6676L111.122 50.5733C111.716 50.2904 112.679 50.2904 113.282 50.5733C113.545 50.7019 113.693 50.8562 113.719 51.0277C113.754 51.2334 113.606 51.4392 113.282 51.5935V51.585Z" fill="#E95E2C"/>
<path d="M116.646 42.1713C116.628 42.6434 116.563 43.1385 116.526 43.4129L116.501 43.5359L116.484 43.6217L116.474 43.6696L116.483 43.7177L116.586 44.2667C116.567 44.2668 116.545 44.2664 116.523 44.2653C116.45 44.262 116.378 44.2537 116.321 44.2459C116.294 44.242 116.271 44.2384 116.255 44.2358L116.238 44.2327L116.233 44.232L116.233 44.2319L116.233 44.2318L116.233 44.2318L116.233 44.2318L116.233 44.2318L115.953 44.1793L115.937 44.4631C115.912 44.9023 115.853 45.2283 115.801 45.4415C115.776 45.5481 115.752 45.6265 115.735 45.6768C115.73 45.6931 115.725 45.7065 115.721 45.717C115.231 46.2603 114.341 46.5951 113.569 46.7993C113.314 46.866 113.075 46.916 112.889 46.9492C112.748 46.9743 112.636 46.9909 112.559 47.0012C112.545 47.0032 112.531 47.0049 112.519 47.0064C112.185 46.8089 111.84 46.378 111.508 45.7924C111.161 45.1814 110.852 44.4456 110.596 43.7484L110.596 43.7476L110.491 43.4646L110.487 43.4545L110.482 43.4448L110.482 43.4448L110.482 43.4448L110.482 43.4447L110.482 43.444L110.48 43.4406L110.474 43.4262C110.468 43.4133 110.459 43.3942 110.448 43.3697C110.426 43.3205 110.396 43.25 110.361 43.1652C110.291 42.9947 110.208 42.7711 110.146 42.551C110.082 42.3227 110.052 42.1292 110.066 42.0057C110.07 41.9699 110.076 41.9506 110.08 41.9417C110.082 41.9415 110.085 41.9413 110.089 41.9412L110.164 41.9473L110.214 41.9597L110.214 41.9597L110.217 41.9603C110.422 42.0082 110.671 42.0401 110.964 41.9787L110.977 41.9759L110.99 41.9716L111.121 41.9288L111.134 41.9245L111.146 41.9189C111.318 41.8414 111.509 41.7047 111.698 41.5599C111.792 41.4876 111.891 41.4094 111.99 41.3305L111.998 41.3244C112.1 41.2429 112.204 41.1603 112.31 41.0792C112.522 40.9164 112.733 40.7651 112.937 40.65C113.136 40.5374 113.311 40.4686 113.461 40.4497C113.47 40.4517 113.483 40.4554 113.502 40.4613C113.548 40.476 113.606 40.4983 113.669 40.5241C113.701 40.5368 113.732 40.5497 113.762 40.5624L113.768 40.5648C113.796 40.5765 113.824 40.5881 113.849 40.5985C113.876 40.6093 113.903 40.62 113.927 40.6285L113.927 40.6286C113.943 40.6345 113.982 40.6484 114.022 40.6532L114.024 40.6535C114.033 40.6572 114.047 40.664 114.067 40.6749C114.112 40.6994 114.168 40.7349 114.227 40.7753C114.285 40.8151 114.342 40.8567 114.389 40.8917C114.404 40.9026 114.419 40.9139 114.433 40.9244C114.46 40.9441 114.483 40.9614 114.495 40.97L114.495 40.97L114.499 40.9728C114.714 41.1167 114.976 41.1788 115.228 41.2085C115.479 41.2381 115.747 41.2381 115.987 41.2381H115.994C116.206 41.2381 116.388 41.2383 116.552 41.2522C116.552 41.2525 116.552 41.2527 116.553 41.253C116.57 41.2798 116.593 41.3348 116.612 41.4291C116.65 41.6155 116.658 41.8788 116.646 42.1713ZM110.073 41.9431C110.073 41.9431 110.073 41.9429 110.074 41.9427L110.073 41.9431ZM113.449 40.4475C113.449 40.4475 113.45 40.4476 113.452 40.4479L113.449 40.4475ZM114.016 40.6505C114.016 40.6505 114.016 40.6507 114.018 40.6512C114.016 40.6508 114.016 40.6505 114.016 40.6505Z" fill="#FEFEFE" stroke="#2B2A29" stroke-width="0.5" stroke-miterlimit="22.9256"/>
<path d="M117.473 42.4113C117 43.5602 117.166 44.6147 117.166 44.6147L116.843 44.7176C116.843 44.7176 116.694 44.0317 116.712 43.7574L116.729 43.6717L116.747 43.5773C116.79 42.017 116.344 41.5626 115.802 41.5111C115.059 41.5111 115.68 42.8829 115.583 43.2344C115.487 43.5859 115.251 43.4916 115.181 43.4573C115.12 43.423 114.919 42.78 114.814 42.2827C114.717 41.7855 114.009 40.5166 113.484 40.6709C113.134 40.7738 112.986 40.971 112.487 41.211C112.155 41.3739 111.674 41.5454 110.895 41.734C110.659 41.794 110.44 41.7769 110.257 41.7169L110.187 41.6997C109.496 41.614 110.248 43.5516 110.248 43.5516C110.283 43.6459 110.318 43.7402 110.353 43.8345C110.047 43.8345 109.968 43.243 109.819 42.84C109.706 42.5228 109.574 42.2141 109.434 41.9141C109.128 41.2882 108.359 40.6195 109.198 38.9476C109.933 37.4901 112.435 36.8728 112.435 36.8728C113.029 36.6499 113.589 36.5813 114.114 36.607C114.875 36.6328 115.522 36.8643 115.959 37.0872C116.493 37.3529 117.009 37.8331 117.245 38.1074C117.516 38.4075 117.7 39.0677 117.796 39.7535C117.919 40.6623 117.822 41.5797 117.481 42.4028L117.473 42.4113Z" fill="#2D2829"/>
<path d="M110.343 43.8432C110.037 43.8432 109.959 43.2516 109.81 42.8487C109.696 42.5315 109.565 42.2228 109.425 41.9227C109.224 41.5026 108.813 41.0654 108.813 40.3281C108.813 39.9594 108.918 39.5136 109.198 38.9649C109.932 37.5074 112.434 36.8901 112.434 36.8901C112.95 36.6929 113.457 36.6157 113.921 36.6157C113.982 36.6157 114.052 36.6157 114.113 36.6157C112.39 37.3788 109.443 38.8363 109.661 39.7451C109.906 40.7396 110.011 41.3826 111.183 41.3826C111.516 41.3826 111.944 41.3312 112.478 41.2197C112.163 41.374 111.699 41.5455 110.965 41.7256C110.947 41.7341 110.921 41.7341 110.903 41.7427C110.903 41.7427 110.903 41.7427 110.895 41.7427C110.79 41.7684 110.693 41.777 110.597 41.777C110.475 41.777 110.361 41.7599 110.256 41.7256L110.23 41.717L110.195 41.7084C110.177 41.7084 110.169 41.7084 110.151 41.7084C110.134 41.7084 110.116 41.7084 110.099 41.717C109.95 41.7427 109.897 41.9056 109.897 42.1114C109.897 42.6515 110.247 43.5603 110.247 43.5603C110.282 43.6546 110.317 43.7489 110.352 43.8432H110.343Z" fill="#2A2726"/>
<path d="M114.385 49.4758V49.9731C114.385 50.2132 114.288 50.4446 114.113 50.6161C113.799 50.7361 113.527 50.9591 113.344 51.242L113.073 51.6535C112.495 51.8507 111.699 51.825 111.166 51.5935L111.122 51.5764C110.947 51.4906 110.816 51.3877 110.746 51.2849C110.807 51.1562 110.886 50.9162 110.947 50.659C111.017 50.3761 111.061 50.0588 111.035 49.8359C110.965 49.3215 111.306 47.2896 111.603 46.4579L112.198 47.101L112.067 48.0955C112.067 48.0955 113.169 46.3122 113.615 46.0979C114.061 45.8921 113.344 47.7011 113.344 47.7011L113.965 48.387C114.236 48.6871 114.376 49.0729 114.376 49.4673L114.385 49.4758Z" fill="#FEFEFE" stroke="#2B2A29" stroke-width="0.5" stroke-miterlimit="22.9256" stroke-linecap="round" stroke-linejoin="round"/>
<g filter="url(#filter2_d_0_1)">
<path d="M113.317 51.2936C113.317 51.2936 112.382 54.0114 111.428 55.9919C111.017 56.8407 109.661 59.2241 108.542 59.2327C108.227 59.2327 107.798 59.2241 107.658 58.924C107.02 57.5523 106.478 56.292 107.107 51.3707C107.492 48.3357 108.069 46.9982 108.848 45.9094C109.329 45.2321 110.912 45.2235 110.912 45.2235L111.297 46.3038C110.903 46.7153 110.344 47.0068 110.125 47.5298C108.935 50.2905 109.233 52.6053 108.874 54.6115L110.877 50.9592L111.734 51.0792L113.317 51.3022V51.2936Z" fill="url(#paint12_linear_0_1)"/>
<path d="M113.317 51.2936C113.317 51.2936 112.382 54.0114 111.428 55.9919C111.017 56.8407 109.661 59.2241 108.542 59.2327C108.227 59.2327 107.798 59.2241 107.658 58.924C107.02 57.5523 106.478 56.292 107.107 51.3707C107.492 48.3357 108.069 46.9982 108.848 45.9094C109.329 45.2321 110.912 45.2235 110.912 45.2235L111.297 46.3038C110.903 46.7153 110.344 47.0068 110.125 47.5298C108.935 50.2905 109.233 52.6053 108.874 54.6115L110.877 50.9592L111.734 51.0792L113.317 51.3022V51.2936Z" stroke="#2B2A29" stroke-width="0.5" stroke-miterlimit="22.9256" stroke-linecap="round" stroke-linejoin="round"/>
</g>
<path d="M85.7049 88.2456H84.7778V79.0118H85.7049V88.2456Z" fill="#31283C"/>
<path d="M94.7408 111.514H93.8049V102.443H94.7408V111.514Z" fill="#31283C"/>
<path d="M85.1098 92.1894C84.445 94.47 82.9843 98.6196 80.614 101.26C80.3166 101.586 80.3866 102.092 80.7627 102.332C82.2059 103.232 85.5733 104.913 88.4597 103.129C91.3549 101.337 88.1361 94.9587 86.4393 92.0351C86.1156 91.4864 85.276 91.5807 85.101 92.1894H85.1098Z" fill="#FEFEFE"/>
<path d="M85.8102 91.9835C85.9064 91.9835 86.0726 92.0092 86.1688 92.1893C87.7082 94.8471 90.9882 101.2 88.2942 102.872C85.5215 104.587 82.224 102.889 80.9295 102.083C80.8246 102.023 80.7633 101.92 80.7458 101.8C80.7283 101.68 80.7633 101.56 80.8508 101.474C83.2736 98.7823 84.7518 94.5556 85.4078 92.2836C85.4778 92.0435 85.6965 92.0006 85.7577 91.9921C85.7664 91.9921 85.7839 91.9921 85.8102 91.9921V91.9835ZM85.6265 104.227C86.6236 104.227 87.6557 104.004 88.6354 103.395C91.6792 101.509 88.7403 95.3786 86.7198 91.8892C86.5099 91.5205 86.1163 91.3233 85.6877 91.3748C85.2591 91.4262 84.9268 91.7091 84.8043 92.1121C84.1571 94.3412 82.7138 98.4651 80.3785 101.063C80.1773 101.286 80.0811 101.586 80.1248 101.886C80.1686 102.177 80.3435 102.443 80.5972 102.598C81.5418 103.189 83.501 104.227 85.6265 104.227Z" fill="#31283C"/>
<g filter="url(#filter3_d_0_1)">
<path d="M100.146 127.427C100.146 127.427 100.881 126.981 101.021 130.024C101.021 130.024 99.4377 131.499 97.9858 130.779C95.9828 129.784 93.8311 126.638 93.8311 126.638C93.8311 126.638 93.3325 125.995 94.3734 125.523C95.4142 125.043 98.6768 126.475 98.6768 126.475L100.146 127.435V127.427Z" fill="url(#paint13_linear_0_1)"/>
</g>
<path d="M100.697 129.896C100.347 130.179 99.1665 131.028 98.1256 130.505C96.2188 129.553 94.1109 126.492 94.0934 126.466C94.0847 126.449 94.0059 126.338 94.0409 126.209C94.0759 126.072 94.2421 125.926 94.5132 125.806C95.1692 125.506 97.3122 126.218 98.5367 126.749L100.155 127.804L100.26 127.744C100.347 127.83 100.618 128.233 100.715 129.904L100.697 129.896ZM98.8428 131.293C100.102 131.293 101.178 130.307 101.231 130.256L101.336 130.162L101.327 130.024C101.222 127.795 100.811 127.332 100.505 127.178C100.4 127.127 100.295 127.109 100.199 127.109L98.7991 126.201C98.4492 126.046 95.3704 124.735 94.2333 125.258C93.7785 125.463 93.4986 125.746 93.4199 126.081C93.3149 126.492 93.5511 126.809 93.5773 126.844C93.6561 126.964 95.7903 130.059 97.837 131.079C98.1781 131.242 98.5105 131.311 98.8428 131.311V131.293Z" fill="#31283C"/>
<g filter="url(#filter4_d_0_1)">
<path d="M89.9995 133.994C89.9995 133.994 90.7167 135.091 90.6905 136.858C90.6905 136.858 89.6846 138.709 86.6408 137.055C86.3959 136.926 86.1422 136.823 85.8711 136.738C85.0664 136.463 83.3258 135.7 82.8797 133.994C82.2937 131.748 86.9819 133.805 86.9819 133.805L89.9995 133.994Z" fill="url(#paint14_linear_0_1)"/>
</g>
<path d="M90.3144 136.72C90.2356 136.832 90.0082 137.098 89.5884 137.261C88.8537 137.543 87.8653 137.363 86.7282 136.738C86.5008 136.618 86.2472 136.506 85.9148 136.395C85.215 136.163 83.5444 135.443 83.1246 133.865C83.0546 133.6 83.0721 133.42 83.1771 133.325C83.6494 132.931 85.5737 133.505 86.7894 134.037L86.8944 134.063L89.7458 134.243C89.912 134.56 90.3144 135.46 90.3144 136.72ZM88.8449 138.006C89.1248 138.006 89.3785 137.972 89.6321 137.904C90.533 137.638 90.9004 136.986 90.9179 136.96L90.9529 136.892V136.815C90.9879 134.971 90.2444 133.823 90.2181 133.78L90.1307 133.651L87.0081 133.454C86.3521 133.171 83.7019 132.099 82.7835 132.862C82.5735 133.042 82.3549 133.385 82.5211 134.028C83.0109 135.897 84.9177 136.72 85.7136 136.986C86.011 137.089 86.2384 137.183 86.4308 137.286C87.323 137.766 88.1277 138.015 88.8449 138.015V138.006Z" fill="#31283C"/>
<path d="M91.9411 109.851C91.9411 109.851 92.4747 115.192 94.5126 118.845C94.5126 118.845 95.7022 123.543 96.0521 127.127C96.0695 127.341 96.157 127.538 96.297 127.692C96.743 128.207 97.9063 129.116 100.058 128.198C100.478 128.018 100.801 127.658 100.941 127.221C101.038 126.929 101.038 126.621 100.959 126.329L99.3146 121.099C99.3146 121.099 98.8335 117.258 98.2212 114.746C97.6002 112.234 99.402 107.039 98.055 101.98C96.7081 96.922 95.4923 96.0046 95.4923 96.0046L91.0315 104.578L91.9499 109.851H91.9411Z" fill="#31283C"/>
<path d="M95.5534 96.5533C95.9645 97.1192 96.8304 98.6024 97.7488 102.058C98.536 105.007 98.2212 108.05 97.9763 110.502C97.8013 112.243 97.6439 113.743 97.915 114.815C98.5273 117.284 98.9996 121.099 99.0084 121.134L99.0171 121.185L100.67 126.415C100.731 126.638 100.731 126.895 100.653 127.127C100.539 127.487 100.277 127.77 99.9443 127.915C98.0287 128.73 96.9966 128.001 96.5506 127.495C96.4543 127.384 96.3931 127.255 96.3844 127.101C96.0345 123.534 94.8449 118.819 94.8362 118.776L94.81 118.699C92.8245 115.141 92.2822 109.877 92.2734 109.817V109.791L91.3725 104.621L95.5797 96.5447L95.5534 96.5533ZM98.3436 128.901C98.8684 128.901 99.4719 128.79 100.18 128.49C100.688 128.275 101.073 127.847 101.239 127.324C101.352 126.972 101.352 126.604 101.256 126.252L99.6119 121.039C99.5682 120.688 99.1046 117.07 98.5098 114.678C98.2649 113.709 98.4136 112.251 98.5885 110.571C98.8422 108.076 99.1571 104.964 98.3436 101.912C96.9879 96.8105 95.7196 95.8074 95.6671 95.7645L95.3698 95.5416L90.6903 104.535L91.6262 109.894C91.6612 110.237 92.2122 115.338 94.2152 118.965C94.3289 119.419 95.4047 123.817 95.7371 127.161C95.7634 127.444 95.8771 127.692 96.052 127.898C96.3669 128.258 97.1016 128.901 98.3349 128.901H98.3436Z" fill="#31283C"/>
<path d="M86.0465 101.029C85.8191 101.097 85.6617 101.286 85.6354 101.517C85.443 103.481 84.6033 112.672 85.4518 118.69C86.3089 124.786 85.8891 131.911 85.7929 133.377C85.7841 133.548 85.8454 133.711 85.9766 133.831C86.4839 134.286 87.9533 135.254 90.3849 133.883C90.5686 133.78 90.6735 133.583 90.6735 133.377V132.305L90.6648 132.254C90.3062 128.944 90.726 125.618 90.8747 122.291C90.9447 120.705 90.866 119.505 90.3499 118.022C90.3062 117.902 90.3062 117.781 90.3412 117.661C90.7085 116.581 92.6153 110.785 93.0439 106.456C93.385 103.061 93.2451 100.66 93.1314 99.537C93.0964 99.1683 92.7203 98.9368 92.3616 99.0483L86.0291 101.012L86.0465 101.029Z" fill="#31283C"/>
<path d="M92.5532 99.3396C92.6057 99.3396 92.6582 99.3568 92.7019 99.3825C92.7457 99.4082 92.8069 99.4682 92.8244 99.5797C92.9381 100.703 93.0693 103.078 92.7369 106.439C92.3083 110.734 90.419 116.47 90.0517 117.576C89.9905 117.756 89.9904 117.944 90.0604 118.133C90.5677 119.607 90.6377 120.816 90.5677 122.291C90.5327 123.148 90.4715 124.014 90.419 124.872C90.2616 127.307 90.0954 129.819 90.3578 132.296L90.3666 132.348V133.385C90.3666 133.479 90.3141 133.574 90.2354 133.617C87.9962 134.877 86.6667 134.028 86.2031 133.608C86.1419 133.557 86.1157 133.479 86.1157 133.402C86.2731 130.839 86.5618 124.28 85.7658 118.656C84.9174 112.637 85.7746 103.352 85.9495 101.552C85.9582 101.44 86.037 101.354 86.1419 101.32L92.4745 99.3568C92.5007 99.3482 92.527 99.3482 92.562 99.3482L92.5532 99.3396ZM88.0137 134.903C88.7134 134.903 89.5531 134.706 90.5327 134.157C90.8126 134.002 90.9788 133.702 90.9788 133.385L90.9701 132.228C90.7077 129.801 90.8739 127.315 91.0313 124.906C91.0838 124.04 91.145 123.174 91.18 122.317C91.25 120.773 91.18 119.496 90.6377 117.936C90.6202 117.876 90.6202 117.824 90.6377 117.773C91.0138 116.658 92.9206 110.862 93.3579 106.499C93.699 103.086 93.5591 100.669 93.4454 99.5197C93.4191 99.2539 93.2705 99.0138 93.043 98.8681C92.8156 98.7223 92.5357 98.6794 92.2646 98.7652L85.932 100.729C85.5821 100.84 85.3372 101.131 85.3022 101.483C85.1186 103.292 84.2614 112.646 85.1185 118.724C85.9057 124.297 85.6171 130.813 85.4597 133.351C85.4422 133.617 85.5471 133.874 85.7396 134.045C86.0982 134.363 86.8504 134.886 87.9875 134.886L88.0137 134.903Z" fill="#31283C"/>
<path d="M69.1829 76.817L66.4976 74.948C66.2352 74.7679 66.069 74.485 66.0253 74.1763L65.9116 73.2504C65.8504 72.7446 66.1478 72.2559 66.6376 72.0758L67.0049 71.9386C67.3111 71.8272 67.6522 71.8958 67.8884 72.1187L68.6231 72.8217C68.6581 72.8474 68.7018 72.8389 68.7193 72.8046L69.0692 72.0415L69.3316 71.9901C69.6114 72.4959 69.7776 73.0446 69.8126 73.6191C69.8476 74.2449 70.04 75.128 70.7573 75.5995C71.9643 76.3883 70.2412 76.8341 70.2412 76.8341H69.2178C69.2091 76.8341 69.1916 76.8341 69.1829 76.8256V76.817Z" fill="#FEFEFE"/>
<path d="M70.2058 76.5168H69.3049L66.6809 74.6906C66.4972 74.562 66.366 74.3563 66.3398 74.1333L66.6022 72.9416C66.5585 72.573 65.4651 71.2526 65.6488 71.1926L65.745 71.1583C65.9375 71.0897 67.5206 72.1957 67.6606 72.3329L68.3953 73.0359C68.4827 73.1217 68.6052 73.156 68.7277 73.1302C68.8501 73.1045 68.9551 73.0274 68.9988 72.9159L69.2087 72.4529C69.3749 72.8216 69.4624 73.216 69.4886 73.6275C69.5323 74.3391 69.751 75.3079 70.5732 75.8481C70.8269 76.011 70.8706 76.1224 70.8618 76.1396C70.8443 76.2424 70.512 76.4311 70.1883 76.5254L70.2058 76.5168ZM69.2262 77.1341L70.3283 77.1255C70.5032 77.0826 71.4041 76.8169 71.5003 76.2424C71.5528 75.9166 71.3691 75.6166 70.9406 75.3336C70.3283 74.9393 70.1621 74.1676 70.1359 73.5932C70.1009 72.9845 69.9259 72.3758 69.6198 71.8356L69.5061 71.6384L68.8589 71.767L68.5877 72.35L68.1066 71.8956C67.783 71.5956 65.9375 70.4381 65.5264 70.5925L65.159 70.7296C64.5292 70.9611 65.9025 72.3758 65.9899 73.0274L65.7275 74.2191C65.78 74.6135 65.9987 74.9736 66.3311 75.205L69.1038 77.1341L69.235 77.1427L69.2262 77.1341Z" fill="#31283C"/>
<path d="M71.1502 78.4545L69.5496 77.2456C69.2609 77.0227 69.121 76.6712 69.1735 76.3197L69.3571 75.2566C69.4359 74.8193 69.8207 74.4935 70.2755 74.4935C70.5117 74.4935 70.7391 74.5793 70.9141 74.7422L73.1794 76.8513C73.2057 76.877 73.2057 76.9198 73.1794 76.9456L71.2289 78.4631C71.2027 78.4802 71.1765 78.4802 71.1502 78.4631V78.4545Z" fill="#659CD3"/>
<path d="M72.751 76.8685L71.1853 78.0945L69.7421 77.0057C69.541 76.8599 69.4447 76.6113 69.4885 76.3712L69.6722 75.3081C69.7246 75.0166 69.9783 74.8023 70.2757 74.8023C70.4331 74.8023 70.5818 74.8623 70.6955 74.9652L72.751 76.8771V76.8685ZM71.1853 78.7718C71.264 78.7718 71.3515 78.7461 71.4215 78.6947L73.372 77.1686C73.4595 77.1 73.5119 77.0057 73.5119 76.8942C73.5207 76.7913 73.477 76.6799 73.3982 76.6113L71.1328 74.5108C70.8967 74.2964 70.5993 74.1764 70.2757 74.1764C69.6634 74.1764 69.1474 74.6051 69.0511 75.1966L68.8675 76.2598C68.7887 76.7227 68.9724 77.1943 69.3573 77.4858L70.9579 78.6947C71.0279 78.7461 71.1066 78.7718 71.1853 78.7718Z" fill="#31283C"/>
<path d="M90.3237 105.813C90.3587 105.658 90.3936 105.495 90.4111 105.324L89.7901 105.238C89.7639 105.392 89.7376 105.538 89.7114 105.684L90.3237 105.821V105.813Z" fill="#659CD3"/>
<path d="M84.0164 134.174C84.0164 134.174 84.5675 133.505 85.6171 132.948L84.0164 134.174Z" fill="#31283C"/>
<path d="M84.262 134.371C84.2708 134.363 84.7868 133.745 85.7665 133.222L85.4691 132.682C84.367 133.265 83.7897 133.96 83.7722 133.985L84.262 134.371Z" fill="#31283C"/>
<path d="M94.5043 126.578C94.5043 126.578 94.8367 126.278 95.7201 126.029L94.5043 126.578Z" fill="#31283C"/>
<path d="M94.7142 126.809C94.7142 126.809 95.0203 126.552 95.8075 126.329L95.6326 125.738C94.7054 126.004 94.3293 126.321 94.2943 126.355L94.7142 126.809Z" fill="#31283C"/>
<g filter="url(#filter5_d_0_1)">
<path d="M99.2273 102.152C99.2273 102.152 98.8599 97.6077 98.9736 92.5493C99.0261 90.1144 99.6034 87.4995 99.6034 85.339C99.6209 84.9617 99.6296 84.5845 99.6296 84.2073C99.6296 84.2073 99.6296 84.2073 99.6296 84.1987C99.6296 84.1815 99.6296 84.173 99.6296 84.1558C99.6296 84.0701 99.6296 83.9844 99.6296 83.8986C99.6296 83.7957 99.6296 83.6843 99.6296 83.5814C99.6034 81.9953 99.4372 80.5206 99.0086 79.509C97.5304 76.0367 95.4924 77.4599 95.4924 77.4599L94.7577 78.0343L92.746 80.2634L87.0344 79.7919C84.7253 79.4232 80.1595 79.4318 77.6842 79.106C77.4218 79.0717 77.1681 79.0288 76.932 78.9002L71.7802 75.4622C71.7802 75.4622 70.6169 74.9993 70.3545 76.3368C70.1795 77.2541 70.5906 78.1801 71.3866 78.6859L76.932 82.9812C77.0282 83.0413 77.1331 83.1013 77.2468 83.1441L83.1159 85.4076C83.527 85.4676 83.8768 85.7334 84.043 86.102C84.2617 86.5993 84.5678 87.3966 84.8652 88.4169C84.8652 88.554 85.9323 96.8875 82.3024 101.852C82.3024 101.852 87.0431 107.896 97.5566 102.923C97.5566 102.923 97.5916 102.383 99.236 102.126L99.2273 102.152Z" fill="url(#paint15_linear_0_1)"/>
</g>
<path d="M98.9125 101.895C94.3118 102.838 88.0842 107.768 82.6787 101.86C85.7663 97.4278 85.3639 90.5433 85.1715 88.5113L85.154 88.3484C84.8391 87.2767 84.5243 86.4794 84.3143 85.9907C84.1132 85.5277 83.6933 85.2019 83.186 85.1162L77.352 82.8614C77.2645 82.8271 77.1771 82.7842 77.0896 82.7328L71.5704 78.4546C70.8532 78.0002 70.5033 77.2028 70.652 76.4055C70.7133 76.0797 70.8445 75.8653 71.0281 75.771C71.2556 75.651 71.5442 75.7196 71.6317 75.7539L76.7485 79.1747C77.0633 79.3462 77.3695 79.3891 77.6406 79.4234C78.8214 79.5777 80.5095 79.6634 82.1277 79.7406C83.9207 79.8263 85.775 79.9206 86.9733 80.1093L92.8686 80.5979L94.9678 78.2745L95.685 77.7172C95.6938 77.7087 96.2273 77.3571 96.9008 77.5458C97.5918 77.743 98.2216 78.4631 98.7201 79.6377C99.0875 80.5036 99.2887 81.8325 99.3236 83.5901C99.3324 83.6759 99.3236 83.7444 99.3236 83.8216V84.2074C99.3236 84.5761 99.3149 84.9533 99.2974 85.322C99.2974 87.2167 98.6502 90.5776 98.5714 92.7467C98.414 97.385 98.7639 100.746 98.93 101.877L98.9125 101.895ZM89.8335 105.204C94.7754 105.204 96.5509 102.881 99.3149 102.452L99.621 102.4L99.5773 102.1C99.5686 102.04 99.0787 97.5307 99.1837 92.6781C99.2362 90.1403 99.9184 87.594 99.9097 85.3477C99.9272 84.979 99.9359 84.6018 99.9359 84.2246V83.8473C99.9359 83.7616 99.9359 83.6673 99.9272 83.5901C99.9009 81.7639 99.6823 80.3579 99.2799 79.4234C98.6939 78.0516 97.9417 77.22 97.0408 76.9713C96.0699 76.7056 95.3177 77.22 95.2914 77.2457L94.5042 77.863L92.5975 79.9721L87.0433 79.5091C85.8363 79.3205 83.9645 79.2262 82.1452 79.1404C80.5358 79.0633 78.8652 78.9775 77.7106 78.8318C77.4395 78.7975 77.2383 78.7546 77.0634 78.6603L71.8853 75.2052C71.8591 75.1966 71.2556 74.9565 70.722 75.248C70.3634 75.4367 70.1272 75.7968 70.031 76.3112C69.8298 77.3571 70.2934 78.3945 71.2031 78.9775L76.7222 83.2557C76.8622 83.3501 76.9934 83.4101 77.1158 83.4615L83.0548 85.7421C83.361 85.7849 83.6146 85.9821 83.7371 86.2565C83.9382 86.7195 84.2356 87.4825 84.5418 88.5113C84.5418 88.5285 84.5505 88.5628 84.5505 88.5885C84.7429 90.5947 85.1453 97.4621 82.0315 101.715L81.9003 101.903L82.0402 102.083C82.0752 102.126 84.5855 105.221 89.8422 105.221L89.8335 105.204Z" fill="#31283C"/>
<path d="M86.9297 88.9142L87.4895 88.6399C86.4049 86.5479 83.7547 85.339 83.6497 85.2876L83.3873 85.8449C83.4135 85.8534 85.9501 87.0195 86.9297 88.9142Z" fill="#31283C"/>
<path d="M78.4098 81.2408L78.9958 81.0093C78.2349 79.2089 77.194 78.6688 77.1503 78.6516L76.8617 79.2003C76.8704 79.2089 77.7451 79.6719 78.4098 81.2408Z" fill="#31283C"/>
<path d="M87.4023 104.209C88.5044 104.209 89.7814 104.029 91.1459 103.506L90.9185 102.932C87.1574 104.381 84.0174 102.958 83.9911 102.941L83.72 103.498C83.8074 103.541 85.2681 104.209 87.4111 104.209H87.4023Z" fill="#31283C"/>
<path d="M86.4917 71.3212C86.4567 72.8559 86.6754 75.0679 88.0224 76.4568L89.623 77.0741C89.623 77.0741 89.5093 78.2486 88.3635 78.8059L91.6785 80.092L94.5299 79.4061L94.0751 77.6314C94.0751 77.6314 92.7631 76.0624 93.559 73.4903C94.355 70.9183 90.5064 67.8661 90.5064 67.8661L87.5063 68.4748C86.8853 69.3064 86.5179 70.2924 86.4917 71.3212Z" fill="#FEFEFE"/>
<path d="M94.146 79.1831L91.6969 79.7661L89.0379 78.7287C89.8339 78.0599 89.9301 77.1426 89.9301 77.0911L89.9563 76.8596L88.207 76.1823C86.9912 74.8791 86.7725 72.8215 86.8075 71.3125C86.8338 70.3952 87.1311 69.5121 87.6909 68.7319L90.4286 68.1832C91.0409 68.6976 93.9186 71.2783 93.2626 73.3873C92.5016 75.8394 93.5425 77.4341 93.7874 77.7599L94.1547 79.1745L94.146 79.1831ZM91.6532 80.4177L94.9157 79.6375L94.3647 77.4941L94.3209 77.4426C94.2772 77.3826 93.1314 75.9594 93.8661 73.5845C94.7145 70.841 90.8747 67.7631 90.7085 67.6259L90.5948 67.5316L87.3323 68.1918L87.2623 68.2861C86.5889 69.1863 86.2127 70.2323 86.1865 71.3125C86.1428 72.9587 86.3964 75.2135 87.8046 76.671L87.8484 76.7225L89.2653 77.2712C89.1779 77.597 88.9242 78.1971 88.2245 78.54L87.5947 78.8487L91.6532 80.4262V80.4177Z" fill="#31283C"/>
<path d="M87.2089 67.0517C87.2089 67.0517 88.0311 65.4999 89.9728 65.4055C91.9146 65.3112 93.1741 66.8373 93.1741 67.5575C93.1741 68.2777 88.5471 68.4663 88.5471 68.4663L87.2089 67.0517Z" fill="#FF9900"/>
<path d="M85.618 68.9635C85.618 69.1778 85.6617 69.3836 85.7492 69.5808C86.134 70.4467 87.4285 72.693 90.5074 72.1443L91.5045 72.23C91.5045 72.23 91.6707 73.216 91.2683 74.1333C91.1196 74.4591 91.2246 74.8449 91.5395 75.025C92.0468 75.3079 92.8865 75.548 93.9623 75.0164C93.9623 75.0164 97.3385 70.1295 93.4812 67.1202C92.7203 66.52 91.6969 66.34 90.761 66.6143C89.9301 66.863 88.7143 67.103 87.4023 66.9916C87.1049 66.9658 86.7988 67.0087 86.5276 67.1373C85.9766 67.3945 85.6267 67.9432 85.6267 68.5348V68.9635H85.618Z" fill="#FFBB00"/>
<path d="M93.7343 74.7763C92.8247 75.205 92.1162 75.0078 91.6876 74.7592C91.4952 74.6477 91.4777 74.4248 91.5477 74.2533C91.985 73.2674 91.8188 72.2214 91.8101 72.1785L91.7751 71.9385L90.4893 71.827L90.4456 71.8356C87.6291 72.3329 86.4221 70.3352 86.0285 69.4521C85.9585 69.2978 85.9235 69.1349 85.9235 68.9635V68.5348C85.9235 68.0547 86.2034 67.6174 86.6408 67.4116C86.8507 67.3173 87.0868 67.2745 87.358 67.3002C88.7487 67.4202 90.017 67.1544 90.8392 66.9144C91.6789 66.6657 92.5973 66.8372 93.2795 67.3688C96.6295 69.9837 94.1104 74.2019 93.7343 74.7849V74.7763ZM92.6847 75.6423C93.0958 75.6423 93.5681 75.5479 94.0929 75.2907L94.1629 75.2564L94.2066 75.1878C94.2416 75.1364 97.6966 70.0266 93.6643 66.8801C92.8159 66.2199 91.6963 66.0142 90.6555 66.3228C89.8858 66.5457 88.6962 66.7944 87.4105 66.6915C87.0344 66.6572 86.6758 66.7172 86.3696 66.8629C85.7136 67.1716 85.2938 67.8318 85.2938 68.5434V68.972C85.2938 69.2292 85.3463 69.4779 85.4512 69.7094C85.8011 70.4981 87.1918 73.0273 90.5155 72.4615L91.2065 72.5215C91.224 72.8473 91.2153 73.456 90.9616 74.0133C90.7517 74.4934 90.9179 75.0507 91.364 75.2993C91.6963 75.4879 92.1424 75.6508 92.6847 75.6508V75.6423Z" fill="#31283C"/>
<path d="M90.0962 74.5534C90.4286 74.3305 90.6298 74.0561 90.6823 73.7389C90.761 73.2502 90.4811 72.8644 90.4461 72.8215L89.9476 73.1902L90.2012 73.0016L89.9476 73.1816C89.9476 73.1816 90.105 73.396 90.07 73.6274C90.0438 73.7732 89.9388 73.9018 89.7551 74.0218L90.105 74.5362L90.0962 74.5534Z" fill="#31283C"/>
<path d="M88.3638 67.3344C89.0285 67.3344 90.6291 67.2744 91.7925 66.7772L91.5388 66.2113C90.1918 66.7857 88.1014 66.7171 88.0839 66.7171L88.0576 67.3344C88.0751 67.3344 88.1888 67.343 88.3638 67.343V67.3344Z" fill="#31283C"/>
<path d="M93.6562 74.2791C94.7058 72.9588 94.3122 70.7725 94.2947 70.6782L93.6737 70.7897C93.6737 70.8068 94.0323 72.7959 93.1576 73.9019L93.6562 74.2791Z" fill="#31283C"/>
<path d="M91.6784 72.4788C91.7134 72.4531 92.5269 71.8701 92.3169 70.8499L91.6959 70.9699C91.8271 71.5958 91.3286 71.9644 91.3023 71.973L91.6697 72.4703L91.6784 72.4788Z" fill="#31283C"/>
<path d="M87.0255 79.8006C87.0255 79.8006 86.9731 78.8232 89.0373 78.8833C91.1015 78.9347 93.4106 79.0976 93.9179 77.0657L93.7955 76.7056C93.7955 76.7056 95.536 76.4998 95.4923 78.0002C95.4398 79.5006 94.2765 80.7008 91.7925 80.7523C89.3084 80.8037 87.0343 79.8092 87.0343 79.8092L87.0255 79.8006Z" fill="#FEFEFE"/>
<path d="M94.2331 77.0142C94.4605 77.0399 94.7316 77.1085 94.9241 77.28C95.099 77.4429 95.1865 77.6744 95.1777 77.9916C95.1252 79.5005 93.892 80.4007 91.784 80.4436C89.8597 80.4865 88.0579 79.8778 87.4107 79.6291C87.4282 79.6034 87.4544 79.5691 87.4894 79.5434C87.6381 79.4062 88.0317 79.1747 89.0288 79.2004L89.3087 79.209C91.3554 79.2605 93.6733 79.3291 94.2243 77.1428L94.2506 77.0571L94.2418 77.0228L94.2331 77.0142ZM91.5916 81.0609C91.6528 81.0609 91.7228 81.0609 91.7928 81.0609C94.2418 81.0095 95.7375 79.8692 95.7987 78.0173C95.8162 77.5115 95.6588 77.1171 95.3439 76.8256C94.7491 76.294 93.7957 76.3969 93.752 76.4055L93.3672 76.4483L93.5858 77.0742C93.1135 78.686 91.2767 78.6346 89.3262 78.5832L89.0463 78.5746C88.0929 78.5489 87.4019 78.7375 87.0171 79.1233C86.7022 79.4405 86.7109 79.7834 86.7109 79.8177L86.7197 80.0064L86.8946 80.0835C86.9908 80.1264 89.1425 81.0609 91.5916 81.0609Z" fill="#31283C"/>
<g filter="url(#filter6_i_0_1)">
<path d="M41.5134 47.16V57H0.473438C0.526771 54.4933 0.846771 52.2 1.43344 50.12C2.07344 47.9867 2.79344 46.2 3.59344 44.76C4.44677 43.32 5.72677 41.8 7.43344 40.2C9.1401 38.6 10.6334 37.32 11.9134 36.36C13.2468 35.4 15.1668 34.0667 17.6734 32.36C17.9934 32.1467 18.8468 31.5867 20.2334 30.68C21.6201 29.7733 22.5801 29.1333 23.1134 28.76C23.6468 28.3867 24.4468 27.7467 25.5134 26.84C26.5801 25.88 27.3268 25.0533 27.7534 24.36C28.2334 23.6667 28.6868 22.8133 29.1134 21.8C29.5401 20.7333 29.7534 19.64 29.7534 18.52C29.7534 16.0667 29.0068 14.12 27.5134 12.68C26.0734 11.1867 24.1534 10.44 21.7534 10.44C15.9934 10.44 12.9534 14.4933 12.6334 22.6H1.75344V21.4C1.75344 15.0533 3.59344 10.0133 7.27344 6.28C10.9534 2.49333 15.9134 0.599997 22.1534 0.599997C27.8068 0.599997 32.3934 2.2 35.9134 5.4C39.4334 8.54666 41.1934 12.6533 41.1934 17.72C41.1934 21.8267 40.2601 25.1067 38.3934 27.56C36.5268 30.0133 33.5934 32.6 29.5934 35.32C29.0601 35.6933 28.0734 36.36 26.6334 37.32C25.1934 38.2267 24.0468 38.9733 23.1934 39.56C22.3934 40.1467 21.4068 40.8933 20.2334 41.8C19.0601 42.7067 18.0468 43.6133 17.1934 44.52C16.3401 45.3733 15.6201 46.2533 15.0334 47.16H41.5134Z" fill="black" fill-opacity="0.03"/>
</g>
<defs>
<filter id="filter0_d_0_1" x="32.9915" y="13.01" width="77.6351" height="99.2616" filterUnits="userSpaceOnUse" color-interpolation-filters="sRGB">
<feFlood flood-opacity="0" result="BackgroundImageFix"/>
<feColorMatrix in="SourceAlpha" type="matrix" values="0 0 0 0 0 0 0 0 0 0 0 0 0 0 0 0 0 0 127 0" result="hardAlpha"/>
<feOffset dx="-5" dy="4"/>
<feGaussianBlur stdDeviation="3"/>
<feColorMatrix type="matrix" values="0 0 0 0 0.545833 0 0 0 0 0.597443 0 0 0 0 1 0 0 0 1 0"/>
<feBlend mode="normal" in2="BackgroundImageFix" result="effect1_dropShadow_0_1"/>
<feBlend mode="normal" in="SourceGraphic" in2="effect1_dropShadow_0_1" result="shape"/>
</filter>
<filter id="filter1_d_0_1" x="98.8453" y="38.9371" width="24.9911" height="31.9476" filterUnits="userSpaceOnUse" color-interpolation-filters="sRGB">
<feFlood flood-opacity="0" result="BackgroundImageFix"/>
<feColorMatrix in="SourceAlpha" type="matrix" values="0 0 0 0 0 0 0 0 0 0 0 0 0 0 0 0 0 0 127 0" result="hardAlpha"/>
<feOffset dx="-4"/>
<feGaussianBlur stdDeviation="3"/>
<feColorMatrix type="matrix" values="0 0 0 0 1 0 0 0 0 0.6 0 0 0 0 0 0 0 0 0.6 0"/>
<feBlend mode="normal" in2="BackgroundImageFix" result="effect1_dropShadow_0_1"/>
<feBlend mode="normal" in="SourceGraphic" in2="effect1_dropShadow_0_1" result="shape"/>
</filter>
<filter id="filter2_d_0_1" x="97.5774" y="38.9735" width="18.99" height="26.5092" filterUnits="userSpaceOnUse" color-interpolation-filters="sRGB">
<feFlood flood-opacity="0" result="BackgroundImageFix"/>
<feColorMatrix in="SourceAlpha" type="matrix" values="0 0 0 0 0 0 0 0 0 0 0 0 0 0 0 0 0 0 127 0" result="hardAlpha"/>
<feOffset dx="-3"/>
<feGaussianBlur stdDeviation="3"/>
<feColorMatrix type="matrix" values="0 0 0 0 1 0 0 0 0 0.6 0 0 0 0 0 0 0 0 0.6 0"/>
<feBlend mode="normal" in2="BackgroundImageFix" result="effect1_dropShadow_0_1"/>
<feBlend mode="normal" in="SourceGraphic" in2="effect1_dropShadow_0_1" result="shape"/>
</filter>
<filter id="filter3_d_0_1" x="84.7117" y="120.425" width="19.3091" height="17.5521" filterUnits="userSpaceOnUse" color-interpolation-filters="sRGB">
<feFlood flood-opacity="0" result="BackgroundImageFix"/>
<feColorMatrix in="SourceAlpha" type="matrix" values="0 0 0 0 0 0 0 0 0 0 0 0 0 0 0 0 0 0 127 0" result="hardAlpha"/>
<feOffset dx="-3" dy="1"/>
<feGaussianBlur stdDeviation="3"/>
<feColorMatrix type="matrix" values="0 0 0 0 0.411765 0 0 0 0 0.8 0 0 0 0 0.980392 0 0 0 1 0"/>
<feBlend mode="normal" in2="BackgroundImageFix" result="effect1_dropShadow_0_1"/>
<feBlend mode="normal" in="SourceGraphic" in2="effect1_dropShadow_0_1" result="shape"/>
</filter>
<filter id="filter4_d_0_1" x="73.829" y="127.944" width="19.8622" height="16.798" filterUnits="userSpaceOnUse" color-interpolation-filters="sRGB">
<feFlood flood-opacity="0" result="BackgroundImageFix"/>
<feColorMatrix in="SourceAlpha" type="matrix" values="0 0 0 0 0 0 0 0 0 0 0 0 0 0 0 0 0 0 127 0" result="hardAlpha"/>
<feOffset dx="-3" dy="1"/>
<feGaussianBlur stdDeviation="3"/>
<feColorMatrix type="matrix" values="0 0 0 0 0.411765 0 0 0 0 0.8 0 0 0 0 0.980392 0 0 0 1 0"/>
<feBlend mode="normal" in2="BackgroundImageFix" result="effect1_dropShadow_0_1"/>
<feBlend mode="normal" in="SourceGraphic" in2="effect1_dropShadow_0_1" result="shape"/>
</filter>
<filter id="filter5_d_0_1" x="60.3146" y="69.3848" width="41.315" height="41.5013" filterUnits="userSpaceOnUse" color-interpolation-filters="sRGB">
<feFlood flood-opacity="0" result="BackgroundImageFix"/>
<feColorMatrix in="SourceAlpha" type="matrix" values="0 0 0 0 0 0 0 0 0 0 0 0 0 0 0 0 0 0 127 0" result="hardAlpha"/>
<feOffset dx="-4"/>
<feGaussianBlur stdDeviation="3"/>
<feColorMatrix type="matrix" values="0 0 0 0 1 0 0 0 0 0.431373 0 0 0 0 0.478431 0 0 0 1 0"/>
<feBlend mode="normal" in2="BackgroundImageFix" result="effect1_dropShadow_0_1"/>
<feBlend mode="normal" in="SourceGraphic" in2="effect1_dropShadow_0_1" result="shape"/>
</filter>
<filter id="filter6_i_0_1" x="0.47345" y="0.599976" width="41.04" height="60.4" filterUnits="userSpaceOnUse" color-interpolation-filters="sRGB">
<feFlood flood-opacity="0" result="BackgroundImageFix"/>
<feBlend mode="normal" in="SourceGraphic" in2="BackgroundImageFix" result="shape"/>
<feColorMatrix in="SourceAlpha" type="matrix" values="0 0 0 0 0 0 0 0 0 0 0 0 0 0 0 0 0 0 127 0" result="hardAlpha"/>
<feOffset dy="4"/>
<feGaussianBlur stdDeviation="2"/>
<feComposite in2="hardAlpha" operator="arithmetic" k2="-1" k3="1"/>
<feColorMatrix type="matrix" values="0 0 0 0 0 0 0 0 0 0 0 0 0 0 0 0 0 0 0.1 0"/>
<feBlend mode="normal" in2="shape" result="effect1_innerShadow_0_1"/>
</filter>
<radialGradient id="paint0_radial_0_1" cx="0" cy="0" r="1" gradientUnits="userSpaceOnUse" gradientTransform="translate(86 84) rotate(90) scale(60)">
<stop stop-color="#7795FF"/>
<stop offset="1" stop-color="#331E87"/>
</radialGradient>
<linearGradient id="paint1_linear_0_1" x1="43.9915" y1="58.6408" x2="109.627" y2="58.6408" gradientUnits="userSpaceOnUse">
<stop stop-color="#00DBDE"/>
<stop offset="1" stop-color="#FC00FF"/>
</linearGradient>
<linearGradient id="paint2_linear_0_1" x1="43.9829" y1="76.8343" x2="56.8843" y2="76.8343" gradientUnits="userSpaceOnUse">
<stop stop-color="#00DBDE"/>
<stop offset="1" stop-color="#FC00FF"/>
</linearGradient>
<linearGradient id="paint3_linear_0_1" x1="83.6315" y1="40.0064" x2="106.006" y2="40.0064" gradientUnits="userSpaceOnUse">
<stop stop-color="#F9D423"/>
<stop offset="1" stop-color="#FF4E50"/>
</linearGradient>
<linearGradient id="paint4_linear_0_1" x1="59.6924" y1="56.6351" x2="81.8828" y2="56.6351" gradientUnits="userSpaceOnUse">
<stop stop-color="#F9D423"/>
<stop offset="1" stop-color="#FF4E50"/>
</linearGradient>
<linearGradient id="paint5_linear_0_1" x1="57.0151" y1="51.1307" x2="81.8819" y2="51.1307" gradientUnits="userSpaceOnUse">
<stop stop-color="#F9D423"/>
<stop offset="1" stop-color="#FF4E50"/>
</linearGradient>
<linearGradient id="paint6_linear_0_1" x1="89.5088" y1="60.4261" x2="102.288" y2="60.4261" gradientUnits="userSpaceOnUse">
<stop stop-color="#4481EB"/>
<stop offset="1" stop-color="#04BEFE"/>
</linearGradient>
<linearGradient id="paint7_linear_0_1" x1="94.8626" y1="66.5616" x2="107.405" y2="66.5616" gradientUnits="userSpaceOnUse">
<stop stop-color="#231557"/>
<stop offset="0.29" stop-color="#44107A"/>
<stop offset="0.67" stop-color="#FF1361"/>
</linearGradient>
<linearGradient id="paint8_linear_0_1" x1="60.5402" y1="60.7931" x2="67.66" y2="60.7931" gradientUnits="userSpaceOnUse">
<stop stop-color="#4481EB"/>
<stop offset="1" stop-color="#04BEFE"/>
</linearGradient>
<linearGradient id="paint9_linear_0_1" x1="72.7597" y1="53.6428" x2="79.8795" y2="53.6428" gradientUnits="userSpaceOnUse">
<stop stop-color="#A445B2"/>
<stop offset="0.52" stop-color="#D41872"/>
<stop offset="1" stop-color="#FF0066"/>
</linearGradient>
<linearGradient id="paint10_linear_0_1" x1="108.845" y1="54.911" x2="121.836" y2="54.911" gradientUnits="userSpaceOnUse">
<stop stop-color="#F9D423"/>
<stop offset="1" stop-color="#FF4E50"/>
</linearGradient>
<linearGradient id="paint11_linear_0_1" x1="108.764" y1="55.3236" x2="122.715" y2="55.3236" gradientUnits="userSpaceOnUse">
<stop stop-color="#F9D423"/>
<stop offset="1" stop-color="#FF4E50"/>
</linearGradient>
<linearGradient id="paint12_linear_0_1" x1="106.827" y1="52.2281" x2="113.317" y2="52.2281" gradientUnits="userSpaceOnUse">
<stop stop-color="#F9D423"/>
<stop offset="1" stop-color="#FF4E50"/>
</linearGradient>
<linearGradient id="paint13_linear_0_1" x1="93.7117" y1="128.201" x2="101.021" y2="128.201" gradientUnits="userSpaceOnUse">
<stop stop-color="#A445B2"/>
<stop offset="0.52" stop-color="#D41872"/>
<stop offset="1" stop-color="#FF0066"/>
</linearGradient>
<linearGradient id="paint14_linear_0_1" x1="82.829" y1="135.343" x2="90.6912" y2="135.343" gradientUnits="userSpaceOnUse">
<stop stop-color="#A445B2"/>
<stop offset="0.52" stop-color="#D41872"/>
<stop offset="1" stop-color="#FF0066"/>
</linearGradient>
<linearGradient id="paint15_linear_0_1" x1="70.3146" y1="90.1354" x2="99.6296" y2="90.1354" gradientUnits="userSpaceOnUse">
<stop stop-color="#A445B2"/>
<stop offset="0.52" stop-color="#D41872"/>
<stop offset="1" stop-color="#FF0066"/>
</linearGradient>
</defs>
</svg>
