<svg width="139" height="140" viewBox="0 0 139 140" fill="none" xmlns="http://www.w3.org/2000/svg">
<circle cx="79" cy="73.0085" r="60" fill="url(#paint0_radial_0_1)"/>
<g filter="url(#filter0_d_0_1)">
<path d="M103.676 13.3869L99.7127 19.0926V56.9741C99.7127 59.8313 97.3783 63.4961 94.5125 65.1548L51.7 89.7926L49.9666 90.7913L47.0311 95.0206L45.3239 97.4783L40.0366 94.4474C39.4007 93.9351 39 93.084 39 91.9116V47.9249C39 47.4646 39.061 46.9783 39.1742 46.4833C39.5488 44.8854 40.4808 43.1832 41.7264 41.8024C42.4581 40.9774 43.303 40.2653 44.2089 39.7442L94.5212 10.7903C95.3574 10.3126 96.1413 10.0521 96.8382 10H97.3695C97.9096 10.0434 98.38 10.2345 98.7545 10.5384L103.685 13.3782L103.676 13.3869Z" fill="url(#paint1_linear_0_1)"/>
<path d="M51.6998 89.7936L49.9664 90.7923L47.0309 95.0217L45.3236 97.488L40.045 94.4572C39.4092 93.9448 39.0085 93.0937 39.0085 91.9213V47.9347C39.0085 47.4744 39.0695 46.9881 39.1827 46.493L44.5397 49.2981L51.7085 89.7936H51.6998Z" fill="url(#paint2_linear_0_1)"/>
<path d="M49.4878 97.1842C46.622 98.8342 44.2876 97.8529 44.2876 94.9957V51.009C44.2876 48.1518 46.622 44.487 49.4878 42.837L99.8001 13.8744C102.666 12.2243 105 13.2057 105 16.0629V60.0495C105 62.9067 102.666 66.5715 99.8001 68.2216L49.4878 97.1842Z" fill="#372D6E"/>
<path d="M99.7993 66.8494L49.487 95.812C47.3442 97.0451 45.6108 96.3156 45.6108 94.1793V50.1926C45.6108 48.0562 47.3442 45.3293 49.487 44.0961L99.7993 15.1336C101.942 13.9004 103.676 14.6299 103.676 16.7662V60.7529C103.676 62.8893 101.942 65.6162 99.7993 66.8494Z" fill="#7685FA"/>
<path d="M100.497 61.2131L50.89 89.1509V49.4804L100.497 21.5426V61.2131Z" fill="#FEFEFE"/>
<path d="M51.0028 77.7831V59.511L100.496 31.7035V49.9755L51.0028 77.7831Z" fill="#94DDFF"/>
<path d="M58.6776 51.6516V50.1232L67.693 44.9473V46.4757L58.6776 51.6516Z" fill="#3A33BD"/>
<path d="M89.1202 34.743V33.2145L98.1356 28.0386V29.5583L89.1202 34.743Z" fill="url(#paint3_linear_0_1)"/>
<path d="M71.6475 44.7389V43.2104L86.8475 34.4652V35.9937L71.6475 44.7389Z" fill="url(#paint4_linear_0_1)"/>
<path d="M55.2885 62.0642V60.5358L70.4885 51.7905V53.319L55.2885 62.0642Z" fill="url(#paint5_linear_0_1)"/>
<path d="M55.5677 65.1907V63.6622L70.7676 54.9257V56.4454L55.5677 65.1907Z" fill="url(#paint6_linear_0_1)"/>
<path d="M58.6513 49.4023V47.8738L67.658 42.6979V44.2177L58.6513 49.4023Z" fill="url(#paint7_linear_0_1)"/>
<path d="M57.8324 49.6714C57.8324 50.8264 56.8916 52.3028 55.7418 52.9628C54.5833 53.6315 53.6513 53.232 53.6513 52.077C53.6513 50.9219 54.592 49.4456 55.7418 48.7856C56.9003 48.1169 57.8324 48.5164 57.8324 49.6714Z" fill="url(#paint8_linear_0_1)"/>
<path d="M78.4069 62.4029V44.2438L98.7199 32.5719V50.7397L78.4069 62.4029Z" fill="#7685FA"/>
<path d="M80.9849 58.2516V54.6041L96.8991 45.746V49.4021L80.9849 58.2516Z" fill="url(#paint9_linear_0_1)"/>
<path d="M80.9849 53.5969V49.9407L96.8991 41.0913V44.7388L80.9849 53.5969Z" fill="url(#paint10_linear_0_1)"/>
<path d="M80.9849 48.7162V45.06L96.8991 36.2106V39.8667L80.9849 48.7162Z" fill="url(#paint11_linear_0_1)"/>
</g>
<path d="M74.1998 66.8147L72.6319 67.5529L72.0047 67.8481C72.0047 67.8481 71.9438 67.4226 71.7783 66.9536L71.7434 66.8581L71.7347 66.8234L71.726 66.7973L71.7086 66.7539L71.6912 66.7018C71.5866 66.4413 71.4473 66.1807 71.2818 65.981C71.2731 65.9723 71.2731 65.9723 71.2643 65.9636L71.2382 65.9376L71.2208 65.9202L71.2034 65.8941L71.1947 65.8854L71.1772 65.8594C71.1424 65.8073 71.1076 65.7552 71.0814 65.6857L71.0727 65.677C70.733 65.0083 70.463 63.6709 70.4194 62.7851C70.4194 62.7156 70.4107 62.6548 70.4107 62.594V62.568V62.5593C70.4107 62.3856 70.4194 62.2293 70.4455 62.1164V62.1077C70.6198 61.3522 70.8724 59.9019 71.2034 59.7542C71.2556 59.7282 71.3079 59.7195 71.3689 59.7108C71.7173 59.65 72.2225 59.7542 72.2225 59.7542C72.2225 59.7542 73.0326 61.109 73.111 61.2827C73.1807 61.4303 73.2852 63.2106 73.3026 63.6622C73.3026 63.7317 73.3113 63.7664 73.3113 63.7664L73.32 63.7057L73.4333 62.2206V62.2119V62.2032V62.1946L73.4681 62.1251L73.4768 62.1164L73.4942 62.0817C73.5117 62.0469 73.5291 62.0122 73.5552 61.9688L73.5639 61.9514C73.6162 61.8646 73.6772 61.7864 73.7294 61.7864H73.7469C73.8775 61.8298 74.1214 62.8719 74.1214 62.8719C74.1214 62.8719 74.2695 64.3657 74.1214 64.6783C73.9733 64.991 74.1911 66.7886 74.1911 66.7886L74.1998 66.8147Z" fill="#FEFEFE"/>
<path d="M74.3126 67.0752L72.1262 68.1087C71.9869 68.1781 71.8127 68.1173 71.7517 67.9697L71.7343 67.9176C71.743 67.9263 71.7778 67.9784 71.7691 67.9089L71.7343 67.9176C71.7169 67.8655 71.7256 67.8134 71.743 67.7613C71.7081 67.631 71.6385 67.4052 71.5165 67.0405C71.4904 66.9536 71.4555 66.8842 71.4294 66.7973C71.3771 66.6757 71.3249 66.5542 71.2552 66.4413C71.2029 66.3457 71.1332 66.2502 71.0723 66.1807C70.9677 66.0505 70.9068 65.9636 70.8197 65.8073C70.6455 65.4686 70.4887 64.9736 70.3754 64.4525C70.2448 63.888 70.1577 63.2801 70.1402 62.8025C70.1402 62.7243 70.1402 62.6375 70.1315 62.568C70.1315 62.4725 70.1315 62.3769 70.1402 62.2988V62.2901C70.149 62.2119 70.1577 62.1338 70.1751 62.0643L70.2622 61.6561C70.4451 60.8224 70.6803 59.7021 71.0897 59.5197C71.1245 59.5024 71.1681 59.485 71.2116 59.4763L71.3336 59.4503C71.743 59.3808 72.283 59.5024 72.283 59.5024C72.3701 59.5198 72.4398 59.5719 72.4747 59.6413C72.5008 59.6934 73.3109 61.0569 73.3719 61.1958L73.3893 61.2393C73.4154 61.3261 73.4328 61.4824 73.459 61.6822L73.4677 61.6735C73.5461 61.5953 73.6332 61.5519 73.7377 61.5519H73.7464C73.7725 61.5519 73.79 61.5519 73.8074 61.5606H73.8161C73.9468 61.5866 74.0426 61.6995 74.0513 61.8211C74.2429 62.2032 74.4171 62.8719 74.4171 62.8719V62.8893C74.4171 62.8893 74.5739 64.4786 74.391 64.852C74.2778 65.0865 74.4868 66.806 74.4868 66.8147C74.5042 66.945 74.4258 67.0578 74.3213 67.1013L74.3126 67.0752ZM72.5095 67.301L73.8945 66.6497C73.8422 66.1633 73.729 64.9388 73.8684 64.6088L73.8771 64.5915C73.999 64.3483 73.8597 63.0109 73.8509 62.9414L73.729 62.2988L73.7203 62.3075C73.6767 62.8025 73.6506 63.3062 73.5983 63.8012C73.5896 63.9401 73.4764 64.053 73.337 64.0617C73.1802 64.0704 73.0496 63.9488 73.0321 63.8012L73.0234 63.697C73.006 63.4277 72.9625 62.6375 72.9189 62.0296C72.8928 61.6995 72.8666 61.439 72.8579 61.413C72.7795 61.2393 72.2482 60.3448 72.0566 60.0234C71.8998 59.9974 71.6297 59.9627 71.4381 59.9974L71.3684 60.0148L71.3336 60.0234C71.1942 60.0842 70.9852 61.0482 70.8284 61.769L70.7326 62.1859C70.7238 62.2206 70.7151 62.2727 70.7151 62.3335V62.3422C70.7064 62.4117 70.7064 62.4811 70.7064 62.568L70.7151 62.7764C70.7326 63.228 70.8197 63.7925 70.9416 64.3309C71.0461 64.8086 71.1855 65.2602 71.3423 65.5554C71.3946 65.651 71.4381 65.7291 71.5165 65.816C71.6123 65.9202 71.6907 66.0418 71.7691 66.172C71.8475 66.3023 71.9172 66.4499 71.9782 66.6063C72.013 66.6931 72.0479 66.7886 72.074 66.8755C72.1088 66.9884 72.1785 67.2402 72.2221 67.4573L72.5356 67.3097L72.5095 67.301Z" fill="#2B2A29"/>
<g filter="url(#filter1_d_0_1)">
<path d="M99.9221 130.055C99.9918 130.515 98.7723 130.975 97.8925 131.001C97.788 131.001 97.6835 131.001 97.5876 130.993C96.7079 130.906 91.4293 128.413 91.1418 128.014C90.8544 127.614 91.1418 126.868 91.1418 126.868L96.4466 127.71L97.5528 127.832L99.2862 128.014C99.2862 128.014 99.835 129.542 99.9221 130.046V130.055Z" fill="#FF6E7A"/>
</g>
<path d="M100.209 130.037V130.089C100.209 130.393 99.9478 130.663 99.5471 130.871C99.2161 131.036 98.7806 131.175 98.3625 131.244C98.2057 131.27 98.0489 131.288 97.9009 131.288H97.7266L97.5437 131.279C97.0733 131.227 95.6274 130.628 94.2163 129.977C92.6484 129.256 91.0892 128.439 90.9063 128.188L90.8888 128.161C90.5404 127.632 90.8714 126.781 90.8714 126.781C90.9237 126.65 91.0543 126.572 91.1937 126.598L96.4723 127.432L99.312 127.736C99.4165 127.745 99.5036 127.814 99.5471 127.91L99.5559 127.927C99.6168 128.101 100.113 129.508 100.2 130.003V130.029L100.209 130.037ZM99.643 130.098C99.5733 129.699 99.2249 128.683 99.0855 128.283C96.4288 127.996 94.0159 127.614 91.3418 127.197C91.2895 127.397 91.2547 127.675 91.3679 127.849L91.3766 127.866C91.4986 128.04 92.962 128.778 94.4602 129.473C95.8364 130.107 97.2214 130.689 97.6134 130.732L97.7441 130.741H97.8834C98.0054 130.741 98.1447 130.723 98.2754 130.697C98.6413 130.637 99.0158 130.524 99.2945 130.385C99.4949 130.28 99.643 130.185 99.643 130.124V130.098Z" fill="#2B2A29"/>
<path fill-rule="evenodd" clip-rule="evenodd" d="M97.7697 131.01C97.7001 131.01 97.6391 131.01 97.5781 131.001C97.1164 130.958 95.4092 130.237 93.8674 129.508C93.7803 129.299 93.7368 129.221 93.7368 129.221C93.7368 129.221 93.8239 128.422 93.7977 127.311L96.437 127.727C96.437 127.727 96.5067 128.257 96.8464 128.457C97.0381 128.57 97.2819 128.639 97.5346 128.674C97.5433 128.674 97.5607 128.674 97.5694 128.683C97.6042 129.343 97.6826 130.272 97.883 131.019C97.8481 131.019 97.8046 131.019 97.7697 131.019V131.01Z" fill="#FF6E7A"/>
<path d="M97.7703 131.288C97.7006 131.288 97.6309 131.288 97.5525 131.279C97.3086 131.253 96.7947 131.079 96.1675 130.828C95.462 130.541 94.5822 130.15 93.7547 129.759C93.685 129.725 93.6327 129.664 93.6066 129.594L93.4585 129.212L93.4672 129.16C93.4847 129.021 93.5456 128.292 93.5282 127.302C93.5282 127.145 93.6502 127.015 93.8069 127.015H93.8592L96.4985 127.432C96.6205 127.449 96.7076 127.545 96.7337 127.658C96.7337 127.658 96.7947 128.066 97.0037 128.196C97.0821 128.24 97.1692 128.283 97.265 128.309C97.3696 128.344 97.4741 128.37 97.5786 128.379L97.6135 128.387C97.7528 128.405 97.8574 128.518 97.8574 128.656C97.8748 129.021 97.9096 129.473 97.9706 129.933C98.0142 130.28 98.0838 130.619 98.1709 130.932C98.2145 131.079 98.1274 131.236 97.9706 131.279C97.9445 131.288 97.9183 131.288 97.8835 131.288H97.779H97.7703ZM96.3766 130.298C96.8818 130.506 97.2999 130.654 97.5177 130.697C97.4654 130.472 97.4305 130.237 97.3957 130.003C97.3434 129.62 97.3086 129.238 97.2912 128.908C97.2128 128.891 97.1431 128.874 97.0734 128.848C96.9428 128.804 96.8121 128.752 96.6989 128.683C96.394 128.509 96.2546 128.17 96.1937 127.962L94.077 127.632C94.077 128.474 94.0247 129.082 94.016 129.212C94.016 129.212 94.0421 129.221 94.077 129.29C94.8696 129.664 95.6971 130.029 96.3679 130.298H96.3766Z" fill="#2B2A29"/>
<path d="M94.6 132.104C94.6 132.104 94.33 132.556 93.4676 132.686C93.0495 132.756 92.5007 132.747 91.7778 132.565C89.5653 132.035 87.3267 130.663 87.0741 130.376C86.8215 130.09 86.5688 128.292 86.8824 127.832C87.0479 127.58 87.649 127.997 88.4678 128.422C89.1559 128.778 90.0008 129.126 90.8719 129.082L91.9258 129.134L93.7464 129.221C93.7464 129.221 94.0948 129.794 94.6 132.113V132.104Z" fill="#FF6E7A"/>
<g filter="url(#filter2_d_0_1)">
<path d="M94.8177 132.278C94.7306 132.399 94.3561 132.834 93.5111 132.964H93.4937C93.2585 132.999 92.9798 133.016 92.6662 132.99C92.3875 132.973 92.0652 132.921 91.7167 132.834L91.6993 132.825C90.8108 132.608 89.9224 132.269 89.1558 131.913C87.9625 131.357 87.0305 130.749 86.865 130.558C86.6907 130.359 86.5252 129.673 86.473 129.03C86.4294 128.483 86.473 127.936 86.6472 127.675C86.9259 127.267 87.4224 127.536 88.1106 127.91C88.2587 127.988 88.4154 128.075 88.5984 128.17C88.9294 128.344 89.2952 128.509 89.6872 128.63C90.0617 128.743 90.4624 128.822 90.8544 128.795C91.7951 128.804 92.8056 128.891 93.755 128.934C93.8508 128.934 93.9292 128.987 93.9815 129.056C93.9815 129.056 94.3648 129.673 94.8787 132.043C94.8961 132.13 94.87 132.217 94.8177 132.278ZM93.424 132.399C93.9379 132.321 94.1818 132.13 94.2951 132.026C93.9379 130.419 93.6766 129.733 93.5721 129.482L90.8805 129.351C90.4102 129.377 89.9572 129.29 89.5217 129.16C89.0949 129.03 88.7029 128.848 88.3458 128.665L87.8493 128.405C87.4224 128.17 87.135 127.97 87.1263 127.988C87.0217 128.135 87.013 128.552 87.0479 128.987C87.0914 129.534 87.196 130.072 87.3005 130.185C87.4399 130.341 88.2761 130.871 89.4084 131.401C90.1488 131.748 91.0025 132.078 91.8474 132.278H91.8648C92.1871 132.356 92.4659 132.399 92.7185 132.417C92.9885 132.434 93.2237 132.426 93.424 132.399H93.4501H93.424Z" fill="#2B2A29"/>
</g>
<g filter="url(#filter3_d_0_1)">
<path fill-rule="evenodd" clip-rule="evenodd" d="M92.9618 132.721C92.6307 132.721 92.2388 132.677 91.7771 132.564C89.5646 132.035 87.326 130.663 87.0734 130.376C86.9079 130.185 86.7424 129.316 86.7424 128.63C86.7424 128.283 86.786 127.988 86.8905 127.831C86.9253 127.779 86.9776 127.753 87.0473 127.753C87.3173 127.753 87.8225 128.083 88.4758 128.413C89.1204 128.743 89.9043 129.073 90.7144 129.073C90.7667 129.073 90.8189 129.073 90.8799 129.073C90.8799 129.073 90.9496 129.603 91.2893 129.803C91.481 129.916 91.7248 129.985 91.9775 130.02C91.9775 130.029 92.5959 131.592 93.4757 132.686C93.3276 132.712 93.1621 132.721 92.9705 132.721H92.9618Z" fill="#FF6E7A"/>
</g>
<path d="M92.9618 133.007C92.7876 133.007 92.596 132.999 92.3782 132.964C92.1691 132.938 91.9427 132.895 91.7075 132.834L91.6901 132.825C90.8016 132.608 89.9131 132.269 89.1466 131.913C87.9532 131.357 87.0212 130.75 86.8557 130.558C86.7424 130.428 86.6292 130.107 86.5595 129.733C86.4898 129.386 86.4463 128.978 86.4463 128.622C86.4463 128.431 86.4637 128.248 86.4898 128.083C86.516 127.918 86.5682 127.771 86.6379 127.667C86.6815 127.597 86.7512 127.545 86.8208 127.51C86.8905 127.475 86.9602 127.467 87.0299 127.467C87.2999 127.467 87.6483 127.658 88.1013 127.901C88.2494 127.979 88.4062 128.066 88.5891 128.162C88.9027 128.318 89.2424 128.483 89.6082 128.596C89.9566 128.709 90.3312 128.787 90.7058 128.787C90.758 128.787 90.8103 128.787 90.8538 128.787C91.0106 128.778 91.1413 128.9 91.15 129.056V129.065C91.15 129.065 91.1761 129.212 91.2632 129.377L91.2719 129.395C91.3068 129.456 91.3591 129.516 91.4113 129.551C91.4897 129.594 91.5855 129.638 91.6813 129.664C91.7859 129.699 91.8904 129.716 91.9949 129.733C92.1082 129.751 92.1953 129.82 92.2301 129.924C92.265 130.003 92.5176 130.637 92.927 131.366C93.1447 131.748 93.3973 132.156 93.6848 132.504C93.7806 132.625 93.7632 132.808 93.6412 132.903C93.5977 132.938 93.5454 132.955 93.4931 132.964C93.406 132.981 93.3276 132.99 93.2405 132.99C93.1447 132.999 93.0576 132.999 92.9618 132.999V133.007ZM92.4479 132.408C92.6134 132.426 92.7702 132.443 92.9182 132.443C92.7353 132.182 92.5698 131.913 92.4217 131.653C92.0907 131.071 91.8556 130.532 91.751 130.281C91.6639 130.263 91.5855 130.237 91.4984 130.22C91.3678 130.176 91.2371 130.124 91.1239 130.055C90.9671 129.959 90.8538 129.829 90.7754 129.69L90.7667 129.673C90.7145 129.577 90.6709 129.464 90.6448 129.377C90.2267 129.369 89.8173 129.282 89.434 129.16C89.042 129.03 88.6675 128.856 88.3365 128.691C88.171 128.604 87.9968 128.509 87.84 128.422C87.509 128.24 87.2302 128.092 87.0909 128.066C87.0734 128.101 87.0647 128.153 87.056 128.205C87.0386 128.327 87.0212 128.474 87.0212 128.648C87.0212 128.978 87.0647 129.343 87.117 129.655C87.1693 129.942 87.2302 130.15 87.2825 130.211C87.4219 130.367 88.2581 130.897 89.3905 131.427C90.1309 131.774 90.9845 132.104 91.8294 132.304H91.8468C92.0733 132.356 92.2737 132.4 92.4566 132.417L92.4479 132.408Z" fill="#2B2A29"/>
<g filter="url(#filter4_d_0_1)">
<path d="M104.556 86.0507C104.556 86.0507 104.329 90.5666 100.758 94.4311L99.6689 92.3816L99.1202 91.3568C99.1202 91.3568 99.6689 90.6013 100.235 89.6373L100.244 89.6286L100.348 89.455L100.366 89.4289C100.453 89.2726 100.54 89.1163 100.627 88.9599L100.653 88.9165L100.697 88.8384L100.723 88.7863L100.74 88.7602L100.775 88.682L100.801 88.6212L100.827 88.5691C100.88 88.4736 100.923 88.3781 100.967 88.2739L100.976 88.2565L101.028 88.1436L101.063 88.0654C101.097 87.996 101.124 87.9178 101.158 87.8483L101.167 87.831L101.193 87.7702L101.219 87.7181C101.254 87.6225 101.289 87.527 101.324 87.4315L101.341 87.3881L101.35 87.3707C101.385 87.2752 101.411 87.1796 101.428 87.0928L101.437 87.0754C101.455 87.0233 101.463 86.9625 101.472 86.9104L101.481 86.8757L101.489 86.8149V86.8062L101.498 86.728V86.7194L101.507 86.6586V86.6238V86.5804V86.5196V86.4415C101.507 86.4154 101.507 86.3894 101.507 86.3633L101.498 86.2938V86.2765C101.498 86.233 101.489 86.1896 101.481 86.1375L101.472 86.0767L101.463 86.0333V86.0159L101.455 85.9638L101.446 85.903V85.8857L101.428 85.7901V85.7814L101.411 85.6772V85.6685L101.394 85.5817L101.376 85.5035V85.4949L101.368 85.4688L101.341 85.3646L101.324 85.2777L101.315 85.2256C101.289 85.1214 101.263 85.0085 101.237 84.8956L101.219 84.8348L101.185 84.7046L101.158 84.5917L101.141 84.5309L101.037 84.1488L100.993 84.0011L100.958 83.8795L100.897 83.6624L100.888 83.619L100.862 83.5148C100.723 83.0198 100.566 82.5161 100.418 82.0385C99.9825 80.6403 99.5818 79.4765 99.5818 79.4765L99.9825 76.1765L100.392 72.7982C100.392 72.7982 102.988 75.2385 104.573 86.0767L104.556 86.0507Z" fill="url(#paint12_linear_0_1)"/>
</g>
<path d="M104.834 86.068C104.834 86.0854 104.599 90.6794 100.967 94.6222C100.862 94.7351 100.679 94.7437 100.566 94.6395C100.54 94.6135 100.522 94.5874 100.505 94.5614L98.8675 91.4871C98.8152 91.3829 98.8239 91.27 98.8936 91.1831C98.8936 91.1831 99.425 90.4449 99.9911 89.4896C101.69 86.3198 101.376 86.2851 100.357 82.82L100.131 82.0731C99.695 80.6576 99.303 79.5286 99.303 79.5286C99.2856 79.4852 99.2856 79.4504 99.2943 79.407L100.096 72.7374C100.113 72.5811 100.252 72.4682 100.409 72.4855C100.479 72.4942 100.531 72.5203 100.575 72.5637C100.583 72.5724 103.231 75.0648 104.834 85.9985V86.0593V86.068ZM100.819 93.9361C103.902 90.3928 104.242 86.4414 104.268 86.0593C103.083 77.948 101.35 74.6219 100.575 73.4842L99.8605 79.4157C99.9476 79.6762 100.305 80.7271 100.671 81.9255L100.897 82.6637C101.899 86.0593 102.326 86.6412 100.479 89.7762C100.052 90.497 99.6427 91.105 99.4511 91.3742L100.819 93.9361Z" fill="#2B2A29"/>
<path d="M100.549 114.527C100.357 117.297 99.2076 123.177 99.3295 124.844C99.4602 126.503 99.3208 127.857 99.3208 127.857C99.3208 128.075 99.1815 128.283 98.894 128.448C98.5282 128.656 98.0055 128.735 97.5351 128.665C97.2825 128.63 97.0474 128.552 96.847 128.448C96.5073 128.248 96.4376 127.719 96.4376 127.719V127.658V127.614V127.58V127.571V127.51L96.4463 127.406V127.345L96.455 127.163V127.128V127.032L96.4638 126.789V126.746L96.4725 126.607V126.485L96.4812 126.207V126.112V126.077V125.99L96.4899 125.695L96.4986 125.487V125.435L96.5073 125.105L96.516 124.696V124.557V124.384V124.201V124.175C96.516 123.837 96.5247 123.481 96.5247 123.116C96.5247 122.864 96.5247 122.612 96.5247 122.352V122.325V121.952V121.917V121.648V121.492V121.448L96.516 121.118V121.11C96.5073 120.771 96.4986 120.424 96.4899 120.076V119.998C96.4812 119.651 96.4637 119.303 96.4463 118.956V118.947L96.4289 118.643L96.4202 118.513L96.4115 118.287L96.4028 118.192L96.3854 117.862V117.853C96.3505 117.367 96.3157 116.872 96.2721 116.385V116.377C96.2547 116.142 96.2286 115.908 96.2024 115.673V115.638C96.1763 115.404 96.1502 115.17 96.124 114.944L96.1153 114.9L96.0805 114.64L96.0631 114.527L96.0282 114.258L96.0195 114.197C95.793 112.582 95.4707 111.114 95.0178 110.002L96.2111 109.733L96.3331 109.707L99.3208 109.038C99.3208 109.038 100.732 111.757 100.54 114.518L100.549 114.527Z" fill="#FEFEFE"/>
<path d="M100.827 114.544C100.74 115.76 100.479 117.549 100.217 119.329C99.8776 121.631 99.5379 123.906 99.6076 124.818C99.7296 126.416 99.6076 127.727 99.5989 127.857C99.5989 128.022 99.5466 128.187 99.4334 128.335C99.3463 128.465 99.2069 128.587 99.0327 128.682C98.8237 128.804 98.5711 128.882 98.3097 128.926C98.0484 128.969 97.761 128.969 97.4997 128.934H97.4909C97.3516 128.917 97.2122 128.882 97.0903 128.839C96.9596 128.795 96.8289 128.743 96.7157 128.674L96.6983 128.665C96.2453 128.387 96.1669 127.762 96.1669 127.762C96.1582 127.736 96.1582 127.701 96.1669 127.675C96.3499 124.193 96.3063 120.615 96.0624 117.132C95.984 116.168 95.8969 115.195 95.7575 114.24C95.6443 113.415 95.4962 112.625 95.322 111.895C95.1652 111.235 94.9823 110.627 94.7732 110.115C94.7123 109.967 94.782 109.802 94.93 109.742L94.991 109.724L99.2679 108.76C99.3986 108.734 99.5379 108.804 99.5902 108.925C99.6947 109.125 101.027 111.8 100.836 114.544H100.827ZM99.6512 119.251C99.9125 117.48 100.174 115.699 100.261 114.509C100.418 112.251 99.477 110.028 99.1721 109.368L95.4178 110.211C95.592 110.68 95.7401 111.209 95.8795 111.765C96.0537 112.503 96.2018 113.311 96.3237 114.162C96.4631 115.135 96.5502 116.107 96.6286 117.089C96.8725 120.615 96.8986 124.158 96.7331 127.684C96.7505 127.788 96.8202 128.075 96.9944 128.179C97.0728 128.222 97.1599 128.266 97.2558 128.292C97.3516 128.326 97.4561 128.344 97.5606 128.361H97.5693C97.7784 128.387 98.0049 128.387 98.2139 128.352C98.4056 128.318 98.5972 128.266 98.7453 128.179C98.8498 128.118 98.9195 128.057 98.9717 127.988C99.0066 127.936 99.0327 127.883 99.0327 127.831V127.814C99.0327 127.814 99.1721 126.477 99.0414 124.844C98.9717 123.871 99.3115 121.561 99.6512 119.234V119.251Z" fill="#2B2A29"/>
<path d="M94.9738 115.89C94.7822 118.661 93.6324 124.54 93.7543 126.208C93.885 127.866 93.7456 129.221 93.7456 129.221C93.7456 129.438 93.6062 129.647 93.3188 129.812C92.9529 130.02 92.4303 130.098 91.9599 130.029C91.7073 129.994 91.4721 129.916 91.2718 129.812C90.9321 129.612 90.8624 129.082 90.8624 129.082V129.021V128.978V128.943V128.934V128.874L90.8798 128.526V128.483L90.8972 128.101V128.04L90.9147 127.475V127.354L90.9321 126.798V126.72C90.9756 124.74 90.9843 121.778 90.7753 118.852V118.843C90.7579 118.609 90.7404 118.365 90.723 118.131V118.105C90.6446 117.124 90.5401 116.16 90.4007 115.248C90.1743 113.763 89.8694 112.408 89.4426 111.374L90.6359 111.105L90.7579 111.079L93.7456 110.411C93.7456 110.411 95.1567 113.129 94.9651 115.89H94.9738Z" fill="#FEFEFE"/>
<path d="M95.2527 115.908C95.1655 117.124 94.9042 118.913 94.6429 120.693C94.3032 122.994 93.9635 125.27 94.0332 126.181C94.1551 127.779 94.0332 129.091 94.0245 129.221C94.0245 129.386 93.9722 129.551 93.859 129.699C93.7631 129.829 93.6325 129.951 93.4583 130.046C93.2492 130.168 92.9966 130.246 92.7353 130.289C92.474 130.333 92.1865 130.333 91.9252 130.298H91.9165C91.7771 130.281 91.6378 130.246 91.5158 130.211C91.3852 130.168 91.2545 130.116 91.1413 130.046L91.1238 130.037C90.6709 129.759 90.5925 129.134 90.5925 129.134C90.5838 129.108 90.5838 129.073 90.5925 129.047C90.636 128.274 90.6535 127.493 90.6709 126.72C90.6883 125.73 90.7057 124.505 90.6883 123.151C90.6709 121.805 90.6186 120.337 90.5228 118.878C90.5054 118.626 90.4793 118.383 90.4705 118.131C90.427 117.627 90.3834 117.124 90.3225 116.646C90.2702 116.194 90.2092 115.743 90.1483 115.291V115.283C90.035 114.544 89.9044 113.841 89.7476 113.207C89.5908 112.573 89.4166 111.982 89.2075 111.479C89.1465 111.331 89.2162 111.166 89.3643 111.105L89.4253 111.088L93.7022 110.124C93.8328 110.098 93.9722 110.167 94.0245 110.289C94.129 110.489 95.4617 113.164 95.2701 115.908H95.2527ZM94.0767 120.615C94.338 118.843 94.5994 117.063 94.6865 115.873C94.8433 113.615 93.9025 111.392 93.5976 110.732L89.8434 111.574C90.0089 112.026 90.157 112.53 90.2876 113.077C90.4444 113.737 90.5838 114.449 90.697 115.196V115.222C90.7667 115.656 90.819 116.116 90.8712 116.585C90.9235 117.089 90.9758 117.593 91.0193 118.088C91.0367 118.339 91.0629 118.591 91.0803 118.843C91.1848 120.302 91.2284 121.787 91.2458 123.151C91.2632 124.505 91.2545 125.747 91.2284 126.737C91.2109 127.51 91.1848 128.292 91.15 129.065C91.1674 129.169 91.2371 129.456 91.4113 129.56C91.4897 129.603 91.5855 129.647 91.6813 129.673C91.7771 129.707 91.8817 129.725 91.9862 129.742H91.9949C92.2039 129.768 92.4304 129.768 92.6395 129.733C92.8398 129.699 93.0227 129.647 93.1708 129.56C93.2753 129.499 93.345 129.438 93.3973 129.369C93.4321 129.317 93.4496 129.264 93.4496 129.212V129.195C93.4496 129.195 93.5889 127.858 93.4583 126.225C93.3886 125.252 93.7283 122.942 94.068 120.615H94.0767Z" fill="#2B2A29"/>
<g filter="url(#filter5_d_0_1)">
<path d="M101.316 100.562C100.471 105.374 100.567 111.566 100.567 111.566C100.567 111.566 94.3387 115.899 90.4712 114.926C89.8614 114.77 89.3127 114.492 88.851 114.041C88.851 114.041 87.9625 105.938 87.6751 103.367C87.3876 100.797 87.6228 95.2996 88.851 92.5119C90.0792 89.7242 88.0496 86.4241 87.7709 86.3286C87.5531 86.2504 86.804 85.3298 86.5253 83.9143C86.4643 83.6103 86.4208 83.2716 86.412 82.9243C86.4033 82.7332 86.412 82.5335 86.4295 82.325C86.6211 80.041 87.0044 78.2607 87.0044 78.2607C87.0044 78.2607 96.8386 72.0861 100.375 72.7808C100.375 72.7808 101.804 73.4756 101.142 78.8078C100.471 84.1401 98.18 83.949 100.183 89.6634C102.187 95.3777 102.161 95.7599 101.316 100.571V100.562Z" fill="url(#paint13_linear_0_1)"/>
</g>
<path d="M101.594 100.606C100.749 105.391 100.845 111.539 100.845 111.557C100.845 111.661 100.792 111.748 100.714 111.8C100.426 112 94.3029 116.177 90.4006 115.204C90.0783 115.126 89.7647 115.004 89.4685 114.848C89.1724 114.692 88.9023 114.492 88.6497 114.24C88.5975 114.197 88.5713 114.136 88.5713 114.067L87.3954 103.402C87.2299 101.952 87.2386 99.5809 87.4825 97.2883C87.6829 95.4558 88.04 93.6668 88.5975 92.3989C88.641 92.2947 88.6846 92.1818 88.7281 92.0689C89.1637 90.7923 88.9372 89.4375 88.5713 88.378C88.2142 87.3533 87.7787 86.6411 87.6654 86.589L87.6132 86.563C87.4216 86.4414 87.0731 86.0593 86.777 85.4861L86.7683 85.4687C86.5592 85.0606 86.3676 84.5482 86.2456 83.9663V83.9577C86.2108 83.7926 86.1846 83.6276 86.1672 83.454C86.1498 83.2889 86.1411 83.1153 86.1324 82.9329C86.1324 82.8287 86.1324 82.7245 86.1324 82.6202C86.1324 82.5074 86.1411 82.4031 86.1498 82.2989C86.3414 79.9975 86.7334 78.1999 86.7334 78.1912C86.7508 78.113 86.7944 78.0522 86.8641 78.0088C86.8902 77.9914 96.7941 71.7734 100.435 72.4855C100.47 72.4942 100.496 72.5029 100.522 72.5203C100.522 72.5203 102.116 73.3019 101.428 78.8251C101.184 80.7878 100.723 82.0123 100.331 83.0545C99.6686 84.8 99.2157 86.0072 100.461 89.5504C101.472 92.425 101.968 93.9621 102.108 95.4037C102.247 96.854 102.029 98.1654 101.602 100.597L101.594 100.606ZM100.278 111.409C100.27 110.428 100.261 104.896 101.036 100.51C101.454 98.1306 101.672 96.8454 101.541 95.4732C101.411 94.0924 100.914 92.5813 99.9212 89.7502C98.6059 86.0072 99.0937 84.7306 99.7906 82.8721C100.174 81.8647 100.618 80.6749 100.862 78.773C101.437 74.1616 100.487 73.1976 100.278 73.05C97.0206 72.4768 88.31 77.7917 87.2648 78.443C87.1777 78.8686 86.8815 80.4231 86.7247 82.3597L86.7073 82.6463V82.9329C86.7073 83.0892 86.7247 83.2455 86.7421 83.4018C86.7595 83.5582 86.7857 83.7058 86.8118 83.8534V83.8708C86.9163 84.4092 87.0905 84.8695 87.2822 85.2256L87.2909 85.2429C87.5522 85.7466 87.7874 86.0419 87.8745 86.0766L87.9006 86.0853C88.0836 86.1635 88.7107 87.0319 89.1201 88.2043C89.5208 89.3594 89.756 90.8444 89.2769 92.26C89.2333 92.3815 89.1898 92.5118 89.1288 92.6334C88.5975 93.8405 88.2578 95.5774 88.0661 97.349C87.8222 99.607 87.8222 101.926 87.979 103.341L89.1462 113.91C89.3379 114.084 89.5382 114.232 89.7647 114.353C90.0173 114.492 90.2786 114.588 90.5661 114.657C94.0067 115.517 99.4334 112.008 100.313 111.418L100.278 111.409Z" fill="#2B2A29"/>
<g filter="url(#filter6_d_0_1)">
<path d="M89.547 82.0645C89.547 83.1935 88.9634 83.7319 88.1185 83.9143H88.101H88.0923H88.0836L88.0314 83.923H88.0227H88.0052H87.9965L87.9268 83.9316H87.9181H87.9094L87.8659 83.9403H87.8572H87.8484H87.831H87.8049H87.7875C87.7439 83.949 87.6917 83.949 87.6394 83.949H87.622H87.6045C87.5523 83.949 87.5 83.9577 87.4478 83.9577H87.4129H87.3606H87.3084H87.2561H87.2474H87.1951H87.1864L87.0732 83.949H87.0558H87.0296H87.0209L86.9425 83.9403H86.9251C86.838 83.9316 86.7509 83.923 86.6638 83.9143H86.6551C86.6028 83.9056 86.5506 83.8969 86.507 83.8882C85.3398 83.7058 84.0768 83.2021 83.1534 82.6811C80.9671 81.4392 75.3836 77.9394 75.3836 77.9394L75.3749 77.9133V77.9046L75.3401 77.8352L75.3313 77.8265L75.192 77.5225L75.0875 77.2967L75.0439 77.2012L74.9394 76.9754L74.8958 76.8799L74.8348 76.7496L74.7477 76.5586L74.6606 76.3675L74.5387 76.0896L74.3296 75.6293L74.2861 75.5425L74.1641 75.2646L74.1032 75.1256L74.0422 74.9954L73.9638 74.813L73.6067 74.0053L73.537 73.849C73.0056 72.6419 72.4569 71.3913 72.0649 70.4447L71.8994 70.0452L71.8471 69.9063L71.7687 69.7152L71.76 69.6892L71.7339 69.6284L71.7165 69.585L71.699 69.5328L71.6555 69.4113L71.5945 69.2549L71.5423 69.116C71.4551 68.9684 71.4116 68.7773 71.4116 68.5428C71.4116 67.9349 71.7339 67.2141 72.2217 66.6409C72.4743 66.337 72.7704 66.0851 73.0927 65.9028C73.8506 65.4685 74.4951 65.5988 74.7042 66.1633C74.7042 66.1633 76.7338 72.72 78.1362 74.8217L86.9861 78.2346C86.9861 78.2346 89.5296 79.0336 89.5296 82.0471L89.547 82.0645Z" fill="url(#paint14_linear_0_1)"/>
</g>
<path d="M86.9172 78.5299L78.0585 75.117C77.9976 75.0996 77.954 75.0562 77.9105 75.004C76.5342 72.9285 74.583 66.7017 74.4524 66.2936V66.2849C74.4436 66.2501 74.4262 66.2154 74.4088 66.1894C74.3391 66.0765 74.2346 65.9983 74.1126 65.9636C73.9646 65.9288 73.7729 65.9462 73.5552 66.0243C73.4594 66.0591 73.3722 66.1025 73.2764 66.1546L73.259 66.1633C73.1196 66.2415 72.9803 66.3457 72.8496 66.4586C72.719 66.5715 72.5883 66.7017 72.4663 66.8494C72.2399 67.1186 72.0482 67.4225 71.9176 67.7265C71.7956 68.0131 71.7259 68.2997 71.7259 68.5602C71.7259 68.6557 71.7347 68.7339 71.7521 68.812C71.7695 68.8815 71.7869 68.9336 71.8131 68.9857L71.8392 69.0465C71.9873 69.4721 72.1702 69.9584 72.3531 70.3579C72.5273 70.7834 72.7451 71.2958 72.989 71.8429C73.259 72.4769 73.5465 73.1282 73.8252 73.7535C74.4175 75.0996 75.0273 76.4283 75.6283 77.7744C76.299 78.1912 81.3424 81.335 83.3197 82.464C83.7901 82.7332 84.3563 82.9937 84.9486 83.2022C85.4799 83.3932 86.0374 83.5495 86.5688 83.6277C87.0478 83.7059 87.5879 83.7406 88.0583 83.6364C88.4764 83.8274 89.1384 84.088 88.1802 84.1922C87.6576 84.3138 87.0043 84.2703 86.4817 84.1835C85.9068 84.0967 85.3231 83.9316 84.757 83.7319C84.1298 83.5061 83.5288 83.2282 83.0323 82.9503C80.7762 81.6737 75.2624 78.2173 75.2537 78.2086C75.2015 78.1739 75.1579 78.1218 75.1405 78.0697C74.5046 76.7323 73.9036 75.3341 73.3113 73.988C73.0238 73.328 72.7277 72.6679 72.4751 72.0687C72.2486 71.539 72.0308 71.0353 71.8392 70.575C71.665 70.1321 71.4733 69.6979 71.3166 69.2463C71.2643 69.1507 71.2294 69.0465 71.2033 68.9336C71.1772 68.8207 71.1598 68.6905 71.1598 68.5602C71.1598 68.2215 71.2469 67.8568 71.3949 67.5007C71.5517 67.1446 71.7695 66.7886 72.0308 66.4759C72.1702 66.3109 72.3183 66.1633 72.4838 66.0243C72.6406 65.8941 72.8061 65.7725 72.9803 65.677L72.9977 65.6683C73.1196 65.5988 73.2503 65.538 73.3635 65.4946C73.6858 65.373 73.9907 65.347 74.252 65.4164C74.5308 65.4859 74.7659 65.6509 74.9053 65.9028C74.9401 65.9636 74.9663 66.0243 74.9924 66.0851L75.0011 66.1199C75.1318 66.5367 77.0133 72.5377 78.3373 74.6133L87.0914 77.9915C87.2395 78.0436 87.4224 78.1391 87.5792 78.2433C88.0583 78.556 88.3457 78.9728 86.9172 78.5299Z" fill="#2B2A29"/>
<path d="M88.0748 65.3384C88.0748 65.3384 87.6306 71.3827 89.0417 72.9373C90.4528 74.4918 90.4092 66.9971 90.4092 66.9971L88.0748 65.3384Z" fill="#FEFEFE"/>
<path d="M88.3276 65.8682C88.2579 67.3359 88.1534 71.5478 89.2509 72.7463C90.0784 73.6581 90.122 68.1175 90.1307 67.1448L88.3363 65.8682H88.3276ZM88.8328 73.1284C87.3346 71.4783 87.7962 65.3384 87.7962 65.3211L87.8311 64.8174L90.7056 66.8582V67.0059C90.7056 67.0319 90.7665 75.2561 88.8415 73.1371L88.8328 73.1284Z" fill="#2B2A29"/>
<path d="M96.3848 76.654C95.4266 77.4269 92.3169 76.9666 91.3849 76.4716L91.2717 76.4021C90.4529 76.1763 88.5453 77.3661 88.5453 77.3661C88.0313 75.7682 89.3205 70.1059 88.9982 69.1072C88.6759 68.1085 88.0488 66.3369 88.0488 64.6434C88.0488 63.4102 89.6167 62.7676 90.4616 62.5071C90.7142 62.4289 90.9494 62.3334 91.1933 62.2378C91.5243 62.1076 92.3518 61.9426 94.3814 62.1336C94.5294 62.1423 94.6775 62.1597 94.8343 62.177C98.3882 62.5592 98.153 66.2587 97.9962 68.369C97.9353 69.1333 97.9266 69.9757 97.9353 70.7399C97.9527 71.9297 98.1792 73.0934 98.5189 74.231C98.5537 74.3439 98.5798 74.4568 98.5973 74.5784C98.7018 75.2818 97.3691 75.8377 96.3674 76.6453L96.3848 76.654Z" fill="#2D2829"/>
<path d="M96.5591 76.8711C96.08 77.2532 95.1915 77.3748 94.2508 77.3401C93.0749 77.2967 91.8031 77.0188 91.2457 76.7148L91.1585 76.6627C90.4356 76.5151 88.6935 77.6006 88.6847 77.6006C88.5541 77.6875 88.3799 77.644 88.2928 77.5138C88.2753 77.4877 88.2666 77.4617 88.2579 77.4356C87.9531 76.4803 88.2318 74.3005 88.4844 72.3639C88.676 70.8876 88.8415 69.5675 88.7196 69.1854L88.6412 68.9509C88.3015 67.9088 87.7527 66.2501 87.7527 64.6348C87.7527 64.0442 88.0489 63.5666 88.467 63.2018L88.4844 63.1845C89.0506 62.6894 89.8433 62.3855 90.3659 62.2292L90.392 62.2205C90.4965 62.1857 90.6098 62.151 90.723 62.1076L91.0976 61.96C91.2892 61.8905 91.6028 61.8036 92.1254 61.7776C92.6393 61.7428 93.3623 61.7515 94.3989 61.8471C94.5295 61.8557 94.695 61.8731 94.8605 61.8905H94.8693C96.7856 62.0989 97.6828 63.2018 98.0835 64.5392C98.4667 65.8245 98.3622 67.3096 98.2838 68.3864C98.2577 68.7686 98.2402 69.168 98.2315 69.5588C98.2228 69.9583 98.2228 70.3578 98.2315 70.7312C98.2402 71.3044 98.3012 71.8776 98.397 72.4508C98.4929 73.0239 98.6409 73.5884 98.8064 74.1442L98.8587 74.3353C98.8761 74.3961 98.8848 74.4655 98.8935 74.535C98.9981 75.2037 98.2925 75.6727 97.4824 76.2111C97.1688 76.4195 96.8466 76.6367 96.5591 76.8624V76.8711ZM94.2682 76.7756C95.087 76.8017 95.8448 76.7148 96.202 76.4282C96.5155 76.1764 96.8465 75.9506 97.1601 75.7422C97.8134 75.3079 98.3709 74.9345 98.3273 74.6219L98.3012 74.4655L98.2577 74.3092C98.0835 73.7274 97.9354 73.1455 97.8308 72.5463C97.7263 71.9557 97.6653 71.3478 97.6566 70.7399C97.6566 70.3578 97.6566 69.9496 97.6566 69.5415C97.6653 69.1246 97.6828 68.7164 97.7089 68.343C97.7873 67.3096 97.8744 65.8853 97.526 64.6956C97.1863 63.5579 96.4284 62.6287 94.7996 62.4463H94.7909C94.6428 62.4289 94.5034 62.4115 94.3466 62.4029C93.3536 62.3073 92.6481 62.2986 92.1603 62.3334C91.7073 62.3594 91.446 62.4202 91.2979 62.481L90.9147 62.6287C90.8014 62.6721 90.6795 62.7155 90.5488 62.7502L90.5227 62.7589C90.0523 62.8979 89.338 63.1671 88.8502 63.6013L88.8328 63.61C88.528 63.8792 88.3102 64.2179 88.3102 64.6174C88.3102 66.1459 88.8328 67.7525 89.1638 68.7599L89.2422 68.9943C89.4077 69.498 89.2248 70.8789 89.0332 72.4247C88.8241 74.0747 88.5889 75.9158 88.7196 76.9059C89.338 76.5585 90.6272 75.9158 91.324 76.1069C91.3502 76.1156 91.3676 76.1243 91.3937 76.133L91.507 76.2024C92.0035 76.463 93.162 76.7148 94.2508 76.7495L94.2682 76.7756Z" fill="#2B2A29"/>
<path d="M91.3851 76.4719L91.2719 76.4024C91.1935 76.385 91.1151 76.3764 91.028 76.3764C90.967 76.3764 90.906 76.3764 90.8364 76.385C90.906 76.3764 90.9757 76.3677 91.0367 76.3677C91.1238 76.3677 91.2022 76.3764 91.2719 76.3937L91.3851 76.4632V76.4719Z" fill="#E6791F"/>
<path d="M91.2369 76.7149L91.1672 76.6715L91.0279 76.6628L90.8624 76.6715C90.7056 76.6888 90.5662 76.5672 90.5575 76.4109C90.5401 76.2633 90.6533 76.1243 90.8014 76.107C90.8885 76.0983 90.9495 76.0896 91.0366 76.0896C91.0888 76.0896 91.1411 76.0896 91.1934 76.0983L91.324 76.1243C91.3502 76.133 91.385 76.1417 91.4111 76.1591L91.5244 76.2286L91.5069 76.2546C91.5505 76.3154 91.5592 76.4022 91.5418 76.4804C91.5069 76.6107 91.385 76.6975 91.2543 76.6888L91.2369 76.7149Z" fill="#2B2A29"/>
<path d="M88.537 77.3661C88.4498 77.0969 86.7687 78.5559 86.7687 78.0869C87.8662 76.7582 89.0422 71.0004 89.0422 69.6109C89.0422 69.3938 89.0247 69.2201 88.9899 69.1072C88.6676 68.1085 88.0405 66.3369 88.0405 64.6434C88.0405 63.4102 89.6084 62.7676 90.4533 62.507C90.7059 62.4289 90.9411 62.3333 91.185 62.2378C91.4114 62.151 91.847 62.0468 92.7267 62.0468C93.1623 62.0468 93.7023 62.0728 94.373 62.1336C93.3278 62.6981 92.056 63.9052 92.5525 66.3542C93.1884 69.4719 91.9341 74.4916 91.3766 76.4716L91.2634 76.4021C91.1937 76.3848 91.1153 76.3761 91.0282 76.3761C90.9672 76.3761 90.8975 76.3848 90.8278 76.3934C89.8697 76.5063 88.5282 77.3748 88.5282 77.3748L88.537 77.3661Z" fill="#2C2828"/>
<path d="M88.2666 77.4358C88.2231 77.2881 88.1882 77.1058 88.1621 76.906C88.1447 76.7063 88.1273 76.4805 88.1273 76.246C88.1273 75.1691 88.3102 73.7102 88.4844 72.3728C88.6238 71.2611 88.7544 70.2364 88.7544 69.6111C88.7544 69.5069 88.7457 69.4114 88.7457 69.3419C88.737 69.2811 88.7283 69.229 88.7196 69.1856L88.6412 68.9511C88.3015 67.909 87.7527 66.2502 87.7527 64.6349C87.7527 64.0444 88.0489 63.5667 88.467 63.202L88.4844 63.1846C89.0506 62.6896 89.8433 62.3857 90.3659 62.2293L90.392 62.2206C90.4965 62.1859 90.6098 62.1512 90.723 62.1078L91.0976 61.9601C91.2282 61.908 91.4112 61.8559 91.6725 61.8212H91.6812C91.9425 61.7864 92.2822 61.7604 92.7265 61.7604C92.9355 61.7604 93.1881 61.7691 93.4756 61.7777C93.7456 61.7951 94.0505 61.8125 94.3989 61.8472C94.5557 61.8646 94.6689 61.9949 94.6515 62.1512C94.6428 62.2467 94.5818 62.3335 94.5034 62.377C94.0156 62.6375 93.4843 63.0457 93.1271 63.671C92.77 64.2962 92.5958 65.1473 92.8223 66.2936C93.0749 67.5442 93.04 69.09 92.8571 70.6185C92.5784 72.9807 91.9773 75.3255 91.6376 76.5413C91.5941 76.6889 91.4373 76.7758 91.2892 76.741C91.2631 76.7323 91.2369 76.7237 91.2195 76.7063L91.1498 76.6629L91.0279 76.6542C90.9756 76.6542 90.9147 76.6542 90.8624 76.6629C89.9652 76.7671 88.6847 77.6008 88.6847 77.6008C88.5541 77.6876 88.3799 77.6442 88.2928 77.5139C88.2753 77.4879 88.2666 77.4531 88.2579 77.4271L88.2666 77.4358ZM88.7283 76.8539L88.737 76.9234C89.2161 76.6455 90.0959 76.1939 90.8101 76.1071L90.9234 76.0984L91.0453 76.0897C91.0976 76.0897 91.1498 76.0897 91.2021 76.0984C91.5505 74.8391 92.0732 72.7028 92.3258 70.5577C92.5 69.0727 92.5435 67.5963 92.2996 66.4065C92.0383 65.1039 92.2474 64.1225 92.6655 63.3931C92.9094 62.9588 93.223 62.6201 93.554 62.3509L93.4669 62.3422C93.2055 62.3249 92.9704 62.3249 92.7439 62.3249C92.3258 62.3249 92.0122 62.3509 91.777 62.3857H91.7683C91.5505 62.4204 91.4112 62.4551 91.3153 62.4899L90.9321 62.6375C90.8188 62.6809 90.6969 62.7243 90.5662 62.7591L90.5401 62.7678C90.0697 62.9067 89.3555 63.1759 88.8677 63.6102L88.8502 63.6188C88.5454 63.8881 88.3276 64.2268 88.3276 64.6262C88.3276 66.1547 88.8502 67.7613 89.1812 68.7687L89.2596 69.0032C89.2858 69.0814 89.3032 69.1682 89.3119 69.2724C89.3206 69.3766 89.3293 69.4808 89.3293 69.5937C89.3293 70.2538 89.1987 71.2959 89.0506 72.4249C88.8851 73.7449 88.7022 75.1865 88.7022 76.2286C88.7022 76.4544 88.7109 76.6629 88.7283 76.8365V76.8539Z" fill="#2B2A29"/>
<path fill-rule="evenodd" clip-rule="evenodd" d="M90.4702 114.926C89.8605 114.77 89.3117 114.492 88.85 114.04C88.85 114.04 87.9616 105.938 87.6741 103.367C87.6044 102.733 87.5609 101.926 87.5609 101.023C87.5609 98.2609 87.9267 94.6134 88.85 92.5118C89.1288 91.8778 89.242 91.2091 89.242 90.5665C89.242 88.3867 87.9877 86.4066 87.7699 86.3285C87.5522 86.2503 86.8031 85.3297 86.5243 83.9142C86.8292 83.9663 87.1254 83.9923 87.4041 83.9923C87.6567 83.9923 87.9006 83.975 88.1184 83.9229L88.2403 83.9923C88.2403 83.9923 89.8518 86.4327 90.1044 87.5964C90.357 88.7688 90.9841 90.4188 89.4598 98.0524C88.2316 104.192 89.7995 112.078 90.4702 114.926Z" fill="url(#paint15_linear_0_1)"/>
<path d="M90.3922 115.204C90.0699 115.126 89.7563 115.005 89.4689 114.848C89.1727 114.692 88.9027 114.492 88.6501 114.24C88.5978 114.197 88.5717 114.136 88.5717 114.067L87.3958 103.402C87.3609 103.081 87.3348 102.707 87.3087 102.299C87.2912 101.891 87.2825 101.466 87.2825 101.031C87.2825 99.5115 87.3958 97.7225 87.6397 96.0812C87.8487 94.6917 88.1623 93.389 88.5978 92.4077C88.7285 92.1211 88.8156 91.8258 88.8766 91.5305C88.9375 91.2092 88.9724 90.8879 88.9724 90.5666C88.9724 89.7763 88.7982 89.012 88.5717 88.3607C88.2146 87.3359 87.779 86.6325 87.6919 86.5978C87.6658 86.5891 87.6397 86.5804 87.6222 86.563C87.4306 86.4415 87.0822 86.0593 86.786 85.4948L86.7773 85.4775C86.5683 85.0693 86.3766 84.5569 86.2547 83.9751C86.2285 83.8187 86.3244 83.6711 86.4811 83.6451C86.5247 83.6364 86.5595 83.6364 86.5944 83.6451C86.7338 83.6711 86.8731 83.6885 87.0125 83.6972C87.1519 83.7059 87.2825 83.7145 87.4132 83.7145C87.5351 83.7145 87.6571 83.7059 87.7616 83.6972C87.8661 83.6885 87.9707 83.6711 88.0665 83.6537C88.1449 83.6364 88.2233 83.6537 88.2842 83.6972L88.3888 83.758C88.4323 83.784 88.4585 83.8101 88.4846 83.8535C88.4933 83.8622 90.1222 86.3286 90.3922 87.5531L90.4445 87.7962C90.7232 88.9947 91.1762 90.9574 89.7389 98.122C89.2685 100.484 89.2163 103.107 89.3644 105.599C89.5995 109.533 90.3399 113.146 90.7493 114.883C90.7842 115.039 90.6884 115.187 90.5403 115.222C90.488 115.23 90.4445 115.23 90.4009 115.222L90.3922 115.204ZM89.7389 114.353C89.8521 114.414 89.9654 114.466 90.0786 114.51C89.6518 112.625 89.0072 109.264 88.7895 105.617C88.6414 103.081 88.6936 100.406 89.1727 98.0004C90.5838 90.9487 90.1483 89.0641 89.8783 87.9091L89.8173 87.6573C89.5995 86.6586 88.3191 84.6525 88.0403 84.2269C87.9619 84.2443 87.8748 84.253 87.7964 84.2617C87.6571 84.279 87.5264 84.279 87.3958 84.279C87.2477 84.279 87.0996 84.2703 86.9428 84.2617L86.8818 84.253C86.9864 84.6264 87.117 84.9477 87.2564 85.2256L87.2651 85.243C87.5177 85.738 87.7616 86.0333 87.8487 86.0767C88.0229 86.1375 88.6762 87.0059 89.0856 88.1957C89.3295 88.8991 89.5124 89.7242 89.5124 90.5839C89.5124 90.94 89.4776 91.2961 89.4079 91.6521C89.3382 91.9821 89.2424 92.3208 89.0943 92.6421C88.6849 93.5714 88.3888 94.8306 88.1797 96.1767C87.9358 97.8007 87.8226 99.5549 87.8226 101.049C87.8226 101.5 87.8313 101.917 87.8487 102.291C87.8661 102.681 87.8923 103.037 87.9271 103.359L89.0943 113.928C89.286 114.101 89.4863 114.249 89.7128 114.371L89.7389 114.353Z" fill="#2B2A29"/>
<g filter="url(#filter7_i_0_1)">
<path d="M25.9534 -3.8147e-06V56H13.8734V19.6H0.273438V11.2H1.71344C10.1934 11.2 15.1534 7.46667 16.5934 -3.8147e-06H25.9534Z" fill="black" fill-opacity="0.03"/>
</g>
<defs>
<filter id="filter0_d_0_1" x="28" y="8" width="78.0003" height="99.9852" filterUnits="userSpaceOnUse" color-interpolation-filters="sRGB">
<feFlood flood-opacity="0" result="BackgroundImageFix"/>
<feColorMatrix in="SourceAlpha" type="matrix" values="0 0 0 0 0 0 0 0 0 0 0 0 0 0 0 0 0 0 127 0" result="hardAlpha"/>
<feOffset dx="-5" dy="4"/>
<feGaussianBlur stdDeviation="3"/>
<feColorMatrix type="matrix" values="0 0 0 0 0.545833 0 0 0 0 0.597443 0 0 0 0 1 0 0 0 1 0"/>
<feBlend mode="normal" in2="BackgroundImageFix" result="effect1_dropShadow_0_1"/>
<feBlend mode="normal" in="SourceGraphic" in2="effect1_dropShadow_0_1" result="shape"/>
</filter>
<filter id="filter1_d_0_1" x="81.0141" y="120.868" width="20.9109" height="16.1338" filterUnits="userSpaceOnUse" color-interpolation-filters="sRGB">
<feFlood flood-opacity="0" result="BackgroundImageFix"/>
<feColorMatrix in="SourceAlpha" type="matrix" values="0 0 0 0 0 0 0 0 0 0 0 0 0 0 0 0 0 0 127 0" result="hardAlpha"/>
<feOffset dx="-4"/>
<feGaussianBlur stdDeviation="3"/>
<feColorMatrix type="matrix" values="0 0 0 0 1 0 0 0 0 0.431373 0 0 0 0 0.478431 0 0 0 1 0"/>
<feBlend mode="normal" in2="BackgroundImageFix" result="effect1_dropShadow_0_1"/>
<feBlend mode="normal" in="SourceGraphic" in2="effect1_dropShadow_0_1" result="shape"/>
</filter>
<filter id="filter2_d_0_1" x="76.4573" y="121.471" width="20.4268" height="17.5316" filterUnits="userSpaceOnUse" color-interpolation-filters="sRGB">
<feFlood flood-opacity="0" result="BackgroundImageFix"/>
<feColorMatrix in="SourceAlpha" type="matrix" values="0 0 0 0 0 0 0 0 0 0 0 0 0 0 0 0 0 0 127 0" result="hardAlpha"/>
<feOffset dx="-4"/>
<feGaussianBlur stdDeviation="3"/>
<feColorMatrix type="matrix" values="0 0 0 0 1 0 0 0 0 0.431373 0 0 0 0 0.478431 0 0 0 1 0"/>
<feBlend mode="normal" in2="BackgroundImageFix" result="effect1_dropShadow_0_1"/>
<feBlend mode="normal" in="SourceGraphic" in2="effect1_dropShadow_0_1" result="shape"/>
</filter>
<filter id="filter3_d_0_1" x="76.7424" y="121.753" width="18.7333" height="16.9675" filterUnits="userSpaceOnUse" color-interpolation-filters="sRGB">
<feFlood flood-opacity="0" result="BackgroundImageFix"/>
<feColorMatrix in="SourceAlpha" type="matrix" values="0 0 0 0 0 0 0 0 0 0 0 0 0 0 0 0 0 0 127 0" result="hardAlpha"/>
<feOffset dx="-4"/>
<feGaussianBlur stdDeviation="3"/>
<feColorMatrix type="matrix" values="0 0 0 0 1 0 0 0 0 0.431373 0 0 0 0 0.478431 0 0 0 1 0"/>
<feBlend mode="normal" in2="BackgroundImageFix" result="effect1_dropShadow_0_1"/>
<feBlend mode="normal" in="SourceGraphic" in2="effect1_dropShadow_0_1" result="shape"/>
</filter>
<filter id="filter4_d_0_1" x="89.1202" y="66.7982" width="17.4528" height="33.6329" filterUnits="userSpaceOnUse" color-interpolation-filters="sRGB">
<feFlood flood-opacity="0" result="BackgroundImageFix"/>
<feColorMatrix in="SourceAlpha" type="matrix" values="0 0 0 0 0 0 0 0 0 0 0 0 0 0 0 0 0 0 127 0" result="hardAlpha"/>
<feOffset dx="-4"/>
<feGaussianBlur stdDeviation="3"/>
<feColorMatrix type="matrix" values="0 0 0 0 1 0 0 0 0 0.6 0 0 0 0 0 0 0 0 0.6 0"/>
<feBlend mode="normal" in2="BackgroundImageFix" result="effect1_dropShadow_0_1"/>
<feBlend mode="normal" in="SourceGraphic" in2="effect1_dropShadow_0_1" result="shape"/>
</filter>
<filter id="filter5_d_0_1" x="76.4086" y="66.7263" width="27.4506" height="54.3424" filterUnits="userSpaceOnUse" color-interpolation-filters="sRGB">
<feFlood flood-opacity="0" result="BackgroundImageFix"/>
<feColorMatrix in="SourceAlpha" type="matrix" values="0 0 0 0 0 0 0 0 0 0 0 0 0 0 0 0 0 0 127 0" result="hardAlpha"/>
<feOffset dx="-4"/>
<feGaussianBlur stdDeviation="3"/>
<feColorMatrix type="matrix" values="0 0 0 0 1 0 0 0 0 0.6 0 0 0 0 0 0 0 0 0.6 0"/>
<feBlend mode="normal" in2="BackgroundImageFix" result="effect1_dropShadow_0_1"/>
<feBlend mode="normal" in="SourceGraphic" in2="effect1_dropShadow_0_1" result="shape"/>
</filter>
<filter id="filter6_d_0_1" x="61.4116" y="59.6443" width="30.1354" height="30.3134" filterUnits="userSpaceOnUse" color-interpolation-filters="sRGB">
<feFlood flood-opacity="0" result="BackgroundImageFix"/>
<feColorMatrix in="SourceAlpha" type="matrix" values="0 0 0 0 0 0 0 0 0 0 0 0 0 0 0 0 0 0 127 0" result="hardAlpha"/>
<feOffset dx="-4"/>
<feGaussianBlur stdDeviation="3"/>
<feColorMatrix type="matrix" values="0 0 0 0 1 0 0 0 0 0.6 0 0 0 0 0 0 0 0 0.6 0"/>
<feBlend mode="normal" in2="BackgroundImageFix" result="effect1_dropShadow_0_1"/>
<feBlend mode="normal" in="SourceGraphic" in2="effect1_dropShadow_0_1" result="shape"/>
</filter>
<filter id="filter7_i_0_1" x="0.273438" y="0" width="25.68" height="60" filterUnits="userSpaceOnUse" color-interpolation-filters="sRGB">
<feFlood flood-opacity="0" result="BackgroundImageFix"/>
<feBlend mode="normal" in="SourceGraphic" in2="BackgroundImageFix" result="shape"/>
<feColorMatrix in="SourceAlpha" type="matrix" values="0 0 0 0 0 0 0 0 0 0 0 0 0 0 0 0 0 0 127 0" result="hardAlpha"/>
<feOffset dy="4"/>
<feGaussianBlur stdDeviation="2"/>
<feComposite in2="hardAlpha" operator="arithmetic" k2="-1" k3="1"/>
<feColorMatrix type="matrix" values="0 0 0 0 0 0 0 0 0 0 0 0 0 0 0 0 0 0 0.1 0"/>
<feBlend mode="normal" in2="shape" result="effect1_innerShadow_0_1"/>
</filter>
<radialGradient id="paint0_radial_0_1" cx="0" cy="0" r="1" gradientUnits="userSpaceOnUse" gradientTransform="translate(79 73.0085) rotate(90) scale(60)">
<stop stop-color="#7795FF"/>
<stop offset="1" stop-color="#331E87"/>
</radialGradient>
<linearGradient id="paint1_linear_0_1" x1="39" y1="53.7392" x2="103.685" y2="53.7392" gradientUnits="userSpaceOnUse">
<stop stop-color="#00DBDE"/>
<stop offset="1" stop-color="#FC00FF"/>
</linearGradient>
<linearGradient id="paint2_linear_0_1" x1="39.0085" y1="71.9905" x2="51.7085" y2="71.9905" gradientUnits="userSpaceOnUse">
<stop stop-color="#00DBDE"/>
<stop offset="1" stop-color="#FC00FF"/>
</linearGradient>
<linearGradient id="paint3_linear_0_1" x1="89.1202" y1="31.3908" x2="98.1356" y2="31.3908" gradientUnits="userSpaceOnUse">
<stop stop-color="#00DBDE"/>
<stop offset="1" stop-color="#FC00FF"/>
</linearGradient>
<linearGradient id="paint4_linear_0_1" x1="71.6475" y1="39.6021" x2="86.8475" y2="39.6021" gradientUnits="userSpaceOnUse">
<stop stop-color="#00DBDE"/>
<stop offset="1" stop-color="#FC00FF"/>
</linearGradient>
<linearGradient id="paint5_linear_0_1" x1="55.2885" y1="56.9274" x2="70.4885" y2="56.9274" gradientUnits="userSpaceOnUse">
<stop stop-color="#2CD8D5"/>
<stop offset="0.56" stop-color="#C5C1FF"/>
<stop offset="1" stop-color="#FFBAC3"/>
</linearGradient>
<linearGradient id="paint6_linear_0_1" x1="55.5677" y1="60.0582" x2="70.7676" y2="60.0582" gradientUnits="userSpaceOnUse">
<stop stop-color="#2CD8D5"/>
<stop offset="0.56" stop-color="#C5C1FF"/>
<stop offset="1" stop-color="#FFBAC3"/>
</linearGradient>
<linearGradient id="paint7_linear_0_1" x1="58.6513" y1="46.0501" x2="67.658" y2="46.0501" gradientUnits="userSpaceOnUse">
<stop stop-color="#00DBDE"/>
<stop offset="1" stop-color="#FC00FF"/>
</linearGradient>
<linearGradient id="paint8_linear_0_1" x1="53.6513" y1="50.8742" x2="57.8324" y2="50.8742" gradientUnits="userSpaceOnUse">
<stop stop-color="#00DBDE"/>
<stop offset="1" stop-color="#FC00FF"/>
</linearGradient>
<linearGradient id="paint9_linear_0_1" x1="80.9849" y1="51.9988" x2="96.8991" y2="51.9988" gradientUnits="userSpaceOnUse">
<stop stop-color="#A445B2"/>
<stop offset="0.52" stop-color="#D41872"/>
<stop offset="1" stop-color="#FF0066"/>
</linearGradient>
<linearGradient id="paint10_linear_0_1" x1="80.9849" y1="47.3441" x2="96.8991" y2="47.3441" gradientUnits="userSpaceOnUse">
<stop stop-color="#2CD8D5"/>
<stop offset="0.56" stop-color="#C5C1FF"/>
<stop offset="1" stop-color="#FFBAC3"/>
</linearGradient>
<linearGradient id="paint11_linear_0_1" x1="80.9849" y1="42.4634" x2="96.8991" y2="42.4634" gradientUnits="userSpaceOnUse">
<stop stop-color="#2CD8D5"/>
<stop offset="0.56" stop-color="#C5C1FF"/>
<stop offset="1" stop-color="#FFBAC3"/>
</linearGradient>
<linearGradient id="paint12_linear_0_1" x1="99.1202" y1="83.6147" x2="104.573" y2="83.6147" gradientUnits="userSpaceOnUse">
<stop stop-color="#F9D423"/>
<stop offset="1" stop-color="#FF4E50"/>
</linearGradient>
<linearGradient id="paint13_linear_0_1" x1="86.4086" y1="93.8975" x2="101.859" y2="93.8975" gradientUnits="userSpaceOnUse">
<stop stop-color="#F9D423"/>
<stop offset="1" stop-color="#FF4E50"/>
</linearGradient>
<linearGradient id="paint14_linear_0_1" x1="71.4116" y1="74.801" x2="89.547" y2="74.801" gradientUnits="userSpaceOnUse">
<stop stop-color="#F9D423"/>
<stop offset="1" stop-color="#FF4E50"/>
</linearGradient>
<linearGradient id="paint15_linear_0_1" x1="73.0926" y1="90.7923" x2="90.1131" y2="90.7923" gradientUnits="userSpaceOnUse">
<stop stop-color="#F49716"/>
<stop offset="0.0117647" stop-color="#F49716"/>
<stop offset="0.988235" stop-color="#F39513"/>
<stop offset="1" stop-color="#F39513"/>
</linearGradient>
</defs>
</svg>
