<svg width="120" height="188" viewBox="0 0 120 188" fill="none" xmlns="http://www.w3.org/2000/svg">
<path d="M95.9943 148.18C110.891 115.829 105.896 66.2241 84.8382 37.3943C75.1158 24.0577 63.6461 17.5215 52.6692 17.4995L51.6164 17.5655L39.9002 18.5119L30.5139 25.1361C22.8077 29.1415 24.9134 32.4646 19.7162 43.7104C4.81902 76.0615 9.81462 125.666 30.8723 154.496C38.3321 164.708 35.7559 163.167 44.2462 165.544L54.3494 175.271L65.4159 174.303L66.4239 174.193C77.9385 172.784 88.6689 164.025 95.9719 148.18H95.9943Z" fill="white"/>
<path d="M44.8514 164.554L54.7978 174.105L66.3123 173.071C77.8941 171.64 88.0645 162.639 94.9418 147.718C109.66 115.741 104.709 66.5543 83.8977 38.0546C74.7578 25.5323 63.6689 18.6439 52.6472 18.6219L40.2814 19.6123L31.1639 26.0605C26.2803 28.6134 25.6307 30.6821 24.1522 35.2156C23.4129 37.5264 22.472 40.4314 20.7247 44.1947C6.0067 76.1496 10.9575 125.358 31.7688 153.858C33.1129 155.685 34.121 157.137 34.9274 158.304C37.9965 162.705 37.9965 162.705 42.4096 163.894C43.0369 164.07 43.7313 164.246 44.5378 164.466L44.8066 164.554H44.8514ZM53.9465 176.438L43.6641 166.557C42.9921 166.359 42.3872 166.204 41.8496 166.072C36.7868 164.708 36.5403 164.532 33.0905 159.58C32.284 158.414 31.2759 156.983 29.9542 155.179C8.71732 126.085 3.65451 75.8855 18.6861 43.2704C20.3663 39.6171 21.2847 36.8002 22.0016 34.5334C23.5025 29.8678 24.421 27.0728 29.9766 24.1678L39.475 17.4335L52.58 16.3992C64.4306 16.4212 76.1915 23.6396 85.7571 36.7561C106.994 65.8501 112.057 116.049 97.0252 148.664C89.8118 164.334 78.9917 173.797 66.5812 175.338L65.5507 175.448L53.9465 176.46V176.438Z" fill="#150035"/>
<path d="M15.7286 120.516C19.0441 133.171 24.2189 144.923 31.1635 154.43C38.6233 164.641 36.0471 163.101 44.5373 165.478L54.6406 175.205L65.707 174.237L66.7151 174.127C78.2296 172.696 88.9601 163.959 96.2631 148.114C102.961 133.567 105.627 115.521 104.619 97.4524L49.9586 101.744L15.7062 120.538L15.7286 120.516Z" fill="#150035"/>
<path d="M85.9587 149.06C71.0615 181.411 41.9168 184.228 20.8367 155.398C-0.220962 126.546 -5.21656 76.9415 9.68063 44.6125C24.5778 12.2615 53.7225 9.44455 74.8026 38.2744C95.8603 67.1262 100.856 116.731 85.9587 149.06Z" fill="white"/>
<path d="M54.4846 22.0993C49.7578 19.9866 44.8966 19.1283 40.0578 19.6124C28.1849 20.7568 17.7681 29.8019 10.7563 45.0751C-3.96168 77.0299 0.989115 126.239 21.8004 154.76C31.7468 168.361 43.7541 175.227 55.6271 174.083C67.5 172.916 77.9169 163.893 84.951 148.62C99.669 116.665 94.7182 67.4567 73.907 38.957C68.0153 30.8802 61.4068 25.2023 54.507 22.1433L54.4846 22.0993ZM40.2371 173.621C32.9789 170.386 26.0567 164.444 19.9186 156.059C-1.31827 126.965 -6.38107 76.7658 8.65053 44.1508C16.0207 28.1293 27.1096 18.6221 39.8338 17.3897C52.558 16.1573 65.3047 23.3317 75.7439 37.6365C96.9808 66.7304 102.044 116.929 87.012 149.545C79.6418 165.566 68.5529 175.073 55.8287 176.306C50.5867 176.812 45.3223 175.887 40.2371 173.621Z" fill="#150035"/>
<path d="M80.2686 141.292C67.5892 168.823 42.768 171.244 24.8466 146.684C6.92512 122.123 2.66877 79.8909 15.3482 52.3596C28.0276 24.8282 52.8488 22.4074 70.7703 46.9678C88.6917 71.5281 92.9481 113.76 80.2686 141.292Z" fill="url(#paint0_linear_1_2144)"/>
<path fill-rule="evenodd" clip-rule="evenodd" d="M41.9402 30.0659L43.1723 101.766L68.1727 44.1067C62.0794 36.074 53.1187 30.0219 41.9626 30.0659H41.9402Z" fill="white"/>
<path d="M42.5893 30.7042L43.7542 98.8174L67.4329 44.1947C64.2966 40.1454 60.4211 36.6242 55.896 34.1813C51.9532 32.0686 47.4953 30.7702 42.6117 30.7042H42.5893ZM42.5221 101.788L41.29 30.0879C41.29 29.7358 41.5812 29.4497 41.9172 29.4497C47.2937 29.4277 52.1773 30.7922 56.4784 33.081C61.2724 35.6558 65.3719 39.3971 68.6426 43.7106C68.777 43.8866 68.8218 44.1287 68.7322 44.3488L43.7318 102.008C43.6422 102.229 43.4181 102.383 43.1493 102.383C42.7909 102.383 42.4997 102.118 42.4997 101.766L42.5221 101.788Z" fill="white"/>
<path d="M53.3877 33.3673C49.3778 31.5846 45.2783 30.8584 41.2011 31.2545C31.1651 32.2229 22.3388 39.9035 16.38 52.8219C3.85736 79.9791 8.06889 121.793 25.7663 146.024C34.1894 157.555 44.3598 163.365 54.3958 162.397C64.4318 161.429 73.2581 153.748 79.217 140.83C91.7396 113.673 87.528 71.8583 69.8306 47.6281C64.835 40.7838 59.2346 35.9641 53.3877 33.3673ZM41.2683 162.353C35.063 159.602 29.149 154.518 23.907 147.344C5.78391 122.542 1.48277 79.715 14.2966 51.9196C20.6139 38.2309 30.0899 30.0881 40.9771 29.0318C51.8644 27.9754 62.7741 34.1155 71.7124 46.3297C89.8354 71.1321 94.1366 113.959 81.3227 141.754C75.0054 155.443 65.5295 163.585 54.6422 164.642C50.1394 165.082 45.6367 164.29 41.2683 162.353Z" fill="#150035"/>
<path d="M43.5306 70.0977L40.8871 97.7612L46.3532 100.864L43.8218 70.2518C43.7994 70.0317 43.5306 69.8777 43.5306 70.0757V70.0977Z" fill="black"/>
<path d="M42.0961 97.1447L45.0531 98.8173L42.4545 81.4974L42.0961 97.1447ZM47.6741 102.911L39.6767 98.3771L41.3344 69.0631L42.4545 68.9751C43.149 68.9751 43.7538 69.5473 43.821 70.2515L47.6741 102.911Z" fill="black"/>
<path d="M68.5979 103.043L43.8439 101.986L44.0455 99.7417C52.0205 100.446 60.802 100.094 68.7995 100.798C69.6956 100.93 69.5612 103.131 68.5979 103.043Z" fill="white"/>
<path d="M45.255 104.716C44.0901 106.696 42.0963 106.74 40.8418 104.804C39.5649 102.867 39.4977 99.6978 40.6626 97.7171C41.8275 95.7364 43.8213 95.6923 45.0758 97.629C46.3527 99.5657 46.4199 102.735 45.255 104.738V104.716Z" fill="white"/>
<path d="M43.7102 97.2328L43.3294 97.1448C42.9486 97.1668 42.5453 97.5409 42.2317 98.1131C41.3356 99.7857 41.5372 102.515 42.6573 104.077C43.0606 104.627 43.5086 104.935 43.8894 104.913C44.2703 104.891 44.6735 104.517 44.9871 103.945C45.8832 102.273 45.6816 99.5436 44.5615 97.9811C44.2927 97.6069 44.0014 97.3649 43.7326 97.2328H43.7102ZM42.4109 106.85C41.7388 106.542 41.134 106.036 40.6188 105.332C39.0282 103.109 38.7594 99.5216 40.0363 97.1228C40.7532 95.7803 41.8733 94.966 43.1502 94.9C44.4047 94.834 45.6592 95.4942 46.5553 96.7266C48.1458 98.9494 48.4146 102.559 47.1377 104.935C46.4208 106.278 45.3007 107.092 44.0238 107.158C43.4638 107.202 42.9261 107.092 42.4109 106.85Z" fill="#150035"/>
<path d="M73.7944 37.9229L73.5928 35.6782L83.6064 34.7759L83.808 36.9986L73.7944 37.9229Z" fill="#150035"/>
<path d="M93.935 92.1489L93.7334 89.9042L103.725 89.002L103.949 91.2466L93.935 92.1489Z" fill="#150035"/>
<path d="M60.892 25.8408L60.6904 23.618L70.704 22.6936L70.9056 24.9385L60.892 25.8408Z" fill="#150035"/>
<g filter="url(#filter0_d_1_2144)">
<path d="M63.8269 182.82L63.7821 180.575C69.965 180.487 75.7895 178.858 80.6731 175.865C87.8864 171.464 97.6984 162.287 103.478 143.603L105.673 144.263C99.6922 163.607 89.4322 173.159 81.8828 177.78C76.6407 180.971 70.3906 182.732 63.8045 182.82H63.8269Z" fill="url(#paint1_linear_1_2144)"/>
</g>
<g filter="url(#filter1_d_1_2144)">
<path d="M41.2449 183.172L41.2225 180.927L58.4495 180.729L58.4719 182.974L41.2449 183.172Z" fill="url(#paint2_linear_1_2144)"/>
</g>
<g filter="url(#filter2_d_1_2144)">
<path d="M111.543 107.686C112.865 47.2978 78.3434 20.3607 78.0073 20.0966L79.3962 18.314C79.7547 18.5781 115.172 46.1535 113.828 107.73L111.543 107.686Z" fill="url(#paint3_linear_1_2144)"/>
</g>
<g filter="url(#filter3_d_1_2144)">
<path d="M113.804 66.4001C112.661 62.6809 111.407 59.0717 110.108 55.6826L112.258 54.8904C113.58 58.3455 114.857 61.9987 115.999 65.7619L113.804 66.4221V66.4001Z" fill="url(#paint4_linear_1_2144)"/>
</g>
<g filter="url(#filter4_d_1_2144)">
<path d="M108.227 51.0168C91.1124 10.8753 66.5824 7.24409 66.336 7.20008L66.6272 4.95532C67.6801 5.08737 92.6581 8.69658 110.333 50.1145L108.227 50.9948V51.0168Z" fill="url(#paint5_linear_1_2144)"/>
</g>
<g filter="url(#filter5_d_1_2144)">
<path d="M112.572 42.302C109.212 34.6654 104.821 27.689 99.4893 21.5709L101.237 20.0964C106.703 26.3906 111.228 33.565 114.678 41.3997L112.572 42.302Z" fill="url(#paint6_linear_1_2144)"/>
</g>
<g filter="url(#filter6_d_1_2144)">
<path d="M96.6449 18.4683C91.7613 13.4505 87.9978 11.0297 87.9754 11.0077L89.2299 9.11499C89.3867 9.22503 93.2398 11.6899 98.3251 16.9057L96.6673 18.4683H96.6449Z" fill="url(#paint7_linear_1_2144)"/>
</g>
<path d="M41.0426 33.587C41.0426 33.0369 41.4906 32.5747 42.0731 32.5747C42.6331 32.5747 43.1036 33.0149 43.1036 33.587V41.0255C43.1036 41.5757 42.6555 42.0378 42.0731 42.0378C41.513 42.0378 41.0426 41.5977 41.0426 41.0255V33.587Z" fill="white"/>
<path d="M64.991 48.5306C65.215 48.0244 65.8198 47.7823 66.3351 48.0024C66.8503 48.2225 67.0967 48.8167 66.8727 49.3228L63.8485 56.145C63.6244 56.6511 63.0196 56.8932 62.5043 56.6731C61.9891 56.4531 61.7427 55.8589 61.9667 55.3527L64.991 48.5306Z" fill="white"/>
<path d="M78.6113 73.1129C79.1042 72.8268 79.7314 73.0029 80.0002 73.487C80.2915 73.9712 80.1123 74.5874 79.6194 74.8515L73.0557 78.5707C72.5628 78.8568 71.9356 78.6807 71.6668 78.1966C71.3755 77.7124 71.5547 77.0962 72.0476 76.8321L78.6113 73.1129Z" fill="white"/>
<path d="M20.4105 49.3664C19.9848 48.9923 19.94 48.3761 20.3209 47.9579C20.7017 47.5398 21.329 47.4958 21.7546 47.8699L27.4447 52.7776C27.8703 53.1518 27.9151 53.768 27.5343 54.1861C27.1535 54.6043 26.5262 54.6483 26.1006 54.2741L20.4105 49.3664Z" fill="white"/>
<path d="M12.8166 75.1812C12.279 75.0272 11.9653 74.455 12.1222 73.9268C12.279 73.3986 12.8614 73.0905 13.3991 73.2445L20.6573 75.3793C21.1949 75.5334 21.5085 76.1056 21.3517 76.6338C21.1949 77.1619 20.6125 77.4701 20.0748 77.316L12.8166 75.1812Z" fill="white"/>
<path d="M72.0022 149.104C72.2934 149.588 72.1142 150.205 71.6214 150.469C71.1285 150.755 70.5013 150.579 70.2324 150.095L66.4465 143.646C66.1553 143.162 66.3345 142.546 66.8274 142.282C67.3202 141.996 67.9475 142.172 68.2163 142.656L72.0022 149.104Z" fill="white"/>
<path d="M32.3517 149.082C32.0604 149.566 31.4332 149.72 30.9627 149.456C30.4699 149.17 30.3131 148.554 30.5819 148.092L34.3678 141.644C34.6591 141.16 35.2863 141.006 35.7567 141.27C36.2496 141.556 36.4064 142.172 36.1376 142.634L32.3517 149.082Z" fill="white"/>
<path d="M82.5761 126.107C83.069 126.393 83.2258 127.009 82.957 127.471C82.6657 127.955 82.0385 128.109 81.5681 127.845L75.0043 124.126C74.5115 123.84 74.3547 123.224 74.6235 122.762C74.9147 122.278 75.5419 122.123 76.0124 122.388L82.5761 126.107Z" fill="white"/>
<path d="M20.2769 127.845C19.7841 128.131 19.1568 127.955 18.888 127.471C18.5968 126.987 18.776 126.371 19.2688 126.107L25.8326 122.387C26.3254 122.101 26.9527 122.277 27.2215 122.761C27.5127 123.246 27.3335 123.862 26.8407 124.126L20.2769 127.845Z" fill="white"/>
<path d="M48.7267 151.217C48.7267 150.667 49.1747 150.205 49.7572 150.205C50.3172 150.205 50.7877 150.645 50.7877 151.217V158.656C50.7877 159.206 50.3396 159.668 49.7572 159.668C49.1971 159.668 48.7267 159.228 48.7267 158.656V151.217Z" fill="white"/>
<path d="M76.4378 103.043C75.8777 103.021 75.4297 102.558 75.4521 102.008C75.4745 101.458 75.9449 101.018 76.505 101.04L84.0767 101.326C84.6368 101.348 85.0848 101.81 85.0624 102.36C85.04 102.911 84.5696 103.351 84.0095 103.329L76.4378 103.043Z" fill="white"/>
<path d="M11.6073 100.996C11.0473 100.974 10.5993 100.512 10.6217 99.9619C10.6441 99.4116 11.1145 98.9715 11.6745 98.9935L19.2464 99.2796C19.8064 99.3016 20.2544 99.7638 20.232 100.314C20.2096 100.864 19.7392 101.304 19.1792 101.282L11.6073 100.996Z" fill="white"/>
<path fill-rule="evenodd" clip-rule="evenodd" d="M51.8182 18.6881C52.3783 18.666 52.9159 18.644 53.476 18.644C58.5612 18.7541 63.3328 20.3165 67.8356 22.9793C65.7522 23.1774 63.6912 23.3535 61.6079 23.5515C58.0012 21.1308 54.8201 19.6784 51.7958 18.7101L51.8182 18.6881Z" fill="#150035"/>
<path fill-rule="evenodd" clip-rule="evenodd" d="M64.3628 25.5327C66.5358 25.3346 68.7311 25.1365 70.9041 24.9385C75.3173 28.0195 78.7 31.4086 81.5226 34.9518C79.0808 35.1719 76.6614 35.392 74.2196 35.6121C71.5538 31.8928 68.1263 28.6137 64.3628 25.5327Z" fill="#150035"/>
<defs>
<filter id="filter0_d_1_2144" x="59.7821" y="139.603" width="49.8914" height="47.2173" filterUnits="userSpaceOnUse" color-interpolation-filters="sRGB">
<feFlood flood-opacity="0" result="BackgroundImageFix"/>
<feColorMatrix in="SourceAlpha" type="matrix" values="0 0 0 0 0 0 0 0 0 0 0 0 0 0 0 0 0 0 127 0" result="hardAlpha"/>
<feOffset/>
<feGaussianBlur stdDeviation="2"/>
<feColorMatrix type="matrix" values="0 0 0 0 0.615686 0 0 0 0 0.32549 0 0 0 0 0.952941 0 0 0 1 0"/>
<feBlend mode="normal" in2="BackgroundImageFix" result="effect1_dropShadow_1_2144"/>
<feBlend mode="normal" in="SourceGraphic" in2="effect1_dropShadow_1_2144" result="shape"/>
</filter>
<filter id="filter1_d_1_2144" x="37.2225" y="176.729" width="25.2494" height="10.4429" filterUnits="userSpaceOnUse" color-interpolation-filters="sRGB">
<feFlood flood-opacity="0" result="BackgroundImageFix"/>
<feColorMatrix in="SourceAlpha" type="matrix" values="0 0 0 0 0 0 0 0 0 0 0 0 0 0 0 0 0 0 127 0" result="hardAlpha"/>
<feOffset/>
<feGaussianBlur stdDeviation="2"/>
<feColorMatrix type="matrix" values="0 0 0 0 0.615686 0 0 0 0 0.32549 0 0 0 0 0.952941 0 0 0 1 0"/>
<feBlend mode="normal" in2="BackgroundImageFix" result="effect1_dropShadow_1_2144"/>
<feBlend mode="normal" in="SourceGraphic" in2="effect1_dropShadow_1_2144" result="shape"/>
</filter>
<filter id="filter2_d_1_2144" x="74.0073" y="14.314" width="43.8578" height="97.4165" filterUnits="userSpaceOnUse" color-interpolation-filters="sRGB">
<feFlood flood-opacity="0" result="BackgroundImageFix"/>
<feColorMatrix in="SourceAlpha" type="matrix" values="0 0 0 0 0 0 0 0 0 0 0 0 0 0 0 0 0 0 127 0" result="hardAlpha"/>
<feOffset/>
<feGaussianBlur stdDeviation="2"/>
<feColorMatrix type="matrix" values="0 0 0 0 0.615686 0 0 0 0 0.32549 0 0 0 0 0.952941 0 0 0 1 0"/>
<feBlend mode="normal" in2="BackgroundImageFix" result="effect1_dropShadow_1_2144"/>
<feBlend mode="normal" in="SourceGraphic" in2="effect1_dropShadow_1_2144" result="shape"/>
</filter>
<filter id="filter3_d_1_2144" x="106.108" y="50.8904" width="13.8917" height="19.5317" filterUnits="userSpaceOnUse" color-interpolation-filters="sRGB">
<feFlood flood-opacity="0" result="BackgroundImageFix"/>
<feColorMatrix in="SourceAlpha" type="matrix" values="0 0 0 0 0 0 0 0 0 0 0 0 0 0 0 0 0 0 127 0" result="hardAlpha"/>
<feOffset/>
<feGaussianBlur stdDeviation="2"/>
<feColorMatrix type="matrix" values="0 0 0 0 0.615686 0 0 0 0 0.32549 0 0 0 0 0.952941 0 0 0 1 0"/>
<feBlend mode="normal" in2="BackgroundImageFix" result="effect1_dropShadow_1_2144"/>
<feBlend mode="normal" in="SourceGraphic" in2="effect1_dropShadow_1_2144" result="shape"/>
</filter>
<filter id="filter4_d_1_2144" x="62.336" y="0.955322" width="51.9971" height="54.0615" filterUnits="userSpaceOnUse" color-interpolation-filters="sRGB">
<feFlood flood-opacity="0" result="BackgroundImageFix"/>
<feColorMatrix in="SourceAlpha" type="matrix" values="0 0 0 0 0 0 0 0 0 0 0 0 0 0 0 0 0 0 127 0" result="hardAlpha"/>
<feOffset/>
<feGaussianBlur stdDeviation="2"/>
<feColorMatrix type="matrix" values="0 0 0 0 0.615686 0 0 0 0 0.32549 0 0 0 0 0.952941 0 0 0 1 0"/>
<feBlend mode="normal" in2="BackgroundImageFix" result="effect1_dropShadow_1_2144"/>
<feBlend mode="normal" in="SourceGraphic" in2="effect1_dropShadow_1_2144" result="shape"/>
</filter>
<filter id="filter5_d_1_2144" x="95.4893" y="16.0964" width="23.1884" height="30.2056" filterUnits="userSpaceOnUse" color-interpolation-filters="sRGB">
<feFlood flood-opacity="0" result="BackgroundImageFix"/>
<feColorMatrix in="SourceAlpha" type="matrix" values="0 0 0 0 0 0 0 0 0 0 0 0 0 0 0 0 0 0 127 0" result="hardAlpha"/>
<feOffset/>
<feGaussianBlur stdDeviation="2"/>
<feColorMatrix type="matrix" values="0 0 0 0 0.615686 0 0 0 0 0.32549 0 0 0 0 0.952941 0 0 0 1 0"/>
<feBlend mode="normal" in2="BackgroundImageFix" result="effect1_dropShadow_1_2144"/>
<feBlend mode="normal" in="SourceGraphic" in2="effect1_dropShadow_1_2144" result="shape"/>
</filter>
<filter id="filter6_d_1_2144" x="83.9754" y="5.11499" width="18.3497" height="17.3533" filterUnits="userSpaceOnUse" color-interpolation-filters="sRGB">
<feFlood flood-opacity="0" result="BackgroundImageFix"/>
<feColorMatrix in="SourceAlpha" type="matrix" values="0 0 0 0 0 0 0 0 0 0 0 0 0 0 0 0 0 0 127 0" result="hardAlpha"/>
<feOffset/>
<feGaussianBlur stdDeviation="2"/>
<feColorMatrix type="matrix" values="0 0 0 0 0.615686 0 0 0 0 0.32549 0 0 0 0 0.952941 0 0 0 1 0"/>
<feBlend mode="normal" in2="BackgroundImageFix" result="effect1_dropShadow_1_2144"/>
<feBlend mode="normal" in="SourceGraphic" in2="effect1_dropShadow_1_2144" result="shape"/>
</filter>
<linearGradient id="paint0_linear_1_2144" x1="8.047" y1="96.8257" x2="87.5698" y2="96.8257" gradientUnits="userSpaceOnUse">
<stop stop-color="#667EEA"/>
<stop offset="1" stop-color="#764BA2"/>
</linearGradient>
<linearGradient id="paint1_linear_1_2144" x1="63.7821" y1="163.211" x2="105.673" y2="163.211" gradientUnits="userSpaceOnUse">
<stop stop-color="#E0C3FC"/>
<stop offset="1" stop-color="#8EC5FC"/>
</linearGradient>
<linearGradient id="paint2_linear_1_2144" x1="41.2225" y1="181.951" x2="58.4719" y2="181.951" gradientUnits="userSpaceOnUse">
<stop stop-color="#E0C3FC"/>
<stop offset="1" stop-color="#8EC5FC"/>
</linearGradient>
<linearGradient id="paint3_linear_1_2144" x1="78.0073" y1="63.0222" x2="113.865" y2="63.0222" gradientUnits="userSpaceOnUse">
<stop stop-color="#E0C3FC"/>
<stop offset="1" stop-color="#8EC5FC"/>
</linearGradient>
<linearGradient id="paint4_linear_1_2144" x1="110.108" y1="60.6562" x2="115.999" y2="60.6562" gradientUnits="userSpaceOnUse">
<stop stop-color="#E0C3FC"/>
<stop offset="1" stop-color="#8EC5FC"/>
</linearGradient>
<linearGradient id="paint5_linear_1_2144" x1="66.336" y1="27.9861" x2="110.333" y2="27.9861" gradientUnits="userSpaceOnUse">
<stop stop-color="#E0C3FC"/>
<stop offset="1" stop-color="#8EC5FC"/>
</linearGradient>
<linearGradient id="paint6_linear_1_2144" x1="99.4893" y1="31.1992" x2="114.678" y2="31.1992" gradientUnits="userSpaceOnUse">
<stop stop-color="#E0C3FC"/>
<stop offset="1" stop-color="#8EC5FC"/>
</linearGradient>
<linearGradient id="paint7_linear_1_2144" x1="87.9754" y1="13.7916" x2="98.3251" y2="13.7916" gradientUnits="userSpaceOnUse">
<stop stop-color="#E0C3FC"/>
<stop offset="1" stop-color="#8EC5FC"/>
</linearGradient>
</defs>
</svg>
