<svg width="71" height="84" viewBox="0 0 71 84" fill="none" xmlns="http://www.w3.org/2000/svg">
<path d="M67.0138 20.4204H3.89459C1.7469 20.4204 0 18.6735 0 16.5258V3.89459C0 1.7469 1.7469 0 3.89459 0H67.0138C69.1615 0 70.9084 1.7469 70.9084 3.89459V16.5258C70.9084 18.6735 69.1615 20.4204 67.0138 20.4204ZM3.89459 2.14874C2.93196 2.14874 2.14874 2.93144 2.14874 3.89459V16.5258C2.14874 17.4889 2.93196 18.2716 3.89459 18.2716H67.0138C67.9765 18.2716 68.7597 17.4889 68.7597 16.5258V3.89459C68.7597 2.93144 67.9765 2.14874 67.0138 2.14874H3.89459Z" fill="#7685FA"/>
<path d="M61.2023 13.7549C59.2476 13.7549 57.6576 12.1654 57.6576 10.2107C57.6576 8.2561 59.2476 6.66553 61.2023 6.66553C63.1569 6.66553 64.747 8.2561 64.747 10.2107C64.747 12.1654 63.1569 13.7549 61.2023 13.7549ZM61.2023 8.81427C60.4327 8.81427 59.8063 9.44063 59.8063 10.2107C59.8063 10.9798 60.4327 11.6062 61.2023 11.6062C61.9719 11.6062 62.5982 10.9798 62.5982 10.2107C62.5982 9.44063 61.9719 8.81427 61.2023 8.81427Z" fill="#7685FA"/>
<path d="M50.3688 13.7549C48.4141 13.7549 46.8241 12.1654 46.8241 10.2107C46.8241 8.2561 48.4141 6.66553 50.3688 6.66553C52.3234 6.66553 53.9135 8.2561 53.9135 10.2107C53.9135 12.1654 52.3234 13.7549 50.3688 13.7549ZM50.3688 8.81427C49.5992 8.81427 48.9728 9.44063 48.9728 10.2107C48.9728 10.9798 49.5992 11.6062 50.3688 11.6062C51.1384 11.6062 51.7647 10.9798 51.7647 10.2107C51.7647 9.44063 51.1384 8.81427 50.3688 8.81427Z" fill="#7685FA"/>
<path d="M39.3038 11.285H6.98355C6.39023 11.285 5.90918 10.8044 5.90918 10.2106C5.90918 9.61676 6.39023 9.13623 6.98355 9.13623H39.3038C39.8972 9.13623 40.3782 9.61676 40.3782 10.2106C40.3782 10.8044 39.8972 11.285 39.3038 11.285Z" fill="#7685FA"/>
<path d="M67.0138 43.5728H3.89459C1.7469 43.5728 0 41.8259 0 39.6782V27.046C0 24.8983 1.7469 23.1514 3.89459 23.1514H67.0138C69.1615 23.1514 70.9084 24.8983 70.9084 27.046V39.6782C70.9084 41.8259 69.1615 43.5728 67.0138 43.5728ZM3.89459 25.3001C2.93196 25.3001 2.14874 26.0828 2.14874 27.046V39.6782C2.14874 40.6414 2.93196 41.4241 3.89459 41.4241H67.0138C67.9765 41.4241 68.7597 40.6414 68.7597 39.6782V27.046C68.7597 26.0828 67.9765 25.3001 67.0138 25.3001H3.89459Z" fill="#7685FA"/>
<path d="M61.2023 36.9063C59.2476 36.9063 57.6576 35.3167 57.6576 33.3621C57.6576 31.4075 59.2476 29.8169 61.2023 29.8169C63.1569 29.8169 64.747 31.4075 64.747 33.3621C64.747 35.3167 63.1569 36.9063 61.2023 36.9063ZM61.2023 31.9656C60.4327 31.9656 59.8063 32.592 59.8063 33.3621C59.8063 34.1312 60.4327 34.7575 61.2023 34.7575C61.9719 34.7575 62.5982 34.1312 62.5982 33.3621C62.5982 32.592 61.9719 31.9656 61.2023 31.9656Z" fill="#7685FA"/>
<path d="M50.3688 36.9063C48.4141 36.9063 46.8241 35.3167 46.8241 33.3621C46.8241 31.4075 48.4141 29.8169 50.3688 29.8169C52.3234 29.8169 53.9135 31.4075 53.9135 33.3621C53.9135 35.3167 52.3234 36.9063 50.3688 36.9063ZM50.3688 31.9656C49.5992 31.9656 48.9728 32.592 48.9728 33.3621C48.9728 34.1312 49.5992 34.7575 50.3688 34.7575C51.1384 34.7575 51.7647 34.1312 51.7647 33.3621C51.7647 32.592 51.1384 31.9656 50.3688 31.9656Z" fill="#7685FA"/>
<path d="M39.3038 34.4363H6.98355C6.39023 34.4363 5.90918 33.9558 5.90918 33.362C5.90918 32.7681 6.39023 32.2876 6.98355 32.2876H39.3038C39.8972 32.2876 40.3782 32.7681 40.3782 33.362C40.3782 33.9558 39.8972 34.4363 39.3038 34.4363Z" fill="#7685FA"/>
<path d="M12.8029 25.3002C12.2096 25.3002 11.7285 24.8197 11.7285 24.2259V19.3461C11.7285 18.7523 12.2096 18.2717 12.8029 18.2717C13.3962 18.2717 13.8773 18.7523 13.8773 19.3461V24.2259C13.8773 24.8197 13.3962 25.3002 12.8029 25.3002Z" fill="#7685FA"/>
<path d="M58.1051 25.3002C57.5118 25.3002 57.0308 24.8197 57.0308 24.2259V19.3461C57.0308 18.7523 57.5118 18.2717 58.1051 18.2717C58.6984 18.2717 59.1795 18.7523 59.1795 19.3461V24.2259C59.1795 24.8197 58.6984 25.3002 58.1051 25.3002Z" fill="#7685FA"/>
<path d="M35.4543 76.4896C34.8609 76.4896 34.3799 76.1626 34.3799 74.5228V42.9669C34.3799 41.327 34.8609 42.0001 35.4543 42.0001C36.0476 42.0001 36.5286 41.327 36.5286 42.9669V74.5228C36.5286 76.1626 36.0476 76.4896 35.4543 76.4896Z" fill="#7685FA"/>
<path d="M60.25 80.5301H42.0397C41.4464 80.5301 40.9653 80.0496 40.9653 79.4557C40.9653 78.8619 41.4464 78.3813 42.0397 78.3813H60.25C60.8433 78.3813 61.3243 78.8619 61.3243 79.4557C61.3243 80.0496 60.8433 80.5301 60.25 80.5301Z" fill="#7685FA"/>
<path d="M28.8681 80.5301H10.6579C10.0645 80.5301 9.5835 80.0496 9.5835 79.4557C9.5835 78.8619 10.0645 78.3813 10.6579 78.3813H28.8681C29.4614 78.3813 29.9425 78.8619 29.9425 79.4557C29.9425 80.0496 29.4614 80.5301 28.8681 80.5301Z" fill="#7685FA"/>
<path d="M42.0399 83.5812H28.8678C28.2745 83.5812 27.7935 83.1006 27.7935 82.5068V76.4152C27.7935 75.8213 28.2745 75.3408 28.8678 75.3408H42.0399C42.6332 75.3408 43.1142 75.8213 43.1142 76.4152V82.5068C43.1142 83.1006 42.6332 83.5812 42.0399 83.5812ZM29.9422 81.4324H40.9655V77.4896H29.9422V81.4324Z" fill="#7685FA"/>
</svg>
