<svg width="71" height="84" viewBox="0 0 71 84" fill="none" xmlns="http://www.w3.org/2000/svg">
<path d="M67.0138 20.4204H3.89459C1.7469 20.4204 0 18.6735 0 16.5258V3.89459C0 1.7469 1.7469 0 3.89459 0H67.0138C69.1615 0 70.9084 1.7469 70.9084 3.89459V16.5258C70.9084 18.6735 69.1615 20.4204 67.0138 20.4204ZM3.89459 2.14874C2.93196 2.14874 2.14874 2.93144 2.14874 3.89459V16.5258C2.14874 17.4889 2.93196 18.2716 3.89459 18.2716H67.0138C67.9765 18.2716 68.7597 17.4889 68.7597 16.5258V3.89459C68.7597 2.93144 67.9765 2.14874 67.0138 2.14874H3.89459Z" fill="#FF6E7A"/>
<path d="M61.2023 13.7549C59.2476 13.7549 57.6576 12.1654 57.6576 10.2107C57.6576 8.2561 59.2476 6.66553 61.2023 6.66553C63.1569 6.66553 64.747 8.2561 64.747 10.2107C64.747 12.1654 63.1569 13.7549 61.2023 13.7549ZM61.2023 8.81427C60.4327 8.81427 59.8063 9.44063 59.8063 10.2107C59.8063 10.9798 60.4327 11.6062 61.2023 11.6062C61.9719 11.6062 62.5982 10.9798 62.5982 10.2107C62.5982 9.44063 61.9719 8.81427 61.2023 8.81427Z" fill="#FF6E7A"/>
<path d="M50.3688 13.7549C48.4141 13.7549 46.8241 12.1654 46.8241 10.2107C46.8241 8.2561 48.4141 6.66553 50.3688 6.66553C52.3234 6.66553 53.9135 8.2561 53.9135 10.2107C53.9135 12.1654 52.3234 13.7549 50.3688 13.7549ZM50.3688 8.81427C49.5992 8.81427 48.9728 9.44063 48.9728 10.2107C48.9728 10.9798 49.5992 11.6062 50.3688 11.6062C51.1384 11.6062 51.7647 10.9798 51.7647 10.2107C51.7647 9.44063 51.1384 8.81427 50.3688 8.81427Z" fill="#FF6E7A"/>
<path d="M39.3038 11.285H6.98355C6.39023 11.285 5.90918 10.8044 5.90918 10.2106C5.90918 9.61676 6.39023 9.13623 6.98355 9.13623H39.3038C39.8972 9.13623 40.3782 9.61676 40.3782 10.2106C40.3782 10.8044 39.8972 11.285 39.3038 11.285Z" fill="#FF6E7A"/>
<path d="M67.0138 43.5728H3.89459C1.7469 43.5728 0 41.8259 0 39.6782V27.046C0 24.8983 1.7469 23.1514 3.89459 23.1514H67.0138C69.1615 23.1514 70.9084 24.8983 70.9084 27.046V39.6782C70.9084 41.8259 69.1615 43.5728 67.0138 43.5728ZM3.89459 25.3001C2.93196 25.3001 2.14874 26.0828 2.14874 27.046V39.6782C2.14874 40.6414 2.93196 41.4241 3.89459 41.4241H67.0138C67.9765 41.4241 68.7597 40.6414 68.7597 39.6782V27.046C68.7597 26.0828 67.9765 25.3001 67.0138 25.3001H3.89459Z" fill="#FF6E7A"/>
<path d="M61.2023 36.9063C59.2476 36.9063 57.6576 35.3167 57.6576 33.3621C57.6576 31.4075 59.2476 29.8169 61.2023 29.8169C63.1569 29.8169 64.747 31.4075 64.747 33.3621C64.747 35.3167 63.1569 36.9063 61.2023 36.9063ZM61.2023 31.9656C60.4327 31.9656 59.8063 32.592 59.8063 33.3621C59.8063 34.1312 60.4327 34.7575 61.2023 34.7575C61.9719 34.7575 62.5982 34.1312 62.5982 33.3621C62.5982 32.592 61.9719 31.9656 61.2023 31.9656Z" fill="#FF6E7A"/>
<path d="M50.3688 36.9063C48.4141 36.9063 46.8241 35.3167 46.8241 33.3621C46.8241 31.4075 48.4141 29.8169 50.3688 29.8169C52.3234 29.8169 53.9135 31.4075 53.9135 33.3621C53.9135 35.3167 52.3234 36.9063 50.3688 36.9063ZM50.3688 31.9656C49.5992 31.9656 48.9728 32.592 48.9728 33.3621C48.9728 34.1312 49.5992 34.7575 50.3688 34.7575C51.1384 34.7575 51.7647 34.1312 51.7647 33.3621C51.7647 32.592 51.1384 31.9656 50.3688 31.9656Z" fill="#FF6E7A"/>
<path d="M39.3038 34.4363H6.98355C6.39023 34.4363 5.90918 33.9558 5.90918 33.362C5.90918 32.7681 6.39023 32.2876 6.98355 32.2876H39.3038C39.8972 32.2876 40.3782 32.7681 40.3782 33.362C40.3782 33.9558 39.8972 34.4363 39.3038 34.4363Z" fill="#FF6E7A"/>
<path d="M67.0138 67.3011H3.89459C1.7469 67.3011 0 65.5542 0 63.4065V50.7742C0 48.6265 1.7469 46.8796 3.89459 46.8796H67.0138C69.1615 46.8796 70.9084 48.6265 70.9084 50.7742V63.4065C70.9084 65.5542 69.1615 67.3011 67.0138 67.3011ZM3.89459 49.0284C2.93196 49.0284 2.14874 49.8111 2.14874 50.7742V63.4065C2.14874 64.3696 2.93196 65.1523 3.89459 65.1523H67.0138C67.9765 65.1523 68.7597 64.3696 68.7597 63.4065V50.7742C68.7597 49.8111 67.9765 49.0284 67.0138 49.0284H3.89459Z" fill="#FF6E7A"/>
<path d="M61.2023 60.6345C59.2476 60.6345 57.6576 59.045 57.6576 57.0904C57.6576 55.1357 59.2476 53.5452 61.2023 53.5452C63.1569 53.5452 64.747 55.1357 64.747 57.0904C64.747 59.045 63.1569 60.6345 61.2023 60.6345ZM61.2023 55.6939C60.4327 55.6939 59.8063 56.3203 59.8063 57.0904C59.8063 57.8594 60.4327 58.4858 61.2023 58.4858C61.9719 58.4858 62.5982 57.8594 62.5982 57.0904C62.5982 56.3203 61.9719 55.6939 61.2023 55.6939Z" fill="#FF6E7A"/>
<path d="M50.3688 60.6345C48.4141 60.6345 46.8241 59.045 46.8241 57.0904C46.8241 55.1357 48.4141 53.5452 50.3688 53.5452C52.3234 53.5452 53.9135 55.1357 53.9135 57.0904C53.9135 59.045 52.3234 60.6345 50.3688 60.6345ZM50.3688 55.6939C49.5992 55.6939 48.9728 56.3203 48.9728 57.0904C48.9728 57.8594 49.5992 58.4858 50.3688 58.4858C51.1384 58.4858 51.7647 57.8594 51.7647 57.0904C51.7647 56.3203 51.1384 55.6939 50.3688 55.6939Z" fill="#FF6E7A"/>
<path d="M39.3038 58.1649H6.98355C6.39023 58.1649 5.90918 57.6843 5.90918 57.0905C5.90918 56.4966 6.39023 56.0161 6.98355 56.0161H39.3038C39.8972 56.0161 40.3782 56.4966 40.3782 57.0905C40.3782 57.6843 39.8972 58.1649 39.3038 58.1649Z" fill="#FF6E7A"/>
<path d="M12.8029 25.3002C12.2096 25.3002 11.7285 24.8197 11.7285 24.2259V19.3461C11.7285 18.7523 12.2096 18.2717 12.8029 18.2717C13.3962 18.2717 13.8773 18.7523 13.8773 19.3461V24.2259C13.8773 24.8197 13.3962 25.3002 12.8029 25.3002Z" fill="#FF6E7A"/>
<path d="M58.1051 25.3002C57.5118 25.3002 57.0308 24.8197 57.0308 24.2259V19.3461C57.0308 18.7523 57.5118 18.2717 58.1051 18.2717C58.6984 18.2717 59.1795 18.7523 59.1795 19.3461V24.2259C59.1795 24.8197 58.6984 25.3002 58.1051 25.3002Z" fill="#FF6E7A"/>
<path d="M12.8029 49.0285C12.2096 49.0285 11.7285 48.548 11.7285 47.9542V43.0744C11.7285 42.4805 12.2096 42 12.8029 42C13.3962 42 13.8773 42.4805 13.8773 43.0744V47.9542C13.8773 48.548 13.3962 49.0285 12.8029 49.0285Z" fill="#FF6E7A"/>
<path d="M58.1051 49.0285C57.5118 49.0285 57.0308 48.548 57.0308 47.9542V43.0744C57.0308 42.4805 57.5118 42 58.1051 42C58.6984 42 59.1795 42.4805 59.1795 43.0744V47.9542C59.1795 48.548 58.6984 49.0285 58.1051 49.0285Z" fill="#FF6E7A"/>
<path d="M35.4543 78.9085C34.8609 78.9085 34.3799 78.428 34.3799 77.8341V67.4933C34.3799 66.8995 34.8609 66.4189 35.4543 66.4189C36.0476 66.4189 36.5286 66.8995 36.5286 67.4933V77.8341C36.5286 78.428 36.0476 78.9085 35.4543 78.9085Z" fill="#FF6E7A"/>
<path d="M60.25 80.949H42.0397C41.4464 80.949 40.9653 80.4685 40.9653 79.8747C40.9653 79.2808 41.4464 78.8003 42.0397 78.8003H60.25C60.8433 78.8003 61.3243 79.2808 61.3243 79.8747C61.3243 80.4685 60.8433 80.949 60.25 80.949Z" fill="#FF6E7A"/>
<path d="M28.8681 80.949H10.6579C10.0645 80.949 9.5835 80.4685 9.5835 79.8747C9.5835 79.2808 10.0645 78.8003 10.6579 78.8003H28.8681C29.4614 78.8003 29.9425 79.2808 29.9425 79.8747C29.9425 80.4685 29.4614 80.949 28.8681 80.949Z" fill="#FF6E7A"/>
<path d="M42.0399 84.0001H28.8678C28.2745 84.0001 27.7935 83.5196 27.7935 82.9257V76.8341C27.7935 76.2403 28.2745 75.7598 28.8678 75.7598H42.0399C42.6332 75.7598 43.1142 76.2403 43.1142 76.8341V82.9257C43.1142 83.5196 42.6332 84.0001 42.0399 84.0001ZM29.9422 81.8514H40.9655V77.9085H29.9422V81.8514Z" fill="#FF6E7A"/>
</svg>
