<svg width="170" height="203" viewBox="0 0 170 203" fill="none" xmlns="http://www.w3.org/2000/svg">
<circle cx="85" cy="102.612" r="85" fill="url(#paint0_radial_495_2)"/>
<g filter="url(#filter0_d_495_2)">
<path d="M96.6276 68.0037H98.6287V47.7588H96.6276V68.0037Z" fill="#31283C"/>
<path d="M77.2061 119.027H79.2064V99.1473H77.2061V119.027Z" fill="#31283C"/>
<path d="M97.9096 76.6541C99.343 81.6639 102.471 90.7638 107.573 96.5544C108.208 97.2756 108.06 98.3882 107.248 98.9055C104.147 100.888 96.91 104.573 90.6913 100.646C84.4599 96.7115 91.3915 82.7287 95.0328 76.3124C95.7201 75.1015 97.5256 75.3155 97.9096 76.6541Z" fill="#FEFEFE"/>
<path d="M96.4001 76.194C96.2016 76.194 95.8433 76.2546 95.6209 76.6479C92.3141 82.4725 85.2511 96.415 91.0516 100.075C97.0084 103.834 104.107 100.111 106.884 98.336C107.103 98.1964 107.246 97.9759 107.283 97.7177C107.318 97.4596 107.24 97.1978 107.067 97.0012C101.862 91.0966 98.688 81.8349 97.261 76.8399C97.1085 76.3098 96.6445 76.2133 96.5067 76.1968C96.4819 76.194 96.446 76.1922 96.4019 76.1922L96.4001 76.194ZM96.7989 103.05C94.6599 103.05 92.4409 102.552 90.3304 101.219C83.7883 97.0902 90.0998 83.6329 94.443 75.9799C94.8978 75.1779 95.7487 74.7479 96.6657 74.8573C97.579 74.9666 98.3067 75.584 98.5584 76.4678C99.956 81.3535 103.051 90.402 108.079 96.1063C108.515 96.6015 108.711 97.2565 108.622 97.9061C108.529 98.551 108.161 99.1225 107.612 99.4752C105.574 100.778 101.364 103.049 96.798 103.049L96.7989 103.05Z" fill="#31283C"/>
<path d="M137.841 22.1825L129.02 16.3918C128.447 16.0464 126.195 16.6197 125.992 17.5632L128.865 34.9904C128.668 35.91 128.957 36.9178 129.517 37.255L133.881 39.8991C134.451 40.2418 135.081 39.7649 135.29 38.8343L138.491 24.4701C138.697 23.5459 138.408 22.5243 137.842 22.1825H137.841Z" fill="#31283C"/>
<path d="M126.694 17.6421L129.554 35.0059L129.528 35.1317C129.373 35.8548 129.627 36.5291 129.87 36.6761L134.233 39.3202C134.329 39.3349 134.526 39.1566 134.631 38.6853L137.833 24.3239C137.996 23.5926 137.74 22.9119 137.493 22.763L137.473 22.7483L128.651 16.9576C128.494 16.9135 127.684 17.0192 127.07 17.3564C126.856 17.473 126.744 17.5778 126.695 17.643L126.694 17.6421ZM134.262 40.6863C134.011 40.6863 133.763 40.6156 133.534 40.4768L129.169 37.8328C128.39 37.3605 127.977 36.1524 128.181 34.9811L125.308 17.5456L125.336 17.4225C125.46 16.8437 125.952 16.354 126.758 16.004C127.349 15.7486 128.652 15.3793 129.371 15.8111L138.205 21.61C139.018 22.1107 139.427 23.3988 139.154 24.6179L135.953 38.9803C135.781 39.7557 135.362 40.3363 134.807 40.5733C134.629 40.6486 134.447 40.6863 134.264 40.6863H134.262Z" fill="#31283C"/>
<g filter="url(#filter1_d_495_2)">
<path d="M136.059 22.762L127.237 16.9713C126.664 16.6258 126.029 17.1137 125.826 18.0563L122.739 32.4728C122.542 33.3925 122.833 34.4012 123.39 34.7393L132.099 40.4758C132.666 40.8213 133.299 40.3445 133.506 39.4119L136.708 25.0505C136.914 24.1263 136.622 23.1019 136.059 22.7629V22.762Z" fill="url(#paint1_linear_495_2)"/>
</g>
<path d="M126.868 17.5353C126.809 17.5436 126.591 17.7181 126.488 18.1995L123.402 32.6161C123.247 33.3382 123.5 34.0153 123.744 34.1623L132.471 39.9126C132.529 39.9061 132.744 39.7362 132.847 39.2649L136.047 24.9025C136.212 24.1712 135.956 23.4886 135.71 23.3398L135.688 23.3269L126.867 17.5344L126.868 17.5353ZM132.479 41.2658C132.23 41.2658 131.98 41.1951 131.75 41.0545L123.021 35.3034C122.233 34.8275 121.819 33.544 122.081 32.3331L125.167 17.9166C125.335 17.1311 125.751 16.5422 126.311 16.2996C126.733 16.1168 127.185 16.1508 127.586 16.3915L136.421 22.1905C137.234 22.6912 137.64 23.9801 137.37 25.1965L134.169 39.5607C133.996 40.3333 133.578 40.914 133.022 41.1528C132.844 41.2282 132.662 41.2658 132.479 41.2658Z" fill="#31283C"/>
<path d="M128.283 35.3263L126.148 33.9895C125.362 33.4971 124.966 32.5591 125.166 31.6541L127.592 20.6111L128.913 20.8996L126.488 31.9426C126.411 32.2926 126.563 32.6528 126.864 32.843L129 34.1815L128.283 35.3253V35.3263Z" fill="#31283C"/>
<g filter="url(#filter2_d_495_2)">
<path d="M65.5889 153.935C65.5889 153.935 64.0113 152.953 63.7109 159.634C63.7109 159.634 67.1225 162.871 70.2364 161.287C74.5374 159.099 79.1646 152.199 79.1646 152.199C79.1646 152.199 80.2304 150.797 77.9977 149.756C75.7659 148.712 68.7442 151.837 68.7442 151.837L65.5889 153.936V153.935Z" fill="url(#paint2_linear_495_2)"/>
</g>
<path d="M64.4031 159.341C65.1611 159.967 67.697 161.819 69.9316 160.684C74.0232 158.603 78.5576 151.891 78.6044 151.822C78.6274 151.788 78.8011 151.539 78.7239 151.253C78.6439 150.947 78.2837 150.633 77.7141 150.368C76.3 149.708 71.6884 151.274 69.0725 152.431L65.6031 154.741L65.377 154.6C65.1933 154.789 64.5997 155.673 64.4049 159.342L64.4031 159.341ZM68.388 162.404C65.6875 162.404 63.3684 160.242 63.2462 160.127L63.0202 159.913L63.0349 159.604C63.2545 154.721 64.1476 153.699 64.7991 153.355C65.027 153.236 65.2557 153.195 65.4569 153.213L68.4707 151.219C69.2186 150.886 75.8397 148.006 78.2847 149.142C79.2669 149.6 79.8577 150.207 80.0387 150.94C80.2602 151.841 79.7594 152.532 79.7034 152.607C79.5334 152.864 74.9512 159.648 70.5445 161.89C69.8195 162.257 69.0927 162.404 68.388 162.404Z" fill="#31283C"/>
<g filter="url(#filter3_d_495_2)">
<path d="M87.4048 168.345C87.4048 168.345 85.8538 170.753 85.9237 174.632C85.9237 174.632 88.0884 178.696 94.6295 175.068C95.1523 174.777 95.711 174.559 96.2761 174.364C98.0154 173.771 101.745 172.084 102.709 168.344C103.978 163.418 93.8935 167.932 93.8935 167.932L87.4048 168.345Z" fill="url(#paint3_linear_495_2)"/>
</g>
<path d="M86.7111 174.308C86.8866 174.558 87.3681 175.139 88.2694 175.489C89.8452 176.104 91.9677 175.71 94.4136 174.35C94.9033 174.08 95.4436 173.847 96.1695 173.6C97.6754 173.086 101.274 171.516 102.168 168.05C102.319 167.464 102.277 167.068 102.047 166.87C101.025 166.005 96.8889 167.258 94.2841 168.423L94.0497 168.482L87.9276 168.871C87.5628 169.576 86.7019 171.537 86.713 174.308L86.7111 174.308ZM89.8792 177.127C89.2866 177.127 88.7243 177.049 88.195 176.892C86.2545 176.319 85.4734 174.883 85.4394 174.822L85.3641 174.68L85.3623 174.516C85.2888 170.478 86.8811 167.955 86.9481 167.852L87.1347 167.564L93.8439 167.139C95.2461 166.519 100.943 164.169 102.919 165.836C103.376 166.222 103.843 166.975 103.479 168.385C102.42 172.49 98.3214 174.292 96.6078 174.878C95.9627 175.098 95.4868 175.302 95.0715 175.532C93.1594 176.592 91.4191 177.126 89.8801 177.126L89.8792 177.127Z" fill="#31283C"/>
<path d="M83.216 115.392C83.216 115.392 82.0702 127.104 77.6801 135.121C77.6801 135.121 75.1304 145.427 74.3696 153.283C74.3255 153.748 74.1518 154.177 73.8477 154.532C72.8866 155.651 70.3846 157.645 65.7685 155.641C64.857 155.245 64.1679 154.446 63.8702 153.497C63.6717 152.86 63.6607 152.18 63.8389 151.537L67.3819 140.069C67.3819 140.069 68.4064 131.642 69.7387 126.133C71.0738 120.62 67.1972 109.225 70.0869 98.1364C72.9785 87.0474 75.599 85.0281 75.599 85.0281L85.1961 103.836L83.216 115.395V115.392Z" fill="#31283C"/>
<path d="M75.4532 86.229C74.5629 87.472 72.7142 90.7298 70.7406 98.3046C69.0564 104.764 69.7216 111.451 70.2563 116.827C70.6349 120.641 70.9638 123.936 70.3942 126.291C69.0839 131.698 68.0613 140.066 68.0521 140.15L68.0264 140.267L64.4815 151.736C64.3437 152.234 64.3538 152.781 64.5128 153.296C64.7581 154.078 65.3131 154.706 66.0362 155.02C70.1534 156.81 72.3752 155.206 73.3326 154.092C73.5402 153.849 73.6633 153.556 73.6946 153.218C74.4508 145.401 76.9968 135.063 77.0216 134.957L77.0841 134.796C81.3548 126.996 82.5272 115.44 82.5383 115.325L82.5447 115.276L84.4898 103.94L75.4532 86.228V86.229ZM69.4478 157.172C68.3268 157.172 67.0157 156.919 65.4978 156.261C64.4154 155.792 63.5857 154.857 63.2227 153.699C62.9838 152.936 62.9719 152.125 63.1851 151.356L66.7179 139.926C66.8117 139.153 67.8113 131.213 69.0784 125.974C69.5966 123.841 69.2796 120.654 68.9112 116.96C68.3663 111.48 67.6882 104.658 69.4303 97.9638C72.3448 86.7811 75.071 84.579 75.184 84.4908L75.8299 83.9946L85.8984 103.728L83.8825 115.484C83.8099 116.24 82.6274 127.432 78.3153 135.368C78.07 136.367 75.7527 146.005 75.0406 153.35C74.9818 153.961 74.7448 154.523 74.358 154.973C73.679 155.763 72.0967 157.172 69.4487 157.172L69.4478 157.172Z" fill="#31283C"/>
<path d="M95.8964 96.0384C96.3825 96.1909 96.728 96.6107 96.7767 97.1151C97.1975 101.421 98.9974 121.582 97.1763 134.781C95.3295 148.156 96.2373 163.768 96.434 166.992C96.4578 167.372 96.3191 167.727 96.0398 167.985C94.951 168.991 91.7828 171.099 86.5695 168.103C86.1799 167.879 85.9428 167.45 85.9428 167V164.654L85.9557 164.541C86.7183 157.286 85.8197 149.986 85.5027 142.697C85.352 139.224 85.5266 136.578 86.6273 133.328C86.7165 133.07 86.722 132.802 86.6384 132.544C85.8509 130.171 81.7503 117.464 80.8259 107.967C80.101 100.525 80.4005 95.2501 80.6394 92.8008C80.7175 91.9978 81.5196 91.4778 82.2868 91.7231L95.8955 96.0374L95.8964 96.0384Z" fill="#31283C"/>
<path d="M81.8987 92.3397C81.783 92.3397 81.6709 92.3738 81.5698 92.4381C81.4843 92.4941 81.3346 92.6273 81.3125 92.8653C81.0727 95.321 80.7824 100.538 81.4981 107.902C82.416 117.327 86.4745 129.903 87.2803 132.331C87.4098 132.722 87.4052 133.143 87.2692 133.545C86.1712 136.78 86.0371 139.434 86.1777 142.667C86.2604 144.552 86.3807 146.44 86.5029 148.326C86.8447 153.662 87.1985 159.18 86.6279 164.611L86.6151 164.726L86.6196 166.999C86.6196 167.213 86.7336 167.414 86.9072 167.514C91.7136 170.277 94.5739 168.414 95.5819 167.486C95.7096 167.367 95.773 167.21 95.7619 167.033C95.4183 161.419 94.8018 147.03 96.5053 134.686C98.3264 121.49 96.4887 101.127 96.1028 97.1805C96.0798 96.9434 95.9228 96.7533 95.6921 96.6798L82.0825 92.3655C82.0218 92.3462 81.9612 92.3379 81.8978 92.3379L81.8987 92.3397ZM91.6566 170.331C90.1589 170.331 88.3479 169.904 86.2328 168.689C85.6374 168.345 85.2662 167.698 85.2662 166.999L85.2837 164.467C85.8432 159.154 85.4913 153.694 85.1514 148.412C85.0319 146.518 84.9106 144.622 84.827 142.725C84.68 139.338 84.8224 136.545 85.9902 133.109C86.0316 132.986 86.0344 132.866 85.9967 132.755C85.1863 130.306 81.0847 117.601 80.1548 108.033C79.4253 100.554 79.7248 95.2392 79.9683 92.7348C80.0243 92.1505 80.3367 91.6305 80.8274 91.308C81.3217 90.9809 81.9272 90.8973 82.4932 91.0783L96.1028 95.3917C96.8461 95.6288 97.3745 96.2783 97.4498 97.0491C97.8394 101.023 99.6881 121.523 97.8467 134.871C96.1616 147.095 96.7717 161.378 97.1108 166.949C97.1494 167.531 96.9243 168.09 96.5016 168.48C95.739 169.184 94.1163 170.33 91.6585 170.33L91.6566 170.331Z" fill="#31283C"/>
<path d="M132.145 42.9361L137.926 38.8359C138.485 38.438 138.852 37.8262 138.938 37.1445L139.19 35.1077C139.328 33.9933 138.687 32.9285 137.637 32.5288L136.838 32.2229C136.184 31.9739 135.446 32.1265 134.947 32.6152L133.362 34.1531C133.295 34.2184 133.184 34.1972 133.147 34.1136L132.395 32.448L131.825 32.3332C131.218 33.4329 130.863 34.6502 130.796 35.9051C130.723 37.285 130.317 39.2107 128.762 40.2451C126.16 41.9824 129.868 42.959 129.868 42.959H132.068C132.095 42.959 132.122 42.9508 132.145 42.9361Z" fill="#FEFEFE"/>
<path d="M129.96 42.2849H131.894L137.536 38.2829C137.939 37.9981 138.206 37.5516 138.266 37.0619L138.519 35.027C138.621 34.2185 138.157 33.4523 137.397 33.1601L136.598 32.8569C136.192 32.7017 135.729 32.7981 135.417 33.1004L133.835 34.6402C133.646 34.823 133.379 34.9038 133.117 34.8542C132.857 34.8037 132.636 34.6301 132.53 34.3866L132.071 33.3705C131.721 34.1872 131.522 35.0499 131.474 35.9411C131.388 37.5103 130.914 39.6261 129.138 40.8094C128.591 41.1741 128.507 41.4047 128.513 41.447C128.551 41.6748 129.268 42.0837 129.962 42.2849H129.96ZM132.067 43.6363L129.695 43.6133C129.312 43.5132 127.391 42.9454 127.177 41.6711C127.059 40.9646 127.466 40.2977 128.386 39.6858C129.695 38.8121 130.051 37.1271 130.121 35.8685C130.192 34.5318 130.577 33.1959 131.23 32.0071L131.469 31.5735L132.867 31.8555L133.444 33.1298L134.472 32.1302C135.161 31.4642 136.184 31.2547 137.078 31.5937L137.876 31.8978C139.221 32.4104 140.037 33.7665 139.86 35.1932L139.606 37.2291C139.5 38.0946 139.029 38.8828 138.316 39.3872L132.349 43.6115L132.067 43.6363H132.067Z" fill="#31283C"/>
<g filter="url(#filter4_d_495_2)">
<path d="M127.928 46.5249L131.373 43.8689C131.995 43.3884 132.304 42.6047 132.173 41.8303L131.784 39.4903C131.622 38.5266 130.791 37.8201 129.812 37.8201C129.301 37.8201 128.81 38.0167 128.44 38.3667L123.567 42.9842C123.506 43.0402 123.51 43.1349 123.575 43.1854L127.764 46.5222C127.812 46.5598 127.881 46.5598 127.929 46.5249H127.928Z" fill="#659CD3"/>
</g>
<path d="M124.484 43.0445L127.853 45.7281L130.961 43.333C131.386 43.0041 131.595 42.4703 131.507 41.9393L131.118 39.5994C131.011 38.9581 130.462 38.4951 129.815 38.4951C129.472 38.4951 129.15 38.6227 128.905 38.8552L124.485 43.0427L124.484 43.0445ZM127.847 47.2265C127.671 47.2265 127.495 47.1696 127.346 47.0538L123.153 43.7124C122.971 43.57 122.857 43.3523 122.847 43.1153C122.836 42.881 122.929 42.6523 123.101 42.4915L127.974 37.8758C128.473 37.4027 129.125 37.1427 129.815 37.1427C131.126 37.1427 132.234 38.0835 132.453 39.3779L132.842 41.7179C133.012 42.7423 132.607 43.7703 131.787 44.4042L128.342 47.0584C128.198 47.1714 128.022 47.2265 127.848 47.2265H127.847Z" fill="#31283C"/>
<path d="M100.266 168.733C100.266 168.733 99.0906 167.27 96.8193 166.043L100.266 168.733Z" fill="#31283C"/>
<path d="M99.7385 169.158C99.7275 169.143 98.6074 167.78 96.4969 166.638L97.1382 165.45C99.5033 166.726 100.739 168.247 100.792 168.31L99.7385 169.159V169.158Z" fill="#31283C"/>
<path d="M77.7019 152.081C77.7019 152.081 76.9898 151.432 75.0916 150.877L77.7019 152.081Z" fill="#31283C"/>
<path d="M77.2515 152.587C77.2469 152.58 76.5854 152.019 74.9021 151.526L75.2788 150.229C77.2717 150.81 78.072 151.505 78.1575 151.582L77.2506 152.587H77.2515Z" fill="#31283C"/>
<g filter="url(#filter5_d_495_2)">
<path d="M63.7109 97.3787C63.7109 97.3787 66.743 76.193 66.7559 61.6451C66.7228 60.8173 66.7035 59.9905 66.6971 59.1692C66.6971 59.1646 66.6971 59.1609 66.6971 59.1563C66.6952 59.1241 66.6998 59.0975 66.6971 59.0653C66.6952 58.8788 66.6952 58.6905 66.6952 58.504C66.6952 58.2688 66.6888 58.0253 66.7035 57.8104C66.7559 54.3284 67.1179 51.0908 68.0422 48.8832C71.2269 41.2633 75.5977 44.3961 75.5977 44.3961L77.1845 45.6465L81.5076 50.5258L93.7923 49.4868C98.7668 48.6829 108.579 48.7031 113.891 47.9892C114.454 47.9112 115.005 47.8129 115.509 47.5464L126.579 40.0028C126.579 40.0028 129.08 38.9803 129.648 41.9285C130.021 43.934 129.148 45.9653 127.436 47.0724L115.52 56.4975C115.307 56.6362 115.08 56.7538 114.843 56.8457L102.227 61.8151C101.345 61.9483 100.589 62.5234 100.241 63.3438C99.7784 64.4288 99.1123 66.1744 98.4682 68.4289C98.4746 68.7266 96.1785 87.01 103.981 97.8987C103.981 97.8987 93.7941 111.16 71.1837 100.253C71.1837 100.253 67.2585 97.94 63.7137 97.3787H63.7109Z" fill="url(#paint4_linear_495_2)"/>
</g>
<path d="M64.4704 96.8319C67.9022 97.5522 71.3698 99.5789 71.5251 99.6708C91.4039 109.258 101.262 99.9408 103.126 97.8609C96.497 88.1335 97.3478 73.0407 97.775 68.5932L97.8173 68.2432C98.488 65.8922 99.1671 64.1365 99.6173 63.0781C100.049 62.0639 100.952 61.3519 102.044 61.1589L114.595 56.2162C114.785 56.1409 114.974 56.0444 115.152 55.9296L127.014 46.5412C128.556 45.5416 129.308 43.7942 128.983 42.0514C128.847 41.3412 128.577 40.8699 128.178 40.6568C127.688 40.3904 127.068 40.5511 126.885 40.6108L115.889 48.1067C115.206 48.4732 114.547 48.5826 113.98 48.6579C111.432 49.0015 107.818 49.1797 104.325 49.3515C100.468 49.5417 96.4786 49.7392 93.8995 50.1536L81.227 51.2285L76.7202 46.1415L75.1802 44.9261C75.1609 44.9132 74.0216 44.1341 72.5763 44.5595C71.0923 44.9895 69.7417 46.5752 68.6685 49.1457C67.8746 51.0457 67.441 53.9644 67.3803 57.8221C67.3693 58.0022 67.3721 58.1657 67.3739 58.3311L67.3766 59.169C67.3831 59.9775 67.4014 60.7988 67.4327 61.6201C67.4216 74.6549 64.9748 93.1653 64.4722 96.8319H64.4704ZM87.7497 105.2C83.129 105.2 77.5223 104.062 70.8884 100.862C70.8002 100.813 66.9788 98.5811 63.6049 98.0473L62.9479 97.9426L63.0416 97.2821C63.0728 97.0735 66.0673 75.9779 66.0802 61.6449C66.0489 60.8365 66.0278 60.0022 66.0214 59.1726L66.0186 58.3385C66.0186 58.1419 66.0168 57.9462 66.0296 57.7688C66.0903 53.7715 66.557 50.6828 67.4189 48.6239C68.6804 45.6068 70.2976 43.7988 72.2253 43.2522C74.3064 42.6633 75.9254 43.797 75.9925 43.8466L77.6923 45.198L81.7903 49.8219L93.7359 48.8113C96.3362 48.3905 100.363 48.1912 104.258 48.001C107.724 47.8292 111.308 47.6528 113.8 47.3184C114.376 47.2385 114.813 47.1512 115.191 46.95L126.32 39.3761C126.376 39.3549 127.668 38.8405 128.824 39.4661C129.593 39.8832 130.094 40.6687 130.313 41.8006C130.737 44.0882 129.752 46.3776 127.801 47.64L115.937 57.0302C115.631 57.2314 115.363 57.3674 115.088 57.4739L102.326 62.4837C101.665 62.5839 101.12 63.0046 100.859 63.6082C100.427 64.6225 99.779 66.301 99.1358 68.55C99.1312 68.5969 99.1257 68.6557 99.1193 68.7228C98.6985 73.1179 97.844 88.1821 104.528 97.5071L104.819 97.9132L104.513 98.312C104.437 98.4084 99.0375 105.201 87.7479 105.201L87.7497 105.2Z" fill="#31283C"/>
<path d="M94.0043 69.4697L92.7979 68.8606C95.1216 64.2808 100.821 61.6175 101.062 61.5054L101.628 62.7346C101.574 62.7603 96.113 65.318 94.0053 69.4706L94.0043 69.4697Z" fill="#31283C"/>
<path d="M112.32 52.6472L111.068 52.1319C112.707 48.174 114.947 47.0072 115.041 46.9595L115.656 48.1639C115.637 48.174 113.747 49.1984 112.32 52.6472Z" fill="#31283C"/>
<path d="M92.9903 103.014C90.629 103.014 87.8817 102.628 84.9489 101.474L85.4432 100.215C93.527 103.395 100.274 100.267 100.341 100.234L100.926 101.453C100.73 101.548 97.5946 103.014 92.9913 103.014H92.9903Z" fill="#31283C"/>
<path d="M94.9437 30.8856C95.0236 34.2482 94.5523 39.1027 91.6562 42.1464L88.2207 43.4969C88.2207 43.4969 88.466 46.0739 90.9211 47.3022L83.7993 50.1264L77.6597 48.6261L78.6419 44.7252C78.6419 44.7252 81.4664 41.2865 79.7464 35.6409C78.0282 29.9927 86.3068 23.3053 86.3068 23.3053L92.7624 24.6338C94.103 26.4501 94.8886 28.6274 94.9428 30.8856H94.9437Z" fill="#FEFEFE"/>
<path d="M78.485 48.1317L83.7526 49.4179L89.4741 47.1487C87.7706 45.687 87.5574 43.663 87.5464 43.5601L87.4986 43.053L91.2676 41.5739C93.8872 38.7203 94.3484 34.2057 94.2685 30.9011C94.2207 28.8937 93.5638 26.9433 92.3702 25.2427L86.4925 24.0318C85.1813 25.1646 78.9876 30.8157 80.397 35.4433C82.0335 40.8233 79.7879 44.3135 79.266 45.0237L78.484 48.1308L78.485 48.1317ZM83.849 50.8346L76.8403 49.1221L78.0255 44.4127L78.122 44.2951C78.2249 44.1674 80.6864 41.0392 79.1024 35.8374C77.2712 29.8225 85.5305 23.0635 85.8833 22.7787L86.1305 22.5775L93.154 24.0236L93.3065 24.2321C94.7619 26.2037 95.565 28.4996 95.6192 30.868C95.7056 34.4694 95.1735 39.4305 92.1478 42.6129L92.045 42.7195L88.9917 43.9203C89.1847 44.6323 89.7295 45.9497 91.2235 46.6985L92.5769 47.3728L83.8481 50.8346H83.849Z" fill="#31283C"/>
<path d="M93.4006 21.5329C93.4006 21.5329 91.6283 18.1244 87.4522 17.9232C83.2789 17.722 80.5776 21.068 80.5776 22.6473C80.5776 24.2266 90.522 24.6372 90.522 24.6372L93.4006 21.532V21.5329Z" fill="#FF9900"/>
<path d="M96.8136 25.723C96.8136 26.1878 96.7227 26.6417 96.5389 27.067C95.7175 28.9697 92.9196 33.8885 86.3077 32.6933L84.1687 32.8798C84.1687 32.8798 83.815 35.048 84.6842 37.0554C84.9966 37.7738 84.7853 38.6245 84.1044 39.0141C83.0147 39.6406 81.2082 40.1643 78.8891 38.9865C78.8891 38.9865 71.6369 28.2697 79.9219 21.6769C81.5648 20.3678 83.7626 19.9617 85.7766 20.569C87.5702 21.1101 90.1723 21.642 93.0014 21.3949C93.6492 21.3379 94.3025 21.4261 94.8868 21.7118C96.0675 22.2814 96.8154 23.4749 96.8154 24.785V25.7239L96.8136 25.723Z" fill="#FFBB00"/>
<path d="M79.3587 38.4629C81.3176 39.3954 82.8328 38.9654 83.7672 38.4298C84.1752 38.1946 84.2257 37.6967 84.064 37.3237C83.1259 35.1592 83.4861 32.8669 83.5008 32.7705L83.5844 32.2505L86.3399 32.0116L86.4281 32.0281C92.486 33.1223 95.0835 28.7373 95.9197 26.7988C96.0639 26.4616 96.1374 26.0987 96.1374 25.7221V24.7831C96.1374 23.7395 95.5319 22.7721 94.5929 22.3173C94.1445 22.1023 93.629 22.0178 93.0584 22.0665C90.0768 22.3283 87.347 21.7468 85.581 21.2148C83.7682 20.6663 81.8092 21.0375 80.34 22.2061C73.1401 27.938 78.5612 37.1941 79.3578 38.4619L79.3587 38.4629ZM81.6108 40.3692C80.7186 40.3692 79.7023 40.1579 78.5832 39.5901L78.4279 39.5102L78.3296 39.366C78.2543 39.253 70.8265 28.0529 79.4984 21.1487C81.313 19.7054 83.7333 19.2451 85.9715 19.9213C87.6245 20.4174 90.1761 20.9603 92.9427 20.7215C93.7466 20.6461 94.5221 20.7821 95.1828 21.1C96.5867 21.7789 97.4918 23.225 97.4918 24.7831V25.7221C97.4918 26.2834 97.3815 26.8264 97.161 27.3353C96.413 29.0726 93.4168 34.6153 86.2784 33.3759L84.789 33.5036C84.7504 34.2156 84.7697 35.5459 85.3081 36.7844C85.7648 37.8446 85.3945 39.0536 84.4426 39.6002C83.7369 40.0063 82.7777 40.3692 81.6126 40.3692H81.6108Z" fill="#31283C"/>
<path d="M87.1975 37.9815C86.4808 37.4991 86.0581 36.9001 85.9405 36.1992C85.7622 35.1343 86.3788 34.2818 86.4495 34.189L87.5283 35.0039L86.988 34.5969L87.531 34.9993C87.5283 35.0039 87.1874 35.4789 87.2756 35.9842C87.3316 36.3002 87.5595 36.5933 87.95 36.8551L87.1975 37.9806V37.9815Z" fill="#31283C"/>
<path d="M90.9071 22.1402C89.4783 22.1402 86.0401 22.0143 83.5271 20.9119L84.0729 19.6735C86.9598 20.9404 91.463 20.7796 91.509 20.7777L91.5632 22.1292C91.5218 22.1319 91.2848 22.1402 90.9071 22.1402Z" fill="#31283C"/>
<path d="M79.5393 37.3681C77.2762 34.4668 78.1252 29.672 78.161 29.4717L79.4933 29.7151C79.4851 29.7592 78.7179 34.1167 80.6061 36.5357L79.5393 37.3681Z" fill="#31283C"/>
<path d="M83.7765 33.4294C83.7012 33.377 81.9517 32.1028 82.4001 29.8593L83.7269 30.1257C83.4522 31.4964 84.5189 32.2985 84.5648 32.3315L83.7765 33.4294Z" fill="#31283C"/>
<path d="M93.7911 49.4876C93.7911 49.4876 93.9041 47.3525 89.468 47.4673C85.0328 47.5812 80.0749 47.9313 78.9732 43.4718L79.2433 42.69C79.2433 42.69 75.4945 42.2361 75.5993 45.5334C75.7068 48.8307 78.2078 51.4481 83.5526 51.5611C88.9002 51.6741 93.7902 49.4867 93.7902 49.4867L93.7911 49.4876Z" fill="#FEFEFE"/>
<path d="M78.2924 43.3717C77.8082 43.4241 77.2238 43.5711 76.8122 43.9496C76.43 44.3014 76.2526 44.8132 76.2765 45.5105C76.3822 48.8289 79.0403 50.7885 83.5683 50.885C87.7049 50.9815 91.5704 49.6365 92.9679 49.0935C92.9256 49.031 92.8715 48.9658 92.7998 48.8987C92.4791 48.5937 91.6301 48.0838 89.4847 48.1426L88.8837 48.1601C84.4835 48.2813 79.5007 48.4219 78.3172 43.6372L78.2695 43.4424L78.2924 43.3735V43.3717ZM83.9643 52.2419C83.8238 52.2419 83.6814 52.2401 83.5408 52.2373C78.2759 52.1243 75.0554 49.6273 74.9249 45.5546C74.8891 44.4503 75.218 43.5747 75.9035 42.9482C77.1862 41.775 79.2397 42.0074 79.3233 42.0175L80.1549 42.1186L79.6789 43.4994C80.6896 47.0337 84.6489 46.9226 88.8461 46.8077L89.4515 46.7912C91.5088 46.7342 92.9798 47.1403 93.8077 47.991C94.4904 48.6929 94.4702 49.4408 94.4656 49.5225L94.4445 49.935L94.0677 50.1032C93.8665 50.1932 89.2274 52.2419 83.9643 52.2419Z" fill="#31283C"/>
<path d="M94.2907 49.4142C94.2907 49.4142 85.7687 49.5584 83.127 57.9969L78.6551 53.9802C78.6551 53.9802 83.4698 46.8032 89.1738 45.8266C94.8751 44.8527 95.6442 49.2461 95.6442 49.2461L94.2907 49.4142Z" fill="url(#paint5_linear_495_2)"/>
<path d="M79.5573 53.881L82.8283 56.8182C85.797 49.2654 93.5822 48.7674 94.2345 48.7399L94.7463 48.6774C94.2768 47.642 92.9252 45.8744 89.2876 46.4945C84.7615 47.2699 80.7279 52.2999 79.5573 53.882V53.881ZM83.4586 59.2032L77.7656 54.0914L78.0927 53.6045C78.2966 53.3013 83.1379 46.1757 89.0597 45.1614C95.3629 44.0865 96.301 49.0798 96.3111 49.1294L96.4333 49.8295L94.3025 50.0895C93.9754 50.0977 86.2335 50.343 83.7738 58.199L83.4595 59.2032H83.4586Z" fill="#31283C"/>
<path d="M98.8648 77.7255C98.8648 77.7255 98.8373 78.7599 97.5197 80.8675C94.9194 85.0265 90.5797 89.7846 83.378 90.7079L82.4913 94.1761C82.4913 94.1761 90.3675 95.7636 98.8051 83.868C98.8051 83.868 102.875 78.9363 98.8639 77.7255H98.8648Z" fill="url(#paint6_linear_495_2)"/>
<path d="M83.3481 93.5633C85.3805 93.5946 91.6607 92.7778 98.2561 83.4748C98.8239 82.7794 100.276 80.6259 99.8925 79.3645C99.8089 79.0833 99.6261 78.8537 99.344 78.669C99.1575 79.2515 98.7964 80.1022 98.0944 81.2249C94.4567 87.0422 89.6908 90.435 83.9223 91.3142L83.3481 93.5624V93.5633ZM83.5218 94.9267C82.8409 94.9267 82.4302 94.8514 82.3585 94.8367L81.663 94.6961L82.8363 90.096L83.2911 90.0372C88.8436 89.3252 93.4387 86.1198 96.9477 80.5092C98.1146 78.6423 98.1881 77.7043 98.1881 77.6942L98.2441 76.8453L99.06 77.0787C100.472 77.5059 100.996 78.3456 101.189 78.9768C101.849 81.1578 99.5884 83.9838 99.3274 84.298C92.5557 93.849 86.0936 94.9285 83.5209 94.9285L83.5218 94.9267Z" fill="#31283C"/>
<path d="M75.0248 52.7179C75.0248 52.7179 74.83 45.6869 77.6168 43.8053C79.0373 42.8462 76.3277 41.13 73.4986 43.9606C70.6723 46.7884 70.9342 51.8561 70.9342 51.8561L75.0248 52.7179Z" fill="url(#paint7_linear_495_2)"/>
<path d="M71.6065 51.3087L74.351 51.8875C74.3969 49.8755 74.7681 44.9125 77.2361 43.2469C77.249 43.2386 77.2591 43.2304 77.2673 43.2239C77.1874 43.1762 77.0431 43.1155 76.8153 43.0916C76.501 43.0577 75.3544 43.0604 73.978 44.4385C71.895 46.5194 71.6294 50.0032 71.6065 51.3087ZM75.7237 53.5568L70.2843 52.413L70.2567 51.8939C70.2457 51.6743 70.0151 46.4909 73.0206 43.4821C74.7498 41.754 76.4863 41.5151 77.5448 41.8734C78.1788 42.0875 78.5987 42.5312 78.6695 43.0586C78.7366 43.5556 78.4894 44.0306 77.9932 44.3687C75.9644 45.7385 75.6502 50.8493 75.7008 52.7005L75.7237 53.5577V53.5568Z" fill="#31283C"/>
<g filter="url(#filter6_d_495_2)">
<path d="M83.5798 59.2039C83.9611 60.5773 83.927 62.0298 83.6422 63.4272C82.8548 67.2822 80.9924 78.2287 83.0377 87.1816C85.3402 97.2563 76.1308 103.192 63.3987 98.3808C59.6627 96.9715 56.5764 94.0968 55.3066 90.3108C54.6487 88.3502 54.3914 86.0112 55.1035 83.4057C56.7648 77.3256 60.8636 64.5545 62.6002 59.1873C63.4712 56.4909 65.2381 54.1279 67.7024 52.726C69.6108 51.6428 72.0485 51.0502 74.7995 52.2087C80.0799 54.4284 82.6793 55.9525 83.5798 59.2039Z" fill="#31283C"/>
</g>
<path d="M71.7814 52.2549C70.53 52.2549 69.2795 52.6095 68.0372 53.3151C65.8026 54.5848 64.1 56.7429 63.2428 59.3952C61.5411 64.6558 57.4055 77.5427 55.7544 83.5851C55.1608 85.7579 55.2261 87.949 55.9464 90.0961C57.1078 93.5532 59.9084 96.3415 63.6361 97.749C70.2507 100.249 76.3085 99.9007 79.8396 96.823C82.3709 94.6153 83.2713 91.2463 82.3773 87.3298C80.3256 78.3456 82.1155 67.5277 82.981 63.2933C83.2695 61.8684 83.253 60.5528 82.9305 59.3842C82.1118 56.4388 79.7863 55.0395 74.537 52.8309C73.6237 52.4451 72.704 52.254 71.7824 52.254L71.7814 52.2549ZM71.9193 100.752C69.2124 100.752 66.2354 100.179 63.1592 99.0159C59.0502 97.4633 55.9556 94.3718 54.6646 90.5288C53.8579 88.1208 53.7844 85.666 54.4505 83.2295C56.1081 77.1595 60.2502 64.2479 61.9564 58.979C62.9203 56.006 64.8416 53.576 67.3683 52.1401C69.9126 50.6949 72.4972 50.5084 75.0607 51.5852C80.6251 53.9251 83.2695 55.555 84.2315 59.024C84.6147 60.4003 84.6377 61.9272 84.3041 63.5643C83.4579 67.7124 81.702 78.3052 83.6968 87.0312C84.7066 91.4539 83.6527 95.2923 80.7299 97.8418C78.5128 99.7739 75.4476 100.751 71.9193 100.751V100.752Z" fill="#31283C"/>
<path d="M65.2927 99.025C75.8049 100.738 73.8432 87.3178 73.7449 80.6534C73.6153 71.8116 78.4447 63.8831 76.8818 59.5917C75.3207 55.305 67.1864 53.0615 67.1662 53.0569C67.4243 52.8786 67.428 52.8842 67.7027 52.7298C69.6111 51.6448 72.0487 51.0541 74.7997 52.2098C80.0802 54.4313 82.6805 55.9564 83.5809 59.2077C83.9622 60.5803 83.9282 62.0337 83.6434 63.4311C82.8559 67.286 80.9935 78.2307 83.0388 87.1836C85.2265 96.7512 77.0269 102.578 65.2936 99.025H65.2927Z" fill="url(#paint8_linear_495_2)"/>
<path d="M69.9622 99.2913C74.1273 99.7121 77.7337 98.7943 80.0555 96.6289C82.4188 94.4249 83.242 91.123 82.3774 87.3351C80.3257 78.351 82.1155 67.5321 82.9811 63.2959C83.2696 61.871 83.2531 60.5572 82.9305 59.3886C82.1119 56.4413 79.7863 55.0412 74.5371 52.8335C72.6599 52.0462 70.757 52.0673 68.8679 52.8979C71.4158 53.8092 76.2764 55.9544 77.5168 59.3592C78.387 61.7442 77.4893 65.0056 76.4528 68.7825C75.4724 72.3508 74.3597 76.3959 74.4222 80.6432C74.4351 81.4222 74.47 82.2914 74.5104 83.222C74.7263 88.2796 75.0195 95.2086 71.5582 98.2798C71.0823 98.7024 70.5503 99.0396 69.9641 99.2923L69.9622 99.2913ZM71.8743 100.738C69.7482 100.738 67.4575 100.386 65.0943 99.6698L65.4003 98.3561C67.6937 98.7319 69.411 98.3726 70.6578 97.2683C73.6394 94.6224 73.361 88.0655 73.157 83.2781C73.1175 82.3373 73.0798 81.4535 73.0669 80.6634C73.0017 76.2214 74.142 72.0798 75.1453 68.4242C76.1221 64.8706 76.9664 61.8012 76.2452 59.8213C74.8228 55.9186 67.0698 53.733 66.9926 53.71L65.5886 53.3324L66.7785 52.501C67.011 52.3393 67.0633 52.3108 67.2287 52.218L67.3675 52.1408C69.909 50.6957 72.4945 50.5092 75.0599 51.5878C80.6243 53.9277 83.2687 55.5575 84.2307 59.0248C84.6138 60.401 84.6368 61.9289 84.3033 63.5651C83.457 67.7149 81.7012 78.3059 83.6959 87.0319C84.6717 91.3095 83.707 95.068 80.9762 97.6156C78.7683 99.6754 75.5698 100.737 71.8743 100.737V100.738Z" fill="#31283C"/>
<path d="M74.7993 52.2087C80.0817 54.4284 82.6802 55.9525 83.5806 59.2039C83.7717 59.8911 83.859 60.5976 83.8608 61.305C83.8608 61.305 81.9414 63.4272 76.8539 64.4167C77.237 62.525 77.3546 60.886 76.8814 59.5879C75.3203 55.3011 67.1859 53.0595 67.1657 53.0549C67.4239 52.8748 67.4276 52.8831 67.7023 52.726C69.6107 51.6428 72.0483 51.0502 74.7993 52.2087Z" fill="url(#paint9_linear_495_2)"/>
<path d="M68.8671 52.8959C71.4214 53.8091 76.2774 55.9524 77.516 59.3572C77.9148 60.444 77.9726 61.7606 77.697 63.541C81.0121 62.7381 82.6651 61.4813 83.1778 61.0247C83.1567 60.4523 83.073 59.902 82.9279 59.3838C82.111 56.4366 79.7855 55.0392 74.5362 52.8306C72.6609 52.0405 70.7543 52.0635 68.8671 52.8949V52.8959ZM75.988 65.2737L76.1892 64.2815C76.6063 62.2328 76.6229 60.8556 76.2452 59.8202C74.8183 55.9046 67.0726 53.73 66.9945 53.7098L65.5905 53.3341L66.7758 52.5008C67.0064 52.3419 67.0606 52.3106 67.2242 52.2197L67.3666 52.1398C69.9081 50.6946 72.4955 50.5063 75.059 51.5848C80.6234 53.9248 83.2678 55.5546 84.2298 59.0237C84.4292 59.7421 84.5312 60.5093 84.5358 61.303L84.5377 61.5649L84.3594 61.7596C84.2758 61.8515 82.2296 64.0592 76.9803 65.0799L75.987 65.2728L75.988 65.2737Z" fill="#31283C"/>
<path d="M72.5284 68.0933C72.1278 69.2288 71.6316 70.8237 71.2751 72.5831C71.0822 73.5284 70.5125 74.3562 69.6846 74.8505C68.786 75.387 67.6917 75.4798 66.7159 75.104L58.6265 71.985C57.1298 71.4071 56.2716 69.8398 56.5812 68.2669C57.025 65.9959 57.8088 62.8998 58.9867 61.3132C60.9806 58.625 65.141 60.5313 65.141 60.5313C65.141 60.5313 68.6905 61.7156 71.0813 63.3812C72.5789 64.4249 73.1339 66.3735 72.5293 68.0951L72.5284 68.0933Z" fill="url(#paint10_linear_495_2)"/>
<path d="M62.1233 60.5552C61.1742 60.5552 60.1874 60.8235 59.5295 61.7147C58.6722 62.8695 57.8618 65.2407 57.2416 68.3956C56.9963 69.6515 57.6799 70.8954 58.8679 71.3538L66.9582 74.4729C67.7438 74.777 68.613 74.7035 69.3361 74.2699C69.9894 73.8785 70.4552 73.2142 70.6114 72.4499C70.9872 70.606 71.5128 68.9413 71.8895 67.8701C72.4022 66.4029 71.9125 64.7841 70.6914 63.9352C68.4118 62.3467 64.9607 61.1846 64.9248 61.1717C64.8642 61.146 63.5328 60.5552 62.1233 60.5552ZM67.9423 76.0108C67.4479 76.0108 66.9499 75.919 66.4712 75.7343L58.3819 72.6152C56.5801 71.9198 55.5418 70.0364 55.9148 68.1356C56.3797 65.7662 57.1929 62.5902 58.4416 60.9071C60.7359 57.8175 65.2308 59.8304 65.421 59.9167C65.501 59.9397 69.0228 61.123 71.4659 62.8245C73.1823 64.0206 73.8797 66.2788 73.164 68.3175C72.8019 69.3483 72.2938 70.9487 71.9355 72.7172C71.7058 73.8546 71.0093 74.8441 70.0289 75.4302C69.3857 75.8133 68.6672 76.0108 67.9423 76.0108Z" fill="#31283C"/>
<path d="M56.58 68.2616C57.0238 65.9924 57.8076 62.8935 58.9855 61.3078C59.8336 60.164 61.074 59.8553 62.2198 59.8746C63.4694 60.3689 65.4218 61.2215 66.9177 62.2651C68.4154 63.3088 68.9713 65.2565 68.3648 66.9791C67.9651 68.1146 67.4708 69.7086 67.1125 71.4689C66.9195 72.4133 66.3499 73.2411 65.522 73.7354C65.1361 73.9632 64.7134 74.0955 64.2816 74.1607L58.6244 71.9797C57.1277 71.4037 56.2695 69.8373 56.5791 68.2616H56.58Z" fill="url(#paint11_linear_495_2)"/>
<path d="M62.0883 60.5508C60.9554 60.5572 60.0963 60.9468 59.5303 61.7102C58.673 62.8651 57.8626 65.2363 57.2424 68.3939C56.9971 69.6489 57.6807 70.891 58.8687 71.3504L64.3504 73.4644C64.6628 73.4019 64.9394 73.2981 65.1764 73.1566C65.8316 72.7643 66.2974 72.101 66.4518 71.3357C66.8249 69.4918 67.3531 67.828 67.7299 66.7558C68.2426 65.2896 67.7528 63.6717 66.5336 62.8219C65.1627 61.8664 63.382 61.068 62.0892 60.5526L62.0883 60.5508ZM64.2044 74.8562L58.3818 72.6099C56.5799 71.9145 55.5416 70.0311 55.9147 68.1303C56.3796 65.7636 57.1928 62.5849 58.4415 60.9045C59.2905 59.7607 60.5575 59.1746 62.2325 59.1994L62.4668 59.2453C63.835 59.7855 65.7838 60.651 67.3045 61.7093C69.0208 62.9055 69.7182 65.1646 69.0043 67.2024C68.6423 68.2332 68.1351 69.8363 67.7749 71.6021C67.5434 72.7395 66.8478 73.7289 65.8674 74.3151C65.4383 74.5733 64.9376 74.7441 64.3817 74.8286L64.2034 74.8562H64.2044Z" fill="#31283C"/>
<path d="M76.9268 96.4361C75.1222 96.4361 73.0153 96.0356 70.7541 94.844L71.3826 93.6478C77.3458 96.788 82.0501 93.8086 82.2468 93.6809L82.9883 94.81C82.8413 94.9083 80.4615 96.4352 76.9259 96.4352L76.9268 96.4361Z" fill="#31283C"/>
<path d="M57.8335 61.3942C57.5422 62.1503 57.919 62.9982 58.6761 63.2895C59.4323 63.5807 60.2831 63.204 60.5744 62.4479C60.8656 61.6918 60.488 60.8429 59.7327 60.5517C58.9756 60.2614 58.1257 60.6381 57.8345 61.3942H57.8335Z" fill="#FEFEFE"/>
<path d="M58.4665 61.634C58.3094 62.0429 58.5143 62.5023 58.9204 62.6584C59.1198 62.7365 59.333 62.7273 59.5259 62.6437C59.7179 62.5574 59.8677 62.403 59.9431 62.2055C60.1002 61.7967 59.8971 61.3382 59.491 61.1811C59.2925 61.104 59.0757 61.1104 58.8855 61.1958C58.6907 61.2822 58.5419 61.4374 58.4665 61.6331V61.634ZM59.2062 64.0641C58.9461 64.0641 58.6871 64.0163 58.4353 63.9198C57.3327 63.4963 56.7814 62.2542 57.205 61.1499V61.148C57.4099 60.6143 57.8123 60.1926 58.3361 59.9601C58.8598 59.7268 59.4423 59.7148 59.9762 59.9206C60.5082 60.1255 60.9317 60.5279 61.1642 61.0498C61.3976 61.5734 61.4123 62.1559 61.2064 62.6897C61.0006 63.2243 60.5991 63.647 60.0754 63.8803C59.797 64.0034 59.503 64.0641 59.2053 64.0641H59.2062Z" fill="#31283C"/>
<path d="M55.8147 70.3602L56.0573 70.4548C56.7464 70.7203 57.521 70.3777 57.7865 69.6886L59.5654 65.0666C59.8318 64.3775 59.4873 63.6021 58.7991 63.3375L58.5556 63.2438C57.8674 62.9774 57.0928 63.321 56.8273 64.01L55.0457 68.6321C54.782 69.3212 55.1256 70.0965 55.8147 70.3602Z" fill="#FEFEFE"/>
<path d="M56.0555 69.7306L56.2981 69.8243C56.6399 69.9539 57.023 69.7867 57.1553 69.4431L58.9342 64.8237C59.0665 64.482 58.8965 64.0989 58.5547 63.9684L58.3121 63.8738C58.1458 63.8113 57.9685 63.8159 57.8049 63.8876C57.6441 63.9583 57.5219 64.0906 57.4576 64.2541L55.6788 68.8753C55.6135 69.0416 55.6199 69.2207 55.6888 69.3824C55.7624 69.5441 55.8928 69.6672 56.0564 69.7306H56.0555ZM56.5351 71.2199C56.2934 71.2199 56.0509 71.1776 55.8138 71.0857L55.5685 70.9939C55.0678 70.7991 54.6717 70.4224 54.454 69.9318C54.2371 69.4394 54.2215 68.8909 54.4145 68.3902L56.196 63.7681C56.389 63.2674 56.7666 62.8714 57.2582 62.651C57.7507 62.4332 58.2974 62.4213 58.7982 62.6133L59.0417 62.707C60.0763 63.1057 60.5963 64.2725 60.1985 65.3097L58.4169 69.9309C58.1091 70.7293 57.3446 71.2199 56.536 71.2199H56.5351Z" fill="#31283C"/>
<path d="M80.7049 72.6061C80.772 73.4145 81.4822 74.0136 82.2917 73.9447C83.0984 73.8776 83.6974 73.1674 83.6304 72.3608C83.5615 71.5523 82.8531 70.9533 82.0445 71.0204C81.236 71.0893 80.636 71.7994 80.7049 72.6061Z" fill="#FEFEFE"/>
<path d="M82.1676 71.6932C82.1446 71.6932 82.1235 71.6932 82.1005 71.696C81.6668 71.7318 81.3425 72.1149 81.3774 72.5504C81.3967 72.7617 81.4941 72.9528 81.6558 73.0897C81.8194 73.2257 82.016 73.2927 82.2347 73.2735C82.4442 73.2542 82.6371 73.1568 82.7731 72.9951C82.9091 72.8334 82.9743 72.6285 82.9578 72.419C82.922 72.0065 82.5737 71.6942 82.1676 71.6942V71.6932ZM82.163 74.6286C81.6586 74.6286 81.1743 74.4522 80.7848 74.1214C80.3465 73.753 80.0782 73.2349 80.0304 72.6625C79.9817 72.0929 80.16 71.538 80.5284 71.0997C80.8969 70.6615 81.4141 70.3951 81.9866 70.3473C83.1682 70.2426 84.2037 71.1246 84.3039 72.3024C84.3517 72.8738 84.1743 73.4296 83.8059 73.8669C83.4347 74.3024 82.9174 74.5707 82.3468 74.6184C82.2843 74.623 82.2227 74.6276 82.1621 74.6276L82.163 74.6286Z" fill="#31283C"/>
<path d="M82.8034 81.5585L83.0616 81.5355C83.7984 81.4749 84.3452 80.8272 84.2827 80.0895L83.8655 75.1559C83.8049 74.42 83.1571 73.8734 82.4221 73.934L82.162 73.957C81.4242 74.0176 80.8803 74.6653 80.9409 75.4021L81.358 80.3366C81.4187 81.0716 82.0665 81.6182 82.8034 81.5576V81.5585Z" fill="#FEFEFE"/>
<path d="M82.5345 74.6075C82.5152 74.6075 82.4968 74.6075 82.4784 74.6102L82.2193 74.6313C81.8545 74.6626 81.5844 74.9832 81.6156 75.3461L82.03 80.2824C82.0447 80.4579 82.1283 80.6177 82.2634 80.7325C82.3994 80.8455 82.5712 80.8998 82.7448 80.8851L83.0049 80.8639C83.3697 80.8327 83.6398 80.512 83.6104 80.1492L83.1933 75.2138C83.1639 74.8702 82.8744 74.6084 82.5354 74.6084L82.5345 74.6075ZM82.6851 82.2402C82.211 82.2402 81.7562 82.0748 81.3905 81.7643C80.978 81.417 80.728 80.9301 80.6821 80.3944L80.2668 75.46C80.1721 74.3539 80.9982 73.3773 82.1044 73.2836L82.3645 73.2615C83.456 73.1761 84.4456 73.991 84.5393 75.0972L84.9547 80.0325C85.0493 81.1386 84.2233 82.1152 83.117 82.2098L82.8588 82.231C82.8 82.2374 82.7412 82.2392 82.6851 82.2392V82.2402Z" fill="#31283C"/>
<path d="M67.7492 68.1459C67.7345 68.133 66.0898 66.9368 62.3456 65.6818L62.7774 64.3993C66.7541 65.7342 68.4852 67.0076 68.5587 67.0599L67.7501 68.1459H67.7492Z" fill="#31283C"/>
</g>
<defs>
<filter id="filter0_d_495_2" x="32" y="0.612427" width="125.884" height="201.515" filterUnits="userSpaceOnUse" color-interpolation-filters="sRGB">
<feFlood flood-opacity="0" result="BackgroundImageFix"/>
<feColorMatrix in="SourceAlpha" type="matrix" values="0 0 0 0 0 0 0 0 0 0 0 0 0 0 0 0 0 0 127 0" result="hardAlpha"/>
<feOffset dx="-2" dy="5"/>
<feGaussianBlur stdDeviation="10"/>
<feColorMatrix type="matrix" values="0 0 0 0 0.506666 0 0 0 0 0.333333 0 0 0 0 1 0 0 0 1 0"/>
<feBlend mode="normal" in2="BackgroundImageFix" result="effect1_dropShadow_495_2"/>
<feBlend mode="normal" in="SourceGraphic" in2="effect1_dropShadow_495_2" result="shape"/>
</filter>
<filter id="filter1_d_495_2" x="105.677" y="10.8602" width="34.0972" height="43.7281" filterUnits="userSpaceOnUse" color-interpolation-filters="sRGB">
<feFlood flood-opacity="0" result="BackgroundImageFix"/>
<feColorMatrix in="SourceAlpha" type="matrix" values="0 0 0 0 0 0 0 0 0 0 0 0 0 0 0 0 0 0 127 0" result="hardAlpha"/>
<feOffset dx="-7" dy="4"/>
<feGaussianBlur stdDeviation="5"/>
<feColorMatrix type="matrix" values="0 0 0 0 1 0 0 0 0 0.733333 0 0 0 0 0 0 0 0 1 0"/>
<feBlend mode="normal" in2="BackgroundImageFix" result="effect1_dropShadow_495_2"/>
<feBlend mode="normal" in="SourceGraphic" in2="effect1_dropShadow_495_2" result="shape"/>
</filter>
<filter id="filter2_d_495_2" x="56.7109" y="145.543" width="33.7079" height="30.1807" filterUnits="userSpaceOnUse" color-interpolation-filters="sRGB">
<feFlood flood-opacity="0" result="BackgroundImageFix"/>
<feColorMatrix in="SourceAlpha" type="matrix" values="0 0 0 0 0 0 0 0 0 0 0 0 0 0 0 0 0 0 127 0" result="hardAlpha"/>
<feOffset dx="2" dy="5"/>
<feGaussianBlur stdDeviation="4.5"/>
<feColorMatrix type="matrix" values="0 0 0 0 1 0 0 0 0 0.431373 0 0 0 0 0.478431 0 0 0 1 0"/>
<feBlend mode="normal" in2="BackgroundImageFix" result="effect1_dropShadow_495_2"/>
<feBlend mode="normal" in="SourceGraphic" in2="effect1_dropShadow_495_2" result="shape"/>
</filter>
<filter id="filter3_d_495_2" x="78.9214" y="161.042" width="34.8978" height="28.5325" filterUnits="userSpaceOnUse" color-interpolation-filters="sRGB">
<feFlood flood-opacity="0" result="BackgroundImageFix"/>
<feColorMatrix in="SourceAlpha" type="matrix" values="0 0 0 0 0 0 0 0 0 0 0 0 0 0 0 0 0 0 127 0" result="hardAlpha"/>
<feOffset dx="2" dy="4"/>
<feGaussianBlur stdDeviation="4.5"/>
<feColorMatrix type="matrix" values="0 0 0 0 1 0 0 0 0 0.431373 0 0 0 0 0.478431 0 0 0 1 0"/>
<feBlend mode="normal" in2="BackgroundImageFix" result="effect1_dropShadow_495_2"/>
<feBlend mode="normal" in="SourceGraphic" in2="effect1_dropShadow_495_2" result="shape"/>
</filter>
<filter id="filter4_d_495_2" x="120.524" y="37.8201" width="20.6793" height="20.7307" filterUnits="userSpaceOnUse" color-interpolation-filters="sRGB">
<feFlood flood-opacity="0" result="BackgroundImageFix"/>
<feColorMatrix in="SourceAlpha" type="matrix" values="0 0 0 0 0 0 0 0 0 0 0 0 0 0 0 0 0 0 127 0" result="hardAlpha"/>
<feOffset dx="3" dy="6"/>
<feGaussianBlur stdDeviation="3"/>
<feColorMatrix type="matrix" values="0 0 0 0 0.411765 0 0 0 0 0.8 0 0 0 0 0.980392 0 0 0 1 0"/>
<feBlend mode="normal" in2="BackgroundImageFix" result="effect1_dropShadow_495_2"/>
<feBlend mode="normal" in="SourceGraphic" in2="effect1_dropShadow_495_2" result="shape"/>
</filter>
<filter id="filter5_d_495_2" x="53.7109" y="33.8313" width="78.0227" height="76.7263" filterUnits="userSpaceOnUse" color-interpolation-filters="sRGB">
<feFlood flood-opacity="0" result="BackgroundImageFix"/>
<feColorMatrix in="SourceAlpha" type="matrix" values="0 0 0 0 0 0 0 0 0 0 0 0 0 0 0 0 0 0 127 0" result="hardAlpha"/>
<feOffset dx="-4"/>
<feGaussianBlur stdDeviation="3"/>
<feColorMatrix type="matrix" values="0 0 0 0 1 0 0 0 0 0.6 0 0 0 0 0 0 0 0 0.6 0"/>
<feBlend mode="normal" in2="BackgroundImageFix" result="effect1_dropShadow_495_2"/>
<feBlend mode="normal" in="SourceGraphic" in2="effect1_dropShadow_495_2" result="shape"/>
</filter>
<filter id="filter6_d_495_2" x="36.6771" y="44.5774" width="49.1838" height="68.502" filterUnits="userSpaceOnUse" color-interpolation-filters="sRGB">
<feFlood flood-opacity="0" result="BackgroundImageFix"/>
<feColorMatrix in="SourceAlpha" type="matrix" values="0 0 0 0 0 0 0 0 0 0 0 0 0 0 0 0 0 0 127 0" result="hardAlpha"/>
<feOffset dx="-8" dy="3"/>
<feGaussianBlur stdDeviation="5"/>
<feColorMatrix type="matrix" values="0 0 0 0 0.580392 0 0 0 0 0.866667 0 0 0 0 1 0 0 0 0.8 0"/>
<feBlend mode="normal" in2="BackgroundImageFix" result="effect1_dropShadow_495_2"/>
<feBlend mode="normal" in="SourceGraphic" in2="effect1_dropShadow_495_2" result="shape"/>
</filter>
<radialGradient id="paint0_radial_495_2" cx="0" cy="0" r="1" gradientUnits="userSpaceOnUse" gradientTransform="translate(85 102.612) rotate(90) scale(85)">
<stop stop-color="#7795FF"/>
<stop offset="1" stop-color="#331E87"/>
</radialGradient>
<linearGradient id="paint1_linear_495_2" x1="122.677" y1="28.7243" x2="136.774" y2="28.7243" gradientUnits="userSpaceOnUse">
<stop stop-color="#00DBDE"/>
<stop offset="1" stop-color="#FC00FF"/>
</linearGradient>
<linearGradient id="paint2_linear_495_2" x1="63.7109" y1="155.633" x2="79.4188" y2="155.633" gradientUnits="userSpaceOnUse">
<stop stop-color="#F9D423"/>
<stop offset="1" stop-color="#FF4E50"/>
</linearGradient>
<linearGradient id="paint3_linear_495_2" x1="85.9214" y1="171.309" x2="102.819" y2="171.309" gradientUnits="userSpaceOnUse">
<stop stop-color="#F9D423"/>
<stop offset="1" stop-color="#FF4E50"/>
</linearGradient>
<linearGradient id="paint4_linear_495_2" x1="63.7109" y1="72.1945" x2="129.734" y2="72.1945" gradientUnits="userSpaceOnUse">
<stop stop-color="#F9D423"/>
<stop offset="1" stop-color="#FF4E50"/>
</linearGradient>
<linearGradient id="paint5_linear_495_2" x1="78.6551" y1="51.8413" x2="95.6442" y2="51.8413" gradientUnits="userSpaceOnUse">
<stop stop-color="#00DBDE"/>
<stop offset="1" stop-color="#FC00FF"/>
</linearGradient>
<linearGradient id="paint6_linear_495_2" x1="82.4913" y1="85.986" x2="100.631" y2="85.986" gradientUnits="userSpaceOnUse">
<stop stop-color="#00DBDE"/>
<stop offset="1" stop-color="#FC00FF"/>
</linearGradient>
<linearGradient id="paint7_linear_495_2" x1="70.9278" y1="47.5621" x2="78.0067" y2="47.5621" gradientUnits="userSpaceOnUse">
<stop stop-color="#00DBDE"/>
<stop offset="1" stop-color="#FC00FF"/>
</linearGradient>
<linearGradient id="paint8_linear_495_2" x1="65.2927" y1="75.8282" x2="83.8621" y2="75.8282" gradientUnits="userSpaceOnUse">
<stop stop-color="#00DBDE"/>
<stop offset="1" stop-color="#FC00FF"/>
</linearGradient>
<linearGradient id="paint9_linear_495_2" x1="67.1657" y1="57.997" x2="83.8608" y2="57.997" gradientUnits="userSpaceOnUse">
<stop stop-color="#00DBDE"/>
<stop offset="1" stop-color="#FC00FF"/>
</linearGradient>
<linearGradient id="paint10_linear_495_2" x1="56.5184" y1="67.6036" x2="72.7697" y2="67.6036" gradientUnits="userSpaceOnUse">
<stop stop-color="#00DBDE"/>
<stop offset="1" stop-color="#FC00FF"/>
</linearGradient>
<linearGradient id="paint11_linear_495_2" x1="56.5162" y1="67.0173" x2="68.6062" y2="67.0173" gradientUnits="userSpaceOnUse">
<stop stop-color="#00DBDE"/>
<stop offset="1" stop-color="#FC00FF"/>
</linearGradient>
</defs>
</svg>

