<svg width="170" height="171" viewBox="0 0 170 171" fill="none" xmlns="http://www.w3.org/2000/svg">
<circle cx="85" cy="85.6123" r="85" fill="url(#paint0_radial_1_345)"/>
<path d="M98.3017 71.9111L88.8002 77.3949C88.0946 77.8019 87.4983 78.7252 87.4983 79.4115V79.6384C87.4983 79.7532 87.5175 79.9581 87.6452 80.0316C87.7509 80.0904 87.9972 80.0923 88.3454 79.8911L97.8488 74.4072C98.5535 74.0011 99.1498 73.0769 99.1498 72.3907V72.1628C99.1498 72.0489 99.1305 71.844 99.0047 71.7714C98.9661 71.7494 98.91 71.7347 98.8374 71.7347C98.7069 71.7347 98.5241 71.7815 98.3008 71.9111H98.3017ZM87.1923 80.8162C86.8046 80.593 86.5923 80.1759 86.5923 79.6384V79.4115C86.5923 78.4073 87.3642 77.1772 88.3464 76.6076L97.8488 71.1237C98.4377 70.7847 99.023 70.737 99.4585 70.9859C99.8444 71.2092 100.057 71.6272 100.057 72.1628V72.3907C100.057 73.3957 99.2849 74.6259 98.3008 75.1937L88.7984 80.6747C88.4585 80.8723 88.1175 80.9733 87.806 80.9733C87.5818 80.9733 87.3733 80.9209 87.1914 80.8153L87.1923 80.8162Z" fill="#659CD3"/>
<path d="M68.4812 65.6525L55.8933 58.3864C53.9683 57.2747 54.2109 55.3353 56.4335 54.0509L67.9418 47.4067C70.1645 46.1242 73.5255 45.9846 75.4505 47.0953L88.0384 54.3614C89.9633 55.4731 89.7208 57.4134 87.499 58.696L75.9898 65.3401C73.7672 66.6236 70.4062 66.7623 68.4812 65.6516V65.6525Z" fill="#659CD3"/>
<path d="M68.7184 65.2408C70.511 66.2744 73.6671 66.1347 75.7537 64.9294L87.2611 58.2862C88.2782 57.6991 88.8608 56.9549 88.8608 56.2448C88.8608 55.5346 88.2838 55.0532 87.7995 54.7739L75.2126 47.5068C73.4218 46.4742 70.2666 46.612 68.179 47.8183L56.6699 54.4625C55.6527 55.0495 55.0702 55.7937 55.0702 56.502C55.0702 57.2122 55.6472 57.6936 56.1314 57.9738L68.7174 65.24L68.7184 65.2408ZM71.7514 66.8844C70.4476 66.8844 69.197 66.6134 68.2451 66.064L55.6573 58.7988C54.6659 58.2264 54.1201 57.4115 54.1201 56.5038C54.1201 55.4464 54.8763 54.4027 56.1957 53.6402L67.7049 46.9979C70.092 45.6179 73.6001 45.4801 75.6895 46.6855L88.2764 53.9516C89.2678 54.5231 89.8136 55.3389 89.8136 56.2457C89.8136 57.304 89.0574 58.3486 87.738 59.1093L76.2297 65.7526C74.9314 66.5023 73.3023 66.8853 71.7523 66.8853L71.7514 66.8844Z" fill="#FEFEFE"/>
<path d="M91.9697 52.1981L79.2008 44.8272C77.3264 43.7449 77.5607 41.8551 79.7254 40.6047C81.8893 39.3553 85.163 39.2202 87.0384 40.3025L99.8082 47.6734C101.683 48.7566 101.447 50.6454 99.2827 51.8958C97.1188 53.1462 93.8451 53.2822 91.9697 52.1981Z" fill="#659CD3"/>
<path d="M87.9304 41.3664L86.8002 40.7141C85.9145 40.2024 84.5896 39.9644 83.2049 40.0719L83.1323 39.1238C84.6998 39.0035 86.225 39.2837 87.2753 39.89L88.4054 40.5414L87.9304 41.3645V41.3664ZM77.9602 44.3945C77.6322 43.9746 77.4595 43.4895 77.4595 42.9934C77.4595 41.958 78.1982 40.9383 79.4873 40.1941C79.7768 40.0269 80.0891 39.8753 80.4199 39.743L80.7746 40.625C80.4852 40.7407 80.2123 40.874 79.9624 41.0173C78.9756 41.5869 78.4095 42.3081 78.4095 42.9934C78.4095 43.2792 78.5106 43.5539 78.71 43.8102L77.9602 44.3945ZM94.8068 45.3371L90.2228 42.6903L90.6988 41.8671L95.2828 44.5139L94.8077 45.3371H94.8068ZM84.8551 48.6418L80.271 45.9949L80.7461 45.1718L85.3301 47.8186L84.8551 48.6418ZM101.545 49.6377L100.595 49.5853C100.598 48.8246 100.039 48.3569 99.5691 48.0859L97.0993 46.661L97.5743 45.8378L100.045 47.2637C101.014 47.8241 101.548 48.6225 101.548 49.5099L101.545 49.6377ZM91.76 52.6272L92.0026 52.2174L91.7517 52.6226L87.1466 49.9656L87.6216 49.1424L92.2057 51.7893L91.76 52.6272ZM95.145 53.4053C94.9282 53.4053 94.7131 53.398 94.5008 53.3823L94.568 52.4361C96.1419 52.5491 97.8297 52.1871 99.0444 51.4852C99.1455 51.4282 99.2429 51.3667 99.3348 51.3051L99.8612 52.0952C99.7528 52.1678 99.6398 52.2395 99.5203 52.3075C98.3112 53.0066 96.7171 53.4053 95.145 53.4053Z" fill="#FEFEFE"/>
<g filter="url(#filter0_d_1_345)">
<path d="M69.6324 59.8232C69.6324 59.8232 70.7754 58.2706 72.4027 55.3141C72.3889 55.2232 70.8233 44.2205 72.6729 36.2405C72.6756 36.2323 72.6655 36.2249 72.6627 36.2323C72.2722 36.9948 66.9532 47.4434 65.2377 54.4211C63.4561 61.6662 63.4561 61.6661 63.4561 61.6661C63.4561 61.6661 65.3571 66.2984 69.9899 71.5241L72.1619 73.4589C72.3558 73.6316 72.6563 73.5994 72.8107 73.3909L74.7669 70.7275C74.8551 70.6072 74.878 70.4556 74.8256 70.3159C74.4103 69.2144 72.5222 64.2754 71.5785 62.9735C70.2857 61.1921 69.6324 59.8241 69.6324 59.8241V59.8232Z" fill="#F3A510"/>
</g>
<path d="M64.1069 61.6101C64.5075 62.504 66.4562 66.6052 70.4522 71.1143L72.4276 72.8672L74.213 70.4372C73.1425 67.6094 71.7679 64.2855 71.0788 63.3355C69.7695 61.5284 69.1043 60.1476 69.0767 60.0897L68.9177 59.7562L69.1365 59.4576C69.1484 59.4429 70.2326 57.9582 71.7643 55.1938C71.5943 53.9012 70.7407 46.8169 71.4151 40.1957C69.6078 44.025 66.946 50.0646 65.8388 54.5682L64.1069 61.6101ZM72.4571 74.1874C72.197 74.1874 71.9453 74.0928 71.7523 73.9201L69.5775 71.9852C64.8787 66.6888 62.9629 62.0934 62.8839 61.8995L62.8086 61.7139L64.6389 54.2742C66.3543 47.2901 71.5281 37.0923 72.1134 35.9522L72.3587 35.4698L73.3897 35.8318L73.2757 36.3766C71.4592 44.2133 72.9982 55.1175 73.0138 55.2269L73.0433 55.4327L72.944 55.6128C71.7156 57.8452 70.7664 59.2784 70.3529 59.8765C70.6166 60.3708 71.1964 61.3952 72.0785 62.6106C73.0451 63.9455 74.8671 68.6788 75.4037 70.0982C75.5287 70.4326 75.4763 70.8028 75.2649 71.0922L73.307 73.7575C73.1324 73.9963 72.8614 74.1507 72.5664 74.181C72.5297 74.1856 72.492 74.1883 72.4571 74.1883V74.1874Z" fill="#31283C"/>
<path d="M69.4771 60.4206C68.6474 60.2047 67.7396 60.3692 67.7323 60.3719L67.4961 59.1583C67.5448 59.1491 68.6777 58.936 69.7894 59.2263L69.4771 60.4206Z" fill="#31283C"/>
<g filter="url(#filter1_d_1_345)">
<path d="M71.2196 142.493C71.2196 142.493 70.2686 142.896 69.1458 145.66C68.2683 147.826 63.7697 152.062 62.4834 153.121C61.1952 154.182 63.0898 158.295 67.2613 156.422C69.1008 155.596 73.0646 153.305 74.3601 152.69C76.1435 151.841 77.406 150.163 77.6863 148.208C77.8847 146.821 77.9693 145.313 77.6193 144.426C76.8438 142.462 73.5102 141.633 73.5102 141.633L71.2196 142.493Z" fill="url(#paint1_linear_1_345)"/>
</g>
<path d="M71.4765 143.056C71.3708 143.125 70.6192 143.675 69.7197 145.893C68.7586 148.261 64.1066 152.586 62.8763 153.598C62.6218 153.806 62.6218 154.462 63.0215 155.108C63.6178 156.069 64.9785 156.77 67.0091 155.859C68.0603 155.386 69.8355 154.417 71.4002 153.563C72.5478 152.936 73.5393 152.394 74.0951 152.131C75.7123 151.361 76.8259 149.862 77.0759 148.12C77.3056 146.516 77.2945 145.283 77.0464 144.651C76.542 143.377 74.494 142.555 73.5421 142.279L71.4765 143.055V143.056ZM65.2312 157.521C63.672 157.521 62.551 156.692 61.9731 155.761C61.2536 154.602 61.3051 153.293 62.0916 152.644C63.5617 151.435 67.7819 147.386 68.5757 145.43C69.7344 142.571 70.7809 142.009 70.9785 141.925L73.4731 140.988L73.6606 141.034C73.8094 141.071 77.311 141.967 78.195 144.199C78.5313 145.052 78.5653 146.43 78.2979 148.294C77.9892 150.449 76.6174 152.301 74.6254 153.246C74.1016 153.497 73.0771 154.056 71.992 154.648C70.4061 155.513 68.6097 156.496 67.5154 156.986C66.6747 157.363 65.9103 157.521 65.2303 157.521H65.2312Z" fill="#31283C"/>
<path d="M71.2918 142.733C71.2918 142.733 70.4529 145.743 69.5745 147.359C68.8743 148.646 70.2076 149.762 72.7353 148.157C75.263 146.553 75.8611 142.842 75.8611 142.842L71.7319 142.203L71.2918 142.732V142.733Z" fill="#FEFEFE"/>
<path d="M71.8493 143.026C71.6757 143.63 70.9231 146.168 70.1164 147.652C70.0135 147.84 69.9483 148.086 70.0778 148.207C70.3075 148.421 71.1188 148.449 72.4024 147.635C74.0866 146.567 74.8363 144.406 75.1138 143.351L71.9816 142.866L71.8483 143.026H71.8493ZM70.5262 149.572C70.0089 149.572 69.567 149.42 69.2344 149.108C68.6968 148.606 68.6187 147.822 69.0303 147.063C69.8655 145.528 70.6888 142.596 70.6961 142.566L70.731 142.44L71.4771 141.54L76.5692 142.325L76.4691 142.939C76.4424 143.103 75.7956 146.946 73.064 148.678C72.1295 149.271 71.252 149.572 70.5243 149.572H70.5262Z" fill="#31283C"/>
<g filter="url(#filter2_d_1_345)">
<path d="M105.79 115.221C105.79 115.221 107.086 119.888 105.4 123.606C103.714 127.322 107.65 129.909 110.962 125.894C114.275 121.878 114.31 116.865 114.31 116.865C114.875 116.075 114.938 113.101 114.225 112.443C113.222 111.514 111.534 110.551 109.139 111.171C104.982 112.248 105.789 115.221 105.789 115.221H105.79Z" fill="url(#paint2_linear_1_345)"/>
</g>
<path d="M106.385 115.06C106.452 115.303 107.713 120.003 105.962 123.86C105.265 125.398 105.712 126.56 106.465 127.03C107.372 127.594 108.967 127.344 110.487 125.501C113.611 121.712 113.693 116.907 113.693 116.86L113.696 116.664L113.808 116.505C114.244 115.896 114.243 113.298 113.806 112.896C112.922 112.075 111.419 111.221 109.294 111.768C107.994 112.106 107.11 112.663 106.666 113.429C106.191 114.245 106.381 115.038 106.385 115.059V115.06ZM107.451 128.529C106.832 128.529 106.27 128.364 105.81 128.078C104.601 127.324 103.831 125.569 104.837 123.35C106.411 119.879 105.206 115.431 105.195 115.387V115.384C105.18 115.331 104.855 114.086 105.597 112.808C106.214 111.748 107.354 110.997 108.985 110.574C111.652 109.881 113.535 110.962 114.645 111.991C115.599 112.872 115.513 115.896 114.924 117.04C114.885 117.987 114.544 122.523 111.439 126.288C110.117 127.89 108.671 128.529 107.451 128.529Z" fill="#31283C"/>
<path d="M105.79 115.221L106.84 118.507C107.554 119.199 109.672 117.63 110.09 116.727C110.283 116.308 110.459 115.79 110.578 115.156C111.016 112.814 109.141 111.172 109.141 111.172L105.791 115.221H105.79Z" fill="#FEFEFE"/>
<path d="M107.353 118.077C107.781 118.075 109.214 117.148 109.53 116.468C109.726 116.046 109.873 115.567 109.971 115.044C110.212 113.759 109.608 112.697 109.162 112.116L106.483 115.355L107.354 118.078L107.353 118.077ZM107.318 119.295C106.873 119.295 106.585 119.118 106.412 118.95L106.301 118.843L105.1 115.089L109.072 110.289L109.55 110.707C109.637 110.784 111.684 112.613 111.186 115.27C111.069 115.894 110.891 116.471 110.652 116.987C110.26 117.836 108.805 119.052 107.669 119.263C107.543 119.286 107.426 119.296 107.32 119.296L107.318 119.295Z" fill="#31283C"/>
<path d="M74.5984 78.7536C74.5984 78.7536 72.566 92.0098 81.4133 104.939L85.9137 108.543L93.6933 110.599L105.996 115.221C106.198 115.298 106.425 115.287 106.62 115.191L107.064 114.972C108.101 114.462 108.839 113.494 109.055 112.359L109.197 111.611C109.254 111.317 109.14 111.018 108.901 110.836C107.527 109.801 102.817 106.264 99.8936 104.235C95.5062 101.191 92.7745 99.456 89.7387 98.8092C86.7029 98.1634 90.9507 78.1114 90.9507 78.1114L82.8421 74.2344L74.5965 78.7527L74.5984 78.7536Z" fill="#31283C"/>
<path d="M86.1973 107.979L93.8511 110.003L106.212 114.643C106.256 114.661 106.304 114.656 106.348 114.636L106.791 114.418C107.651 113.996 108.268 113.182 108.448 112.242L108.59 111.495C108.603 111.43 108.58 111.368 108.528 111.329C107.162 110.299 102.474 106.776 99.5405 104.742C95.504 101.941 92.631 100.057 89.6098 99.4136C86.4059 98.7319 88.8995 84.9034 90.2475 78.4595L82.861 74.9298L75.1704 79.143C74.949 81.1523 74.0476 93.0267 81.8696 104.513L86.1955 107.978L86.1973 107.979ZM106.273 115.89C106.105 115.89 105.936 115.861 105.778 115.799L93.4781 111.178L85.6294 109.107L80.9039 105.287C72.0225 92.3083 73.9677 78.7958 73.9879 78.6607L74.0347 78.3593L82.8251 73.5425L91.6597 77.765L91.5577 78.2408C89.3626 88.6012 88.5733 97.9299 89.8689 98.2055C93.117 98.8973 96.0875 100.841 100.248 103.728C103.199 105.776 107.903 109.309 109.275 110.345C109.703 110.668 109.907 111.197 109.806 111.726L109.663 112.474C109.412 113.793 108.542 114.934 107.337 115.527L106.894 115.745C106.699 115.841 106.486 115.89 106.272 115.89H106.273Z" fill="#31283C"/>
<path d="M81.1128 82.9639C81.1128 82.9639 72.4841 107.392 72.3656 112.5C72.259 117.117 71.2768 138.441 71.0894 142.48C71.071 142.88 71.308 143.242 71.6793 143.392C72.859 143.868 74.1729 143.878 75.3591 143.421L75.5787 143.337C75.892 143.217 76.1144 142.942 76.1705 142.612C76.4608 140.877 77.4936 135.218 79.322 130.553C81.5107 124.97 80.046 116.062 80.046 116.062C80.046 116.062 83.0561 107.391 87.3314 103.472C91.6076 99.5532 97.8042 89.2534 97.7344 82.7048C97.6655 76.1562 81.1119 82.9639 81.1119 82.9639H81.1128Z" fill="#31283C"/>
<path d="M81.6016 83.4309C80.6754 86.0759 73.0914 107.842 72.9811 112.514C72.8801 116.914 71.9796 136.585 71.7058 142.51C71.7003 142.646 71.7802 142.768 71.9098 142.822C72.9471 143.239 74.092 143.247 75.1367 142.846L75.3564 142.761C75.4639 142.72 75.5419 142.624 75.5603 142.511C75.8396 140.85 76.8926 135.061 78.7477 130.328C80.8509 124.965 79.4524 116.25 79.4359 116.163L79.4102 116.009L79.4616 115.862C79.5875 115.502 82.5728 106.998 86.9143 103.018C91.0692 99.2099 97.184 89.0066 97.1169 82.7124C97.1087 81.9517 96.8496 81.429 96.3019 81.0661C93.5657 79.2507 85.0058 82.0684 81.6025 83.4309H81.6016ZM73.5554 144.375C72.8396 144.375 72.1267 144.239 71.4486 143.965C70.8339 143.717 70.4415 143.108 70.4719 142.452C70.7466 136.531 71.6452 116.871 71.7481 112.485C71.8684 107.339 80.1765 83.7589 80.5293 82.7574L80.6221 82.4974L80.8776 82.3918C82.1189 81.881 93.12 77.4757 96.9828 80.0353C97.8658 80.6205 98.3389 81.5411 98.3527 82.6977C98.4234 89.5514 92.0175 100.014 87.7486 103.928C83.9336 107.426 81.0916 114.987 80.6809 116.121C80.8748 117.394 81.9866 125.449 79.8981 130.778C78.0843 135.402 77.0524 141.083 76.7795 142.715C76.6886 143.257 76.3129 143.716 75.8002 143.915L75.5814 143.998C74.9272 144.251 74.2408 144.375 73.5554 144.375Z" fill="#31283C"/>
<g filter="url(#filter3_d_1_345)">
<path d="M103.49 42.7416C101.077 38.2031 91.7032 34.7018 91.7032 34.7018L87.8506 35.2907L81.9738 32.5759C81.9738 32.5759 73.6373 33.8741 72.3684 35.5443C71.1023 37.2155 70.3893 48.9971 71.4974 53.5108C72.6065 58.0236 71.7354 78.7691 71.7354 78.7691C71.7354 78.7691 75.2756 80.986 76.4866 81.699C77.6986 82.4128 79.0997 78.7379 79.0997 78.7379L79.3653 78.6901C79.958 81.3379 80.4835 82.964 80.4835 82.964C80.4835 82.964 101.748 87.2407 100.086 77.3433C98.4227 67.4459 100.482 52.1639 100.482 52.1639C100.482 52.1639 105.904 47.28 103.491 42.7416H103.49Z" fill="url(#paint3_linear_1_345)"/>
</g>
<path d="M80.9633 82.4249C83.1565 82.8218 94.7374 84.7042 98.4568 81.0992C99.4013 80.1841 99.7349 78.9889 99.4758 77.4454C97.8164 67.5692 99.8469 52.2358 99.868 52.0814L99.8984 51.8573L100.067 51.7066C100.118 51.6606 105.1 47.0872 102.943 43.0329C100.829 39.0558 92.8226 35.8035 91.6345 35.3386L87.7599 35.9294L81.884 33.2155C78.5257 33.7529 73.6164 34.9215 72.8611 35.9193C71.8338 37.2744 70.9389 48.6436 72.0966 53.3639C73.1459 57.6342 72.4798 75.5685 72.3668 78.4358C73.2507 78.988 75.817 80.5884 76.8001 81.1653C76.8001 81.1653 76.8029 81.1653 76.8038 81.1653C77.1327 81.1653 77.9596 79.9866 78.521 78.5176L78.646 78.1905L79.8387 77.9783L79.9673 78.5552C80.3908 80.4441 80.7832 81.8167 80.9642 82.4249H80.9633ZM89.7362 84.5039C85.098 84.5039 80.6867 83.6348 80.3614 83.5696L80.0068 83.498L79.8956 83.1543C79.8781 83.1001 79.5373 82.0381 79.0944 80.2429C78.6487 81.0927 77.9964 82.0675 77.2494 82.3312C76.8782 82.458 76.507 82.4267 76.1725 82.2319C74.967 81.5227 71.5508 79.383 71.4066 79.292L71.1015 79.1028L71.1162 78.7436C71.1254 78.536 71.9726 58.0356 70.8976 53.6589C69.794 49.1672 70.4345 37.0741 71.8761 35.1742C73.225 33.3937 80.4441 32.1911 81.8775 31.967L82.0613 31.9385L87.939 34.6533L91.7678 34.069L91.9175 34.125C92.3099 34.2711 101.539 37.7622 104.033 42.4532C106.417 46.9366 102.021 51.5393 101.064 52.4636C100.824 54.3552 99.1716 68.1838 100.692 77.2424C101.02 79.1901 100.556 80.7877 99.3159 81.9885C97.2908 83.949 93.44 84.5049 89.7353 84.5049L89.7362 84.5039Z" fill="#31283C"/>
<path d="M88.034 30.7373C88.034 30.7373 88.0441 32.29 88.9941 34.5868C88.9941 34.5868 87.9908 36.2194 86.1761 37.5901C84.1529 39.117 81.4341 39.3678 79.0957 38.3885C79.0957 38.3885 80.3637 34.4288 80.1257 31.9749C79.8877 29.5191 88.0349 30.7383 88.0349 30.7383L88.034 30.7373Z" fill="#FEFEFE"/>
<path d="M79.8538 38.0113C81.9074 38.6847 84.1428 38.3512 85.8041 37.0962C87.0904 36.127 87.9542 35.0034 88.3006 34.5137C87.7318 33.0585 87.5287 31.9128 87.4579 31.2808C85.0295 30.9693 81.6419 30.8857 80.848 31.639C80.7579 31.7245 80.7285 31.798 80.7414 31.9138C80.9353 33.9258 80.1993 36.8013 79.8538 38.0113ZM81.9753 39.5869C80.9279 39.5869 79.8648 39.3802 78.8578 38.9576L78.335 38.7389L78.5068 38.1987C78.5197 38.161 79.7326 34.3309 79.5111 32.0332C79.4633 31.538 79.6315 31.0906 79.9972 30.7442C81.5849 29.2357 87.0482 29.9661 88.126 30.1268L88.6487 30.2068L88.6524 30.7341C88.6524 30.7745 88.6874 32.2325 89.5649 34.3511L89.6852 34.6414L89.5189 34.9106C89.4757 34.9804 88.4347 36.6589 86.5475 38.0838C85.2308 39.077 83.6192 39.5878 81.9735 39.5878L81.9753 39.5869Z" fill="#31283C"/>
<path d="M88.3291 32.5759C88.3291 32.5759 92.4803 33.2778 93.0334 36.1893C93.0334 36.1893 90.2283 41.9514 82.6039 42.7424L82.0269 38.9647C82.0269 38.9647 84.2495 38.9941 86.699 37.2724C88.1765 36.2343 88.9024 34.3619 88.3501 32.6439L88.3282 32.5759H88.3291Z" fill="#FF9100"/>
<path d="M82.7372 39.5263L83.123 42.0555C89.2121 41.1892 91.8509 37.0476 92.3793 36.1023C91.9575 34.5561 90.2219 33.7696 89.1322 33.4205C89.2737 35.0715 88.4945 36.7647 87.0529 37.7771C85.2952 39.0128 83.6422 39.4032 82.7362 39.5254L82.7372 39.5263ZM82.0811 43.4171L81.3047 38.3375L82.0343 38.3467C82.0747 38.3467 84.1164 38.3329 86.3436 36.7674C87.6318 35.8625 88.2161 34.2446 87.7622 32.8325L87.4507 31.8651L88.4302 31.9671C88.6167 31.9993 93.0114 32.7792 93.6389 36.0738L93.6766 36.275L93.5865 36.4597C93.4653 36.7068 90.5416 42.5379 82.6664 43.3565L82.0802 43.4162L82.0811 43.4171Z" fill="#31283C"/>
<path d="M80.6996 38.8554L78.5412 42.0681C78.5412 42.0681 75.6028 39.8283 77.0711 35.5443L80.1795 35.9798C80.1795 35.9798 79.4114 37.5434 80.6987 38.8554H80.6996Z" fill="#FF9100"/>
<path d="M77.5096 36.2299C76.8389 38.7123 77.8137 40.3531 78.4468 41.1055L79.9279 38.8997C79.2884 38.0251 79.2765 37.1173 79.3867 36.4935L77.5096 36.2308V36.2299ZM78.6893 42.9577L78.1684 42.5608C78.1353 42.5341 74.8955 39.9966 76.4896 35.3451L76.6541 34.8628L81.1123 35.4866L80.7374 36.2519C80.7154 36.296 80.1879 37.4509 81.1435 38.4238L81.4963 38.7821L78.6902 42.9577H78.6893Z" fill="#31283C"/>
<path d="M75.9272 21.0462C75.9272 21.0462 74.4883 24.2231 75.0286 28.9637C75.2482 30.8967 75.8242 32.7718 76.6227 34.5449L77.0721 35.5445C77.2512 35.9414 77.6426 36.194 78.0763 36.1885C79.6181 36.1664 83.3293 35.7925 86.3807 32.9234L87.5081 31.6078C88.0071 31.0262 88.2818 30.2839 88.2818 29.5177C88.2818 29.5177 89.6242 29.231 90.1461 27.8364C90.4181 27.1088 90.3115 26.292 89.9632 25.5957C89.728 25.1253 89.1749 24.9094 88.6833 25.0968L87.6486 23.738L83.9274 18.9083L75.9281 21.0453L75.9272 21.0462Z" fill="#FEFEFE"/>
<path d="M76.386 21.5623C76.0772 22.3965 75.2154 25.1499 75.6408 28.8937C75.8402 30.642 76.3602 32.4592 77.1844 34.293L77.6346 35.2925C77.7118 35.4625 77.879 35.5709 78.0609 35.5709C78.0637 35.5709 78.0655 35.5709 78.0683 35.5709C79.4695 35.5516 83.0447 35.2117 85.9574 32.4739L87.0388 31.2061C87.4403 30.7366 87.6627 30.1367 87.6627 29.5184V29.0195L88.1506 28.9157C88.1874 28.9065 89.1732 28.6658 89.5647 27.6212C89.7604 27.0994 89.7034 26.4618 89.4093 25.8729C89.3156 25.6855 89.0988 25.6028 88.9013 25.6754L88.4703 25.8389L83.6879 19.6137L76.386 21.5641V21.5623ZM78.0609 36.8066C77.392 36.8066 76.7848 36.4134 76.5082 35.7988L76.0588 34.7983C75.1823 32.8487 74.6282 30.9093 74.4151 29.0333C73.861 24.1779 75.3026 20.9265 75.3651 20.7906L75.4855 20.525L84.1638 18.2043L88.939 24.414C89.5812 24.3671 90.2096 24.7117 90.5156 25.318C90.9622 26.2138 91.0366 27.2105 90.7214 28.0521C90.2933 29.1987 89.4149 29.7352 88.8719 29.9658C88.7827 30.7164 88.4731 31.4284 87.9769 32.0081L86.8486 33.3237C83.5758 36.406 79.6313 36.7836 78.0858 36.8047C78.0775 36.8047 78.0692 36.8047 78.0618 36.8047L78.0609 36.8066Z" fill="#31283C"/>
<path d="M76.0293 17.2461C75.1188 18.0169 73.7911 18.592 72.1289 17.7991C72.1289 17.7991 72.287 23.5788 78.1463 23.5007C83.9707 23.4208 87.058 23.2646 87.25 25.5953C87.2528 25.6165 87.273 25.6312 87.2923 25.6238L88.3195 25.2334C89.2245 24.8907 90.2022 25.5246 90.2592 26.4911L90.2601 26.5095C90.2601 26.5095 91.9269 25.3225 91.9269 22.7087C91.9269 20.0959 89.9468 13.9993 84.0865 14.2363C83.7089 14.252 83.3515 14.2703 83.0143 14.2915C80.4168 14.4578 78.0149 15.562 76.0302 17.2461H76.0293Z" fill="#31283C"/>
<path d="M88.8303 24.5224C89.218 24.5224 89.6021 24.6345 89.9411 24.8532C90.1598 24.9947 90.3463 25.172 90.4924 25.375C90.8783 24.8449 91.3065 23.9703 91.3065 22.7089C91.3065 21.2426 90.6054 18.3872 88.6749 16.5342C87.4382 15.3463 85.8919 14.7813 84.1093 14.8538C83.7354 14.8704 83.3825 14.8878 83.0508 14.909C80.7087 15.0578 78.4181 16.0279 76.427 17.7166C75.3299 18.6454 74.1217 18.9825 72.8693 18.7079C73.1827 20.1824 74.2687 22.8843 78.0295 22.8843C78.0653 22.8843 78.1011 22.8844 78.1379 22.8825L78.9208 22.8715C83.9918 22.7971 87.0055 22.7557 87.7157 24.8026L88.0998 24.6566C88.3396 24.5656 88.5868 24.5215 88.8312 24.5215L88.8303 24.5224ZM89.6967 27.67L89.6416 26.5408C89.626 26.2652 89.49 26.0346 89.2695 25.8913C89.0481 25.748 88.7824 25.7195 88.5371 25.8132L87.2223 26.3112L86.6756 25.9832L86.6333 25.6525C86.5029 24.0658 84.1782 24.0327 78.9382 24.1081L78.1526 24.1191C78.1085 24.121 78.0653 24.121 78.023 24.121C71.7548 24.121 71.5104 17.881 71.5095 17.8176L71.481 16.8089L72.3915 17.2434C73.5474 17.7937 74.604 17.6403 75.6276 16.7749C77.8236 14.9135 80.3624 13.8423 82.9718 13.676C83.3137 13.654 83.6748 13.6356 84.0588 13.62C86.2006 13.5318 88.0419 14.2144 89.5295 15.643C91.5978 17.6293 92.5424 20.6978 92.5424 22.7089C92.5424 25.6074 90.6946 26.957 90.6174 27.014L89.6958 27.67H89.6967Z" fill="#31283C"/>
<path d="M79.3773 78.7289C78.4345 63.9384 79.4195 45.1139 79.4287 44.9255L80.6628 44.9908C80.6518 45.1782 79.6741 63.932 80.6104 78.6499L79.3773 78.7289Z" fill="#31283C"/>
<path d="M69.9482 151.824C67.6815 151.824 66.2683 149.929 66.2095 149.848L67.2064 149.119L66.7076 149.484L67.2056 149.116C67.2166 149.132 68.3173 150.588 69.9491 150.588V151.824H69.9482Z" fill="#31283C"/>
<path d="M107.649 121.486C106.612 121.486 105.83 121.169 105.774 121.145L106.248 120.005C106.267 120.011 108.05 120.722 109.512 119.678L110.231 120.681C109.36 121.306 108.432 121.486 107.65 121.486H107.649Z" fill="#31283C"/>
<path d="M107.821 123.947C106.14 123.947 105.352 122.994 105.308 122.938L106.267 122.159C106.305 122.206 107.269 123.277 109.636 122.301L110.108 123.441C109.214 123.81 108.454 123.946 107.822 123.946L107.821 123.947Z" fill="#31283C"/>
<path d="M68.0284 153.021C66.1108 152.838 64.8787 151.174 64.8281 151.104L65.826 150.376C65.8352 150.388 66.7899 151.662 68.147 151.791L68.0284 153.021Z" fill="#31283C"/>
<path d="M90.8548 38.7203C89.9663 37.0032 87.9246 36.0671 87.9053 36.0579L88.4134 34.9333C88.5136 34.9774 90.8694 36.0588 91.9518 38.1535L90.8548 38.7203Z" fill="#31283C"/>
<g filter="url(#filter4_d_1_345)">
<path d="M82.6018 76.3816C82.6018 76.3614 82.6055 70.1435 82.6055 69.6309C82.6055 69.5776 82.5705 69.5353 82.5191 69.5206L68.5291 70.7746C68.519 70.7728 68.5107 70.7682 68.5016 70.7636L67.2207 63.0464C67.183 63.0252 67.1371 63.0252 67.1004 63.0464L54.2212 70.4356C54.1928 70.4513 54.1606 70.4559 54.1294 70.4467L51.6687 69.7613C51.5934 69.7411 51.5172 69.7944 51.5181 69.8734C51.519 70.5027 51.5226 76.4266 51.5281 76.4974L51.5318 76.5194C51.575 76.9319 51.791 77.3288 52.1998 77.5677L65.1763 85.0929C66.2807 85.7351 67.6452 85.7369 68.7523 85.0975L81.9172 77.5438C82.3583 77.2884 82.5824 76.8493 82.5999 76.4046L82.6036 76.3825L82.6018 76.3816Z" fill="url(#paint4_linear_1_345)"/>
</g>
<path d="M52.1342 70.5336L52.1351 71.6242C52.1378 73.536 52.1397 76.306 52.1443 76.4732C52.159 76.599 52.227 76.8691 52.5082 77.0336L65.4837 84.5569C66.397 85.0889 67.5299 85.0889 68.4414 84.5634L81.6072 77.0097C81.9287 76.8223 81.9757 76.5071 81.9803 76.3804L81.9839 76.3583C81.9839 76.0313 81.9857 71.7767 81.9857 70.1901L68.4727 71.4018L68.2007 71.3045L67.9397 71.1593L66.7434 63.9639L54.2943 71.1051L53.9489 71.0389L52.1342 70.5346V70.5336ZM66.9676 86.1904C66.2399 86.1904 65.5122 86.0021 64.8635 85.6245L51.888 78.1002C51.3358 77.7787 50.9819 77.2265 50.9149 76.5807C50.9066 76.5007 50.9048 76.4768 50.9002 71.6251L50.8975 69.8749C50.8975 69.6397 51.004 69.4275 51.1887 69.2879C51.3688 69.151 51.6104 69.1041 51.8337 69.1675L54.0922 69.7959L66.7922 62.5114C67.021 62.3791 67.3039 62.381 67.5318 62.5151L67.7799 62.6612L69.0184 70.1111L82.5775 68.8965L82.6896 68.9287C83.0075 69.0224 83.2216 69.3035 83.2216 69.6315C83.2216 69.6985 83.2179 76.3629 83.217 76.4116L83.2087 76.4805C83.1867 77.1181 82.8164 77.7345 82.2219 78.0781L69.0561 85.6319C68.4111 86.0049 67.6889 86.1913 66.9658 86.1913L66.9676 86.1904Z" fill="#31283C"/>
<path d="M82.5181 69.5268L68.528 70.7809C68.5179 70.7772 68.5096 70.7735 68.5004 70.768L66.864 75.5343L66.8594 85.5722C67.5099 85.5915 68.166 85.4381 68.7494 85.1L81.9145 77.5472C82.3555 77.2918 82.5797 76.8527 82.5971 76.408L82.6008 76.385C82.6008 76.3658 82.6045 70.1478 82.6045 69.6361C82.6045 69.5828 82.5695 69.5406 82.5181 69.5259V69.5268Z" fill="#31283C"/>
<path d="M67.4827 75.6382L67.4781 84.9136C67.8181 84.8548 68.1442 84.7382 68.4419 84.5664L81.6077 77.0126C81.9293 76.8252 81.9762 76.5101 81.9808 76.3842L81.9845 76.2235C81.9845 75.4021 81.9863 71.6583 81.9863 70.193L68.95 71.3607L67.4827 75.6364V75.6382ZM66.9691 86.1925C66.9268 86.1925 66.8836 86.1925 66.8413 86.1898L66.2432 86.1723L66.28 75.3332L68.1783 69.8099L68.6826 70.147L82.5744 68.9012L82.681 68.9316C83.0007 69.0188 83.223 69.3073 83.223 69.6372C83.2249 70.1011 83.2193 75.2451 83.2193 76.2263L83.2102 76.4862C83.1881 77.1229 82.8178 77.7394 82.2233 78.083L69.0575 85.6367C68.4281 86.0005 67.7077 86.1925 66.9681 86.1925H66.9691Z" fill="#31283C"/>
<path d="M53.5094 71.5252C53.5094 71.5252 53.7014 71.0034 53.9421 70.3319L51.6664 69.698C51.591 69.6768 51.5147 69.731 51.5156 69.81C51.5166 70.4384 51.5203 76.3632 51.5258 76.434L51.5295 76.456C51.5726 76.8685 51.7885 77.2654 52.1974 77.5034L53.5066 78.264L53.5103 74.6866V71.5252H53.5094Z" fill="#31283C"/>
<path d="M52.1342 70.4696L52.1351 71.562C52.1378 73.4729 52.1397 76.2428 52.1443 76.4118C52.159 76.5377 52.2269 76.8051 52.5072 76.9686L52.8903 77.1919L52.9308 71.3112C52.9308 71.3102 53.0125 71.0879 53.1347 70.7498L52.1333 70.4696H52.1342ZM54.1224 79.3371L51.887 78.0362C51.3366 77.7174 50.9819 77.1634 50.9149 76.5184C50.9066 76.4385 50.9048 76.4155 50.9002 71.5629L50.8975 69.8118C50.8975 69.5784 51.004 69.3653 51.1887 69.2256C51.3688 69.0878 51.6104 69.0419 51.8337 69.1053L54.7482 69.9156L54.523 70.5412C54.3466 71.0355 54.1941 71.4489 54.1261 71.6354L54.1206 79.338L54.1224 79.3371Z" fill="#31283C"/>
<g filter="url(#filter5_d_1_345)">
<path d="M65.2375 78.3881L52.2022 70.8289C51.2852 70.2951 51.2871 68.9685 52.2059 68.4384L65.4296 60.8506C66.4982 60.2323 67.8176 60.2342 68.8862 60.8553L81.9224 68.4144C82.8394 68.9482 82.8376 70.2749 81.9187 70.805L68.6951 78.3926C67.6256 79.0109 66.3061 79.0091 65.2375 78.3881Z" fill="url(#paint5_linear_1_345)"/>
</g>
<path d="M67.1543 61.0068C66.6655 61.0068 66.1767 61.1326 65.7393 61.3853L52.5147 68.9721C52.172 69.1705 52.1344 69.4995 52.1344 69.6327C52.1344 69.764 52.1711 70.0939 52.5147 70.2932L65.5501 77.8524C66.4229 78.3587 67.5099 78.3614 68.3874 77.8561L81.612 70.2684C81.9547 70.07 81.9914 69.7411 81.9914 69.6088C81.9914 69.4774 81.9556 69.1466 81.612 68.9464L68.5766 61.388C68.1374 61.1326 67.6459 61.0058 67.1543 61.0058V61.0068ZM66.9715 79.4703C66.264 79.4703 65.5583 79.2866 64.929 78.9209L51.8936 71.3617C51.2688 70.9988 50.8985 70.3511 50.8994 69.6299C50.9013 68.9096 51.2734 68.2628 51.8982 67.9036L65.1247 60.3131C66.3807 59.5901 67.9436 59.591 69.1978 60.3205L82.2331 67.8797C82.8589 68.2426 83.2291 68.8903 83.2281 69.6097C83.2263 70.3309 82.8533 70.9786 82.2295 71.3378L69.003 78.9264C68.3773 79.2884 67.6734 79.4703 66.9715 79.4703Z" fill="#31283C"/>
<g filter="url(#filter6_d_1_345)">
<path d="M80.7093 63.988C80.7093 63.9687 80.7139 57.7508 80.7139 57.2391C80.7139 57.1858 80.678 57.1426 80.6266 57.1289L66.6375 58.382C66.6274 58.3792 66.6182 58.3756 66.609 58.371L65.3272 50.6556C65.2905 50.6335 65.2445 50.6335 65.2087 50.6556L52.3287 58.043C52.3011 58.0595 52.2671 58.0641 52.2368 58.0549L49.7753 57.3705C49.699 57.3493 49.6245 57.4035 49.6245 57.4816C49.6273 58.1109 49.6291 64.0367 49.6355 64.1056L49.6383 64.1276C49.6815 64.5401 49.8965 64.937 50.3073 65.1759L63.2829 72.7011C64.3891 73.3442 65.7527 73.3451 66.8589 72.7057L80.0239 65.1529C80.4649 64.8975 80.69 64.4584 80.7065 64.0137L80.7102 63.9908L80.7093 63.988Z" fill="url(#paint6_linear_1_345)"/>
</g>
<path d="M50.2431 58.1403L50.2458 59.2317C50.2467 61.1436 50.2495 63.9145 50.2541 64.0826C50.2688 64.2075 50.3368 64.4767 50.6189 64.6412L63.5936 72.1645C64.5078 72.6946 65.6398 72.6974 66.5503 72.17L79.7171 64.6154C80.0378 64.4289 80.0856 64.1129 80.0902 63.9861H80.093L80.0966 57.7976L66.5835 59.0076L66.2894 58.8983L66.0478 58.7504L64.8551 51.5706L52.4134 58.7072L52.0752 58.6521L50.244 58.1413L50.2431 58.1403ZM65.0765 73.798C64.3479 73.798 63.6221 73.6097 62.9725 73.2321L49.9968 65.7096C49.4455 65.389 49.0917 64.835 49.0238 64.191C49.0155 64.1092 49.0146 64.0853 49.01 59.2345L49.0063 57.4834C49.0063 57.2501 49.112 57.037 49.2967 56.8973C49.4796 56.7586 49.7175 56.7126 49.9417 56.7751L52.2011 57.4053L64.901 50.1199C65.1243 49.9886 65.4101 49.9886 65.6408 50.1236L65.8907 50.2706L67.1283 57.7205L80.6828 56.5059L80.7921 56.5353C81.1156 56.6245 81.3324 56.9083 81.3324 57.239L81.3205 64.0881C81.2957 64.7294 80.9245 65.3449 80.3318 65.6857L67.1669 73.2394C66.5228 73.6124 65.7997 73.7989 65.0765 73.7989V73.798Z" fill="#31283C"/>
<path d="M80.6278 57.1335L66.6387 58.3875C66.6286 58.3847 66.6194 58.3802 66.6102 58.3756L64.9728 63.1419L64.9683 73.1798C65.6197 73.1991 66.2749 73.0447 66.8583 72.7076L80.0232 65.1539C80.4643 64.8985 80.6894 64.4593 80.706 64.0146L80.7097 63.9917C80.7097 63.9724 80.7142 57.7545 80.7142 57.2428C80.7142 57.1895 80.6784 57.1473 80.6269 57.1326L80.6278 57.1335Z" fill="#31283C"/>
<path d="M65.591 63.2447L65.5863 72.521C65.9263 72.4631 66.2535 72.3464 66.5493 72.1737L79.7161 64.62C80.0367 64.4345 80.0846 64.1175 80.0892 63.9898L80.0946 57.8013L67.0592 58.969L65.591 63.2438V63.2447ZM65.0783 73.7989C65.0351 73.7989 64.9919 73.7989 64.9496 73.798L64.3496 73.7796L64.3883 62.9415L66.2755 57.4476L66.7781 57.7554L80.6827 56.5087L80.792 56.5399C81.1154 56.6281 81.3323 56.911 81.3323 57.2445L81.3203 64.0936C81.2955 64.7321 80.9243 65.3486 80.3326 65.6903L67.1667 73.245C66.5383 73.6088 65.8179 73.7989 65.0792 73.7989H65.0783Z" fill="#31283C"/>
<path d="M51.6175 59.1317C51.6175 59.1317 51.8113 58.6117 52.0511 57.9402L49.7753 57.3062C49.699 57.2842 49.6245 57.3384 49.6245 57.4174C49.6273 58.0467 49.6291 63.9715 49.6355 64.0413L49.6383 64.0634C49.6815 64.4759 49.8965 64.8728 50.3073 65.1107L51.6157 65.8714L51.6193 62.2939V59.1327L51.6175 59.1317Z" fill="#31283C"/>
<path d="M50.2421 58.077L50.2448 59.1685C50.2457 61.0803 50.2485 63.8512 50.2531 64.0184C50.2678 64.1434 50.3358 64.4135 50.617 64.5761L50.9982 64.7975L51.0405 58.9177C51.0405 58.9177 51.1232 58.6963 51.2454 58.3563L50.243 58.077H50.2421ZM52.2294 66.9445L49.994 65.6446C49.4445 65.3248 49.0899 64.7708 49.0219 64.1277C49.0136 64.046 49.0127 64.0212 49.0081 59.1694L49.0044 57.4202C49.0044 57.185 49.1111 56.9718 49.2957 56.8331C49.4767 56.6962 49.7183 56.6503 49.9416 56.7127L52.8524 57.5231L52.631 58.1487C52.4536 58.6439 52.302 59.0573 52.2349 59.2429L52.2276 66.9464L52.2294 66.9445Z" fill="#31283C"/>
<g filter="url(#filter7_d_1_345)">
<path d="M63.3475 65.9946L50.3111 58.4353C49.3941 57.9025 49.396 56.5768 50.3148 56.0448L63.5386 48.4571C64.609 47.8388 65.9275 47.8416 66.9961 48.4617L80.0315 56.0219C80.9485 56.5547 80.9475 57.8804 80.0287 58.4115L66.804 65.9992C65.7345 66.6175 64.4151 66.6166 63.3484 65.9946H63.3475Z" fill="url(#paint7_linear_1_345)"/>
</g>
<path d="M65.2613 48.614C64.7725 48.614 64.2836 48.7408 63.8472 48.9926L50.6208 56.5812C50.2799 56.7787 50.2412 57.1067 50.2412 57.2399C50.2412 57.3722 50.2771 57.702 50.6217 57.9014L63.6561 65.4606C64.5317 65.9668 65.6169 65.9714 66.4935 65.4652L79.7199 57.8766C80.0617 57.6781 80.0985 57.3492 80.0985 57.216C80.0985 57.0846 80.0636 56.7548 79.719 56.5554L66.6846 48.9971C66.2463 48.7417 65.7529 48.614 65.2613 48.614ZM65.0784 67.0776C64.3728 67.0776 63.6652 66.8947 63.0359 66.5272L50.0006 58.9689C49.3767 58.606 49.0045 57.9602 49.0064 57.239C49.0073 56.5178 49.3803 55.871 50.006 55.5108L63.2307 47.9223C64.4885 47.1965 66.0497 47.1983 67.3057 47.9296L80.3401 55.4879C80.9649 55.8508 81.3362 56.4985 81.3362 57.2178C81.3343 57.94 80.9621 58.5849 80.3364 58.946L67.11 66.5346C66.4843 66.8957 65.7823 67.0776 65.0784 67.0776Z" fill="#31283C"/>
<path d="M48.2456 51.5807L56.731 56.4664L65.1703 51.7047L56.7668 46.7528L48.2456 51.5807Z" fill="url(#paint8_linear_1_345)"/>
<path d="M49.4909 51.585L56.7331 55.756L63.9348 51.6943L56.7606 47.4655L49.4909 51.585ZM56.7276 57.1772L47 51.5749L56.7744 46.0387L66.4065 51.7155L56.7276 57.1763V57.1772Z" fill="#31283C"/>
<path d="M89.6851 76.7013C88.2838 77.6549 86.6281 78.1464 84.9338 78.1234C83.8634 78.1097 82.5742 78.0554 81.2401 77.9112C79.1406 77.6852 75.3485 74.1775 81.0039 73.4664L83.7283 73.1366L83.9277 72.8894L82.8205 71.8513L82.8077 71.4498L84.1188 71.1237C84.1188 71.1237 86.3653 70.9123 87.6976 73.4526C89.0309 75.9938 89.6832 76.7013 89.6832 76.7013H89.6851Z" fill="#FEFEFE"/>
<path d="M83.7296 71.8566L84.766 72.8304L84.0521 73.7188L81.0769 74.0789C79.5793 74.2673 78.6503 74.6991 78.6549 75.2062C78.6604 75.966 80.1976 77.176 81.3057 77.2963C82.4322 77.4176 83.6551 77.4883 84.9415 77.5067C86.3142 77.5435 87.6208 77.1888 88.7849 76.5338C88.4431 76.0349 87.902 75.1686 87.1522 73.7399C86.1176 71.7702 84.4913 71.7389 84.2129 71.7371L83.7305 71.8566H83.7296ZM85.0407 78.7424C85.0021 78.7424 84.9636 78.7424 84.925 78.7424C83.5991 78.7231 82.3375 78.6505 81.1734 78.5246C79.7014 78.3657 77.4328 76.8213 77.419 75.2182C77.4099 74.3417 78.0127 73.2199 80.9263 72.8533L82.7501 72.6329L82.2099 72.1257L82.1758 70.9709L83.9703 70.5244C84.1743 70.5014 86.7378 70.292 88.2447 73.1657C89.4998 75.559 90.1338 76.2784 90.1402 76.2866L90.6097 76.8103L90.0299 77.2118C88.5598 78.2141 86.838 78.7424 85.0398 78.7424H85.0407Z" fill="#31283C"/>
<path d="M89.3483 72.2363L87.2084 73.2267C87.2084 73.2267 86.7711 75.5226 88.278 77.4234L90.2994 76.592L92.7949 73.2267L89.3493 72.2363H89.3483Z" fill="#659CD3"/>
<path d="M87.7801 73.6417C87.7397 74.2086 87.7507 75.4866 88.495 76.6635L89.9044 76.0837L91.7668 73.5738L89.3982 72.893L87.781 73.6417H87.7801ZM88.0815 78.1702L87.7929 77.8064C86.128 75.7089 86.5802 73.2164 86.5995 73.1107L86.6591 72.7984L89.297 71.5792L93.8213 72.8774L90.6909 77.0953L88.0815 78.1693V78.1702Z" fill="#31283C"/>
<g filter="url(#filter8_d_1_345)">
<path d="M98.4174 42.068C98.4174 42.068 98.4257 42.0634 98.4422 42.0533C99.9748 41.1116 102.3 41.1658 103.168 42.7414C105.14 46.3226 111.681 58.83 113.722 64.9156C113.935 65.5495 113.675 66.245 113.105 66.5959C109.609 68.7512 97.3102 76.0514 90.2977 76.5907C90.2977 76.5907 89.4267 75.9567 89.3477 72.235C89.3477 72.235 95.603 68.5547 97.4242 67.1288C99.2453 65.7039 101.962 64.0878 104.654 63.7709C104.654 63.7709 96.9721 52.896 96.4171 48.3033C95.8622 43.7107 98.4165 42.0671 98.4165 42.0671L98.4174 42.068Z" fill="url(#paint9_linear_1_345)"/>
</g>
<path d="M89.9768 72.5814C90.0549 74.6789 90.4023 75.5976 90.5869 75.9431C97.4909 75.2164 109.286 68.2249 112.783 66.0696C113.112 65.8665 113.258 65.4715 113.137 65.1104C111.027 58.8227 104.204 45.9 102.628 43.0391C102.322 42.4823 101.799 42.2453 101.413 42.1433C100.589 41.9256 99.5499 42.0965 98.7662 42.5788L98.418 42.0671L98.757 42.5843C98.6652 42.644 96.5353 44.1186 97.0315 48.2289C97.5616 52.614 105.084 63.307 105.16 63.4145L105.758 64.2624L104.727 64.3837C101.759 64.7328 98.8985 66.7595 97.806 67.613C96.1889 68.879 91.2843 71.8051 89.9759 72.5805L89.9768 72.5814ZM90.1192 77.2228L89.9354 77.0905C89.6736 76.9003 88.8108 75.9872 88.7309 72.2489L88.7227 71.8878L89.035 71.7041C89.0956 71.6673 95.2757 68.0274 97.0453 66.6438C98.3491 65.6221 100.824 63.9354 103.595 63.3263C101.794 60.6951 96.2891 52.3834 95.8049 48.3778C95.2123 43.458 97.966 41.6252 98.0826 41.5498L98.1202 41.5269C99.1943 40.8672 100.577 40.6458 101.728 40.9508C102.616 41.1842 103.301 41.7014 103.709 42.4437C105.297 45.3258 112.17 58.3441 114.309 64.7191C114.613 65.6258 114.251 66.6144 113.431 67.1224C109.817 69.3512 97.4762 76.6597 90.3471 77.2081L90.1202 77.2238L90.1192 77.2228Z" fill="#31283C"/>
<path d="M106.888 65.4328C106.053 64.5766 104.596 64.3873 104.581 64.3846L104.728 63.1581C104.806 63.1673 106.628 63.3988 107.771 64.5702L106.887 65.4337L106.888 65.4328Z" fill="#31283C"/>
<path d="M78.2006 31.6195C78.535 31.6195 78.8152 31.5837 79.0394 31.5083L78.7445 30.6089C78.5708 30.6659 78.2887 30.687 77.9432 30.664L77.8597 30.5593L78.4541 27.9106L77.5298 27.703L76.9362 30.3535C76.87 30.6484 76.9362 30.9562 77.1182 31.196C77.301 31.4404 77.5794 31.591 77.8844 31.6094C77.9947 31.6177 78.0995 31.6195 78.2015 31.6195H78.2006Z" fill="#31283C"/>
<path d="M80.3835 27.3896C80.2466 28.0934 80.5434 28.7439 81.0469 28.8413C81.5486 28.9387 82.0677 28.4462 82.2028 27.7424C82.3397 27.0387 82.0419 26.3882 81.5393 26.2908C81.0377 26.1935 80.5185 26.6859 80.3835 27.3896Z" fill="#31283C"/>
<path d="M75.0598 26.4216C74.9248 27.1254 75.1398 27.7584 75.5441 27.8365C75.9465 27.9146 76.3847 27.4074 76.5197 26.7037C76.6566 25.9999 76.4398 25.3651 76.0374 25.287C75.6331 25.208 75.1968 25.7179 75.0589 26.4216H75.0598Z" fill="#31283C"/>
<path d="M78.2172 34.6524C79.1572 34.6524 79.7976 34.1893 79.838 34.1609L79.2776 33.3983C79.239 33.425 78.2897 34.0827 77.0897 33.3735L76.6064 34.1875C77.1917 34.5348 77.7413 34.6533 78.2163 34.6533L78.2172 34.6524Z" fill="#31283C"/>
<defs>
<filter id="filter0_d_1_345" x="53.4561" y="30.2292" width="23.3973" height="49.3411" filterUnits="userSpaceOnUse" color-interpolation-filters="sRGB">
<feFlood flood-opacity="0" result="BackgroundImageFix"/>
<feColorMatrix in="SourceAlpha" type="matrix" values="0 0 0 0 0 0 0 0 0 0 0 0 0 0 0 0 0 0 127 0" result="hardAlpha"/>
<feOffset dx="-4"/>
<feGaussianBlur stdDeviation="3"/>
<feColorMatrix type="matrix" values="0 0 0 0 1 0 0 0 0 0.6 0 0 0 0 0 0 0 0 0.6 0"/>
<feBlend mode="normal" in2="BackgroundImageFix" result="effect1_dropShadow_1_345"/>
<feBlend mode="normal" in="SourceGraphic" in2="effect1_dropShadow_1_345" result="shape"/>
</filter>
<filter id="filter1_d_1_345" x="52.0845" y="135.633" width="27.774" height="27.2716" filterUnits="userSpaceOnUse" color-interpolation-filters="sRGB">
<feFlood flood-opacity="0" result="BackgroundImageFix"/>
<feColorMatrix in="SourceAlpha" type="matrix" values="0 0 0 0 0 0 0 0 0 0 0 0 0 0 0 0 0 0 127 0" result="hardAlpha"/>
<feOffset dx="-4"/>
<feGaussianBlur stdDeviation="3"/>
<feColorMatrix type="matrix" values="0 0 0 0 1 0 0 0 0 0.431373 0 0 0 0 0.478431 0 0 0 1 0"/>
<feBlend mode="normal" in2="BackgroundImageFix" result="effect1_dropShadow_1_345"/>
<feBlend mode="normal" in="SourceGraphic" in2="effect1_dropShadow_1_345" result="shape"/>
</filter>
<filter id="filter2_d_1_345" x="94.9961" y="104.975" width="21.7507" height="28.9441" filterUnits="userSpaceOnUse" color-interpolation-filters="sRGB">
<feFlood flood-opacity="0" result="BackgroundImageFix"/>
<feColorMatrix in="SourceAlpha" type="matrix" values="0 0 0 0 0 0 0 0 0 0 0 0 0 0 0 0 0 0 127 0" result="hardAlpha"/>
<feOffset dx="-4"/>
<feGaussianBlur stdDeviation="3"/>
<feColorMatrix type="matrix" values="0 0 0 0 1 0 0 0 0 0.431373 0 0 0 0 0.478431 0 0 0 1 0"/>
<feBlend mode="normal" in2="BackgroundImageFix" result="effect1_dropShadow_1_345"/>
<feBlend mode="normal" in="SourceGraphic" in2="effect1_dropShadow_1_345" result="shape"/>
</filter>
<filter id="filter3_d_1_345" x="60.9487" y="26.5759" width="45.1609" height="63.3071" filterUnits="userSpaceOnUse" color-interpolation-filters="sRGB">
<feFlood flood-opacity="0" result="BackgroundImageFix"/>
<feColorMatrix in="SourceAlpha" type="matrix" values="0 0 0 0 0 0 0 0 0 0 0 0 0 0 0 0 0 0 127 0" result="hardAlpha"/>
<feOffset dx="-4"/>
<feGaussianBlur stdDeviation="3"/>
<feColorMatrix type="matrix" values="0 0 0 0 1 0 0 0 0 0.6 0 0 0 0 0 0 0 0 0.6 0"/>
<feBlend mode="normal" in2="BackgroundImageFix" result="effect1_dropShadow_1_345"/>
<feBlend mode="normal" in="SourceGraphic" in2="effect1_dropShadow_1_345" result="shape"/>
</filter>
<filter id="filter4_d_1_345" x="41.5181" y="57.0305" width="43.0874" height="34.5453" filterUnits="userSpaceOnUse" color-interpolation-filters="sRGB">
<feFlood flood-opacity="0" result="BackgroundImageFix"/>
<feColorMatrix in="SourceAlpha" type="matrix" values="0 0 0 0 0 0 0 0 0 0 0 0 0 0 0 0 0 0 127 0" result="hardAlpha"/>
<feOffset dx="-4"/>
<feGaussianBlur stdDeviation="3"/>
<feColorMatrix type="matrix" values="0 0 0 0 1 0 0 0 0 0.431373 0 0 0 0 0.478431 0 0 0 1 0"/>
<feBlend mode="normal" in2="BackgroundImageFix" result="effect1_dropShadow_1_345"/>
<feBlend mode="normal" in="SourceGraphic" in2="effect1_dropShadow_1_345" result="shape"/>
</filter>
<filter id="filter5_d_1_345" x="41.5156" y="54.3882" width="43.0934" height="30.4669" filterUnits="userSpaceOnUse" color-interpolation-filters="sRGB">
<feFlood flood-opacity="0" result="BackgroundImageFix"/>
<feColorMatrix in="SourceAlpha" type="matrix" values="0 0 0 0 0 0 0 0 0 0 0 0 0 0 0 0 0 0 127 0" result="hardAlpha"/>
<feOffset dx="-4"/>
<feGaussianBlur stdDeviation="3"/>
<feColorMatrix type="matrix" values="0 0 0 0 1 0 0 0 0 0.431373 0 0 0 0 0.478431 0 0 0 1 0"/>
<feBlend mode="normal" in2="BackgroundImageFix" result="effect1_dropShadow_1_345"/>
<feBlend mode="normal" in="SourceGraphic" in2="effect1_dropShadow_1_345" result="shape"/>
</filter>
<filter id="filter6_d_1_345" x="39.6245" y="44.639" width="43.0894" height="34.5453" filterUnits="userSpaceOnUse" color-interpolation-filters="sRGB">
<feFlood flood-opacity="0" result="BackgroundImageFix"/>
<feColorMatrix in="SourceAlpha" type="matrix" values="0 0 0 0 0 0 0 0 0 0 0 0 0 0 0 0 0 0 127 0" result="hardAlpha"/>
<feOffset dx="-4"/>
<feGaussianBlur stdDeviation="3"/>
<feColorMatrix type="matrix" values="0 0 0 0 1 0 0 0 0 0.431373 0 0 0 0 0.478431 0 0 0 1 0"/>
<feBlend mode="normal" in2="BackgroundImageFix" result="effect1_dropShadow_1_345"/>
<feBlend mode="normal" in="SourceGraphic" in2="effect1_dropShadow_1_345" result="shape"/>
</filter>
<filter id="filter7_d_1_345" x="39.6245" y="41.995" width="43.094" height="30.4669" filterUnits="userSpaceOnUse" color-interpolation-filters="sRGB">
<feFlood flood-opacity="0" result="BackgroundImageFix"/>
<feColorMatrix in="SourceAlpha" type="matrix" values="0 0 0 0 0 0 0 0 0 0 0 0 0 0 0 0 0 0 127 0" result="hardAlpha"/>
<feOffset dx="-4"/>
<feGaussianBlur stdDeviation="3"/>
<feColorMatrix type="matrix" values="0 0 0 0 1 0 0 0 0 0.431373 0 0 0 0 0.478431 0 0 0 1 0"/>
<feBlend mode="normal" in2="BackgroundImageFix" result="effect1_dropShadow_1_345"/>
<feBlend mode="normal" in="SourceGraphic" in2="effect1_dropShadow_1_345" result="shape"/>
</filter>
<filter id="filter8_d_1_345" x="79.3477" y="35.4326" width="36.4485" height="47.1581" filterUnits="userSpaceOnUse" color-interpolation-filters="sRGB">
<feFlood flood-opacity="0" result="BackgroundImageFix"/>
<feColorMatrix in="SourceAlpha" type="matrix" values="0 0 0 0 0 0 0 0 0 0 0 0 0 0 0 0 0 0 127 0" result="hardAlpha"/>
<feOffset dx="-4"/>
<feGaussianBlur stdDeviation="3"/>
<feColorMatrix type="matrix" values="0 0 0 0 1 0 0 0 0 0.6 0 0 0 0 0 0 0 0 0.6 0"/>
<feBlend mode="normal" in2="BackgroundImageFix" result="effect1_dropShadow_1_345"/>
<feBlend mode="normal" in="SourceGraphic" in2="effect1_dropShadow_1_345" result="shape"/>
</filter>
<radialGradient id="paint0_radial_1_345" cx="0" cy="0" r="1" gradientUnits="userSpaceOnUse" gradientTransform="translate(85 85.6123) rotate(90) scale(85)">
<stop stop-color="#7795FF"/>
<stop offset="1" stop-color="#331E87"/>
</radialGradient>
<linearGradient id="paint1_linear_1_345" x1="62.0845" y1="149.269" x2="77.8585" y2="149.269" gradientUnits="userSpaceOnUse">
<stop stop-color="#F9D423"/>
<stop offset="1" stop-color="#FF4E50"/>
</linearGradient>
<linearGradient id="paint2_linear_1_345" x1="104.996" y1="119.447" x2="114.747" y2="119.447" gradientUnits="userSpaceOnUse">
<stop stop-color="#F9D423"/>
<stop offset="1" stop-color="#FF4E50"/>
</linearGradient>
<linearGradient id="paint3_linear_1_345" x1="70.9487" y1="58.2295" x2="104.11" y2="58.2295" gradientUnits="userSpaceOnUse">
<stop stop-color="#F9D423"/>
<stop offset="1" stop-color="#FF4E50"/>
</linearGradient>
<linearGradient id="paint4_linear_1_345" x1="51.5181" y1="74.3032" x2="82.6055" y2="74.3032" gradientUnits="userSpaceOnUse">
<stop stop-color="#CC208E"/>
<stop offset="1" stop-color="#6713D2"/>
</linearGradient>
<linearGradient id="paint5_linear_1_345" x1="51.5156" y1="69.6216" x2="82.609" y2="69.6216" gradientUnits="userSpaceOnUse">
<stop stop-color="#00DBDE"/>
<stop offset="1" stop-color="#FC00FF"/>
</linearGradient>
<linearGradient id="paint6_linear_1_345" x1="49.6245" y1="61.9117" x2="80.7139" y2="61.9117" gradientUnits="userSpaceOnUse">
<stop stop-color="#CC208E"/>
<stop offset="1" stop-color="#6713D2"/>
</linearGradient>
<linearGradient id="paint7_linear_1_345" x1="49.6245" y1="57.2285" x2="80.7185" y2="57.2285" gradientUnits="userSpaceOnUse">
<stop stop-color="#00DBDE"/>
<stop offset="1" stop-color="#FC00FF"/>
</linearGradient>
<linearGradient id="paint8_linear_1_345" x1="48.2456" y1="51.6096" x2="65.1703" y2="51.6096" gradientUnits="userSpaceOnUse">
<stop stop-color="#F9D423"/>
<stop offset="1" stop-color="#FF4E50"/>
</linearGradient>
<linearGradient id="paint9_linear_1_345" x1="89.3477" y1="59.0116" x2="113.796" y2="59.0116" gradientUnits="userSpaceOnUse">
<stop stop-color="#F9D423"/>
<stop offset="1" stop-color="#FF4E50"/>
</linearGradient>
</defs>
</svg>
