<svg width="170" height="171" viewBox="0 0 170 171" fill="none" xmlns="http://www.w3.org/2000/svg">
<circle cx="85" cy="85.6124" r="85" fill="url(#paint0_radial_1_415)"/>
<path d="M23.9998 112L34.3176 95.3932L86.8047 103.254L129 74L141 95.3932" stroke="#94DDFF" stroke-width="4" stroke-miterlimit="22.9256" stroke-linecap="round" stroke-linejoin="bevel"/>
<path d="M39.9999 134L48.1311 110.877L86.8148 105.017L121.499 96.0983L134 118" stroke="#94DDFF" stroke-width="4" stroke-miterlimit="22.9256" stroke-linecap="round" stroke-linejoin="bevel"/>
<path d="M16.6777 92.0488L31.1081 75.7269L76.8978 98.6328" stroke="#94DDFF" stroke-width="4" stroke-miterlimit="22.9256" stroke-linecap="round" stroke-linejoin="bevel"/>
<path d="M91.7176 98.223L112.256 73.059L119.562 109.314" stroke="#94DDFF" stroke-width="4" stroke-miterlimit="22.9256" stroke-linecap="round" stroke-linejoin="bevel"/>
<path fill-rule="evenodd" clip-rule="evenodd" d="M76.8975 84.1975L86.6919 87.0274L91.6224 84.3976L91.7174 98.223L86.9294 105.083L76.8975 98.6328V84.1975Z" fill="#3881FF" stroke="#69CCFA" stroke-width="2" stroke-miterlimit="22.9256" stroke-linecap="round" stroke-linejoin="round"/>
<path fill-rule="evenodd" clip-rule="evenodd" d="M70.7128 49.1336L83.7087 37.4139L85.1147 52.4876L70.7128 49.1336Z" fill="#FEFEFE" stroke="#45C4FF" stroke-width="0.200139" stroke-miterlimit="22.9256"/>
<path fill-rule="evenodd" clip-rule="evenodd" d="M70.0292 49.8388L83.4716 35.9276L97.541 49.8388V82.2729L85.7136 86.5224L70.0292 82.2729V49.8388Z" fill="#FFD000" stroke="#45C4FF" stroke-width="0.499315" stroke-miterlimit="22.9256" stroke-linecap="round" stroke-linejoin="round"/>
<path fill-rule="evenodd" clip-rule="evenodd" d="M70.1147 49.5529L83.5571 35.6417L97.617 49.5529V81.987L85.7896 86.2365L70.1147 81.987V49.5529Z" fill="#2D35A6" stroke="#69CCFA" stroke-width="2" stroke-miterlimit="22.9256"/>
<path d="M70.0292 49.8387L86.1411 52.6686L97.541 49.8387" stroke="#45C4FF" stroke-width="2" stroke-miterlimit="22.9256" stroke-linecap="round" stroke-linejoin="round"/>
<path d="M83.4712 35.9276L86.1407 52.6687L86.0362 60.6438L92.7241 68.0853L86.1312 75.8604L86.1882 86.3509" stroke="#94DDFF" stroke-width="2" stroke-miterlimit="22.9256" stroke-linecap="round" stroke-linejoin="round"/>
<path d="M78.9151 67.435C78.6141 67.8048 78.6161 68.3357 78.9198 68.7032L85.1335 76.2223L85.1818 85.5572L71.0292 81.5183V51.0297L85.1422 53.5085L85.1502 59.7743L78.9151 67.435Z" fill="#3881FF" stroke="#94DDFF" stroke-width="2" stroke-miterlimit="22.9256" stroke-linecap="round" stroke-linejoin="round"/>
<path fill-rule="evenodd" clip-rule="evenodd" d="M86.6909 87.0274L86.8239 106.208L91.7163 98.223L91.6213 84.3976L86.6909 87.0274Z" fill="#2D35A6" stroke="#45C4FF" stroke-width="0.200139" stroke-miterlimit="22.9256" stroke-linecap="round" stroke-linejoin="round"/>
<path fill-rule="evenodd" clip-rule="evenodd" d="M79.6899 68.0662L86.0358 60.6437L92.7238 68.0852L86.1308 75.8602L79.6899 68.0662Z" fill="#FFBB00" stroke="#45C4FF" stroke-width="0.200139" stroke-miterlimit="22.9256"/>
<path d="M86.8148 105.017L121.499 96.0983L133 119" stroke="#94DDFF" stroke-width="4" stroke-miterlimit="22.9256" stroke-linecap="round" stroke-linejoin="bevel"/>
<g filter="url(#filter0_d_1_415)">
<path d="M150.018 85.6172C150.018 47.8378 119.466 17.1951 81.7989 17.1951C44.1317 17.1951 13.5799 47.8378 13.5799 85.6172C13.5799 123.397 44.1317 154.039 81.7989 154.039C119.466 154.039 150.018 123.397 150.018 85.6172ZM46.6397 41.7683C56.3391 33.9457 68.442 29.3531 81.7894 29.3531C112.769 29.3531 137.896 54.5552 137.896 85.6267C137.896 98.1087 133.887 110.448 125.518 120.881C99.2218 94.507 72.9355 68.1424 46.6397 41.7683ZM116.949 129.476C107.249 137.298 95.1463 141.891 81.7989 141.891C50.8196 141.891 25.6923 116.689 25.6923 85.6172C25.6923 73.1352 29.7013 60.7962 38.0707 50.3628C64.3665 76.7369 90.6529 103.101 116.949 129.476Z" fill="url(#paint1_linear_1_415)"/>
<path d="M150.018 85.6172C150.018 47.8378 119.466 17.1951 81.7989 17.1951C44.1317 17.1951 13.5799 47.8378 13.5799 85.6172C13.5799 123.397 44.1317 154.039 81.7989 154.039C119.466 154.039 150.018 123.397 150.018 85.6172ZM46.6397 41.7683C56.3391 33.9457 68.442 29.3531 81.7894 29.3531C112.769 29.3531 137.896 54.5552 137.896 85.6267C137.896 98.1087 133.887 110.448 125.518 120.881C99.2218 94.507 72.9355 68.1424 46.6397 41.7683ZM116.949 129.476C107.249 137.298 95.1463 141.891 81.7989 141.891C50.8196 141.891 25.6923 116.689 25.6923 85.6172C25.6923 73.1352 29.7013 60.7962 38.0707 50.3628C64.3665 76.7369 90.6529 103.101 116.949 129.476Z" stroke="#33295F" stroke-width="2" stroke-miterlimit="22.9256"/>
</g>
<defs>
<filter id="filter0_d_1_415" x="0.579895" y="8.19507" width="154.438" height="154.844" filterUnits="userSpaceOnUse" color-interpolation-filters="sRGB">
<feFlood flood-opacity="0" result="BackgroundImageFix"/>
<feColorMatrix in="SourceAlpha" type="matrix" values="0 0 0 0 0 0 0 0 0 0 0 0 0 0 0 0 0 0 127 0" result="hardAlpha"/>
<feOffset dx="-4"/>
<feGaussianBlur stdDeviation="4"/>
<feColorMatrix type="matrix" values="0 0 0 0 1 0 0 0 0 0.431373 0 0 0 0 0.478431 0 0 0 0.8 0"/>
<feBlend mode="normal" in2="BackgroundImageFix" result="effect1_dropShadow_1_415"/>
<feBlend mode="normal" in="SourceGraphic" in2="effect1_dropShadow_1_415" result="shape"/>
</filter>
<radialGradient id="paint0_radial_1_415" cx="0" cy="0" r="1" gradientUnits="userSpaceOnUse" gradientTransform="translate(85 85.6124) rotate(90) scale(85)">
<stop stop-color="#7795FF"/>
<stop offset="1" stop-color="#331E87"/>
</radialGradient>
<linearGradient id="paint1_linear_1_415" x1="13.5799" y1="85.6172" x2="150.018" y2="85.6172" gradientUnits="userSpaceOnUse">
<stop stop-color="#A445B2"/>
<stop offset="0.52" stop-color="#D41872"/>
<stop offset="1" stop-color="#FF0066"/>
</linearGradient>
</defs>
</svg>
