<svg width="24" height="24" viewBox="0 0 24 24" fill="none" xmlns="http://www.w3.org/2000/svg">
<rect width="24" height="24" rx="6" fill="#FAFAFA"/>
<path d="M20.9045 16.3939C20.8827 16.3413 20.8624 16.2976 20.8435 16.2626C20.5312 15.6323 19.9345 14.8586 19.0535 13.9414L19.0349 13.9204L19.0256 13.9101L19.0162 13.8995H19.0067C18.6069 13.4724 18.3537 13.1852 18.2477 13.0381C18.0537 12.7581 18.0102 12.4745 18.1163 12.1873C18.1912 11.9702 18.4726 11.5119 18.9597 10.8116C19.216 10.4405 19.419 10.143 19.5688 9.9189C20.6498 8.3084 21.1185 7.27926 20.9747 6.8311L20.9188 6.72637C20.8813 6.66332 20.7845 6.60563 20.6285 6.55303C20.4721 6.50054 20.2722 6.49186 20.0285 6.52684L17.3295 6.54773C17.2858 6.53037 17.2233 6.53199 17.142 6.55303C17.0607 6.57407 17.0201 6.58463 17.0201 6.58463L16.9731 6.61093L16.9358 6.64253C16.9046 6.66343 16.8702 6.70018 16.8327 6.75271C16.7954 6.80505 16.7642 6.86649 16.7392 6.93649C16.4454 7.78371 16.1113 8.57142 15.7363 9.29956C15.5051 9.73375 15.2928 10.11 15.0989 10.4286C14.9053 10.7471 14.7428 10.9818 14.6117 11.1322C14.4804 11.2828 14.3619 11.4034 14.2555 11.4945C14.1492 11.5857 14.0681 11.6242 14.012 11.6101C13.9557 11.596 13.9027 11.582 13.8525 11.5681C13.7651 11.505 13.6947 11.4193 13.6417 11.3107C13.5885 11.2022 13.5526 11.0656 13.5339 10.9011C13.5153 10.7364 13.5042 10.5948 13.5011 10.4757C13.4982 10.3568 13.4995 10.1886 13.5058 9.97154C13.5123 9.75439 13.5153 9.60747 13.5153 9.53043C13.5153 9.26432 13.5199 8.97551 13.5292 8.66393C13.5386 8.35236 13.5463 8.10548 13.5527 7.92361C13.559 7.74156 13.562 7.54894 13.562 7.34588C13.562 7.14282 13.551 6.98358 13.5292 6.86799C13.5076 6.75256 13.4746 6.64051 13.431 6.53188C13.3872 6.42336 13.3231 6.33941 13.2389 6.27982C13.1546 6.2203 13.0497 6.17307 12.925 6.13797C12.5938 6.05399 12.1721 6.00856 11.6596 6.00149C10.4976 5.98752 9.75093 6.07161 9.41979 6.25366C9.28859 6.33058 9.16986 6.43568 9.0637 6.56863C8.95121 6.72273 8.93552 6.80682 9.01673 6.82065C9.39166 6.88359 9.65708 7.03416 9.8133 7.2722L9.86959 7.39834C9.91338 7.48935 9.9571 7.65047 10.0009 7.88149C10.0445 8.11251 10.0727 8.36806 10.0852 8.64801C10.1163 9.15922 10.1163 9.59683 10.0852 9.96087C10.0539 10.3251 10.0243 10.6086 9.99613 10.8116C9.96794 11.0147 9.92579 11.1792 9.86959 11.3052C9.8133 11.4313 9.77584 11.5083 9.75707 11.5362C9.73832 11.5642 9.7227 11.5818 9.71029 11.5887C9.62908 11.6236 9.54462 11.6414 9.45721 11.6414C9.36966 11.6414 9.26351 11.5923 9.13857 11.4942C9.01367 11.3962 8.88405 11.2614 8.74969 11.0899C8.61534 10.9183 8.46382 10.6785 8.29507 10.3704C8.12644 10.0624 7.95148 9.69829 7.77029 9.27819L7.62038 8.97353C7.52666 8.77753 7.39864 8.49214 7.23619 8.11762C7.07364 7.74295 6.92996 7.38054 6.80506 7.03044C6.75514 6.88341 6.68013 6.77147 6.58018 6.69444L6.53327 6.66284C6.50209 6.63488 6.45203 6.60519 6.38336 6.57356C6.31459 6.54196 6.24283 6.5193 6.1678 6.50536L3.59991 6.52625C3.33751 6.52625 3.15946 6.59287 3.06572 6.72593L3.0282 6.78887C3.00945 6.82392 3 6.87991 3 6.95698C3 7.03401 3.01874 7.12855 3.05626 7.24049C3.43113 8.22783 3.83878 9.18005 4.27923 10.0973C4.71968 11.0145 5.10242 11.7534 5.42723 12.3132C5.7521 12.8734 6.08324 13.4021 6.42065 13.8991C6.75806 14.3963 6.9814 14.7149 7.09068 14.8548C7.20008 14.9951 7.28602 15.0999 7.34849 15.1699L7.58282 15.4219C7.73277 15.59 7.95296 15.7913 8.2435 16.0258C8.5341 16.2605 8.85582 16.4915 9.20882 16.7192C9.56189 16.9466 9.97263 17.1322 10.4413 17.2757C10.9099 17.4193 11.3659 17.477 11.8096 17.4492H12.8873C13.1059 17.428 13.2715 17.351 13.3841 17.218L13.4214 17.1654C13.4465 17.1236 13.4699 17.0587 13.4916 16.9713C13.5135 16.8838 13.5244 16.7874 13.5244 16.6825C13.518 16.3815 13.5385 16.1102 13.5852 15.8686C13.6319 15.6272 13.6852 15.4451 13.7447 15.3225C13.8042 15.2 13.8714 15.0966 13.9461 15.0128C14.021 14.9289 14.0744 14.878 14.1057 14.8605C14.1368 14.8428 14.1617 14.8309 14.1804 14.8237C14.3304 14.7677 14.5068 14.8219 14.7101 14.9866C14.9132 15.1512 15.1037 15.3544 15.2818 15.5958C15.4599 15.8375 15.6739 16.1087 15.9237 16.4097C16.1738 16.7108 16.3924 16.9347 16.5798 17.0819L16.7671 17.2079C16.8922 17.292 17.0547 17.3691 17.2547 17.4391C17.4543 17.509 17.6292 17.5265 17.7793 17.4916L20.1784 17.4496C20.4157 17.4496 20.6004 17.4056 20.7314 17.3182C20.8626 17.2307 20.9405 17.1343 20.9657 17.0294C20.9908 16.9244 20.9921 16.8053 20.9704 16.6722C20.9482 16.5393 20.9263 16.4464 20.9045 16.3939Z" fill="#31283C"/>
</svg>
