<svg width="100" height="100" viewBox="0 0 100 100" fill="none" xmlns="http://www.w3.org/2000/svg">
<path d="M89.7177 0C95.1355 0 99.5287 4.41427 99.5287 9.85811V90.1419C99.5287 95.5889 95.1355 100 89.7177 100H9.81102C4.39318 100 0 95.5857 0 90.1419V9.85811C0 4.41105 4.39318 0 9.81102 0H89.7177ZM89.7177 3.74505H9.81102C6.4649 3.74505 3.72076 6.49271 3.72076 9.85811V24.1659H95.8047V9.85811C95.8047 6.49593 93.067 3.74505 89.7209 3.74505H89.7177ZM37.832 12.1843C38.8726 12.1843 39.6956 13.0079 39.6956 14.0504C39.6956 15.0928 38.8694 15.9229 37.832 15.9229C36.7945 15.9229 35.9748 15.096 35.9748 14.0504C35.9748 13.0047 36.7913 12.1843 37.832 12.1843ZM25.914 12.1843C26.9547 12.1843 27.7712 13.0047 27.7712 14.0504C27.7712 15.096 26.9515 15.9229 25.914 15.9229C24.8766 15.9229 24.0504 15.0928 24.0504 14.0504C24.0504 13.0079 24.8734 12.1843 25.914 12.1843ZM13.9865 12.1843C15.0271 12.1843 15.85 13.0079 15.85 14.0504C15.85 15.0928 15.0239 15.9229 13.9865 15.9229C12.949 15.9229 12.1229 15.0928 12.1229 14.0504C12.1229 13.0079 12.9458 12.1843 13.9865 12.1843ZM95.8015 27.9077H3.71756V90.1515C3.71756 93.5169 6.4617 96.2646 9.80782 96.2646H89.7145C93.0606 96.2646 95.7983 93.5137 95.7983 90.1515V29.0338L95.8015 27.9077Z" fill="#150035"/>
<path d="M10.887 75.8688L26.9996 56.7079C31.3543 61.4981 33.9672 63.6755 40.0639 70.6431L56.6119 47.1274L66.6279 56.7079L84.9179 36.2405" stroke="#150035" stroke-width="3" stroke-linecap="round" stroke-linejoin="round"/>
<rect x="78.5146" y="58.1433" width="5.83857" height="25.8705" fill="#39A1FF" stroke="#150035" stroke-width="2" stroke-linecap="round" stroke-linejoin="round"/>
<rect x="66.3213" y="65.111" width="5.83857" height="18.9029" fill="#39A1FF" stroke="#150035" stroke-width="2" stroke-linecap="round" stroke-linejoin="round"/>
<rect x="54.1282" y="74.6914" width="5.83857" height="9.32238" fill="#39A1FF" stroke="#150035" stroke-width="2" stroke-linecap="round" stroke-linejoin="round"/>
<circle cx="38.3218" cy="43.2082" r="7.70952" fill="#FFBB00" stroke="#150035" stroke-width="2"/>
<path d="M38.7573 35.8051V43.6436L45.2895 42.3372" stroke="#150035" stroke-width="2" stroke-linecap="round" stroke-linejoin="round"/>
<path d="M85.7888 84.1428H37.4509" stroke="#150035" stroke-width="3" stroke-linecap="round"/>
</svg>
