<svg width="101" height="100" viewBox="0 0 101 100" fill="none" xmlns="http://www.w3.org/2000/svg">
<rect x="26.1597" y="32.0669" width="48.9442" height="48.9442" fill="#39A1FF"/>
<path d="M87.0591 26.6665C86.3988 26.6661 85.7394 26.7151 85.0865 26.8132C84.3255 22.5763 82.0947 18.7396 78.7831 15.9717C75.4715 13.2039 71.289 11.6804 66.9646 11.6668C64.94 11.665 62.9292 11.999 61.0149 12.6551C58.8758 8.51513 55.5408 5.10712 51.439 2.86977C47.3372 0.632422 42.6565 -0.331854 37.9994 0.101075C33.3423 0.534003 28.9219 2.34432 25.3074 5.29898C21.6929 8.25364 19.0496 12.2174 17.7178 16.68C12.8984 16.863 8.34324 18.92 5.03097 22.4091C1.71869 25.8983 -0.0864922 30.5412 0.00318848 35.3406C0.0928691 40.1399 2.07026 44.7128 5.5106 48.077C8.95093 51.4411 13.5798 53.3281 18.4027 53.3326H23.4264V83.3321H48.5446V90.3053C47.8442 90.5543 47.2081 90.9549 46.6822 91.4783C46.1563 92.0017 45.7538 92.6348 45.5036 93.3319H20.0773V96.6652H45.5036C45.8446 97.6394 46.4818 98.4838 47.3267 99.0814C48.1717 99.679 49.1826 100 50.2191 100C51.2556 100 52.2665 99.679 53.1115 99.0814C53.9564 98.4838 54.5936 97.6394 54.9346 96.6652H80.3609V93.3319H54.9346C54.6844 92.6348 54.2819 92.0017 53.756 91.4783C53.2301 90.9549 52.594 90.5543 51.8936 90.3053V83.3321H77.0118V53.3326H87.0591C90.6121 53.3326 94.0195 51.9279 96.5318 49.4275C99.0441 46.927 100.455 43.5357 100.455 39.9996C100.455 36.4634 99.0441 33.0721 96.5318 30.5717C94.0195 28.0712 90.6121 26.6665 87.0591 26.6665V26.6665ZM50.2191 96.6652C49.8879 96.6652 49.5642 96.5674 49.2888 96.3843C49.0134 96.2011 48.7988 95.9409 48.672 95.6363C48.5453 95.3318 48.5121 94.9967 48.5767 94.6734C48.6413 94.3501 48.8008 94.0531 49.035 93.82C49.2692 93.5869 49.5676 93.4282 49.8924 93.3639C50.2172 93.2996 50.5539 93.3326 50.8599 93.4588C51.1659 93.5849 51.4274 93.7985 51.6114 94.0726C51.7954 94.3467 51.8936 94.6689 51.8936 94.9985C51.8936 95.4405 51.7172 95.8645 51.4032 96.177C51.0891 96.4896 50.6632 96.6652 50.2191 96.6652ZM73.6627 46.6661H26.7755V33.333H73.6627V46.6661ZM73.6627 79.9988H26.7755V66.6657H73.6627V79.9988ZM26.7755 63.3325V49.9994H73.6627V63.3325H26.7755ZM87.0591 49.9994H77.0118V29.9998H23.4264V49.9994H18.4027C14.4057 49.9994 10.5723 48.4191 7.74598 45.6061C4.91964 42.7931 3.33181 38.9778 3.33181 34.9997C3.33181 31.0215 4.91964 27.2063 7.74598 24.3933C10.5723 21.5803 14.4057 19.9999 18.4027 19.9999L20.3184 20.0733L20.6315 18.74C21.5997 14.6455 23.841 10.9595 27.0365 8.20667C30.232 5.45385 34.2186 3.77461 38.4288 3.40806C42.639 3.04151 46.858 4.00634 50.4852 6.16517C54.1123 8.32399 56.9627 11.5668 58.6303 15.4317L59.3002 16.98L60.8491 16.295C63.0601 15.3133 65.4765 14.8775 67.893 15.0245C70.3095 15.1714 72.6546 15.897 74.729 17.1394C76.8033 18.3817 78.5457 20.1042 79.8078 22.1604C81.07 24.2166 81.8146 26.5457 81.9785 28.9498L82.1242 31.0364L84.1337 30.4297C85.5151 30.013 86.9705 29.8974 88.4009 30.0908C89.8312 30.2842 91.2029 30.7821 92.4226 31.5506C93.6422 32.3191 94.6811 33.3401 95.4686 34.5441C96.2561 35.7482 96.7737 37.1069 96.9861 38.528C97.1986 39.949 97.1008 41.3989 96.6996 42.779C96.2984 44.159 95.6031 45.4369 94.6611 46.5254C93.7191 47.614 92.5525 48.4878 91.2406 49.0872C89.9288 49.6867 88.5026 49.9978 87.0591 49.9994Z" fill="#150035"/>
<path d="M30.6096 74.5157C30.7725 74.6627 30.9594 74.7811 31.1622 74.8656C31.4668 74.9955 31.8034 75.0316 32.1288 74.9692C32.4541 74.9068 32.7532 74.7488 32.9875 74.5157C33.1349 74.3533 33.2538 74.1674 33.3392 73.9657C33.4275 73.7661 33.4732 73.5504 33.4732 73.3323C33.4732 73.1143 33.4275 72.8986 33.3392 72.699C33.2582 72.4951 33.1389 72.3084 32.9875 72.149C32.6637 71.8517 32.2392 71.6865 31.7986 71.6865C31.3579 71.6865 30.9335 71.8517 30.6096 72.149C30.4583 72.3084 30.3389 72.4951 30.258 72.699C30.1722 72.8994 30.1267 73.1146 30.124 73.3323C30.1182 73.551 30.1641 73.7679 30.258 73.9657C30.3433 74.1674 30.4622 74.3533 30.6096 74.5157V74.5157Z" fill="#150035"/>
<path d="M70.3137 69.999H66.9646V76.6656H70.3137V69.999Z" fill="#150035"/>
<path d="M63.6154 69.999H60.2664V76.6656H63.6154V69.999Z" fill="#150035"/>
<path d="M56.9172 69.999H53.5681V76.6656H56.9172V69.999Z" fill="#150035"/>
<path d="M32.7201 55.2827C32.6345 55.2169 32.5382 55.1662 32.4355 55.1327C32.3351 55.082 32.2271 55.0482 32.1156 55.0327C31.8466 54.9791 31.5685 54.9921 31.3057 55.0705C31.0429 55.149 30.8035 55.2905 30.6085 55.4827C30.2995 55.8 30.1261 56.2241 30.1246 56.666C30.1224 56.8855 30.1642 57.1032 30.2476 57.3063C30.331 57.5095 30.4543 57.6941 30.6102 57.8493C30.7731 57.9964 30.96 58.1147 31.1628 58.1993C31.3633 58.2873 31.58 58.3327 31.7991 58.3327C32.0183 58.3327 32.235 58.2873 32.4355 58.1993C32.6381 58.1143 32.8249 57.996 32.9881 57.8493C33.1437 57.6939 33.2668 57.5093 33.3502 57.3061C33.4335 57.103 33.4755 56.8854 33.4737 56.666C33.4675 56.2247 33.2941 55.8021 32.9881 55.4827C32.9043 55.416 32.8189 55.3493 32.7201 55.2827Z" fill="#150035"/>
<path d="M70.3137 53.3326H66.9646V59.9992H70.3137V53.3326Z" fill="#150035"/>
<path d="M63.6154 53.3326H60.2664V59.9992H63.6154V53.3326Z" fill="#150035"/>
<path d="M56.9172 53.3326H53.5681V59.9992H56.9172V53.3326Z" fill="#150035"/>
<path d="M30.6096 41.183C30.7725 41.33 30.9594 41.4484 31.1622 41.5329C31.3628 41.6208 31.5795 41.6662 31.7986 41.6662C32.0177 41.6662 32.2344 41.6208 32.4349 41.5329C32.6427 41.4581 32.8314 41.3387 32.9877 41.1831C33.144 41.0276 33.2639 40.8398 33.3391 40.633C33.425 40.4326 33.4705 40.2174 33.4731 39.9996C33.4731 39.5576 33.2967 39.1337 32.9826 38.8212C32.6686 38.5086 32.2427 38.333 31.7986 38.333C31.3544 38.333 30.9285 38.5086 30.6145 38.8212C30.3004 39.1337 30.124 39.5576 30.124 39.9996C30.1182 40.2183 30.1641 40.4352 30.258 40.633C30.3433 40.8347 30.4622 41.0206 30.6096 41.183Z" fill="#150035"/>
<path d="M70.3137 36.6663H66.9646V43.3328H70.3137V36.6663Z" fill="#150035"/>
<path d="M63.6154 36.6663H60.2664V43.3328H63.6154V36.6663Z" fill="#150035"/>
<path d="M56.9172 36.6663H53.5681V43.3328H56.9172V36.6663Z" fill="#150035"/>
<path d="M37.8605 41.5329C38.061 41.6208 38.2777 41.6661 38.4968 41.6661C38.7159 41.6661 38.9326 41.6208 39.1331 41.5329C39.3358 41.4479 39.5226 41.3296 39.6857 41.1829C39.92 40.9497 40.0788 40.6521 40.1415 40.3282C40.2041 40.0044 40.1679 39.6694 40.0374 39.3663C39.9565 39.1623 39.8371 38.9756 39.6857 38.8163C39.3619 38.5189 38.9374 38.3538 38.4968 38.3538C38.0562 38.3538 37.6317 38.5189 37.3079 38.8163C37.1565 38.9756 37.0371 39.1623 36.9562 39.3663C36.8624 39.564 36.8165 39.781 36.8223 39.9996C36.8201 40.2191 36.8619 40.4368 36.9453 40.6399C37.0287 40.8431 37.1519 41.0277 37.3079 41.1829C37.4708 41.33 37.6576 41.4483 37.8605 41.5329V41.5329Z" fill="#150035"/>
<path d="M37.3085 55.4826C37.0017 55.8016 36.8282 56.2245 36.8228 56.666C36.8206 56.8854 36.8625 57.1031 36.9458 57.3063C37.0292 57.5095 37.1525 57.6941 37.3085 57.8493C37.4713 57.9963 37.6582 58.1147 37.8611 58.1993C38.1145 58.3074 38.3911 58.3509 38.6657 58.3258C38.9403 58.3007 39.2043 58.2079 39.4338 58.0556C39.6633 57.9034 39.8509 57.6965 39.9798 57.4539C40.1087 57.2112 40.1747 56.9404 40.1719 56.666C40.1739 56.3349 40.0767 56.0108 39.8928 55.7349C39.709 55.4591 39.4467 55.244 39.1395 55.117C38.8324 54.9901 38.4941 54.9571 38.168 55.0222C37.8419 55.0873 37.5427 55.2476 37.3085 55.4826V55.4826Z" fill="#150035"/>
<path d="M37.8605 74.8656C38.061 74.9535 38.2777 74.9989 38.4968 74.9989C38.7159 74.9989 38.9326 74.9535 39.1331 74.8656C39.3358 74.7807 39.5226 74.6624 39.6857 74.5157C39.92 74.2825 40.0788 73.9848 40.1415 73.661C40.2041 73.3372 40.1679 73.0021 40.0374 72.699C39.9565 72.4951 39.8371 72.3084 39.6857 72.149C39.3619 71.8517 38.9374 71.6865 38.4968 71.6865C38.0562 71.6865 37.6317 71.8517 37.3079 72.149C37.1565 72.3084 37.0371 72.4951 36.9562 72.699C36.8624 72.8968 36.8165 73.1137 36.8223 73.3323C36.8201 73.5518 36.8619 73.7695 36.9453 73.9727C37.0287 74.1759 37.1519 74.3605 37.3079 74.5157C37.4708 74.6627 37.6576 74.7811 37.8605 74.8656V74.8656Z" fill="#150035"/>
<circle cx="31.6448" cy="40.0837" r="2.10966" fill="#FFBB00"/>
<circle cx="38.3958" cy="56.1171" r="2.10966" fill="#FFBB00"/>
<circle cx="38.3958" cy="73.8382" r="2.10966" fill="#FFBB00"/>
</svg>
