<svg width="100" height="100" viewBox="0 0 100 100" fill="none" xmlns="http://www.w3.org/2000/svg">
<path d="M89.7177 0C95.1355 0 99.5287 4.41427 99.5287 9.85811V90.1419C99.5287 95.5889 95.1355 100 89.7177 100H9.81102C4.39318 100 0 95.5857 0 90.1419V9.85811C0 4.41105 4.39318 0 9.81102 0H89.7177ZM89.7177 3.74505H9.81102C6.4649 3.74505 3.72076 6.49271 3.72076 9.85811V24.1659H95.8047V9.85811C95.8047 6.49593 93.067 3.74505 89.7209 3.74505H89.7177ZM37.832 12.1843C38.8726 12.1843 39.6956 13.0079 39.6956 14.0504C39.6956 15.0928 38.8694 15.9229 37.832 15.9229C36.7945 15.9229 35.9748 15.096 35.9748 14.0504C35.9748 13.0047 36.7913 12.1843 37.832 12.1843ZM25.914 12.1843C26.9547 12.1843 27.7712 13.0047 27.7712 14.0504C27.7712 15.096 26.9515 15.9229 25.914 15.9229C24.8766 15.9229 24.0504 15.0928 24.0504 14.0504C24.0504 13.0079 24.8734 12.1843 25.914 12.1843ZM13.9865 12.1843C15.0271 12.1843 15.85 13.0079 15.85 14.0504C15.85 15.0928 15.0239 15.9229 13.9865 15.9229C12.949 15.9229 12.1229 15.0928 12.1229 14.0504C12.1229 13.0079 12.9458 12.1843 13.9865 12.1843ZM95.8015 27.9077H3.71756V90.1515C3.71756 93.5169 6.4617 96.2646 9.80782 96.2646H89.7145C93.0606 96.2646 95.7983 93.5137 95.7983 90.1515V29.0338L95.8015 27.9077Z" fill="#150035"/>
<path d="M30.4834 65.3214H69.6762V85.3533H30.4834V65.3214Z" fill="#39A1FF"/>
<path d="M27.8704 65.3214H71.418V52.2571H27.8704V65.3214Z" fill="#FF6E7A" fill-opacity="0.3"/>
<path d="M73.714 64.9323V52.0829C73.714 51.7773 73.5941 51.4842 73.3805 51.2681C73.1669 51.052 72.8773 50.9305 72.5753 50.9305H63.0665C63.7782 49.9223 64.1568 48.7123 64.1483 47.4733C64.1636 46.0008 63.604 44.5816 62.5912 43.5243C61.5783 42.4669 60.194 41.8568 58.7391 41.8265C54.1271 41.8265 51.5079 45.7447 50.1983 48.6257C48.8887 45.7447 46.2695 41.8265 41.6575 41.8265C40.2026 41.8568 38.8183 42.4669 37.8055 43.5243C36.7926 44.5816 36.233 46.0008 36.2483 47.4733C36.2398 48.7123 36.6185 49.9223 37.3302 50.9305H27.8214C27.5194 50.9305 27.2297 51.052 27.0162 51.2681C26.8026 51.4842 26.6826 51.7773 26.6826 52.0829V64.9323C26.6826 65.2379 26.8026 65.531 27.0162 65.7471C27.2297 65.9632 27.5194 66.0847 27.8214 66.0847H28.9602V85.9636C28.9602 86.2693 29.0801 86.5624 29.2937 86.7785C29.5073 86.9946 29.7969 87.116 30.0989 87.116H70.2977C70.5997 87.116 70.8894 86.9946 71.1029 86.7785C71.3165 86.5624 71.4365 86.2693 71.4365 85.9636V66.0847H72.5753C72.8773 66.0847 73.1669 65.9632 73.3805 65.7471C73.5941 65.531 73.714 65.2379 73.714 64.9323ZM58.7391 44.1313C59.59 44.1614 60.395 44.5286 60.9808 45.1538C61.5666 45.7789 61.8862 46.6119 61.8708 47.4733C61.9018 48.3502 61.5908 49.2043 61.0048 49.8512C60.4189 50.498 59.6051 50.8857 58.7391 50.9305H51.7357C52.5898 48.6257 54.7534 44.1313 58.7391 44.1313ZM38.5259 47.4733C38.5104 46.6119 38.83 45.7789 39.4158 45.1538C40.0016 44.5286 40.8067 44.1614 41.6575 44.1313C45.6432 44.1313 47.8069 48.6257 48.661 50.9305H41.6575C40.7915 50.8857 39.9777 50.498 39.3918 49.8512C38.8059 49.2043 38.4948 48.3502 38.5259 47.4733V47.4733ZM28.9602 63.7798V53.2353H49.0595V63.7798H28.9602ZM31.2377 84.8112V66.0847H49.0595V84.8112H31.2377ZM69.1589 84.8112H51.3371V66.0847H69.1589V84.8112ZM71.4365 63.7798H51.3371V53.2353H71.4365V63.7798Z" fill="#150035"/>
<path d="M22.3281 47.0523L15.3605 40.0847" stroke="#150035" stroke-width="2" stroke-linecap="round" stroke-linejoin="round"/>
<path d="M28.1117 43.9289L25.254 34.4987" stroke="#150035" stroke-width="2" stroke-linecap="round" stroke-linejoin="round"/>
<path d="M20.7719 52.5907L11.0057 51.2803" stroke="#150035" stroke-width="2" stroke-linecap="round" stroke-linejoin="round"/>
<path d="M80.1713 47.0523L87.1389 40.0847" stroke="#150035" stroke-width="2" stroke-linecap="round" stroke-linejoin="round"/>
<path d="M74.3877 43.9289L77.2454 34.4987" stroke="#150035" stroke-width="2" stroke-linecap="round" stroke-linejoin="round"/>
<path d="M81.7275 52.5907L91.4937 51.2803" stroke="#150035" stroke-width="2" stroke-linecap="round" stroke-linejoin="round"/>
</svg>
