<svg width="101" height="100" viewBox="0 0 101 100" fill="none" xmlns="http://www.w3.org/2000/svg">
<rect x="24.5608" y="68.4658" width="53.1281" height="11.3224" fill="#39A1FF"/>
<path d="M90.2498 0C95.6679 0 100.061 4.41427 100.061 9.85811V90.1419C100.061 95.5889 95.6679 100 90.2498 100H10.3402C4.92216 100 0.528809 95.5857 0.528809 90.1419V9.85811C0.528809 4.41105 4.92216 0 10.3402 0H90.2498ZM90.2498 3.74505H10.3402C6.99395 3.74505 4.24971 6.49271 4.24971 9.85811V24.1659H96.3371V9.85811C96.3371 6.49593 93.5993 3.74505 90.253 3.74505H90.2498ZM38.3622 12.1843C39.4029 12.1843 40.2259 13.0079 40.2259 14.0504C40.2259 15.0928 39.3997 15.9229 38.3622 15.9229C37.3247 15.9229 36.505 15.096 36.505 14.0504C36.505 13.0047 37.3215 12.1843 38.3622 12.1843ZM26.4438 12.1843C27.4845 12.1843 28.3011 13.0047 28.3011 14.0504C28.3011 15.096 27.4813 15.9229 26.4438 15.9229C25.4063 15.9229 24.5802 15.0928 24.5802 14.0504C24.5802 13.0079 25.4031 12.1843 26.4438 12.1843ZM14.5158 12.1843C15.5565 12.1843 16.3794 13.0079 16.3794 14.0504C16.3794 15.0928 15.5533 15.9229 14.5158 15.9229C13.4783 15.9229 12.6521 15.0928 12.6521 14.0504C12.6521 13.0079 13.4751 12.1843 14.5158 12.1843ZM96.3339 27.9077H4.2465V90.1515C4.2465 93.5169 6.99075 96.2646 10.337 96.2646H90.2466C93.5929 96.2646 96.3307 93.5137 96.3307 90.1515V29.0338L96.3339 27.9077Z" fill="#150035"/>
<path d="M22.8188 61.0015V75.5408C22.8297 76.6833 23.2861 77.7758 24.0899 78.5834C24.8938 79.3909 25.9808 79.849 27.1171 79.8589H73.6559C74.7922 79.849 75.8793 79.3909 76.6831 78.5834C77.487 77.7758 77.9434 76.6833 77.9542 75.5408V61.0015H74.9331V75.5408C74.9232 75.8779 74.7854 76.1984 74.5479 76.4366C74.3104 76.6747 73.9912 76.8125 73.6559 76.8215H27.1171C26.7818 76.8125 26.4627 76.6747 26.2252 76.4366C25.9877 76.1984 25.8498 75.8779 25.84 75.5408V61.0015H22.8188Z" fill="#150035"/>
<path d="M48.2468 34.4987V57.8743L41.2464 50.8123L39.1221 52.9601L48.731 62.6149C49.0152 62.8997 49.4001 63.0596 49.8013 63.0596C50.2026 63.0596 50.5875 62.8997 50.8717 62.6149L60.4753 52.9601L58.3157 50.8123L51.268 57.8743V34.4987H48.2468Z" fill="#FF6E7A" fill-opacity="0.3"/>
</svg>

