<svg width="20" height="20" viewBox="0 0 20 20" fill="none" xmlns="http://www.w3.org/2000/svg">
<path d="M12.0951 13.5749C12.4032 13.2681 12.4032 13.2681 12.7731 12.8999C13.1163 12.5584 13.3863 12.2901 13.5584 12.1195C14.4159 11.2695 15.5615 11.2695 16.4207 12.1208C17.2192 12.9121 18.0282 13.7206 18.8512 14.5498C19.7205 15.4258 19.715 16.5721 18.8422 17.4529C18.6695 17.6272 18.3865 17.8345 18.0019 18.0821C17.9161 18.1374 17.826 18.1941 17.7319 18.2521C17.4787 18.4084 17.2085 18.5672 16.9384 18.7206C16.7763 18.8127 16.6499 18.8827 16.5876 18.9164C15.5995 19.4864 13.9943 19.6098 12.9648 19.212C12.8614 19.1806 12.6766 19.1178 12.422 19.021C12.0028 18.8618 11.537 18.6632 11.0362 18.4227C9.60787 17.7365 8.18008 16.8499 6.84593 15.74C6.31016 15.2942 5.79942 14.8198 5.31735 14.3158C4.92841 13.9092 4.55874 13.4856 4.20784 13.0467C3.05251 11.6016 2.14532 10.0551 1.45739 8.5081C1.21623 7.9658 1.01949 7.46145 0.863665 7.00757C0.769066 6.73202 0.708569 6.5322 0.691819 6.46219C0.304323 5.39511 0.523981 3.78887 1.16998 2.84365C1.21035 2.78117 1.2811 2.67399 1.37425 2.53681C1.52945 2.30823 1.69076 2.0795 1.85057 1.86492C1.91991 1.77182 1.98765 1.68319 2.05348 1.59966C2.22235 1.3854 2.37563 1.2083 2.51324 1.0729C3.37221 0.228129 4.51572 0.229308 5.37625 1.07432C5.72701 1.41854 7.24219 2.93477 7.79031 3.48761C8.67734 4.38297 8.67936 5.51469 7.79345 6.40499C7.66057 6.53857 7.37188 6.82783 6.97366 7.22651C6.63545 7.56506 6.63545 7.56506 6.35441 7.8463C6.20941 7.9914 6.15792 8.04291 6.12457 8.07629C6.18097 8.21954 6.27447 8.44089 6.40193 8.71644C6.64864 9.2498 6.93135 9.78289 7.24409 10.2778C7.58489 10.817 7.94044 11.2765 8.30353 11.6305C8.63884 11.9574 9.03881 12.2738 9.48978 12.5766C10.0161 12.9299 10.5828 13.2461 11.1497 13.5195C11.4435 13.6612 11.6791 13.7643 11.8397 13.8293C11.8762 13.7929 11.931 13.7384 12.0951 13.5749ZM6.10048 8.01393C6.1012 8.01583 6.10192 8.01776 6.10266 8.0197C6.10208 8.01795 6.1013 8.01596 6.10048 8.01393ZM18.1414 15.2542C17.3203 14.427 16.5134 13.6205 15.7168 12.8311C15.2474 12.366 14.7302 12.3661 14.2623 12.8298C14.0908 12.9998 13.8212 13.2677 13.4805 13.6067C13.1087 13.9767 13.1087 13.9767 12.8008 14.2834C12.5545 14.5287 12.5545 14.5287 12.4929 14.5901C12.248 14.8341 11.8389 14.9124 11.5342 14.7839C11.366 14.7186 11.0802 14.5962 10.7153 14.4202C10.1085 14.1276 9.50155 13.7889 8.93239 13.4068C8.43412 13.0723 7.98751 12.719 7.60544 12.3465C7.18013 11.9318 6.77829 11.4126 6.39875 10.812C6.06058 10.2769 5.75806 9.70644 5.49432 9.13626C5.33579 8.79353 5.22463 8.52514 5.1688 8.37706C5.04194 8.06132 5.12759 7.65921 5.3661 7.42056C5.42229 7.36435 5.42229 7.36435 5.64707 7.13943C5.92804 6.85826 5.92804 6.85825 6.2652 6.52076C6.66381 6.12169 6.95228 5.83265 7.08454 5.69969C7.582 5.19976 7.5811 4.69731 7.08004 4.19154C6.53509 3.64191 5.02243 2.12819 4.67571 1.78794C4.20384 1.32457 3.68403 1.32404 3.21451 1.7858C3.11186 1.8868 2.98395 2.03458 2.83888 2.21865C2.77895 2.29468 2.71671 2.37613 2.65259 2.46222C2.5024 2.66388 2.34918 2.88114 2.20157 3.09853C2.11303 3.22894 2.04639 3.32988 2.00279 3.39705C1.52916 4.09029 1.3555 5.3601 1.64484 6.16241C1.66883 6.25218 1.72263 6.42988 1.80948 6.68286C1.95607 7.10985 2.14222 7.58704 2.37112 8.10178C3.0262 9.57491 3.89064 11.0485 4.9889 12.4222C5.32159 12.8384 5.67181 13.2397 6.03998 13.6246C6.49532 14.1006 6.97831 14.5493 7.48548 14.9712C8.75215 16.025 10.111 16.8688 11.4692 17.5213C11.9437 17.7492 12.3836 17.9367 12.7772 18.0862C13.0102 18.1748 13.1737 18.2303 13.2901 18.2671C14.0722 18.5683 15.3617 18.4691 16.0989 18.044C16.1671 18.007 16.2882 17.9399 16.4444 17.8511C16.7048 17.7032 16.965 17.5503 17.2069 17.4011C17.2957 17.3463 17.3804 17.293 17.4606 17.2414C17.7868 17.0313 18.0254 16.8565 18.1319 16.749C18.6198 16.2566 18.6223 15.7389 18.1414 15.2542Z" fill="white"/>
</svg>
