<svg width="153" height="147" viewBox="0 0 153 147" fill="none" xmlns="http://www.w3.org/2000/svg">
<circle cx="82" cy="84" r="60" fill="url(#paint0_radial_0_1)"/>
<g filter="url(#filter0_d_0_1)">
<path d="M151 104.588V110.298C151 111.457 150.228 112.608 148.7 113.491L110.043 135.672C106.972 137.438 102.002 137.438 98.9377 135.672L40.3158 102.032C38.7877 101.149 38.0237 100.005 38.0237 98.8464V93.044L43.8504 93.635L46.0653 92.3609L78.988 73.4645C82.0519 71.7068 87.0219 71.7068 90.0857 73.4645L142.858 103.759L151.007 104.588H151Z" fill="url(#paint1_linear_0_1)"/>
<path d="M98.9377 127.659V135.672L40.3158 102.032C38.7877 101.149 38.0237 100.005 38.0237 98.8464V93.0439L43.8504 93.6349L46.0653 92.3608L98.9377 127.659Z" fill="url(#paint2_linear_0_1)"/>
<path d="M148.684 107.78L110.02 129.969C106.956 131.727 101.986 131.727 98.9219 129.969L40.3077 96.3212C37.2439 94.5636 37.2439 91.7084 40.3077 89.9508L78.9722 67.7617C82.0361 66.0041 87.0061 66.0041 90.07 67.7617L148.684 101.41C151.748 103.168 151.748 106.023 148.684 107.78Z" fill="#372D6E"/>
<path d="M149.409 104.434C149.409 104.964 148.877 105.585 147.997 106.092L127.275 117.981L126.951 118.173L109.34 128.281C108.144 128.972 106.438 129.363 104.679 129.363C102.919 129.363 101.221 128.964 100.017 128.281L81.0401 117.382L74.8198 113.813L69.9424 111.012L63.6141 107.381L41.4032 94.6328C40.5157 94.1262 39.9909 93.5045 39.9909 92.9749C39.9909 92.4453 40.5157 91.8236 41.4032 91.3171L80.0677 69.128C80.5848 68.8287 81.1945 68.5907 81.8582 68.4142C82.7379 68.1763 83.7181 68.0458 84.7213 68.0458C85.6783 68.0458 86.6121 68.1609 87.461 68.3758C88.1788 68.5523 88.8347 68.8133 89.3827 69.128L148.005 102.776C148.884 103.283 149.417 103.904 149.417 104.434H149.409Z" fill="#EDF6FD"/>
<path d="M122.344 99.0537C129.961 103.429 129.961 110.521 122.344 114.895C114.727 119.27 102.371 119.27 94.7463 114.895C87.1292 110.521 87.1292 103.429 94.7463 99.0537C102.363 94.6789 114.719 94.6789 122.344 99.0537Z" fill="url(#paint3_linear_0_1)"/>
<g filter="url(#filter1_d_0_1)">
<path d="M87.8785 73.925C88.2798 74.7769 89.1596 75.1223 90.2941 75.767C92.5708 77.0795 94.8551 78.3843 97.1318 79.6967C103.422 83.3041 109.704 86.9114 115.993 90.5265C121.542 93.7117 127.091 96.8969 132.64 100.082C132.64 98.6776 132.856 97.3498 132.732 95.8761C132.609 94.4562 132.046 93.5889 131.39 92.0385C129.831 88.339 130.247 82.4061 129.73 82.0454C129.213 81.6846 127.894 82.7898 127.022 83.2273C126.535 83.4729 125.517 84.6166 124.799 84.3402C123.471 83.8337 123.34 82.053 122.931 80.848C122.268 78.9062 121.642 75.3679 120.94 75.0148C120.23 74.6618 118.772 77.0027 117.853 78.1924C117.398 78.7757 116.595 81.0476 115.353 80.3722C114.674 80.0037 114.272 79.029 113.994 78.2538C113.377 76.5192 112.721 74.7539 111.934 73.027C111.216 71.4535 110.645 67.5699 109.966 67.1861C109.295 66.8023 106.655 77.0948 103.043 73.5028C100.906 71.3768 101.153 63.3485 100.666 62.957C100.172 62.5579 99.8329 66.1576 98.8991 67.2552C97.9267 68.3911 96.6996 69.2814 95.7426 70.5095C95.5651 70.7321 95.3182 70.9623 94.9477 70.7321C94.7239 70.5939 94.5387 70.3329 94.3766 70.0873C92.6634 67.5008 92.0768 62.1665 91.5829 62.2433C91.0967 62.32 87.3229 68.2146 87.6547 72.9656C87.6856 73.3493 87.7628 73.664 87.8863 73.925H87.8785Z" fill="url(#paint4_linear_0_1)"/>
</g>
<path d="M107.048 96.5208L107.673 96.4978L107.99 99.2993L107.364 99.3223L107.048 96.5208ZM109.271 99.3069L109.649 96.5055L110.274 96.5362L109.896 99.3376L109.271 99.3069ZM104.463 96.7511L105.096 96.6743L106.099 99.4221L105.466 99.4988L104.463 96.7511ZM111.161 99.4374L112.226 96.6974L112.859 96.7741L111.794 99.5142L111.161 99.4374ZM101.962 97.1963L102.595 97.0658L104.262 99.6907L103.629 99.8212L101.962 97.1963ZM112.99 99.7214L114.719 97.1118L115.352 97.25L113.623 99.8596L112.99 99.7214ZM99.5929 97.8486L100.218 97.6568L102.51 100.105L101.885 100.297L99.5929 97.8486ZM114.735 100.144L117.081 97.7182L117.706 97.9177L115.36 100.343L114.735 100.144ZM97.4166 98.6852L98.0263 98.432L100.882 100.65L100.272 100.911L97.4166 98.6929V98.6852ZM116.363 100.704L119.265 98.5087L119.867 98.7697L116.957 100.965L116.355 100.704H116.363ZM95.4795 99.6984L96.0506 99.376L99.4 101.326L98.8289 101.648L95.4795 99.6984ZM117.837 101.387L121.225 99.4681L121.788 99.7982L118.4 101.717L117.837 101.387ZM93.8126 100.857L94.3219 100.474L98.0803 102.116L97.571 102.5L93.8126 100.857ZM119.134 102.193L122.923 100.581L123.424 100.972L119.635 102.584L119.134 102.193ZM92.4543 102.139L92.8788 101.702L96.969 103.006L96.5446 103.444L92.4543 102.139ZM120.229 103.091L124.343 101.817L124.76 102.262L120.646 103.536L120.229 103.091ZM91.4356 103.521L91.7597 103.037L96.0969 103.981L95.7728 104.465L91.4356 103.521ZM121.086 104.073L125.439 103.16L125.747 103.651L121.395 104.564L121.086 104.073ZM90.7642 104.964L90.9648 104.449L95.4564 105.025L95.2557 105.539L90.7642 104.964ZM121.688 105.117L126.195 104.572L126.388 105.094L121.881 105.639L121.688 105.117ZM90.4555 106.437L90.5249 105.9L95.1014 106.107L95.0319 106.644L90.4555 106.437ZM122.02 106.207L126.596 106.038L126.658 106.575L122.082 106.744L122.02 106.207ZM90.4478 107.381L95.0242 107.212L95.086 107.75L90.5095 107.919L90.4478 107.381ZM122.004 107.849L122.074 107.312L126.65 107.519L126.581 108.057L122.004 107.849ZM90.7256 108.863L95.2326 108.318L95.4255 108.84L90.9185 109.385L90.7256 108.863ZM121.649 108.939L121.85 108.425L126.342 109.001L126.141 109.515L121.649 108.939ZM91.3661 110.313L95.7188 109.4L96.0275 109.891L91.6748 110.804L91.3661 110.313ZM121.024 109.983L121.348 109.5L125.686 110.444L125.362 110.927L121.024 109.983ZM92.354 111.695L96.4674 110.421L96.8841 110.866L92.7707 112.14L92.354 111.695ZM120.137 110.95L120.561 110.513L124.652 111.818L124.227 112.255L120.137 110.95ZM93.6814 112.984L97.4706 111.372L97.9723 111.764L94.183 113.376L93.6814 112.984ZM119.033 111.841L119.543 111.457L123.301 113.099L122.792 113.483L119.033 111.841ZM95.3252 114.159L98.7132 112.24L99.2765 112.57L95.8886 114.489L95.3252 114.159ZM117.721 112.631L118.292 112.309L121.642 114.258L121.071 114.581L117.721 112.631ZM97.2468 115.179L100.149 112.984L100.751 113.245L97.8488 115.44L97.2468 115.179ZM116.232 113.307L116.841 113.046L119.697 115.264L119.087 115.525L116.232 113.307ZM99.4 116.039L101.746 113.614L102.371 113.813L100.025 116.238L99.4 116.039ZM114.596 113.859L115.221 113.667L117.513 116.116L116.888 116.308L114.596 113.859ZM101.754 116.707L103.483 114.097L104.115 114.235L102.387 116.845L101.754 116.707ZM112.844 114.266L113.477 114.135L115.144 116.76L114.511 116.891L112.844 114.266ZM104.247 117.167L105.312 114.435L105.944 114.512L104.879 117.252L104.247 117.167ZM111.007 114.527L111.64 114.45L112.643 117.198L112.01 117.275L111.007 114.527ZM106.824 117.413L107.202 114.611L107.827 114.642L107.449 117.444L106.824 117.413ZM109.116 114.642L109.741 114.619L110.058 117.42L109.433 117.444L109.116 114.642Z" fill="#FEFEFE"/>
<path d="M114.465 109.254L113.524 107.673L115.268 106.33L112.358 106.353L110.676 104.987L109.812 106.583L107.033 107.082L109.41 108.041L109.372 109.715L111.702 108.717L114.465 109.254Z" fill="#FEFEFE"/>
<path d="M108.978 102.239L101.276 106.652L99.2231 105.478L106.925 101.057L108.978 102.239Z" fill="#FEFEFE"/>
<g filter="url(#filter2_d_0_1)">
<path d="M48.5041 96.5055L93.7902 122.509V109.546C93.9368 108.064 91.7142 105.37 90.2865 105.225C89.2523 105.117 88.6658 106.007 87.5699 105.7C86.1962 105.317 84.8997 103.383 84.0739 101.748C83.2404 100.113 82.3298 98.2248 80.9097 97.2577C79.59 96.3674 78.417 96.7204 77.7456 97.4726C77.0742 98.2248 76.7037 99.3223 75.9397 99.9594C75.1757 100.596 73.7865 100.627 72.544 99.4528C71.3478 98.3169 70.8307 96.6053 70.7536 95.2928C70.6764 93.9804 70.877 92.7754 70.468 91.3401C70.059 89.9048 68.7007 88.0781 67.5431 87.94C66.2002 87.7788 66.1848 89.8588 64.9114 89.8664C64.0934 89.8741 63.0515 89.0222 62.1409 88.7305C60.389 88.1779 59.5324 89.7436 57.8885 89.5441C56.3296 89.3522 54.4929 87.6406 52.8027 86.9729C50.418 86.0212 48.7202 87.3413 48.2494 89.4366C47.7787 91.532 48.0179 93.8806 48.5118 96.5209L48.5041 96.5055Z" fill="url(#paint5_linear_0_1)"/>
</g>
<path d="M138.953 106.514C140.489 106.514 141.932 106.169 143.02 105.547C144.108 104.925 144.71 104.096 144.71 103.214H145.304C145.304 105.225 142.457 106.859 138.953 106.859V106.514Z" fill="#1497CB"/>
<path d="M138.953 105.7C141.338 105.7 143.275 104.587 143.275 103.214H143.877C143.877 104.772 141.669 106.038 138.953 106.038V105.693V105.7Z" fill="#1497CB"/>
<path d="M138.953 104.871C139.725 104.871 140.45 104.695 140.998 104.388C141.546 104.073 141.847 103.659 141.847 103.214H142.441C142.441 103.751 142.078 104.25 141.415 104.626C140.759 105.002 139.879 105.209 138.953 105.209V104.864V104.871Z" fill="#1497CB"/>
<path d="M137.347 103.214C137.347 102.707 138.065 102.293 138.952 102.293C139.84 102.293 140.558 102.707 140.558 103.214C140.558 103.72 139.84 104.135 138.952 104.135C138.065 104.135 137.347 103.72 137.347 103.214Z" fill="#1497CB"/>
</g>
<g filter="url(#filter3_d_0_1)">
<path d="M94.3229 44.8589C94.3229 44.8589 93.3891 46.8621 89.9934 47.2689C89.9934 47.2689 89.8545 45.3194 89.5998 43.8841C89.4918 43.2778 89.3606 42.7712 89.2063 42.541C88.6969 41.7734 86.9991 39.1715 86.8216 37.6518C86.7598 37.1146 87.0376 36.2089 87.4312 35.2572C88.1412 33.5302 89.214 31.6652 89.214 31.6652C89.214 31.6652 92.6328 37.3602 94.3307 44.8512L94.3229 44.8589Z" fill="url(#paint6_linear_0_1)"/>
</g>
<path d="M94.5692 44.9969C94.4843 45.1734 93.4193 47.1383 90.0236 47.5451C89.8692 47.5604 89.7226 47.453 89.7071 47.2918V47.2611C89.6994 47.0999 89.5605 45.2809 89.3136 43.93C89.2595 43.6153 89.1978 43.3314 89.1283 43.1088V43.0934C89.0743 42.9169 89.0203 42.7711 88.9663 42.6866L88.9508 42.6636C88.6884 42.2645 88.1405 41.4279 87.6311 40.4992C87.1064 39.5398 86.6202 38.4729 86.5276 37.6747C86.4967 37.3907 86.543 37.0223 86.6433 36.6155C86.7514 36.1704 86.9366 35.6638 87.1527 35.1419C87.8627 33.3996 88.9431 31.5192 88.9508 31.5192C89.028 31.381 89.2055 31.335 89.3444 31.4117C89.3907 31.4424 89.4293 31.4808 89.4525 31.5269C89.6068 31.7955 92.9253 37.4214 94.5923 44.782C94.6077 44.8511 94.5923 44.9278 94.5614 44.9815L94.5692 44.9969ZM90.2551 46.9387C92.8482 46.5396 93.8051 45.1734 94.0212 44.8127C92.6089 38.6188 90.0236 33.6989 89.2132 32.2483C88.8582 32.893 88.1868 34.1595 87.6929 35.3645C87.4922 35.8557 87.3147 36.3392 87.2144 36.7614C87.1295 37.1068 87.0832 37.4061 87.1064 37.6133C87.1913 38.3271 87.6466 39.3249 88.1405 40.2306C88.6344 41.1439 89.1746 41.9652 89.4293 42.3566L89.4448 42.3796C89.5297 42.5101 89.6068 42.702 89.6763 42.9399L89.684 42.9553C89.7612 43.2086 89.8229 43.5079 89.8847 43.8379C90.0853 44.9355 90.2088 46.3324 90.2628 46.9464L90.2551 46.9387Z" fill="#2B2A29"/>
<path d="M91.1579 46.179C91.1579 47.0847 90.8338 47.9136 90.8338 47.9136C90.8338 47.9136 87.9243 48.2283 87.1449 47.8522C87.1217 47.8368 87.0986 47.8215 87.0754 47.8061C87.0291 47.7677 86.9905 47.714 86.9519 47.6526C86.7435 47.2919 86.6509 46.5397 86.6509 45.7338C86.6509 44.7821 86.7744 43.7536 86.9596 43.2087V43.201C86.9751 43.1626 86.9905 43.1242 86.9982 43.0935C87.0137 43.0628 87.0291 43.0321 87.0368 43.0014V42.9938L87.0522 42.9631L87.06 42.9477L87.0754 42.917V42.9093L87.0986 42.8863V42.8786L87.1217 42.8556L87.1603 42.8249L87.168 42.8172L87.1757 42.8095C87.2066 42.7865 87.2452 42.7635 87.2761 42.7405C87.2992 42.7251 87.3224 42.7174 87.3455 42.7021C87.4767 42.6407 87.6079 42.6177 87.7237 42.6177C87.77 42.6177 87.8163 42.6177 87.8549 42.6253L87.9012 42.633H87.9089L87.9398 42.6407L87.9783 42.6484L88.0169 42.656L88.0478 42.6637L88.0632 42.6714L88.0787 42.6791L88.1018 42.6867C88.1404 42.7021 88.1713 42.7174 88.1944 42.7251H88.2022H88.2099L88.2176 42.7328L88.2253 42.7405L88.2022 42.7251L88.1867 42.7174C88.1713 42.7098 88.1636 42.6944 88.1481 42.6867L88.1404 42.6791L88.125 42.6637L88.1095 42.6484L88.1018 42.6407L88.0941 42.6253V42.6177V42.61L88.0864 42.6023V42.5946L88.0787 42.5793V42.5716L88.071 42.5563C88.071 42.5409 88.0632 42.5332 88.0632 42.5179C88.0632 42.1572 88.9662 41.7657 89.136 41.6966L89.1591 41.689C89.9617 41.7273 91.1039 45.281 91.1039 46.179H91.1579Z" fill="#FEFEFE"/>
<path d="M91.4436 46.1789C91.4436 47.1306 91.104 48.0133 91.104 48.0133C91.0654 48.1207 90.9728 48.1898 90.8648 48.1975C90.8571 48.1975 87.8781 48.5198 87.0215 48.1054C86.9675 48.0747 86.9366 48.0593 86.8903 48.0209C86.8517 47.9902 86.8208 47.9519 86.79 47.9135C86.7591 47.8751 86.7359 47.8367 86.7051 47.7907V47.783C86.5893 47.5834 86.5044 47.2918 86.4504 46.9464C86.3964 46.5857 86.3655 46.1635 86.3655 45.726C86.3655 45.2272 86.3964 44.7206 86.4504 44.2678C86.5044 43.8072 86.5893 43.4004 86.6896 43.1088C86.8208 42.7788 86.9135 42.6022 87.2607 42.441C87.3379 42.4027 87.4151 42.3796 87.4923 42.3566C87.5849 42.3336 87.6698 42.3259 87.7547 42.3259L87.855 42.3336C87.9167 42.1724 88.0479 42.0266 88.21 41.9038C88.5187 41.6658 88.9509 41.4816 89.0743 41.4356L89.1052 41.4202C89.1438 41.4049 89.1824 41.3972 89.221 41.3972C89.6917 41.4202 90.1702 42.134 90.5561 43.0244C91.05 44.1526 91.4436 45.6186 91.4436 46.1712V46.1789ZM90.6256 47.6448C90.7104 47.3685 90.8725 46.7929 90.8725 46.1789C90.8725 45.6877 90.5021 44.3292 90.0313 43.2623C89.7458 42.6022 89.4448 42.065 89.2441 41.9882C89.0975 42.0496 88.7811 42.1954 88.5573 42.3643C88.4801 42.4257 88.4184 42.4717 88.4029 42.5024L88.4184 42.5178C88.5418 42.6022 88.5804 42.7634 88.511 42.8939C88.4338 43.032 88.264 43.0858 88.1251 43.009C88.0016 42.9476 87.8936 42.9169 87.7624 42.9169C87.7161 42.9169 87.6698 42.9246 87.6312 42.9323C87.5926 42.9399 87.554 42.9553 87.5231 42.9706C87.3533 43.0627 87.307 43.1241 87.2453 43.3083C87.1604 43.5616 87.0832 43.93 87.0369 44.3522C86.9829 44.7897 86.952 45.2809 86.952 45.7414C86.952 46.1482 86.9752 46.5473 87.0292 46.8773C87.0755 47.1536 87.1373 47.3762 87.2144 47.522L87.253 47.5758L87.2839 47.6065C87.8781 47.8905 90.0004 47.7216 90.6333 47.6602L90.6256 47.6448Z" fill="#2B2A29"/>
<path d="M81.2494 85.6143C81.2494 85.6143 80.3387 86.8654 80.5008 88.5309C80.6628 90.1965 83.6341 89.8127 84.1125 90.3039C84.591 90.7951 88.689 92.5067 89.8157 92.5067C90.9425 92.5067 93.8211 91.8543 93.5433 90.4114C93.2346 88.9684 88.0639 88.4004 85.957 85.1001L81.2416 85.6143H81.2494Z" fill="url(#paint7_linear_0_1)"/>
<path d="M81.4189 85.883C81.2182 86.2053 80.6626 87.2261 80.7861 88.5002C80.871 89.3829 82.098 89.5671 83.0319 89.7052C83.6029 89.7897 84.0891 89.8664 84.3207 90.0967C84.5599 90.3346 85.841 90.9333 87.153 91.4398C88.2489 91.862 89.3447 92.215 89.8232 92.215C90.0779 92.215 90.4329 92.1767 90.8188 92.1076C91.3976 92.0001 92.0381 91.8082 92.5321 91.5243C92.972 91.2787 93.2806 90.964 93.2806 90.6032C93.2806 90.5572 93.2729 90.5111 93.2652 90.4728C93.1649 89.9969 92.2079 89.5671 90.9963 89.0221C89.2753 88.2469 87.0912 87.2645 85.8179 85.3994L81.4112 85.883H81.4189ZM80.2227 88.554C80.0529 86.8347 80.9713 85.5222 81.0176 85.4532C81.0639 85.3841 81.1334 85.338 81.226 85.3304L85.9259 84.8161C86.0339 84.8008 86.1497 84.8468 86.2115 84.9466C87.3691 86.7656 89.5454 87.7481 91.2355 88.5079C92.5938 89.1219 93.6665 89.5978 93.8286 90.3576V90.3653C93.844 90.4497 93.8517 90.5342 93.8517 90.6109C93.8517 91.2173 93.4196 91.6854 92.8099 92.0308C92.2542 92.3455 91.5519 92.5527 90.9268 92.6755C90.5024 92.76 90.1088 92.7983 89.8232 92.7983C89.2753 92.7983 88.1022 92.4299 86.9446 91.9848C85.5709 91.4552 84.1972 90.7951 83.9116 90.5035C83.819 90.4114 83.4177 90.35 82.947 90.2809C81.8202 90.112 80.3462 89.8894 80.215 88.5616L80.2227 88.554Z" fill="#2B2A29"/>
<path d="M61.8942 67.8461C61.8942 67.8461 59.3243 68.6596 59.1082 69.1048C58.8844 69.5576 59.4323 72.0214 60.7366 72.8426C62.0408 73.6716 61.5469 77.2329 63.8004 79.2361C64.1477 79.4894 64.7959 78.6835 65.0892 78.2383C65.3825 77.7855 65.1895 75.506 64.8963 74.3547C64.603 73.2034 64.5258 71.2232 64.5258 71.2232L61.8942 67.8461Z" fill="url(#paint8_linear_0_1)"/>
<path d="M61.7854 68.1762C61.2066 68.3604 59.501 68.9437 59.3544 69.2277C59.2541 69.4349 59.393 70.2869 59.7634 71.1312C60.0258 71.7298 60.3962 72.2978 60.8824 72.6048C61.5539 73.0346 61.7931 73.9787 62.0709 75.0992C62.3951 76.3964 62.7809 77.9468 63.9617 79.0059C63.9849 79.0059 64.0698 78.9522 64.1778 78.8601C64.363 78.7066 64.556 78.4763 64.7026 78.2691L64.8338 78.0772C64.9341 77.9237 64.9573 77.3788 64.9187 76.7341C64.8801 75.9435 64.7489 75.0225 64.5946 74.4238C64.3322 73.3953 64.2395 71.7298 64.2241 71.323L61.77 68.1762H61.7854ZM58.845 68.9821C59.1074 68.4448 61.6156 67.6389 61.7931 67.5775C61.9089 67.5391 62.0401 67.5698 62.1172 67.6696L64.7489 71.0467C64.7798 71.0928 64.8029 71.1465 64.8106 71.2079C64.8106 71.2156 64.8801 73.1574 65.1734 74.2857C65.3354 74.915 65.4666 75.8821 65.5129 76.711C65.5515 77.4632 65.5052 78.131 65.3354 78.3919L65.1888 78.6068C65.019 78.8448 64.7875 79.1134 64.5637 79.2976C64.2627 79.5432 63.954 79.6583 63.6685 79.4818L63.6144 79.4434C62.287 78.2614 61.8703 76.6113 61.523 75.2297C61.276 74.2319 61.06 73.38 60.5815 73.0807C59.9872 72.7046 59.5473 72.0368 59.2463 71.3537C58.8142 70.3713 58.6907 69.2968 58.845 68.9744V68.9821Z" fill="#2B2A29"/>
<path d="M84.6834 68.1609C84.3284 67.0096 82.2138 62.7805 80.1301 59.4879C82.5225 53.4781 82.0749 48.6658 82.0749 48.6658L78.7718 49.2414L77.0971 49.5331L77.0585 48.8807L71.6177 47.9213L70.2594 47.6833C70.2594 47.6833 66.7171 51.4058 68.0291 54.9441C68.9243 57.3541 71.1546 59.626 72.8293 61.3913C72.3123 62.604 71.9495 63.3869 71.9495 63.3869C67.6741 64.2619 61.6159 67.3857 61.6159 67.3857C61.2531 67.5622 61.0293 67.946 61.0293 68.5139C61.0293 68.8747 61.1142 69.2584 61.2686 69.6499C61.6159 70.5325 62.3104 71.3921 63.1053 71.8603C63.6224 72.1673 64.0932 72.2441 64.4636 72.1366L64.5331 72.1213L64.6257 72.0752L75.2758 67.5238C75.6308 67.1017 75.9703 66.6795 76.2868 66.2497C77.2669 67.8232 78.2701 69.4043 78.6174 69.8187C78.6174 69.8187 77.9769 72.1827 79.1808 76.4962C80.3847 80.8173 80.3847 85.0157 80.3847 85.0157C80.3847 85.4608 80.678 85.906 81.2491 86.236C81.7121 86.5047 82.2755 86.6658 82.8775 86.7196C83.7727 86.804 84.7297 86.6428 85.4242 86.236C86.003 85.8983 86.2886 85.4532 86.2886 85.0157C86.2886 85.0157 85.185 69.8187 84.6834 68.1532V68.1609Z" fill="#31283C"/>
<path d="M79.8601 59.3803L80.3926 59.5875L80.3694 59.3266L80.5623 59.6413L80.7553 59.956L80.9482 60.2783L81.1412 60.6007L81.3341 60.9307L81.527 61.2607L81.72 61.5908L81.9052 61.9208L82.0904 62.2508L82.2756 62.5809L82.4531 62.9109L82.6306 63.2333L82.8004 63.5556L82.9702 63.8703L83.1323 64.185L83.2943 64.492L83.4487 64.7913L83.5953 65.083L83.7419 65.367L83.8809 65.6433L84.0121 65.9119L84.1355 66.1729L84.2513 66.4185L84.3593 66.6564L84.4597 66.879L84.5523 67.0939L84.6372 67.2935L84.7143 67.4777L84.7838 67.6465L84.8455 67.8L84.8996 67.9382L84.9381 68.061L84.3902 68.2299L84.3516 68.1224L84.3053 67.9919L84.2513 67.8461L84.1896 67.6849L84.1124 67.5084L84.0275 67.3165L83.9349 67.1093L83.8346 66.8867L83.7265 66.6564L83.6107 66.4108L83.4873 66.1575L83.3561 65.8889L83.2172 65.6126L83.0782 65.3286L82.9316 65.037L82.7773 64.7376L82.6152 64.4306L82.4531 64.1236L82.2833 63.8089L82.1136 63.4866L81.9361 63.1642L81.7586 62.8418L81.5811 62.5118L81.3958 62.1818L81.2106 61.8517L81.0177 61.5217L80.8247 61.1917L80.6318 60.8693L80.4389 60.5469L80.2459 60.2246L80.053 59.9099L79.8601 59.6029L79.8369 59.3419L79.8601 59.3803ZM79.8832 59.6413C79.7983 59.5108 79.8369 59.3343 79.9758 59.2498C80.107 59.1654 80.2845 59.2038 80.3694 59.3419L79.8832 59.6489V59.6413ZM82.1213 48.9497L82.0209 48.3894L82.3528 48.6427V48.658V48.7041L82.3605 48.7731L82.3682 48.8729L82.3759 48.9957L82.3837 49.1416L82.3914 49.3104V49.51V49.7325V49.9705L82.3837 50.2314L82.3759 50.5154L82.3605 50.8224L82.3374 51.1448L82.3142 51.4902L82.2833 51.8509L82.2448 52.227L82.1984 52.6261L82.1444 53.0406L82.0827 53.4704L82.0055 53.9155L81.9206 54.3761L81.828 54.8443L81.72 55.3278L81.6042 55.8267L81.473 56.3332L81.3264 56.8552L81.172 57.3848L81.0022 57.922L80.817 58.4746L80.6164 59.0349L80.4003 59.6029L79.8678 59.3957L80.0839 58.843L80.2845 58.2981L80.4697 57.7608L80.6395 57.2312L80.7939 56.7093L80.9328 56.2028L81.064 55.7039L81.1797 55.2203L81.2801 54.7445L81.3727 54.284L81.4576 53.8388L81.527 53.4013L81.5888 52.9792L81.6428 52.5724L81.6891 52.1809L81.7277 51.8125L81.7586 51.4595L81.7817 51.1218L81.7971 50.8071L81.8126 50.5077L81.8203 50.2314L81.828 49.9782V49.7402V49.5253V49.3334L81.8203 49.1646L81.8126 49.0188L81.8049 48.9036L81.7971 48.8115L81.7894 48.7424V48.7041V48.6964L82.1213 48.9497ZM81.7894 48.6964C81.774 48.5429 81.8898 48.3971 82.0518 48.3894C82.2062 48.374 82.3528 48.4892 82.3605 48.6503L81.7894 48.7041V48.6964ZM78.7256 48.9573L82.0287 48.3817L82.129 48.942L78.8259 49.5176L78.7256 48.9573ZM78.8259 49.5176C78.6716 49.5407 78.5249 49.4409 78.4941 49.2874C78.4709 49.1339 78.5712 48.9804 78.7256 48.9573L78.8259 49.5176ZM77.0509 49.249L78.7256 48.9573L78.8259 49.5176L77.1512 49.8093L76.8194 49.5483L77.0586 49.249H77.0509ZM77.1512 49.8093C76.9969 49.84 76.8502 49.7325 76.8194 49.579C76.7885 49.4255 76.8965 49.272 77.0509 49.249L77.1512 49.8093ZM77.3442 48.8576L77.3827 49.51L76.8117 49.5483L76.7731 48.8959L77.1126 48.5966L77.3519 48.8576H77.3442ZM76.7731 48.8959C76.7654 48.7424 76.8811 48.6043 77.0432 48.5966C77.1975 48.5889 77.3364 48.7041 77.3442 48.8652L76.7731 48.9036V48.8959ZM71.6718 47.6372L77.1126 48.5966L77.0123 49.1569L71.5715 48.1975L71.6718 47.6372ZM71.5715 48.1975C71.4172 48.1668 71.3091 48.021 71.34 47.8675C71.3708 47.714 71.5175 47.6065 71.6718 47.6372L71.5715 48.1975ZM70.3136 47.3916L71.6718 47.6295L71.5715 48.1898L70.2132 47.9519L70.0589 47.476L70.3136 47.3916ZM70.2132 47.9519C70.0589 47.9212 69.9508 47.7754 69.9817 47.6219C70.0126 47.4684 70.1592 47.3609 70.3136 47.3916L70.2132 47.9519ZM68.2993 54.8289L67.7591 55.0285L67.6433 54.6754L67.5584 54.3223L67.4967 53.9693L67.4658 53.6162L67.4581 53.2708L67.4658 52.9254L67.4967 52.5877L67.543 52.25L67.6124 51.92L67.6973 51.5976L67.7899 51.2829L67.898 50.9759L68.0137 50.6766L68.1372 50.3849L68.2684 50.1086L68.4073 49.84L68.5463 49.579L68.6929 49.3334L68.8395 49.0955L68.9784 48.8729L69.1173 48.6657L69.2563 48.4738L69.3875 48.2973L69.5109 48.1361L69.6267 47.9903L69.7347 47.8598L69.8274 47.7447L69.9045 47.6526L69.9663 47.5758L70.0126 47.5221L70.0434 47.4914L70.0589 47.476L70.4756 47.8675L70.4679 47.8751L70.437 47.9058L70.3907 47.9519L70.329 48.021L70.2518 48.1131L70.1669 48.2205L70.0666 48.3433L69.9585 48.4815L69.8428 48.635L69.7193 48.8038L69.5881 48.988L69.4569 49.1876L69.318 49.4025L69.1791 49.6251L69.0402 49.863L68.909 50.1086L68.7778 50.3619L68.6543 50.6229L68.5385 50.8915L68.4305 51.1678L68.3302 51.4518L68.2453 51.7435L68.1681 52.0428L68.1064 52.3421L68.0601 52.6491L68.0292 52.9561L68.0215 53.2632L68.0292 53.5702L68.0601 53.8848L68.1141 54.1995L68.1912 54.5142L68.2916 54.8289H68.2993ZM68.2993 54.8289C68.3533 54.9747 68.2761 55.1436 68.1295 55.1973C67.9829 55.251 67.8131 55.1743 67.7591 55.0285L68.2993 54.8289ZM73.0918 61.491L72.5671 61.2684L72.6211 61.5754L72.4667 61.4066L72.3047 61.2377L72.1426 61.0612L71.9728 60.8847L71.803 60.7081L71.6332 60.5239L71.4635 60.3397L71.2937 60.1555L71.1239 59.9636L70.9541 59.7717L70.7843 59.5799L70.6145 59.3803L70.4448 59.1808L70.275 58.9812L70.1052 58.774L69.9354 58.5667L69.7733 58.3595L69.6113 58.1523L69.4492 57.9374L69.2948 57.7225L69.1405 57.5076L68.9939 57.2926L68.8472 57.0701L68.7083 56.8475L68.5694 56.6249L68.4382 56.4023L68.3147 56.1797L68.199 55.9495L68.0832 55.7192L67.9752 55.489L67.8748 55.2587L67.7822 55.0285L68.3224 54.8289L68.4073 55.0438L68.4999 55.2587L68.6003 55.4736L68.7083 55.6885L68.8241 55.9034L68.9398 56.1183L69.0633 56.3332L69.1945 56.5482L69.3334 56.7631L69.4723 56.9703L69.619 57.1775L69.7656 57.3848L69.92 57.592L70.0743 57.7992L70.2364 58.0064L70.3984 58.206L70.5605 58.4056L70.7303 58.6051L70.9001 58.8047L71.0699 58.9966L71.2396 59.1884L71.4094 59.3803L71.5792 59.5722L71.749 59.7564L71.9188 59.9406L72.0886 60.1248L72.2584 60.3013L72.4281 60.4779L72.5902 60.6544L72.7523 60.8309L72.9143 60.9998L73.0764 61.1686L73.1304 61.4756L73.0918 61.491ZM73.0378 61.184C73.1459 61.2991 73.1381 61.4757 73.0224 61.5908C72.9066 61.6982 72.7291 61.6906 72.6211 61.5754L73.0378 61.184ZM72.0037 63.6554L71.8879 63.0951L71.6873 63.2563V63.2486L71.695 63.241L71.7027 63.2256L71.7104 63.2026L71.7259 63.1796L71.7413 63.1488L71.7567 63.1181L71.7722 63.0798L71.7876 63.0414L71.8107 62.9953L71.8339 62.9493L71.857 62.8956L71.8802 62.8418L71.9034 62.7804L71.9342 62.719L71.9651 62.65L71.996 62.5809L72.0268 62.5041L72.0577 62.4274L72.0963 62.3506L72.1349 62.2662L72.1735 62.1818L72.2121 62.0897L72.2506 61.9976L72.2892 61.8978L72.3355 61.798L72.3818 61.6982L72.4281 61.5908L72.4744 61.4833L72.5207 61.3759L72.5671 61.2607L73.0918 61.4833L73.0455 61.5985L72.9992 61.7059L72.9529 61.8134L72.9066 61.9208L72.8603 62.0206L72.814 62.1204L72.7754 62.2201L72.7368 62.3122L72.6982 62.4044L72.6597 62.4888L72.6211 62.5732L72.5825 62.6576L72.5516 62.7344L72.5207 62.8111L72.4899 62.8802L72.459 62.9493L72.4281 63.0107L72.405 63.0721L72.3818 63.1258L72.3587 63.1796L72.3355 63.2256L72.3124 63.2717L72.2969 63.31L72.2815 63.3484L72.2661 63.3791L72.2506 63.4098L72.2429 63.4328L72.2352 63.4559L72.2275 63.4712L72.2198 63.4866L72.2121 63.4942L72.0114 63.6554H72.0037ZM72.2043 63.4942C72.1349 63.6401 71.9651 63.7015 71.8262 63.6324C71.6795 63.5633 71.6178 63.3945 71.6873 63.2563L72.2043 63.4942ZM61.7395 67.6312L61.4925 67.1169H61.4848L61.5002 67.1093L61.5542 67.0862L61.6391 67.0402L61.7549 66.9788L61.9015 66.9097L62.079 66.8253L62.2797 66.7255L62.5035 66.6181L62.7504 66.4953L63.0205 66.3648L63.3138 66.2266L63.6302 66.0808L63.9621 65.9273L64.3094 65.7661L64.6721 65.6049L65.0502 65.4361L65.4438 65.2672L65.8451 65.0984L66.2542 64.9295L66.6786 64.7606L67.1108 64.5918L67.543 64.4229L67.9829 64.2618L68.4228 64.1006L68.8627 63.9471L69.3026 63.8012L69.7425 63.6631L70.1824 63.5326L70.6145 63.4098L71.039 63.2947L71.4635 63.1949L71.8725 63.1028L71.9882 63.6631L71.5869 63.7475L71.1779 63.8473L70.7612 63.9547L70.3367 64.0776L69.9045 64.208L69.4723 64.3462L69.0402 64.492L68.608 64.6455L68.1758 64.799L67.7436 64.9602L67.3115 65.1291L66.887 65.2979L66.4703 65.4668L66.0612 65.6356L65.6599 65.8045L65.274 65.9733L64.8959 66.1345L64.5332 66.2957L64.1859 66.4492L63.854 66.6027L63.5453 66.7485L63.2521 66.8867L62.982 67.0172L62.735 67.14L62.5112 67.2474L62.3105 67.3472L62.1408 67.4316L61.9941 67.5007L61.8784 67.5544L61.7935 67.6005L61.7395 67.6235L61.724 67.6312H61.7163H61.7395ZM61.7472 67.6312C61.6083 67.7003 61.4308 67.6465 61.3613 67.5084C61.2918 67.3702 61.3459 67.1937 61.4848 67.1246L61.7472 67.6312ZM61.315 68.5062H60.7439V68.4448V68.3834V68.322L60.7516 68.2682L60.7593 68.2145L60.767 68.1608L60.7748 68.107L60.7825 68.0533L60.7979 67.9996L60.8134 67.9459L60.8288 67.8921L60.8442 67.8461L60.8597 67.8L60.8828 67.754L60.906 67.7079L60.9291 67.6619L60.9523 67.6158L60.9754 67.5698L61.0063 67.5314L61.0372 67.493L61.068 67.4547L61.0989 67.4163L61.1298 67.3779L61.1606 67.3472L61.1992 67.3165L61.2378 67.2858L61.2764 67.2551L61.315 67.2244L61.3536 67.1937L61.3922 67.1707L61.4385 67.1476L61.4848 67.1246L61.7317 67.6389L61.7086 67.6542L61.6854 67.6696L61.6623 67.6849L61.6391 67.7003L61.616 67.7156L61.5928 67.731L61.5774 67.7463L61.5619 67.7617L61.5465 67.777L61.5311 67.8L61.5156 67.8231L61.5002 67.8461L61.4848 67.8691L61.4693 67.8921L61.4539 67.9152L61.4385 67.9382L61.423 67.9612L61.4076 67.9919L61.3922 68.0226L61.3844 68.0533L61.3767 68.084L61.369 68.1147L61.3613 68.1454L61.3536 68.1761L61.3459 68.2145L61.3381 68.2529L61.3304 68.2913L61.3227 68.3296L61.315 68.368V68.4141V68.4601V68.5062ZM61.315 68.5062C61.315 68.6673 61.1838 68.7901 61.0294 68.7901C60.8751 68.7901 60.7439 68.6597 60.7439 68.5062H61.315ZM61.5388 69.5346L61.0063 69.7419V69.7495L60.9909 69.7112L60.9754 69.6728L60.96 69.6344L60.9446 69.596L60.9291 69.5577L60.9137 69.5193L60.8982 69.4809L60.8828 69.4425L60.8674 69.4042L60.8597 69.3658L60.8519 69.3274L60.8442 69.289L60.8365 69.2507L60.8288 69.2123L60.8211 69.1739L60.8134 69.1355L60.8056 69.0972L60.7979 69.0588L60.7902 69.0204L60.7825 68.982L60.7748 68.9437L60.767 68.9053L60.7593 68.8669L60.7516 68.8285V68.7901V68.7518V68.7134V68.675V68.6366V68.5983V68.5599V68.5215H61.3227V68.5522V68.5829V68.6136V68.6443V68.675V68.7057V68.7364V68.7671V68.7978L61.3304 68.8285L61.3381 68.8592L61.3459 68.8899L61.3536 68.9206L61.3613 68.9513L61.369 68.982L61.3767 69.0127L61.3844 69.0434L61.3922 69.0741L61.3999 69.1048L61.4076 69.1355L61.4153 69.1662L61.423 69.1969L61.4308 69.2276L61.4385 69.2583L61.4462 69.289L61.4539 69.3197L61.4616 69.3504L61.4771 69.3811L61.4925 69.4118L61.5079 69.4425L61.5234 69.4732L61.5388 69.5039V69.5116V69.5346ZM61.5388 69.527C61.6005 69.6728 61.5311 69.8417 61.3844 69.9031C61.2378 69.9645 61.068 69.8954 61.014 69.7495L61.5465 69.5346L61.5388 69.527ZM63.2598 71.5993L62.9665 72.0905L62.8894 72.0444L62.8122 71.9907L62.735 71.937L62.6578 71.8833L62.5807 71.8219L62.5035 71.7605L62.4263 71.6991L62.3491 71.6377L62.2797 71.5686L62.2102 71.4995L62.1408 71.4304L62.0713 71.3613L62.0018 71.2923L61.9324 71.2155L61.8706 71.1388L61.8089 71.062L61.7472 70.9853L61.6854 70.9085L61.6237 70.8318L61.5697 70.755L61.5156 70.6706L61.4616 70.5861L61.4076 70.5017L61.3536 70.4173L61.3073 70.3329L61.261 70.2484L61.2147 70.164L61.1684 70.0796L61.1298 69.9952L61.0912 69.9107L61.0526 69.8263L61.014 69.7342L61.5465 69.527L61.5774 69.6037L61.6083 69.6805L61.6468 69.7572L61.6854 69.834L61.724 69.9107L61.7626 69.9875L61.8012 70.0642L61.8475 70.141L61.8938 70.2177L61.9401 70.2945L61.9864 70.3636L62.0327 70.4403L62.0867 70.5094L62.1408 70.5785L62.1948 70.6475L62.2488 70.7166L62.3028 70.7857L62.3568 70.8548L62.4186 70.9162L62.4803 70.9776L62.5421 71.039L62.6038 71.1004L62.6655 71.1618L62.7273 71.2155L62.789 71.2692L62.8508 71.323L62.9202 71.3767L62.9897 71.4227L63.0591 71.4688L63.1286 71.5149L63.1981 71.5609L63.2675 71.5993H63.2598ZM63.2598 71.5993C63.3987 71.676 63.4373 71.8526 63.3601 71.9907C63.2829 72.1289 63.1054 72.1749 62.9665 72.0905L63.2598 71.5993ZM64.402 71.8449L64.5409 72.3975H64.5486L64.5023 72.4129L64.456 72.4205L64.4097 72.4282L64.3634 72.4359L64.3171 72.4436L64.2708 72.4512H64.2245H64.1782H64.1319H64.0856H64.0393H63.9929L63.9466 72.4436L63.9003 72.4359L63.854 72.4282L63.8077 72.4205L63.7537 72.4129L63.7074 72.3975L63.6534 72.3821L63.5994 72.3668L63.5453 72.3514L63.4913 72.3361L63.4373 72.3207L63.3833 72.2977L63.3292 72.2747L63.2752 72.2517L63.2212 72.2286L63.1672 72.2056L63.1132 72.1826L63.0591 72.1519L63.0051 72.1212L62.9511 72.0905L63.2444 71.5993L63.2907 71.6223L63.337 71.6453L63.3833 71.6684L63.4296 71.6914L63.4682 71.7144L63.5067 71.7298L63.5453 71.7451L63.5839 71.7605L63.6225 71.7758L63.6611 71.7912L63.6997 71.8065L63.7383 71.8219L63.7769 71.8295L63.8154 71.8372L63.854 71.8449L63.8926 71.8526L63.9235 71.8602L63.9621 71.8679L63.9929 71.8756H64.0238H64.0547H64.0856H64.1164H64.1473H64.1782H64.209H64.2399H64.2708L64.2939 71.8679L64.3171 71.8602L64.3402 71.8526L64.3634 71.8449H64.3711H64.402ZM64.3943 71.8449C64.5486 71.7988 64.703 71.8909 64.7493 72.0368C64.7956 72.1903 64.703 72.3438 64.5563 72.3898L64.3943 71.8449ZM64.6103 72.3821L64.5409 72.3975L64.402 71.8449L64.4714 71.8295L64.6567 72.3668L64.6103 72.3821ZM64.4714 71.8295C64.6258 71.7912 64.7801 71.8833 64.8187 72.0368C64.8573 72.1903 64.7647 72.3438 64.6103 72.3821L64.4714 71.8295ZM64.7493 72.3284L64.6567 72.3745L64.4251 71.8526L64.5177 71.8065H64.5255L64.757 72.3284H64.7493ZM64.5177 71.8065C64.6644 71.7451 64.8342 71.8065 64.8959 71.9523C64.9576 72.0982 64.8959 72.267 64.7493 72.3284L64.5177 71.8065ZM75.3994 67.777L64.7493 72.3284L64.5255 71.8065L75.1756 67.2551L75.5074 67.7003L75.3994 67.777ZM75.1756 67.2551C75.3222 67.1937 75.492 67.2628 75.5537 67.4086C75.6155 67.5544 75.546 67.7233 75.4071 67.7847L75.1833 67.2628L75.1756 67.2551ZM76.5493 66.0961L76.0631 66.3955L76.5338 66.4185L76.503 66.4569L76.4721 66.4953L76.4412 66.5336L76.4104 66.572L76.3795 66.6104L76.3486 66.6488L76.3177 66.6871L76.2869 66.7255L76.256 66.7639L76.2251 66.8023L76.1943 66.8406L76.1634 66.879L76.1325 66.9174L76.1017 66.9558L76.0708 66.9941L76.0399 67.0325L76.009 67.0709L75.9782 67.1093L75.9473 67.1476L75.9164 67.186L75.8856 67.2244L75.8547 67.2628L75.8238 67.3011L75.793 67.3395L75.7621 67.3779L75.7312 67.4163L75.7003 67.4547L75.6695 67.493L75.6386 67.5314L75.6077 67.5698L75.5769 67.6082L75.546 67.6465L75.1061 67.2781L75.137 67.2397L75.1678 67.2014L75.1987 67.163L75.2296 67.1246L75.2604 67.0862L75.2913 67.0479L75.3222 67.0095L75.3531 66.9711L75.3839 66.9327L75.4148 66.8944L75.4457 66.856L75.4765 66.8176L75.5074 66.7792L75.5383 66.7409L75.5691 66.7025L75.6 66.6641L75.6309 66.6257L75.6618 66.5874L75.6926 66.549L75.7235 66.5106L75.7544 66.4722L75.7852 66.4338L75.8161 66.3955L75.847 66.3571L75.8778 66.3187L75.9087 66.2803L75.9396 66.242L75.9705 66.2036L76.0013 66.1652L76.0322 66.1268L76.0631 66.0885L76.0939 66.0501L76.5647 66.0731L76.5493 66.0961ZM76.0785 66.0731C76.1711 65.9503 76.3563 65.9196 76.4798 66.0194C76.6033 66.1115 76.6342 66.2957 76.5338 66.4185L76.0785 66.0731ZM78.9108 69.8954L78.3552 69.7495L78.4092 70.0028L78.3706 69.9568L78.332 69.9031L78.2857 69.8417L78.2394 69.7802L78.1931 69.7112L78.1391 69.6344L78.085 69.55L78.0233 69.4656L77.9616 69.3735L77.8998 69.2814L77.8304 69.1816L77.7609 69.0741L77.6915 68.9667L77.6143 68.8515L77.5371 68.7364L77.4599 68.6136L77.3827 68.4908L77.2979 68.368L77.213 68.2375L77.1281 68.107L77.0432 67.9766L76.9583 67.8384L76.8734 67.7003L76.7885 67.5621L76.6959 67.424L76.6033 67.2781L76.5107 67.1323L76.4181 66.9865L76.3255 66.8406L76.2328 66.6948L76.1402 66.549L76.0476 66.4031L76.5338 66.1038L76.6264 66.2496L76.719 66.3955L76.8117 66.5413L76.9043 66.6871L76.9969 66.833L77.0895 66.9788L77.1821 67.1246L77.2747 67.2628L77.3596 67.4009L77.4445 67.5391L77.5294 67.6772L77.6143 67.8077L77.6992 67.9382L77.7841 68.0687L77.8612 68.1915L77.9384 68.3143L78.0156 68.4294L78.0928 68.5445L78.1622 68.652L78.2317 68.7594L78.3011 68.8592L78.3629 68.959L78.4246 69.0511L78.4863 69.1432L78.5404 69.2276L78.5944 69.3044L78.6484 69.3735L78.6947 69.4425L78.741 69.5039L78.7796 69.5577L78.8182 69.6037L78.8491 69.6421L78.9031 69.8954H78.9108ZM78.8568 69.6421C78.9571 69.7649 78.9417 69.9414 78.8182 70.0412C78.6947 70.141 78.5172 70.1256 78.4169 70.0028L78.8568 69.6421ZM79.4742 76.427L78.9185 76.5805L78.8105 76.1737L78.7102 75.7823L78.6253 75.3985L78.5481 75.0301L78.4786 74.6694L78.4169 74.324L78.3629 73.9939L78.3166 73.6716L78.278 73.3646L78.2471 73.0652L78.224 72.7813L78.2085 72.505L78.1931 72.244L78.1854 71.9984L78.1777 71.7605V71.5379V71.3306L78.1854 71.1311L78.1931 70.9469L78.2085 70.778L78.224 70.6169L78.2394 70.471L78.2548 70.3405L78.2703 70.2177L78.2857 70.1103L78.3011 70.0182L78.3166 69.9414L78.332 69.8724L78.3397 69.8186L78.3474 69.7802L78.3552 69.7572V69.7419L78.9108 69.8877L78.9031 69.9031L78.8954 69.9338L78.8877 69.9798L78.8799 70.0335L78.8645 70.1026L78.8491 70.187L78.8336 70.2868L78.8182 70.3943L78.8028 70.5171L78.7873 70.6552L78.7719 70.8011L78.7642 70.9622L78.7565 71.1388L78.7487 71.3306V71.5302V71.7451V71.9677L78.7565 72.2056L78.7719 72.4589L78.7873 72.7199L78.8105 72.9962L78.8414 73.2801L78.8799 73.5795L78.9262 73.8942L78.9803 74.2165L79.042 74.5542L79.1115 74.8996L79.1886 75.2604L79.2735 75.6288L79.3661 76.0125L79.4742 76.404V76.427ZM79.4742 76.427C79.5128 76.5805 79.4279 76.734 79.2735 76.7801C79.1192 76.8184 78.9648 76.734 78.9185 76.5805L79.4742 76.427ZM80.6858 85.0233H80.1147V85.0156V84.9772V84.9158V84.8391V84.7393V84.6165L80.107 84.4706L80.0993 84.3095L80.0916 84.1253L80.0839 83.9257L80.0684 83.7108L80.053 83.4805L80.0376 83.2349L80.0144 82.974L79.9913 82.6977L79.9681 82.406L79.9372 82.1067L79.9064 81.792L79.8678 81.4696L79.8292 81.1319L79.7829 80.7865L79.7289 80.4335L79.6748 80.0727L79.6131 79.7043L79.5436 79.3282L79.4742 78.9445L79.397 78.5607L79.3121 78.1693L79.2272 77.7778L79.1346 77.3787L79.0343 76.9796L78.9262 76.5805L79.4819 76.427L79.5899 76.8338L79.6903 77.2406L79.7906 77.6474L79.8832 78.0465L79.9681 78.4456L80.0453 78.837L80.1147 79.2285L80.1842 79.6122L80.2459 79.9883L80.3 80.3567L80.354 80.7174L80.4003 81.0705L80.4389 81.4082L80.4775 81.7383L80.5083 82.0606L80.5392 82.3676L80.5623 82.6593L80.5855 82.9433L80.6087 83.2119L80.6241 83.4652L80.6395 83.7031L80.655 83.9257L80.6627 84.1253L80.6704 84.3095L80.6781 84.4783L80.6858 84.6241V84.7469V84.8544V84.9388V85.0002V85.0386V85.054V85.0233ZM80.6858 85.0233C80.6858 85.1844 80.5546 85.3072 80.4003 85.3072C80.2459 85.3072 80.1147 85.1768 80.1147 85.0233H80.6858ZM81.4036 85.998L81.118 86.4892L81.0563 86.4508L81.0022 86.4125L80.9482 86.3741L80.8942 86.3357L80.8402 86.2973L80.7862 86.259L80.7398 86.2206L80.6935 86.1822L80.6472 86.1438L80.6009 86.0978L80.5623 86.0594L80.5238 86.0134L80.4852 85.9673L80.4466 85.9213L80.4157 85.8752L80.3848 85.8292L80.354 85.7831L80.3231 85.737L80.2922 85.691L80.2691 85.6449L80.2459 85.5989L80.2228 85.5452L80.1996 85.4914L80.1842 85.4377L80.1688 85.384L80.1533 85.3303L80.1379 85.2765L80.1302 85.2228L80.1225 85.1691L80.1147 85.1154V85.0616V85.0079H80.6858V85.0386V85.0693V85.1L80.6935 85.1307L80.7013 85.1614L80.709 85.1921L80.7167 85.2228L80.7244 85.2535L80.7321 85.2842L80.7476 85.3149L80.763 85.3456L80.7784 85.3763L80.7939 85.407L80.8093 85.4377L80.8247 85.4684L80.8479 85.4991L80.871 85.5298L80.8942 85.5605L80.9174 85.5912L80.9405 85.6219L80.9714 85.6526L81.0022 85.6833L81.0331 85.714L81.064 85.7447L81.1026 85.7754L81.1412 85.8061L81.1797 85.8368L81.2183 85.8675L81.2646 85.8982L81.3109 85.9289L81.3572 85.9596L81.4036 85.9903V85.998ZM81.4036 85.998C81.5425 86.0748 81.5888 86.2513 81.5039 86.3894C81.4267 86.5276 81.2492 86.5736 81.1103 86.4892L81.4036 85.998ZM82.9162 86.4432L82.8622 87.0111L82.8004 87.0035L82.7387 86.9958L82.6769 86.9881L82.6152 86.9804L82.5535 86.9728L82.4917 86.9651L82.43 86.9574L82.3759 86.9497L82.3219 86.9421L82.2679 86.9344L82.2139 86.919L82.1599 86.9037L82.1058 86.8883L82.0518 86.873L81.9978 86.8576L81.9438 86.8423L81.8897 86.8269L81.8357 86.8116L81.7817 86.7962L81.7277 86.7809L81.6737 86.7655L81.6196 86.7425L81.5656 86.7195L81.5116 86.6965L81.4576 86.6734L81.4113 86.6504L81.3572 86.6274L81.3032 86.6043L81.2569 86.5813L81.2106 86.5583L81.1643 86.5353L81.118 86.5046L81.4036 86.0134L81.4421 86.0364L81.4807 86.0594L81.5193 86.0824L81.5579 86.1055L81.5965 86.1285L81.6351 86.1515L81.6814 86.1745L81.7277 86.1899L81.774 86.2052L81.8203 86.2206L81.8666 86.2359L81.9129 86.2513L81.9592 86.2666L82.0055 86.282L82.0518 86.2973L82.0981 86.3127L82.1444 86.328L82.1907 86.3434L82.237 86.3587L82.2833 86.3741L82.3296 86.3818L82.3759 86.3894L82.4223 86.3971L82.4763 86.4048L82.5303 86.4125L82.5843 86.4201L82.6383 86.4278L82.6924 86.4355L82.7464 86.4432L82.8004 86.4508L82.8544 86.4585L82.9085 86.4662L82.9162 86.4432ZM82.9162 86.4432C83.0705 86.4585 83.1863 86.5967 83.1786 86.7502C83.1631 86.9037 83.0242 87.0265 82.8699 87.0111L82.9239 86.4432H82.9162ZM85.2931 85.998L85.5787 86.4892L85.5092 86.5276L85.4321 86.566L85.3549 86.6043L85.2777 86.6427L85.2005 86.6734L85.1234 86.7041L85.0462 86.7348L84.9613 86.7655L84.8764 86.7962L84.7915 86.8193L84.7066 86.8423L84.6217 86.8653L84.5368 86.8883L84.4519 86.9114L84.3671 86.9267L84.2822 86.9421L84.1973 86.9574L84.1124 86.9728L84.0275 86.9881L83.9426 86.9958L83.85 87.0035L83.7574 87.0111L83.6648 87.0188L83.5722 87.0265H83.4795H83.3869H83.2943H83.2017H83.1091L83.0165 87.0188L82.9239 87.0111L82.8313 87.0035L82.8853 86.4355L82.9625 86.4432L83.0397 86.4508L83.1168 86.4585H83.194H83.2712H83.3483H83.4255H83.5027L83.5799 86.4508L83.657 86.4432L83.7342 86.4355L83.8114 86.4278L83.8886 86.4201L83.9657 86.4125L84.0429 86.3971L84.1201 86.3818L84.1973 86.3664L84.2744 86.3511L84.3516 86.3357L84.4288 86.3204L84.4983 86.2973L84.5677 86.2743L84.6372 86.2513L84.7066 86.2283L84.7761 86.2052L84.8455 86.1822L84.915 86.1515L84.9767 86.1208L85.0385 86.0901L85.1002 86.0594L85.162 86.0287L85.2237 85.998H85.2931ZM85.2931 85.998C85.4321 85.9213 85.6019 85.9596 85.6867 86.0978C85.7639 86.2359 85.7176 86.4125 85.5864 86.4892L85.2931 85.998ZM86.0186 85.0386L86.5897 85.0002V85.0233V85.077V85.1307L86.582 85.1844L86.5743 85.2382L86.5665 85.2919L86.5588 85.3456L86.5434 85.3993L86.5279 85.4531L86.5125 85.5068L86.4894 85.5605L86.4662 85.6142L86.4431 85.6603L86.4199 85.7063L86.389 85.7524L86.3582 85.7985L86.3273 85.8445L86.2964 85.8906L86.2578 85.9366L86.2192 85.9827L86.1807 86.0287L86.1421 86.0748L86.1035 86.1208L86.0572 86.1669L86.0109 86.2052L85.9646 86.2436L85.9183 86.282L85.8642 86.3204L85.8102 86.3587L85.7562 86.3971L85.7022 86.4355L85.6482 86.4739L85.5864 86.5122L85.3009 86.021L85.3472 85.9903L85.3935 85.9596L85.4398 85.9289L85.4861 85.8982L85.5247 85.8675L85.5633 85.8368L85.6018 85.8061L85.6404 85.7754L85.6713 85.7447L85.7022 85.714L85.733 85.6833L85.7639 85.6526L85.7871 85.6219L85.8102 85.5912L85.8334 85.5605L85.8565 85.5298L85.8797 85.4991L85.8951 85.4684L85.9105 85.4377L85.926 85.407L85.9414 85.3763L85.9569 85.3456L85.9723 85.3149L85.98 85.2842L85.9877 85.2535L85.9954 85.2228L86.0032 85.1921L86.0109 85.1614L86.0186 85.1307V85.1V85.0693V85.0386V85.0616V85.0386ZM86.0186 85.0156C86.0186 84.8544 86.1498 84.7316 86.3041 84.7316C86.4585 84.7316 86.5897 84.8621 86.5897 85.0156H86.0186ZM84.4211 68.2299L84.969 68.061L85.023 68.2759L85.0771 68.5522L85.1311 68.8976L85.1928 69.3044L85.2546 69.7649L85.3163 70.2791L85.378 70.8394L85.4398 71.4458L85.5092 72.0905L85.5787 72.7659L85.6482 73.4644L85.7176 74.1858L85.7871 74.9226L85.8565 75.6671L85.926 76.4193L85.9877 77.1715L86.0495 77.9237L86.1112 78.6605L86.1729 79.382L86.227 80.0881L86.281 80.7635L86.335 81.4082L86.3813 82.0146L86.4276 82.5825L86.4662 83.1044L86.5048 83.5726L86.5357 83.9794L86.5588 84.3248L86.582 84.6011L86.5974 84.8083L86.6051 84.9388V84.9849L86.034 85.0233V84.9772L86.0263 84.8467L86.0109 84.6395L85.9877 84.3632L85.9646 84.0178L85.9337 83.611L85.8951 83.1428L85.8565 82.6209L85.8102 82.0529L85.7639 81.4466L85.7099 80.8019L85.6559 80.1265L85.6018 79.428L85.5401 78.7065L85.4784 77.9697L85.4166 77.2252L85.3549 76.473L85.2854 75.7209L85.216 74.9764L85.1465 74.2396L85.0771 73.5181L85.0076 72.8196L84.9381 72.1519L84.8687 71.5149L84.807 70.9162L84.7452 70.3559L84.6835 69.8493L84.6217 69.3965L84.5677 68.9974L84.5137 68.6673L84.4674 68.4064L84.4211 68.2299ZM84.4211 68.2299C84.3748 68.0763 84.4597 67.9228 84.614 67.8768C84.7684 67.8307 84.9227 67.9152 84.969 68.0687L84.4211 68.2299Z" fill="#31283C"/>
<path fill-rule="evenodd" clip-rule="evenodd" d="M78.6252 69.8263C78.6252 69.8263 78.6252 69.8263 78.6175 69.8186C78.6175 69.8186 78.6175 69.8186 78.6252 69.8263ZM77.8998 68.7901C77.4445 68.0994 76.8656 67.1784 76.2946 66.2573C76.8656 67.1784 77.4522 68.0994 77.8998 68.7901Z" fill="url(#paint9_linear_0_1)"/>
<path d="M78.4014 70.0029L78.3937 69.9952L78.6097 69.8264V69.8187L78.3474 69.9262L78.6097 69.811V69.5194V69.811L78.6329 69.8034L78.849 69.6422L78.8567 69.6499L78.6638 69.7957L78.8876 69.7036L78.656 69.8034L78.6175 69.8341V70.1027V69.8417L78.4014 70.0106V70.0029ZM78.6175 69.8264L78.6329 69.8187L78.6175 69.8264V69.8341V69.8264ZM77.6914 68.9821L78.1467 68.6367L77.6914 68.9821ZM77.6914 68.9821L77.9769 68.7519L77.6682 68.9514C77.4598 68.629 77.2129 68.2453 76.9505 67.8385C76.6727 67.401 76.364 66.9098 76.0553 66.4109L76.5415 66.1116L77.429 67.5315C77.6837 67.9306 77.9229 68.3067 78.139 68.6367L78.0001 68.7288L77.6836 68.9821H77.6914Z" fill="#2B2A29"/>
<g filter="url(#filter4_d_0_1)">
<path d="M87.7478 37.6747C85.6178 39.1176 85.3091 40.4685 84.8075 40.9981C84.4679 41.3511 84.1515 41.7119 83.9431 42.157C83.264 43.6076 82.0678 46.4859 82.0678 48.6579C82.0678 48.6579 78.1241 52.4879 71.8267 49.1568C71.2247 48.8422 70.615 48.4584 69.9745 48.0056C69.9745 48.0056 69.8896 47.3148 70.8388 45.4574C71.7881 43.6 72.0042 41.1592 72.0042 41.1592C72.0042 41.1592 69.7507 36.485 70.1829 34.1901C70.615 31.8876 72.0042 28.1114 72.0042 28.1114C72.0042 28.1114 80.1075 26.1849 89.1987 31.6727C89.1987 31.6727 89.2681 31.9259 89.3376 32.3251C89.546 33.5838 89.7312 36.3315 87.7478 37.6747Z" fill="url(#paint10_linear_0_1)"/>
</g>
<path d="M87.8936 37.9202C86.4196 38.9257 85.8485 39.8774 85.4703 40.5298C85.3083 40.8061 85.1771 41.0287 85.015 41.1975L85.0073 41.2052C84.8452 41.3741 84.6909 41.5506 84.552 41.7271C84.4131 41.9037 84.2973 42.0879 84.2047 42.2874C83.8728 43.0089 83.4021 44.0758 83.0239 45.2347C82.6458 46.3783 82.3525 47.614 82.3525 48.6655C82.3525 48.7576 82.3139 48.8344 82.2444 48.8881C81.9743 49.1414 77.9535 52.7334 71.6947 49.4177C71.3937 49.2642 71.085 49.08 70.7609 48.8804C70.4444 48.6809 70.128 48.4737 69.8039 48.2434C69.7344 48.1973 69.6958 48.1283 69.6881 48.0515V48.0055C69.6804 47.8213 69.7267 47.0154 70.5834 45.3345L70.5911 45.3191C71.4168 43.6997 71.6715 41.6197 71.7101 41.2129C71.4168 40.5912 69.4875 36.3545 69.9042 34.144V34.1287C70.3441 31.8031 71.7255 28.0268 71.7333 28.0192C71.7641 27.9271 71.849 27.858 71.9416 27.8426C71.9648 27.835 80.153 25.8855 89.3522 31.4346C89.414 31.473 89.4526 31.5267 89.4757 31.5882L89.4834 31.6189C89.5066 31.7033 89.5683 31.9489 89.6223 32.2789V32.2866C89.7304 32.939 89.8307 33.9675 89.6455 35.0113C89.4603 36.0935 88.9741 37.1834 87.9091 37.9125L87.8936 37.9202ZM84.9764 40.2381C85.3855 39.5474 85.9874 38.5266 87.5695 37.452L87.5849 37.4367C88.5033 36.815 88.9201 35.8633 89.0821 34.9115C89.2519 33.9444 89.1593 32.9774 89.059 32.371V32.3633C89.0204 32.1254 88.9818 31.9489 88.9586 31.8491C80.7164 26.9216 73.3616 28.1266 72.2272 28.3492C71.9725 29.063 70.8535 32.2175 70.4753 34.2284V34.2361C70.074 36.3698 72.1037 40.691 72.258 41.0133C72.2889 41.0594 72.3043 41.1208 72.2966 41.1822C72.2966 41.1899 72.0728 43.669 71.1081 45.5724L71.1004 45.5878C70.4059 46.9463 70.2824 47.614 70.2592 47.852C70.537 48.0438 70.8072 48.2204 71.0696 48.3892C71.3628 48.5734 71.6638 48.7423 71.9648 48.9035C77.5368 51.8584 81.1794 49.0493 81.7814 48.5274C81.8045 47.4375 82.0978 46.2018 82.476 45.0505C82.8618 43.8685 83.3403 42.771 83.6799 42.0341C83.7957 41.7885 83.9346 41.5736 84.0966 41.3664C84.251 41.1668 84.4208 40.9826 84.5906 40.7984C84.714 40.668 84.8298 40.4761 84.9687 40.2305L84.9764 40.2381ZM69.6881 48.0285V47.9978V48.0285Z" fill="#2B2A29"/>
<g filter="url(#filter5_d_0_1)">
<path d="M72.4435 33.3768C71.5097 35.6103 68.0677 35.1574 68.0677 35.1574L63.5453 36.4929L68.1526 44.6056L65.1196 47.2766L64.3325 48.19C64.3325 48.19 58.1508 36.562 58.228 35.1497C58.3051 33.7375 65.4438 28.2574 72.0036 28.1039C72.0036 28.1039 72.2892 28.7409 72.513 29.6466C72.7677 30.7135 72.9452 32.1564 72.4358 33.3691L72.4435 33.3768Z" fill="url(#paint11_linear_0_1)"/>
</g>
<path d="M72.706 33.484C71.7568 35.7406 68.5618 35.4949 68.091 35.4489L63.9699 36.6616L68.3997 44.4673C68.4691 44.5824 68.4383 44.7359 68.3379 44.8203L65.3204 47.476L64.5487 48.3817C64.4483 48.5045 64.2631 48.5121 64.1474 48.4124C64.1165 48.3893 64.0933 48.3586 64.0779 48.3279C64.0625 48.2972 57.8653 36.6232 57.9425 35.1419C57.9888 34.2362 60.5587 31.8646 64.0393 30.0839C66.4317 28.8635 69.2563 27.8888 71.996 27.8274C72.1195 27.8274 72.2198 27.8965 72.2661 28.0039C72.2661 28.0039 72.5671 28.6563 72.7909 29.585V29.6004C72.9221 30.1453 73.0302 30.79 73.0456 31.4578C73.061 32.1409 72.9684 32.8393 72.6983 33.4917L72.706 33.484ZM68.0987 34.8733C68.1064 34.8733 71.3246 35.2954 72.1735 33.2691C72.4128 32.7012 72.4899 32.0795 72.4745 31.4655C72.4591 30.8514 72.3587 30.2451 72.2353 29.7308V29.7232C72.0886 29.1245 71.9111 28.6486 71.8185 28.403C69.2409 28.5028 66.5706 29.4315 64.3094 30.5905C60.9986 32.2867 58.5599 34.4127 58.5213 35.1726C58.4596 36.3622 63.3447 45.703 64.3943 47.6909L64.9037 47.0922L67.79 44.544L63.3062 36.6462C63.2907 36.6232 63.2753 36.6002 63.2676 36.5695C63.2213 36.416 63.3062 36.2625 63.4605 36.2164L67.9752 34.8886C68.0138 34.8733 68.0524 34.8733 68.0987 34.8733Z" fill="#2B2A29"/>
<path d="M84.5064 29.4008C84.437 29.6541 84.3366 29.915 84.2209 30.1836C83.1945 32.5169 80.6709 34.8886 80.6709 34.8886C79.9608 33.8064 79.4438 32.1255 79.1119 30.6825C78.7646 29.1935 78.6026 27.9732 78.6026 27.9732L79.1505 27.505L79.0039 25.6476L81.7822 27.5434L84.5064 29.4008Z" fill="#FEFEFE"/>
<path d="M84.7837 29.4777C84.7451 29.6159 84.6988 29.754 84.6525 29.8845C84.6062 30.0226 84.5445 30.1608 84.4905 30.2913C83.4409 32.6783 80.8864 35.0806 80.8787 35.0883C80.7629 35.1957 80.5854 35.1957 80.4774 35.0806L80.4388 35.0346C80.107 34.5357 79.8214 33.914 79.5744 33.2462C79.2735 32.4327 79.0265 31.55 78.8413 30.7441C78.494 29.2474 78.3319 28.0194 78.3319 28.0194C78.3165 27.912 78.3551 27.8122 78.4323 27.7508L78.8644 27.3824L78.7255 25.6708C78.7101 25.5173 78.8336 25.3791 78.9879 25.3638C79.0574 25.3561 79.1268 25.3791 79.1809 25.4175L84.6757 29.1707C84.776 29.2398 84.8223 29.3702 84.7914 29.4777H84.7837ZM84.1123 29.6926L84.1741 29.5161L79.3429 26.2157L79.4433 27.4745C79.451 27.5589 79.4124 27.651 79.3429 27.7124L78.9107 28.0808C78.9648 28.4569 79.1268 29.4547 79.3969 30.6136C79.5822 31.4042 79.8214 32.2638 80.1147 33.0467C80.2999 33.5456 80.5083 34.0214 80.7398 34.4282C81.3958 33.7682 83.1476 31.9107 83.958 30.084L83.9734 30.0457C84.0274 29.9305 84.0737 29.8077 84.12 29.6926H84.1123Z" fill="#2B2A29"/>
<path d="M81.0488 29.209L80.9871 29.1706H80.9794L80.9408 29.1476C80.8945 29.1169 80.8559 29.0862 80.8096 29.0555L80.8019 29.0478L80.7324 28.9941L80.717 28.9864L80.6398 28.925L80.5935 28.8789C80.5935 28.8789 80.2462 28.2956 80.0147 27.0906C80.0147 27.0906 79.2507 26.4382 79.1658 26.2003L79.1349 26.0928L79.0963 25.9777C78.9728 25.4942 78.1239 22.6543 78.8571 22.5008C79.6597 22.3396 80.9177 22.401 81.5119 21.9175C81.5891 21.8561 82.0984 21.3802 82.2605 21.3572C82.2991 21.3495 82.4148 21.2958 82.546 21.2267C82.739 21.127 82.9628 21.0042 83.0554 21.0042C84.1821 21.0118 85.8028 22.401 86.6286 22.662L86.8215 22.7081C87.1688 22.7464 87.4621 22.685 87.7013 22.6006L87.7939 22.5622L87.9328 22.5392C88.666 22.4548 87.3694 28.641 84.6066 30.2375C83.6033 30.8208 82.4303 30.0916 81.0488 29.2243V29.209Z" fill="#FEFEFE"/>
<path d="M80.9178 29.4623C80.7326 29.3471 80.5705 29.2243 80.4084 29.0785C80.3776 29.0555 80.3621 29.0248 80.3467 28.9941C80.3313 28.9634 79.9994 28.3877 79.7602 27.2288C79.5595 27.0522 78.9961 26.538 78.9035 26.2847C78.8572 26.1389 78.8186 26.0084 78.78 25.8626C78.7029 25.5709 78.564 25.0567 78.4482 24.5041C78.2398 23.4679 78.1626 22.3396 78.8109 22.2092H78.8263C79.081 22.1554 79.3743 22.1324 79.6676 22.1017C80.3004 22.0403 80.9872 21.9712 81.3345 21.6949L81.4194 21.6182C81.6123 21.4493 82.0137 21.0962 82.2297 21.0655C82.3069 21.0195 82.3995 20.9811 82.4767 20.9351C82.6928 20.8199 82.9243 20.6971 83.0864 20.7125H83.0941C83.8736 20.7278 84.7997 21.2881 85.5946 21.7717C86.0422 22.0403 86.4435 22.2859 86.7213 22.378L86.8757 22.4087C87.0146 22.4241 87.1535 22.4164 87.2692 22.401C87.3927 22.3857 87.5085 22.355 87.6088 22.3166L87.6937 22.2782L87.7477 22.2629L87.9175 22.2322C88.041 22.2245 88.149 22.2629 88.2339 22.355L88.2416 22.3627C88.3883 22.5162 88.4423 22.8309 88.4192 23.2607C88.396 23.6291 88.3265 24.1049 88.1953 24.6345C87.7246 26.6147 86.5361 29.4392 84.7534 30.4677C84.1668 30.8054 83.5417 30.767 82.8703 30.5214C82.2606 30.2989 81.6123 29.8921 80.9178 29.4623ZM81.1416 28.925L81.2033 28.9634C81.8747 29.3855 82.4999 29.7769 83.0632 29.9842C83.5803 30.176 84.0434 30.2067 84.4601 29.9688C86.0885 29.0324 87.1921 26.3768 87.632 24.4964C87.7477 23.9975 87.8172 23.5523 87.8403 23.2223C87.8481 23.0458 87.8481 22.9076 87.8403 22.8309L87.8018 22.8462C87.6628 22.8923 87.5085 22.9383 87.3387 22.9613C87.1689 22.9844 86.9837 22.992 86.7908 22.969C86.7059 22.9537 86.6287 22.9306 86.5438 22.9153C86.2042 22.8078 85.7643 22.5392 85.2859 22.2475C84.545 21.7947 83.6883 21.2805 83.071 21.2651H83.0401L82.4921 21.5491C82.4304 21.5798 82.3764 21.5951 82.3301 21.6105L82.2915 21.6182C82.2452 21.6258 81.9365 21.8945 81.7821 22.0326L81.6895 22.1171C81.211 22.5085 80.4316 22.5852 79.7061 22.6543C79.4206 22.685 79.1428 22.708 78.919 22.7541H78.9112C78.7183 22.7925 78.8418 23.6137 78.9961 24.3812C79.1042 24.8955 79.2431 25.4174 79.3203 25.7091L79.3666 25.8702L79.436 26.0851C79.5055 26.254 80.2078 26.8603 80.2078 26.8603C80.2541 26.8987 80.2849 26.9601 80.3004 27.0215C80.4856 27.9809 80.7403 28.5182 80.8252 28.6794C80.9101 28.7561 81.0798 28.8559 81.1416 28.9173V28.925Z" fill="#2B2A29"/>
<path d="M68.3074 45.2887L68.2997 45.4268C68.2919 45.5726 68.2765 45.7185 68.2379 45.872C68.0064 46.8851 67.2269 47.9827 66.2854 48.5276C66.0847 48.6427 65.8995 48.7272 65.722 48.7809C65.4442 48.8576 65.1895 48.873 64.9734 48.8039C64.5335 48.6888 64.2634 48.2897 64.2634 47.668C64.2634 47.2458 64.3869 46.77 64.6107 46.3095L64.7342 46.0639C65.1046 45.3961 65.6603 44.7821 66.2854 44.4137L66.5324 44.2909L66.625 44.2448C67.5819 43.8534 68.3074 44.2679 68.3074 45.281V45.2887Z" fill="#DA3027"/>
<path d="M68.0143 45.4037L68.022 45.2655L68.5931 45.3116L68.5854 45.4497L68.0143 45.419V45.4114V45.4037ZM68.5854 45.4497C68.5699 45.6033 68.4387 45.7261 68.2767 45.7107C68.1223 45.6954 67.9989 45.5572 68.0143 45.4037L68.5854 45.4497ZM68.5159 45.941L67.9603 45.8105V45.7951V45.7798V45.7644V45.7568V45.7414V45.7261V45.7107V45.6954V45.68V45.6647V45.657V45.6493V45.634V45.6263V45.6109V45.5956V45.5879V45.5802V45.5649V45.5572V45.5495V45.5342V45.5265V45.5188V45.5035V45.4881V45.4804V45.4728V45.4574V45.4497V45.4421V45.4267L68.5314 45.4497V45.4651V45.4804V45.4958V45.5112V45.5265V45.5419V45.5572V45.5726V45.5879V45.6033V45.6186V45.634V45.6493V45.6647V45.68V45.6954V45.7107V45.7261V45.7414V45.7568V45.7721V45.7875V45.8028V45.8182V45.8335V45.8489V45.8642V45.8796V45.8949V45.9103L68.5236 45.9256V45.941H68.5159ZM68.5159 45.941C68.4773 46.0945 68.323 46.1866 68.1686 46.1559C68.0143 46.1175 67.9217 45.964 67.9525 45.8105L68.5082 45.941H68.5159ZM66.4322 48.7808L66.1389 48.2896L66.2161 48.2435L66.2933 48.1898L66.3705 48.1361L66.4476 48.0823L66.5248 48.0209L66.602 47.9595L66.6792 47.8981L66.7563 47.8291L66.8258 47.76L66.8953 47.6909L66.9647 47.6142L67.0342 47.5374L67.1036 47.4607L67.1654 47.3839L67.2271 47.2995L67.2888 47.215L67.3506 47.1306L67.4046 47.0462L67.4586 46.9618L67.5127 46.8773L67.5667 46.7929L67.613 46.7085L67.6593 46.6164L67.7056 46.5243L67.7442 46.4322L67.7828 46.3401L67.8213 46.248L67.8522 46.1559L67.8831 46.0638L67.914 45.9717L67.9371 45.8872L67.9603 45.8028L68.5159 45.9333L68.4928 46.0331L68.4619 46.1405L68.431 46.2403L68.3924 46.3478L68.3539 46.4475L68.3153 46.5473L68.269 46.6471L68.2227 46.7469L68.1764 46.8466L68.1223 46.9464L68.0683 47.0462L68.0143 47.146L67.9525 47.2458L67.8908 47.3455L67.8291 47.4376L67.7596 47.5297L67.6902 47.6218L67.6207 47.7139L67.5435 47.806L67.4663 47.8905L67.3892 47.9749L67.312 48.0593L67.2348 48.1438L67.1499 48.2205L67.065 48.2973L66.9801 48.374L66.8953 48.4431L66.8026 48.5122L66.71 48.5812L66.6174 48.6426L66.5248 48.704L66.4322 48.7578V48.7808ZM66.4322 48.7808C66.2933 48.8575 66.1235 48.8115 66.0386 48.681C65.9614 48.5429 66.0077 48.3663 66.1389 48.2896L66.4245 48.7808H66.4322ZM65.7994 49.0571L65.6373 48.5045H65.645L65.6605 48.4968H65.6759L65.6913 48.4891L65.7068 48.4815L65.7222 48.4738L65.7376 48.4661L65.7531 48.4584L65.7685 48.4508L65.7839 48.4431L65.7994 48.4354L65.8148 48.4277L65.8302 48.4201L65.8457 48.4124L65.8611 48.4047L65.8765 48.397L65.892 48.3894L65.9074 48.3817L65.9229 48.374L65.9383 48.3663L65.9537 48.3587L65.9692 48.351L65.9846 48.3433L66 48.3356L66.0155 48.328L66.0309 48.3203L66.0463 48.3126L66.0618 48.3049L66.0772 48.2973L66.0926 48.2896L66.1081 48.2819L66.1235 48.2742L66.1389 48.2666L66.4322 48.7578L66.4091 48.7731L66.3936 48.7808L66.3705 48.7961L66.3473 48.8038L66.3319 48.8115L66.3087 48.8268L66.2933 48.8345L66.2701 48.8422L66.247 48.8499L66.2316 48.8575L66.2084 48.8652L66.193 48.8729L66.1698 48.8806L66.1467 48.8882L66.1312 48.8959L66.1081 48.9036L66.0849 48.9113L66.0695 48.9189L66.054 48.9266L66.0309 48.9343L66.0155 48.942L65.9923 48.9497L65.9769 48.9573L65.9537 48.965L65.9306 48.9727L65.9151 48.9804L65.892 48.988L65.8765 48.9957L65.8611 49.0034L65.838 49.0111L65.8148 49.0187L65.7994 49.0264H65.8071L65.7994 49.0571ZM65.7917 49.0571C65.6373 49.0955 65.483 49.0111 65.4367 48.8575C65.3981 48.704 65.483 48.5505 65.6373 48.5045L65.7917 49.0571ZM64.8964 49.0801L65.0431 48.5275L65.0585 48.5352L65.0739 48.5429L65.0894 48.5505H65.1048H65.1202H65.1357H65.1511H65.1665H65.182H65.1974H65.2128H65.2283H65.2437H65.2592H65.2746H65.2977H65.3132H65.3286H65.3518H65.3672H65.3826H65.4058H65.4289H65.4521H65.4675H65.4907L65.5138 48.5429L65.537 48.5352L65.5601 48.5275L65.5833 48.5198L65.6064 48.5122L65.6296 48.5045L65.6527 48.4968L65.8148 49.0494L65.7839 49.0571L65.7531 49.0648L65.7222 49.0725L65.6913 49.0801L65.6605 49.0878L65.6296 49.0955L65.5987 49.1032L65.5679 49.1108L65.537 49.1185L65.5061 49.1262H65.4752H65.4444H65.4135H65.3826H65.3518H65.3209H65.29H65.2669H65.236H65.2051H65.1743H65.1434H65.1125H65.0894H65.0585L65.0276 49.1185L65.0045 49.1108L64.9813 49.1032L64.9505 49.0955L64.9273 49.0878L64.9041 49.0801L64.8733 49.0725L64.8887 49.0801H64.8964ZM64.881 49.0725C64.7344 49.0264 64.6495 48.8652 64.6958 48.7117C64.7421 48.5582 64.9041 48.4815 65.0585 48.5275L64.881 49.0725ZM63.9703 47.6602H64.5414V47.7139V47.76V47.806L64.5491 47.8521L64.5569 47.8981L64.5646 47.9365L64.5723 47.9749L64.58 48.0133L64.5877 48.0516L64.5954 48.0823L64.6109 48.1131L64.6263 48.1438L64.6418 48.1745L64.6572 48.2052L64.6726 48.2359L64.6881 48.2589L64.7035 48.2819L64.7189 48.3049L64.7344 48.328L64.7498 48.351L64.7652 48.3663L64.7884 48.3817L64.8115 48.397L64.8347 48.4124L64.8578 48.4277L64.881 48.4431L64.9041 48.4584L64.9273 48.4738L64.9505 48.4815L64.9736 48.4891L64.9968 48.4968L65.0276 48.5045L64.881 49.0571L64.827 49.0418L64.7729 49.0264L64.7189 49.0034L64.6726 48.9804L64.6263 48.9573L64.58 48.9343L64.5337 48.9036L64.4874 48.8729L64.4411 48.8422L64.4025 48.8115L64.3639 48.7731L64.3253 48.7347L64.2868 48.6964L64.2559 48.658L64.225 48.6119L64.1941 48.5659L64.1633 48.5198L64.1401 48.4738L64.117 48.4277L64.0938 48.374L64.0707 48.3203L64.0552 48.2666L64.0398 48.2128L64.0244 48.1591L64.0089 48.1054L63.9935 48.044L63.9858 47.9826L63.9781 47.9212L63.9703 47.8598L63.9626 47.7984V47.737V47.6679L63.9703 47.6602ZM63.9703 47.6602C63.9703 47.499 64.1015 47.3762 64.2559 47.3762C64.4102 47.3762 64.5414 47.5067 64.5414 47.6602H63.9703ZM64.3485 46.1712L64.8578 46.4322V46.4245L64.8424 46.4629L64.827 46.5013L64.8115 46.5396L64.7961 46.578L64.7807 46.6164L64.7652 46.6548L64.7498 46.6931L64.7344 46.7315L64.7189 46.7699L64.7035 46.8083L64.6881 46.8466L64.6726 46.885L64.6572 46.9234L64.6495 46.9618L64.6418 47.0001L64.634 47.0385L64.6263 47.0769L64.6186 47.1153L64.6109 47.1536L64.6032 47.192L64.5954 47.2304L64.5877 47.2688L64.58 47.3072L64.5723 47.3455L64.5646 47.3839L64.5569 47.4223V47.4607V47.499V47.5374V47.5758V47.6065V47.6372H63.9858V47.5911V47.5451V47.499V47.453V47.4069L63.9935 47.3609L64.0012 47.3148L64.0089 47.2688L64.0166 47.2227L64.0244 47.1767L64.0321 47.1306L64.0398 47.0846L64.0475 47.0385L64.0552 46.9925L64.0629 46.9464L64.0707 46.9004L64.0861 46.8543L64.1015 46.8083L64.117 46.7622L64.1324 46.7162L64.1478 46.6701L64.1633 46.6241L64.1787 46.578L64.1941 46.532L64.2096 46.4859L64.225 46.4399L64.2404 46.3938L64.2636 46.3478L64.2868 46.3017L64.3099 46.2556L64.3331 46.2096L64.3562 46.1635V46.1559L64.3485 46.1712ZM64.3485 46.1789C64.4179 46.0331 64.5877 45.9793 64.7266 46.0407C64.8656 46.1098 64.9273 46.2787 64.8578 46.4245L64.3408 46.1789H64.3485ZM64.989 46.1866L64.8656 46.4322L64.3562 46.1712L64.4797 45.9256L64.4874 45.9179L64.989 46.1866ZM64.4797 45.9256C64.5491 45.7875 64.7266 45.7261 64.8656 45.8028C65.0045 45.8719 65.0585 46.0484 64.989 46.1866L64.4797 45.9256ZM66.1544 44.1526L66.4091 44.6669L66.4245 44.6592L66.3705 44.6899L66.3164 44.7206L66.2624 44.759L66.2084 44.7974L66.1544 44.8357L66.1004 44.8741L66.0463 44.9125L65.9923 44.9509L65.9383 44.9892L65.892 45.0353L65.8457 45.0813L65.7994 45.1274L65.7531 45.1734L65.7068 45.2195L65.6605 45.2655L65.6142 45.3116L65.5679 45.3653L65.5215 45.419L65.4752 45.4728L65.4289 45.5265L65.3826 45.5802L65.3363 45.634L65.2977 45.6877L65.2592 45.7414L65.2206 45.7951L65.182 45.8489L65.1434 45.9026L65.1048 45.964L65.0662 46.0177L65.0276 46.0714L64.9968 46.1328L64.9659 46.1942L64.4643 45.9179L64.5028 45.8489L64.5414 45.7798L64.58 45.7107L64.6186 45.6493L64.6572 45.5879L64.7035 45.5265L64.7498 45.4651L64.7961 45.4037L64.8424 45.3423L64.8887 45.2809L64.935 45.2195L64.9813 45.1581L65.0276 45.0967L65.0739 45.0353L65.128 44.9739L65.182 44.9202L65.236 44.8664L65.29 44.8127L65.344 44.759L65.3981 44.7053L65.4521 44.6515L65.5061 44.5978L65.5601 44.5441L65.6219 44.498L65.6836 44.452L65.7454 44.4059L65.8071 44.3599L65.8688 44.3138L65.9306 44.2754L65.9923 44.2371L66.054 44.1987L66.1158 44.1603L66.1312 44.1526H66.1544ZM66.1389 44.1603C66.2779 44.0836 66.4476 44.1296 66.5325 44.2601C66.6097 44.3982 66.5634 44.5748 66.4322 44.6515L66.1467 44.1603H66.1389ZM66.656 44.5441L66.4091 44.6669L66.1544 44.1526L66.4013 44.0298H66.4091L66.656 44.5441ZM66.4013 44.0298C66.5402 43.9608 66.7178 44.0145 66.7872 44.1603C66.8567 44.2985 66.8026 44.475 66.656 44.5441L66.4013 44.0298ZM66.7409 44.498L66.6483 44.5441L66.4091 44.0298L66.5017 43.9838L66.5094 43.9761L66.7409 44.498ZM66.5017 43.9838C66.6483 43.9147 66.8181 43.9761 66.8798 44.1219C66.9493 44.2678 66.8875 44.4366 66.7409 44.498L66.5017 43.9838ZM68.5931 45.3039L68.022 45.2579V45.2809V45.1965L68.0143 45.1197L68.0066 45.0506L67.9911 44.9816L67.9757 44.9202L67.9603 44.8588L67.9448 44.805L67.9217 44.7513L67.8985 44.7053L67.8754 44.6592L67.8445 44.6208L67.8136 44.5825L67.7828 44.5517L67.7519 44.521L67.721 44.4903L67.6824 44.4673L67.6438 44.4443L67.6053 44.4289L67.559 44.4136L67.5127 44.3982L67.4663 44.3906L67.4123 44.3829L67.3583 44.3752H67.3043H67.2425L67.1808 44.3829L67.1113 44.3906L67.0419 44.4059L66.9724 44.4213L66.8953 44.4443L66.8181 44.4673L66.7409 44.498L66.5248 43.9684L66.6251 43.9301L66.7255 43.8994L66.8258 43.8687L66.9261 43.8456L67.0187 43.8303L67.1113 43.8149L67.204 43.8073H67.2966H67.3892L67.4818 43.8149L67.5667 43.8303L67.6516 43.8533L67.7365 43.8763L67.8213 43.907L67.8985 43.9454L67.9757 43.9915L68.0452 44.0375L68.1146 44.0912L68.1764 44.1526L68.2381 44.214L68.2921 44.2831L68.3461 44.3522L68.3924 44.4289L68.431 44.5134L68.4696 44.5978L68.5005 44.6899L68.5236 44.782L68.5468 44.8741L68.5622 44.9739L68.5777 45.0737L68.5854 45.1811V45.2886V45.3116L68.5931 45.3039ZM68.5931 45.2809C68.5931 45.4421 68.4619 45.5649 68.3076 45.5649C68.1532 45.5649 68.022 45.4344 68.022 45.2809H68.5931Z" fill="#2B2A29"/>
<path fill-rule="evenodd" clip-rule="evenodd" d="M65.089 48.8347C65.0504 48.827 65.0118 48.8193 64.9733 48.804C64.6723 48.7272 64.4562 48.52 64.3404 48.1899C64.4485 48.5123 64.6723 48.7272 64.9733 48.804C65.0118 48.8193 65.0504 48.827 65.089 48.8347ZM68.2995 45.4345V45.4269L68.3072 45.2887L68.2995 45.4269C68.2995 45.4269 68.2995 45.4268 68.2995 45.4345Z" fill="url(#paint12_linear_0_1)"/>
<path d="M64.8963 49.0803L65.0429 48.5276H65.0583H65.0661H65.0583L65.0738 48.5353H65.0661H65.0583H65.0738H65.0661H65.0738H65.0815H65.0738H65.0815H65.0738H65.0815H65.0969H65.0892H65.1047H65.0969H65.1047H65.0969H65.1124H65.1047H65.1124L65.0198 49.0956H65.0043H65.012H64.9966H64.9812H64.9889H64.9735H64.9812H64.9657H64.958H64.9503H64.9349H64.9194H64.9271H64.9117L64.8963 49.0879H64.904L64.8886 49.0803H64.904H64.8963ZM64.8808 49.0803C64.7265 49.0342 64.6416 48.873 64.6956 48.7195C64.7419 48.566 64.904 48.4816 65.0506 48.5276L64.8808 49.0726V49.0803ZM64.3329 47.906V48.4739L64.603 48.0978L64.6107 48.1209L64.6185 48.1439L64.6262 48.1669L64.6339 48.1899L64.6416 48.213L64.6493 48.236L64.657 48.2513L64.6648 48.2667L64.6725 48.282L64.6802 48.2974L64.6956 48.3127L64.7111 48.3281L64.7188 48.3434L64.7342 48.3588L64.7496 48.3741L64.7651 48.3895L64.7805 48.4048L64.796 48.4202L64.8114 48.4279L64.8268 48.4355L64.8423 48.4432L64.8577 48.4509L64.8731 48.4586L64.8886 48.4662L64.904 48.4739L64.9194 48.4816L64.9349 48.4893L64.9503 48.4969L64.9657 48.5046L64.9812 48.5123L64.9966 48.52L65.0198 48.5276L64.8731 49.0803L64.8345 49.0726L64.796 49.0649L64.7574 49.0496L64.7188 49.0342L64.6879 49.0189L64.657 49.0035L64.6262 48.9882L64.5953 48.9728L64.5644 48.9575L64.5336 48.9344L64.5027 48.9114L64.4718 48.8884L64.4409 48.8654L64.4101 48.8423L64.3869 48.8193L64.3638 48.7963L64.3329 48.7733L64.3098 48.7426L64.2866 48.7119L64.2634 48.6812L64.2403 48.6505L64.2171 48.6197L64.194 48.589L64.1708 48.5583L64.1477 48.5276L64.1323 48.4969L64.1168 48.4662L64.1014 48.4279L64.0859 48.3895L64.0705 48.3511L64.0551 48.3127L64.0396 48.2744L64.3098 47.8983L64.3329 47.906ZM64.0628 48.282C64.0088 48.1362 64.0937 47.9674 64.2403 47.9213C64.3869 47.8676 64.5567 47.952 64.603 48.0978L64.0628 48.282ZM64.3329 48.4739V47.906L64.603 48.0978L64.3329 48.4739ZM64.3329 47.906C64.4873 47.906 64.6185 48.0364 64.6185 48.1899C64.6185 48.3511 64.4873 48.4739 64.3329 48.4739V47.906ZM65.0506 48.5276L64.8808 49.0726H64.8963L64.8577 49.0649L64.8268 49.0572L64.7882 49.0419L64.7496 49.0265L64.7188 49.0112L64.6879 48.9958L64.657 48.9805L64.6262 48.9651L64.5953 48.9498L64.5644 48.9268L64.5336 48.9037L64.5027 48.8807L64.4718 48.8577L64.4409 48.8347L64.4101 48.8116L64.3792 48.7886L64.3561 48.7579L64.3329 48.7349L64.3098 48.7042L64.2866 48.6735L64.2634 48.6428L64.2403 48.6121L64.2171 48.5814L64.194 48.5507L64.1708 48.52L64.1554 48.4893L64.14 48.4586L64.1245 48.4202L64.1091 48.3818L64.0937 48.3434L64.0782 48.3051L64.0628 48.2667L64.603 48.0825L64.6107 48.1055L64.6185 48.1285L64.6262 48.1516L64.6339 48.1746L64.6416 48.1976L64.6493 48.2206L64.657 48.236L64.6648 48.2513L64.6725 48.2667L64.6802 48.282L64.6956 48.2974L64.7111 48.3127L64.7265 48.3281L64.7419 48.3434L64.7574 48.3588L64.7728 48.3741L64.7882 48.3895L64.8037 48.4048L64.8191 48.4125L64.8345 48.4202L64.85 48.4279L64.8654 48.4355L64.8808 48.4432L64.8963 48.4509L64.9117 48.4586L64.9271 48.4662L64.9426 48.4739L64.958 48.4816L64.9735 48.4893L64.9889 48.4969L65.0043 48.5046L65.0198 48.5123H65.0352L65.0506 48.5276ZM65.0352 48.5276C65.1895 48.566 65.2822 48.7272 65.2436 48.873C65.205 49.0265 65.0506 49.1186 64.8963 49.0803L65.0429 48.5276H65.0352ZM65.0352 49.111L65.1278 48.5507L65.0352 49.111H65.0198H65.012H64.9966H65.0043H64.9889H64.9812H64.9735H64.9657H64.958H64.9657H64.958H64.9503L64.9349 49.1033H64.9426L64.9271 49.0956H64.9349L64.9194 49.0879L65.0892 48.543H65.0969H65.0892L65.1047 48.5507H65.0969L65.1124 48.5583H65.1047H65.1201H65.1278H65.1201H65.1355H65.1278H65.1201H65.1278L65.0352 49.1186V49.111ZM65.1278 48.5507C65.2822 48.5737 65.3902 48.7272 65.367 48.8807C65.3439 49.0342 65.1973 49.1417 65.0352 49.1186L65.1278 48.5583V48.5507ZM68.0064 45.4038L68.5775 45.4499V45.4269H68.0064V45.4038ZM68.0064 45.4269C68.0064 45.2657 68.1376 45.1429 68.292 45.1429C68.4463 45.1429 68.5775 45.2733 68.5775 45.4269H68.0064ZM68.5929 45.3117L68.5852 45.4499L68.0141 45.4038L68.0219 45.2657L68.5929 45.2887V45.3117ZM68.0219 45.2657C68.0373 45.1122 68.1685 44.9894 68.3306 45.0047C68.4849 45.0201 68.6084 45.1582 68.5929 45.3117L68.0219 45.2657ZM68.5929 45.3117L68.0219 45.2657L68.3074 45.2887H68.0219H68.5929H68.3074L68.5929 45.3117ZM68.5929 45.2887C68.5929 45.4499 68.4618 45.5727 68.3074 45.5727C68.1531 45.5727 68.0219 45.4422 68.0219 45.2887H68.5929ZM68.0064 45.4038L68.0141 45.2657L68.5852 45.3117L68.5775 45.4499L68.0064 45.4269V45.4038ZM68.5775 45.4499C68.5621 45.6034 68.4309 45.7262 68.2688 45.7108C68.1145 45.6955 67.991 45.5573 68.0064 45.4038L68.5775 45.4499ZM68.0064 45.4345H68.5775H68.0064H68.5775H68.0064ZM68.5775 45.4345C68.5775 45.5957 68.4463 45.7185 68.292 45.7185C68.1376 45.7185 68.0064 45.588 68.0064 45.4345H68.5775Z" fill="#2B2A29"/>
<path fill-rule="evenodd" clip-rule="evenodd" d="M66.3857 44.3679L66.4861 44.3138L66.5092 44.306L66.3857 44.3679Z" fill="url(#paint13_linear_0_1)"/>
<path d="M66.6167 44.5671L66.5164 44.6208L66.254 44.1142L66.3543 44.0605L66.3698 44.0528L66.6167 44.5671ZM66.3543 44.0605C66.4932 43.9914 66.6707 44.0451 66.7402 44.1833C66.8097 44.3215 66.7556 44.498 66.6167 44.5671L66.3543 44.0605ZM66.6244 44.5671L66.6013 44.5747L66.3698 44.0528L66.3929 44.0451L66.6399 44.5594L66.6322 44.5671H66.6244ZM66.3929 44.0451C66.5395 43.9837 66.7093 44.0451 66.7711 44.191C66.8328 44.3368 66.7711 44.5057 66.6244 44.5671L66.3929 44.0451ZM66.2617 44.1142L66.3852 44.0528L66.6399 44.5671L66.5164 44.6285L66.254 44.1219L66.2617 44.1142ZM66.5164 44.6285C66.3775 44.6975 66.2 44.6438 66.1305 44.498C66.0611 44.3598 66.1151 44.1833 66.2617 44.1142L66.5164 44.6285Z" fill="#2B2A29"/>
<path fill-rule="evenodd" clip-rule="evenodd" d="M65.2662 48.85C65.2045 48.85 65.1428 48.8423 65.081 48.8346C65.0424 48.827 65.0038 48.8193 64.9653 48.8039C64.6643 48.7272 64.4482 48.5199 64.3324 48.1899C64.2784 48.0364 64.2552 47.8599 64.2552 47.668C64.2552 47.2766 64.3633 46.8314 64.5562 46.4093L64.5948 46.3172L64.7183 46.0715C65.0887 45.4038 65.6444 44.7898 66.2695 44.4214L66.3698 44.3676L66.4933 44.3062L66.6091 44.2525C66.8483 44.1527 67.0798 44.1067 67.2805 44.1067C67.8825 44.1067 68.2915 44.5288 68.2915 45.2887L68.2838 45.4268V45.4345C68.2761 45.542 68.2683 45.6417 68.2375 45.7569V45.7645C68.0677 45.6494 67.9056 45.542 67.759 45.4575C67.5892 45.3578 67.4348 45.2733 67.3191 45.2349C67.2419 45.2119 66.7866 44.69 66.4702 44.3293L66.2695 44.4291C65.6444 44.7898 65.0887 45.4038 64.7183 46.0792L64.5948 46.3248L64.5562 46.4169L65.1736 47.2305C65.1736 47.2382 65.1813 47.7217 65.2508 48.3664C65.2662 48.5276 65.2894 48.6888 65.3048 48.8577C65.2894 48.8577 65.274 48.8577 65.2585 48.8577L65.2662 48.85Z" fill="#00A0E3"/>
<path d="M65.2669 49.1339L65.1511 49.1262C65.1125 49.1262 65.0739 49.1185 65.0276 49.1108L64.881 49.0725C64.6881 49.0187 64.5183 48.9266 64.3794 48.7885C64.2404 48.6503 64.1324 48.4815 64.0629 48.2819L64.0552 48.2666C64.0244 48.1745 64.0012 48.0824 63.9858 47.9903V47.9826C63.9703 47.8828 63.9626 47.7753 63.9626 47.6679C63.9626 47.453 63.9935 47.2227 64.0475 46.9925C64.1015 46.7545 64.1864 46.5166 64.2945 46.2863C64.3562 46.1559 64.4102 46.0331 64.4874 45.9026C64.6881 45.5495 64.935 45.2041 65.2206 44.9048L65.236 44.8895C65.5061 44.6055 65.8148 44.3522 66.1312 44.168C66.2547 44.0989 66.3936 44.0298 66.5171 43.9761C66.6483 43.9224 66.7718 43.884 66.903 43.8533C67.0419 43.8226 67.1654 43.8073 67.2888 43.8073C67.6824 43.8073 68.0143 43.9531 68.2458 44.2294L68.2612 44.2524C68.4696 44.5057 68.5854 44.8511 68.5854 45.2809C68.5777 45.4574 68.5622 45.6186 68.5314 45.7951C68.5082 45.9333 68.3924 46.0407 68.2458 46.0407C68.1841 46.0407 68.1223 46.0177 68.0683 45.9793L67.8368 45.8258L67.6207 45.6877L67.3892 45.5649C67.3274 45.5342 67.2657 45.5035 67.2194 45.4881C67.1808 45.4728 67.1422 45.4498 67.1113 45.4191C67.0187 45.3423 66.8953 45.2272 66.7641 45.0813L66.3936 44.6669C66.1158 44.8281 65.8534 45.043 65.6219 45.2962C65.3672 45.5649 65.1434 45.8719 64.9659 46.1866L64.8733 46.3631L65.3903 47.0385C65.4289 47.0922 65.4444 47.1537 65.4444 47.2074C65.4444 47.2074 65.4521 47.4223 65.4675 47.7446C65.4752 47.9135 65.4907 48.1131 65.5138 48.3126L65.5679 48.7962C65.5833 48.9497 65.4752 49.0955 65.3209 49.1108H65.236L65.2669 49.1339ZM64.7807 48.3817C64.8424 48.4354 64.9119 48.4815 64.989 48.5122L64.9736 48.3817C64.9505 48.1591 64.935 47.9595 64.9273 47.7907L64.9041 47.3225L64.6495 46.9925L64.6186 47.123C64.5723 47.3072 64.5491 47.4914 64.5491 47.6679C64.5491 47.7523 64.5569 47.8291 64.5646 47.8981V47.9058C64.5723 47.9749 64.5877 48.0363 64.6032 48.0824L64.6109 48.0977C64.6495 48.2128 64.7112 48.3126 64.7807 48.3817ZM67.0342 44.4136L66.9647 44.4289L67.2117 44.6976C67.3429 44.8357 67.4046 44.9355 67.4278 44.9432H67.4355C67.5049 44.9662 67.5821 45.0046 67.667 45.0506L68.022 45.2502C68.0143 44.9662 67.9526 44.7513 67.8291 44.6055L67.8136 44.5901C67.6902 44.452 67.5127 44.3752 67.2888 44.3752C67.204 44.3752 67.1191 44.3829 67.0265 44.4059L67.0342 44.4136Z" fill="#2B2A29"/>
<path d="M70.553 49.648C70.445 49.8782 69.897 52.035 67.8519 52.7104C67.8519 52.7104 66.8872 52.0503 66.2158 51.2368C66.0692 51.0602 65.938 50.876 65.8299 50.6841C65.6602 50.3771 65.529 49.955 65.4364 49.5098C65.39 49.2949 65.3515 49.0723 65.3206 48.8498C65.3206 48.8498 65.3206 48.8498 65.3206 48.8421L65.2897 48.6195V48.6118V48.5888V48.5658L65.2743 48.466V48.4353V48.4276L65.2666 48.3586V48.3509V48.3202V48.2895C65.2203 47.7752 65.2048 47.3684 65.1971 47.2533V47.2456V47.238V47.2303V47.2226V47.2149V47.2073L64.5797 46.3937L64.6183 46.3016L64.7418 46.056C65.1122 45.3882 65.6679 44.7742 66.293 44.4058L66.4936 44.306C66.8101 44.6668 67.2654 45.181 67.3426 45.2117C67.4583 45.2578 67.6127 45.3345 67.7825 45.4343C67.9291 45.5187 68.0912 45.6262 68.2609 45.7413C68.423 45.8564 68.6005 45.9792 68.7626 46.1174C69.3645 46.5856 69.9356 47.1152 70.0591 47.3991C70.2984 47.9287 70.0591 48.4123 70.0591 48.4123H69.2025L70.1672 48.7116C70.1672 48.7116 70.2598 48.8191 70.3524 48.9649C70.4913 49.1721 70.6379 49.4638 70.5607 49.625L70.553 49.648Z" fill="#FEFEFE"/>
<path d="M70.8077 49.7787L70.7691 49.8862C70.5607 50.4695 69.8893 52.3346 67.9445 52.9793C67.8519 53.01 67.7515 52.987 67.6821 52.9333C67.5663 52.8565 66.6557 52.2041 65.9997 51.4212L65.9842 51.4059C65.9148 51.3215 65.8453 51.2294 65.7759 51.1373C65.7064 51.0451 65.6447 50.9377 65.5829 50.8379V50.8302C65.4903 50.6614 65.4054 50.4618 65.336 50.2469C65.2665 50.032 65.2125 49.8094 65.1585 49.5792L65.089 49.2415C65.0041 48.7196 64.9733 48.3128 64.9269 47.7909L64.9038 47.3303L64.3404 46.5858C64.271 46.4937 64.2632 46.3863 64.3096 46.2865C64.3636 46.1637 64.4253 46.0409 64.4871 45.9258C64.6877 45.565 64.9424 45.2197 65.2202 44.9203C65.498 44.6287 65.8067 44.3677 66.1309 44.1835L66.347 44.076C66.4627 44.0146 66.6094 44.0453 66.6943 44.1451C66.8563 44.3293 67.0493 44.5519 67.2036 44.7131L67.219 44.7284C67.3425 44.8666 67.4043 44.9587 67.4197 44.9587H67.4274C67.4969 44.9817 67.574 45.0201 67.6589 45.0661L67.9136 45.2043L68.1606 45.3578C68.2686 45.4269 68.3767 45.5036 68.477 45.5804C68.6236 45.6878 68.778 45.7953 68.9323 45.9181L68.94 45.9258C69.2642 46.1791 69.5806 46.4477 69.8198 46.6856C70.0591 46.9236 70.2366 47.1385 70.3137 47.3073V47.315C70.5607 47.8753 70.3832 48.3742 70.3292 48.5046C70.36 48.5277 70.3678 48.5353 70.3909 48.5737C70.4295 48.6275 70.5067 48.7272 70.5839 48.8424C70.6687 48.9728 70.7614 49.1417 70.8077 49.3029C70.8617 49.4641 70.8694 49.6329 70.7999 49.7787L70.7922 49.7864L70.8077 49.7787ZM70.2289 49.6943L70.2983 49.5255L70.2752 49.4641C70.2443 49.3643 70.1825 49.2491 70.1131 49.1494L70.1054 49.134C70.0591 49.0649 70.0205 49.0112 69.9973 48.9728L69.133 48.7042C69.0095 48.6735 68.9169 48.5584 68.9169 48.4279C68.9169 48.2667 69.0481 48.1439 69.2024 48.1439H69.8507C69.8816 47.9981 69.9047 47.7755 69.7967 47.5452V47.5376C69.7504 47.4378 69.6115 47.2766 69.4262 47.0924C69.1947 46.8698 68.9014 46.6089 68.5927 46.3709L68.5773 46.3633C68.4384 46.2481 68.2841 46.1407 68.1451 46.0409L67.8442 45.8337L67.6281 45.6955L67.3965 45.5727C67.3348 45.542 67.2808 45.5113 67.2268 45.496C67.1341 45.4576 66.9721 45.3041 66.7946 45.1122L66.4087 44.6824C66.1309 44.8436 65.8685 45.0585 65.637 45.3118C65.3823 45.5804 65.1585 45.8874 64.981 46.2021L64.8884 46.3786L65.3977 47.0464C65.4363 47.0924 65.4672 47.1615 65.4672 47.2306V47.2689C65.4672 47.338 65.4749 47.5069 65.4903 47.7602C65.5212 48.1362 65.5521 48.4586 65.5907 48.827L65.6447 49.1494L65.7064 49.4641C65.7527 49.679 65.8067 49.8939 65.8685 50.0781C65.9302 50.2546 65.992 50.4235 66.0691 50.5616C66.1154 50.646 66.1772 50.7305 66.2389 50.8226C66.2929 50.8993 66.3547 50.9837 66.4164 51.0605L66.4319 51.0759C66.9412 51.6899 67.6203 52.2118 67.8905 52.4113C69.4725 51.8127 70.0436 50.2162 70.2211 49.7173L70.2289 49.6943Z" fill="#2B2A29"/>
<path fill-rule="evenodd" clip-rule="evenodd" d="M70.3442 48.9804L69.2637 48.7347L69.202 48.4277L70.1667 48.7271C70.1667 48.7271 70.2593 48.8345 70.3519 48.9804H70.3442Z" fill="url(#paint14_linear_0_1)"/>
<path d="M70.283 49.2568L69.2026 49.0112C69.0868 48.9881 69.0097 48.896 68.9865 48.7886L68.9248 48.4816C68.8939 48.3281 68.9942 48.1746 69.1486 48.1439C69.2026 48.1362 69.2566 48.1362 69.3029 48.1592L70.2522 48.4586C70.2985 48.4739 70.3371 48.4969 70.3679 48.5276L70.4065 48.5737C70.4451 48.6274 70.5223 48.7272 70.5917 48.8346C70.6766 48.9651 70.638 49.1416 70.4991 49.2261C70.4297 49.2645 70.3525 49.2798 70.283 49.2644V49.2568Z" fill="#2B2A29"/>
<path d="M89.4606 20.9504C89.4375 21.7102 89.0593 22.2475 88.8741 22.7464C88.7275 23.1685 88.6117 23.5983 88.5037 24.0281C88.3725 24.5884 88.3647 25.379 87.948 25.425C87.9789 25.2946 88.002 25.1641 88.0406 25.0336C88.0406 25.0336 88.7352 22.3549 87.8014 22.5545L87.7088 22.5929C87.4695 22.6927 87.1685 22.7464 86.829 22.7003C84.0121 22.3549 83.9041 21.7793 83.0783 21.6412C82.3297 21.5107 81.5811 23.299 81.5348 23.9744C81.4808 24.6575 81.3187 24.7036 81.2338 24.7573C81.0717 24.8417 80.8093 24.9108 80.6473 24.5194C80.4543 24.0665 81.064 22.9766 80.0453 23.0764C79.3044 23.2222 78.7719 23.8977 79.1038 25.97L79.1424 26.0851L79.1732 26.1926C79.2504 26.561 79.1578 27.4974 79.1578 27.4974L78.687 27.3976C78.687 27.3976 79.042 26.0007 78.2008 24.5347C78.2008 24.5501 76.4027 19.4767 79.3971 17.5426C80.354 16.9362 81.7586 15.8924 83.8655 16.4297C83.8655 16.4297 87.4155 16.9055 88.6812 18.7476C89.3063 19.6533 89.4838 20.3594 89.4606 20.9427V20.9504Z" fill="#FBBA05"/>
<path d="M89.7458 20.9657C89.7227 21.5644 89.5143 22.0172 89.3291 22.424C89.2596 22.5621 89.1979 22.7003 89.1516 22.8385C89.0821 23.0457 89.0127 23.2529 88.9587 23.4601C88.8969 23.6751 88.8429 23.8823 88.7966 24.0895C88.7657 24.22 88.7426 24.3582 88.7194 24.4886C88.6268 25.0643 88.5265 25.6476 87.9863 25.7013C87.8319 25.7167 87.6853 25.6015 87.6698 25.448C87.6698 25.4173 87.6698 25.3866 87.6776 25.3559C87.7084 25.2178 87.7316 25.0643 87.7779 24.9338C87.8319 24.7189 88.3104 22.7771 87.8859 22.8231L87.8242 22.8461C87.6776 22.9075 87.5078 22.9536 87.3226 22.9766H87.3148C87.1605 22.992 86.983 22.992 86.7978 22.9689C84.8838 22.731 84.1815 22.3933 83.6799 22.1477C83.4561 22.0402 83.2786 21.9558 83.0471 21.9098L83.0085 21.9021C82.8001 21.8944 82.5532 22.1861 82.3371 22.5545C82.0824 22.9843 81.8972 23.5062 81.8432 23.8516L81.8277 23.9821C81.766 24.7573 81.5422 24.8954 81.411 24.9722L81.3647 25.0029C81.2412 25.0643 81.0791 25.118 80.8939 25.0796C80.701 25.0412 80.5157 24.9108 80.3923 24.6038C80.2997 24.3889 80.3305 24.1356 80.3537 23.8823C80.3691 23.7365 80.3846 23.5906 80.3768 23.4832C80.3691 23.3911 80.3074 23.322 80.0913 23.3373C79.8135 23.3987 79.5819 23.5523 79.443 23.89C79.281 24.2891 79.2346 24.9108 79.389 25.8778C79.4199 25.9623 79.443 26.039 79.4662 26.1235C79.5511 26.5302 79.4507 27.5127 79.4507 27.5127C79.4353 27.6662 79.2887 27.7813 79.1343 27.766L78.6404 27.6662C78.4861 27.6355 78.3857 27.482 78.4166 27.3285C78.4166 27.3208 78.7484 26.0314 77.9613 24.6652C77.9381 24.6191 77.9227 24.5654 77.9227 24.5193C77.8918 24.4656 77.8687 24.4042 77.8455 24.3274C77.7915 24.1509 77.722 23.89 77.6526 23.5676C77.2898 21.9174 76.958 18.7706 79.2578 17.2969L79.4507 17.1741C80.4386 16.5294 81.8586 15.6161 83.9423 16.1457C84.2433 16.1917 87.6544 16.7213 88.9355 18.5864C89.2674 19.0622 89.4757 19.4921 89.6069 19.8835C89.7381 20.2826 89.7767 20.6357 89.7613 20.958V20.9657H89.7458ZM88.8043 22.1861C88.9664 21.8253 89.1593 21.4262 89.1747 20.9427V20.935C89.1825 20.6817 89.1516 20.3901 89.0435 20.06C88.9355 19.7223 88.7426 19.3462 88.4493 18.9087C87.2994 17.2432 84.1198 16.752 83.8497 16.7136L83.7957 16.7059C81.9435 16.2378 80.6547 17.0744 79.7517 17.6577L79.5588 17.7805C77.5522 19.0699 77.8687 21.9405 78.2005 23.4525C78.27 23.7518 78.3317 23.9974 78.3857 24.1739C78.4012 24.2277 78.3934 24.266 78.3703 24.2967C78.4012 24.3198 78.432 24.3505 78.4552 24.3889C78.5632 24.5731 78.6481 24.7496 78.7176 24.9261C78.7099 24.3965 78.7793 23.9897 78.9028 23.6827C79.1266 23.1378 79.5202 22.8845 79.9755 22.7924L80.0141 22.7847C80.6932 22.7157 80.8939 23.015 80.9402 23.4371C80.9556 23.606 80.9402 23.7825 80.9171 23.9514C80.8939 24.1356 80.8785 24.3198 80.9093 24.3965C80.9479 24.4886 80.9788 24.5193 80.9942 24.527C81.0174 24.5347 81.0483 24.5193 81.0791 24.504L81.1023 24.4886C81.1409 24.4656 81.2103 24.4272 81.2412 23.9437L81.2643 23.7595C81.3338 23.3604 81.5422 22.7617 81.8277 22.2782C82.1441 21.7409 82.5609 21.3188 83.0316 21.3418L83.1165 21.3495C83.433 21.4032 83.649 21.5106 83.9192 21.6411C84.3822 21.8714 85.0305 22.1861 86.8595 22.4086C86.9907 22.424 87.1142 22.424 87.2377 22.4086H87.2454C87.3766 22.3933 87.5001 22.3626 87.6004 22.3165L87.6621 22.2935C87.6853 22.2782 87.7084 22.2705 87.7316 22.2705C88.2101 22.163 88.4262 22.47 88.511 22.9152L88.6037 22.6389C88.6577 22.4931 88.7271 22.3396 88.8043 22.1784V22.1861Z" fill="#2B2A29"/>
<path d="M80.2996 60.309L77.5984 55.9955L78.0769 55.6962L80.7858 60.0096L80.2996 60.309Z" fill="#2B2A29"/>
<path d="M86.7285 89.0298C86.9369 88.5155 87.2302 88.1394 87.5929 87.8785C87.9556 87.6175 88.3878 87.4794 88.8894 87.418L88.9589 87.9783C88.5499 88.032 88.2026 88.1394 87.917 88.339C87.6392 88.5385 87.4154 88.8302 87.2533 89.237L86.7208 89.0221L86.7285 89.0298Z" fill="#2B2A29"/>
<path d="M63.0201 73.5259C63.3288 73.3723 63.6221 73.2802 63.9076 73.2419C64.2009 73.2035 64.4787 73.2188 64.7488 73.2879L64.6099 73.8405C64.4093 73.7868 64.2009 73.7791 63.9848 73.8022C63.761 73.8329 63.5295 73.9096 63.2825 74.0324L63.0278 73.5259H63.0201Z" fill="#2B2A29"/>
<path d="M87.863 89.7129C88.0714 89.1986 88.3646 88.8225 88.7274 88.5616C89.0901 88.3006 89.5223 88.1625 90.0239 88.1011L90.0933 88.6614C89.6843 88.7151 89.337 88.8225 89.0515 89.0221C88.7737 89.2217 88.5499 89.5133 88.3878 89.9201L87.8553 89.7052L87.863 89.7129Z" fill="#2B2A29"/>
<path d="M63.4062 74.7846C63.6763 74.6541 63.9309 74.562 64.1856 74.5236C64.4403 74.4776 64.6873 74.4775 64.9342 74.5159L64.8493 75.0762C64.6718 75.0455 64.4866 75.0532 64.2937 75.0839C64.093 75.1146 63.8846 75.1913 63.6686 75.2988L63.4139 74.7922L63.4062 74.7846Z" fill="#2B2A29"/>
<path d="M84.4599 27.6048C84.2747 27.5127 84.128 27.413 84.0277 27.3132L84.4445 26.8987C84.5216 26.9755 84.676 27.0676 84.8689 27.152L84.9461 27.1213L85.3628 25.5018L85.9339 25.6477L85.5172 27.2671C85.4709 27.4513 85.3474 27.5972 85.1776 27.6816C85.0078 27.766 84.8149 27.7737 84.6374 27.6969C84.5756 27.6739 84.5139 27.6432 84.4599 27.6125V27.6048Z" fill="#31283C"/>
<path d="M84.5682 24.7803C84.4447 25.2024 84.0974 25.4788 83.7964 25.3943C83.4954 25.3099 83.3411 24.8954 83.4646 24.4656C83.588 24.0435 83.9353 23.7672 84.2363 23.8516C84.545 23.936 84.6916 24.3505 84.5682 24.7803Z" fill="#31283C"/>
<path d="M87.3771 25.548C87.2536 25.9702 86.9603 26.2618 86.7134 26.1927C86.4664 26.1237 86.3661 25.7246 86.4896 25.2947C86.613 24.8726 86.9063 24.5809 87.1533 24.65C87.4002 24.7191 87.5005 25.1182 87.3771 25.548Z" fill="#31283C"/>
<path d="M83.9814 29.324C83.4181 29.1628 83.1171 28.779 83.1017 28.756L83.5647 28.403C83.5801 28.426 84.0355 28.9786 84.869 28.7637L85.0156 29.3317C84.6066 29.4391 84.2593 29.4084 83.9737 29.3317L83.9814 29.324Z" fill="#31283C"/>
<g filter="url(#filter6_i_0_1)">
<path d="M42.3934 34.68V44.12H34.8734V57H24.3134V44.12H0.313438V33.64L24.6334 0.839998H34.8734V34.68H42.3934ZM24.3134 34.68V13.88L9.43344 34.68H24.3134Z" fill="black" fill-opacity="0.03"/>
</g>
<defs>
<filter id="filter0_d_0_1" x="27.0099" y="60.2424" width="124.998" height="86.7538" filterUnits="userSpaceOnUse" color-interpolation-filters="sRGB">
<feFlood flood-opacity="0" result="BackgroundImageFix"/>
<feColorMatrix in="SourceAlpha" type="matrix" values="0 0 0 0 0 0 0 0 0 0 0 0 0 0 0 0 0 0 127 0" result="hardAlpha"/>
<feOffset dx="-5" dy="4"/>
<feGaussianBlur stdDeviation="3"/>
<feColorMatrix type="matrix" values="0 0 0 0 0.545833 0 0 0 0 0.597443 0 0 0 0 1 0 0 0 1 0"/>
<feBlend mode="normal" in2="BackgroundImageFix" result="effect1_dropShadow_0_1"/>
<feBlend mode="normal" in="SourceGraphic" in2="effect1_dropShadow_0_1" result="shape"/>
</filter>
<filter id="filter1_d_0_1" x="77.6341" y="50.2424" width="57.1365" height="49.8397" filterUnits="userSpaceOnUse" color-interpolation-filters="sRGB">
<feFlood flood-opacity="0" result="BackgroundImageFix"/>
<feColorMatrix in="SourceAlpha" type="matrix" values="0 0 0 0 0 0 0 0 0 0 0 0 0 0 0 0 0 0 127 0" result="hardAlpha"/>
<feOffset dx="-4" dy="-6"/>
<feGaussianBlur stdDeviation="3"/>
<feColorMatrix type="matrix" values="0 0 0 0 1 0 0 0 0 0.6 0 0 0 0 0 0 0 0 0.5 0"/>
<feBlend mode="normal" in2="BackgroundImageFix" result="effect1_dropShadow_0_1"/>
<feBlend mode="normal" in="SourceGraphic" in2="effect1_dropShadow_0_1" result="shape"/>
</filter>
<filter id="filter2_d_0_1" x="37.9953" y="74.6584" width="57.8018" height="47.8507" filterUnits="userSpaceOnUse" color-interpolation-filters="sRGB">
<feFlood flood-opacity="0" result="BackgroundImageFix"/>
<feColorMatrix in="SourceAlpha" type="matrix" values="0 0 0 0 0 0 0 0 0 0 0 0 0 0 0 0 0 0 127 0" result="hardAlpha"/>
<feOffset dx="-4" dy="-6"/>
<feGaussianBlur stdDeviation="3"/>
<feColorMatrix type="matrix" values="0 0 0 0 0.270588 0 0 0 0 0.768627 0 0 0 0 1 0 0 0 0.5 0"/>
<feBlend mode="normal" in2="BackgroundImageFix" result="effect1_dropShadow_0_1"/>
<feBlend mode="normal" in="SourceGraphic" in2="effect1_dropShadow_0_1" result="shape"/>
</filter>
<filter id="filter3_d_0_1" x="76.813" y="25.6652" width="19.5177" height="27.6038" filterUnits="userSpaceOnUse" color-interpolation-filters="sRGB">
<feFlood flood-opacity="0" result="BackgroundImageFix"/>
<feColorMatrix in="SourceAlpha" type="matrix" values="0 0 0 0 0 0 0 0 0 0 0 0 0 0 0 0 0 0 127 0" result="hardAlpha"/>
<feOffset dx="-4"/>
<feGaussianBlur stdDeviation="3"/>
<feColorMatrix type="matrix" values="0 0 0 0 1 0 0 0 0 0.431373 0 0 0 0 0.478431 0 0 0 1 0"/>
<feBlend mode="normal" in2="BackgroundImageFix" result="effect1_dropShadow_0_1"/>
<feBlend mode="normal" in="SourceGraphic" in2="effect1_dropShadow_0_1" result="shape"/>
</filter>
<filter id="filter4_d_0_1" x="59.9725" y="21.7836" width="31.4884" height="34.7346" filterUnits="userSpaceOnUse" color-interpolation-filters="sRGB">
<feFlood flood-opacity="0" result="BackgroundImageFix"/>
<feColorMatrix in="SourceAlpha" type="matrix" values="0 0 0 0 0 0 0 0 0 0 0 0 0 0 0 0 0 0 127 0" result="hardAlpha"/>
<feOffset dx="-4"/>
<feGaussianBlur stdDeviation="3"/>
<feColorMatrix type="matrix" values="0 0 0 0 1 0 0 0 0 0.431373 0 0 0 0 0.478431 0 0 0 1 0"/>
<feBlend mode="normal" in2="BackgroundImageFix" result="effect1_dropShadow_0_1"/>
<feBlend mode="normal" in="SourceGraphic" in2="effect1_dropShadow_0_1" result="shape"/>
</filter>
<filter id="filter5_d_0_1" x="48.2272" y="22.1039" width="26.5349" height="32.0861" filterUnits="userSpaceOnUse" color-interpolation-filters="sRGB">
<feFlood flood-opacity="0" result="BackgroundImageFix"/>
<feColorMatrix in="SourceAlpha" type="matrix" values="0 0 0 0 0 0 0 0 0 0 0 0 0 0 0 0 0 0 127 0" result="hardAlpha"/>
<feOffset dx="-4"/>
<feGaussianBlur stdDeviation="3"/>
<feColorMatrix type="matrix" values="0 0 0 0 1 0 0 0 0 0.431373 0 0 0 0 0.478431 0 0 0 1 0"/>
<feBlend mode="normal" in2="BackgroundImageFix" result="effect1_dropShadow_0_1"/>
<feBlend mode="normal" in="SourceGraphic" in2="effect1_dropShadow_0_1" result="shape"/>
</filter>
<filter id="filter6_i_0_1" x="0.313446" y="0.839966" width="42.08" height="60.16" filterUnits="userSpaceOnUse" color-interpolation-filters="sRGB">
<feFlood flood-opacity="0" result="BackgroundImageFix"/>
<feBlend mode="normal" in="SourceGraphic" in2="BackgroundImageFix" result="shape"/>
<feColorMatrix in="SourceAlpha" type="matrix" values="0 0 0 0 0 0 0 0 0 0 0 0 0 0 0 0 0 0 127 0" result="hardAlpha"/>
<feOffset dy="4"/>
<feGaussianBlur stdDeviation="2"/>
<feComposite in2="hardAlpha" operator="arithmetic" k2="-1" k3="1"/>
<feColorMatrix type="matrix" values="0 0 0 0 0 0 0 0 0 0 0 0 0 0 0 0 0 0 0.1 0"/>
<feBlend mode="normal" in2="shape" result="effect1_innerShadow_0_1"/>
</filter>
<radialGradient id="paint0_radial_0_1" cx="0" cy="0" r="1" gradientUnits="userSpaceOnUse" gradientTransform="translate(82 84) rotate(90) scale(60)">
<stop stop-color="#7795FF"/>
<stop offset="1" stop-color="#331E87"/>
</radialGradient>
<linearGradient id="paint1_linear_0_1" x1="38.0237" y1="104.571" x2="151.007" y2="104.571" gradientUnits="userSpaceOnUse">
<stop stop-color="#00DBDE"/>
<stop offset="1" stop-color="#FC00FF"/>
</linearGradient>
<linearGradient id="paint2_linear_0_1" x1="38.0237" y1="114.017" x2="98.9377" y2="114.017" gradientUnits="userSpaceOnUse">
<stop stop-color="#00DBDE"/>
<stop offset="1" stop-color="#FC00FF"/>
</linearGradient>
<linearGradient id="paint3_linear_0_1" x1="89.0335" y1="106.975" x2="128.057" y2="106.975" gradientUnits="userSpaceOnUse">
<stop stop-color="#A445B2"/>
<stop offset="0.52" stop-color="#D41872"/>
<stop offset="1" stop-color="#FF0066"/>
</linearGradient>
<linearGradient id="paint4_linear_0_1" x1="112.5" y1="67.5" x2="107.5" y2="85.5" gradientUnits="userSpaceOnUse">
<stop stop-color="#F9D423"/>
<stop offset="1" stop-color="#FF4E50"/>
</linearGradient>
<linearGradient id="paint5_linear_0_1" x1="66.0002" y1="113" x2="76.5002" y2="93" gradientUnits="userSpaceOnUse">
<stop stop-color="#209CFF"/>
<stop offset="1" stop-color="#68E0CF"/>
</linearGradient>
<linearGradient id="paint6_linear_0_1" x1="86.813" y1="39.467" x2="94.3307" y2="39.467" gradientUnits="userSpaceOnUse">
<stop stop-color="#A445B2"/>
<stop offset="0.52" stop-color="#D41872"/>
<stop offset="1" stop-color="#FF0066"/>
</linearGradient>
<linearGradient id="paint7_linear_0_1" x1="80.4814" y1="88.8034" x2="93.5621" y2="88.8034" gradientUnits="userSpaceOnUse">
<stop stop-color="#A445B2"/>
<stop offset="0.52" stop-color="#D41872"/>
<stop offset="1" stop-color="#FF0066"/>
</linearGradient>
<linearGradient id="paint8_linear_0_1" x1="59.0594" y1="73.5652" x2="65.235" y2="73.5652" gradientUnits="userSpaceOnUse">
<stop stop-color="#A445B2"/>
<stop offset="0.52" stop-color="#D41872"/>
<stop offset="1" stop-color="#FF0066"/>
</linearGradient>
<linearGradient id="paint9_linear_0_1" x1="84.6294" y1="68.4448" x2="60.7012" y2="63.3489" gradientUnits="userSpaceOnUse">
<stop stop-color="#FEFEFE"/>
<stop offset="0.0117647" stop-color="#FEFEFE"/>
<stop offset="0.988235" stop-color="#FEFEFE"/>
<stop offset="1" stop-color="#FEFEFE"/>
</linearGradient>
<linearGradient id="paint10_linear_0_1" x1="69.9725" y1="39.1509" x2="89.461" y2="39.1509" gradientUnits="userSpaceOnUse">
<stop stop-color="#A445B2"/>
<stop offset="0.52" stop-color="#D41872"/>
<stop offset="1" stop-color="#FF0066"/>
</linearGradient>
<linearGradient id="paint11_linear_0_1" x1="58.2272" y1="38.1469" x2="72.7621" y2="38.1469" gradientUnits="userSpaceOnUse">
<stop stop-color="#A445B2"/>
<stop offset="0.52" stop-color="#D41872"/>
<stop offset="1" stop-color="#FF0066"/>
</linearGradient>
<linearGradient id="paint12_linear_0_1" x1="64.2632" y1="46.4784" x2="68.3072" y2="46.4784" gradientUnits="userSpaceOnUse">
<stop stop-color="#F8F8FA"/>
<stop offset="0.0117647" stop-color="#F8F8FA"/>
<stop offset="0.988235" stop-color="#F6F6F9"/>
<stop offset="1" stop-color="#F6F6F9"/>
</linearGradient>
<linearGradient id="paint13_linear_0_1" x1="64.2633" y1="46.4959" x2="68.3075" y2="46.4959" gradientUnits="userSpaceOnUse">
<stop stop-color="#E84241"/>
<stop offset="0.0117647" stop-color="#E84241"/>
<stop offset="0.988235" stop-color="#E84240"/>
<stop offset="1" stop-color="#E84240"/>
</linearGradient>
<linearGradient id="paint14_linear_0_1" x1="69.202" y1="48.704" x2="70.3442" y2="48.704" gradientUnits="userSpaceOnUse">
<stop stop-color="#F8CDD0"/>
<stop offset="0.0117647" stop-color="#F8CDD0"/>
<stop offset="0.988235" stop-color="#F8CDD0"/>
<stop offset="1" stop-color="#F8CDD0"/>
</linearGradient>
</defs>
</svg>
