<svg width="148" height="141" viewBox="0 0 148 141" fill="none" xmlns="http://www.w3.org/2000/svg">
<circle cx="88" cy="77" r="60" fill="url(#paint0_radial_0_1)"/>
<g filter="url(#filter0_d_0_1)">
<path d="M76.4449 14.5842L80.9747 20.8779V65.8278C80.9747 67.8021 82.5493 70.3217 84.5014 71.4561L112.963 88.3955L118.841 96.5653L118.895 96.6416L124.136 93.6857C124.676 93.3803 124.999 92.7586 124.999 91.8641V39.3007C124.999 37.3264 123.414 34.8068 121.462 33.6724L84.4906 11.7591C83.315 11.0611 82.2689 11.0502 81.6218 11.5628L76.4342 14.5951L76.4449 14.5842Z" fill="url(#paint1_linear_0_1)"/>
<path d="M118.863 85.5706V96.5872L118.917 96.6636L124.104 93.6204C124.644 93.3149 124.967 92.6932 124.967 91.7988V39.2354L119.726 41.5914L118.863 85.5488V85.5706Z" fill="url(#paint2_linear_0_1)"/>
<path d="M79.4973 14.8459L116.22 36.2902C118.345 37.5336 120.081 40.2932 120.081 42.442V94.5146C120.081 96.6634 118.356 97.4051 116.22 96.1617L79.4973 74.7174C77.3727 73.474 75.6363 70.7144 75.6363 68.5656V16.493C75.6363 14.3442 77.3619 13.6025 79.4973 14.8459Z" fill="#372D6E"/>
<path d="M117.914 93.1512V41.2749C117.914 40.1078 116.976 38.6026 115.822 37.9263L79.5948 16.7766C78.4408 16.1003 77.5025 16.5039 77.5025 17.671V69.5473C77.5025 70.7144 78.4408 72.2196 79.5948 72.8959L115.822 94.0456C116.976 94.7219 117.914 94.3183 117.914 93.1512Z" fill="#7685FA"/>
<path d="M77.6959 47.5686L113.599 68.5329V89.3009L77.6959 68.3366V47.5686Z" fill="url(#paint3_linear_0_1)"/>
<path d="M79.6051 19.2961L115.508 40.2604V60.6903L79.6051 39.726V19.2961Z" fill="#CAE0F5"/>
<path fill-rule="evenodd" clip-rule="evenodd" d="M109.005 52.7607V51.8118V50.8628L108.638 50.6447V51.55C108.325 51.7136 108.002 51.8663 107.7 51.9863L109.015 52.7498L109.005 52.7607ZM107.57 50.023L101.671 46.5762L102.685 47.1761L107.57 50.023ZM100.862 47.7651C100.862 47.7542 100.862 47.7433 100.862 47.7324C100.862 47.7433 100.862 47.7542 100.862 47.7651Z" fill="url(#paint4_linear_0_1)"/>
<path d="M77.6959 47.5686L79.6048 46.4561L115.508 67.4204L113.599 68.5329L77.6959 47.5686Z" fill="url(#paint5_linear_0_1)"/>
<path d="M115.508 88.1884L113.599 89.3009V68.533L115.508 67.4204V88.1884Z" fill="url(#paint6_linear_0_1)"/>
<path d="M101.056 46.238V47.3833C101.056 49.1504 101.649 50.4374 102.642 51.1573C104.033 52.1499 106.201 52.0627 108.627 50.6447L102.674 47.1761L101.056 46.238Z" fill="#FEFEFE"/>
<path fill-rule="evenodd" clip-rule="evenodd" d="M105.09 51.7571C106.147 51.7571 107.366 51.3862 108.639 50.6445L102.685 47.1759L101.671 46.5869V47.7322C101.671 49.4229 102.254 50.6991 103.322 51.3099C103.828 51.6044 104.432 51.7571 105.09 51.7571Z" fill="url(#paint7_linear_0_1)"/>
<path d="M82.3336 6.46899L82.4199 37.2828C82.4199 39.268 83.1748 40.6532 84.4043 41.2968L102.534 51.7789C101.542 51.059 100.862 49.5102 100.862 47.7322V17.2893L82.3336 6.46899Z" fill="#E9F1FA"/>
<path fill-rule="evenodd" clip-rule="evenodd" d="M84.2535 34.1961L98.6192 42.584V40.9915L84.2535 32.6145V34.1961Z" fill="url(#paint8_linear_0_1)"/>
<path fill-rule="evenodd" clip-rule="evenodd" d="M84.2535 29.1961L98.6192 37.584V35.9915L84.2535 27.6145V29.1961Z" fill="url(#paint9_linear_0_1)"/>
<path fill-rule="evenodd" clip-rule="evenodd" d="M84.2535 24.1961L98.6192 32.584V30.9915L84.2535 22.6145V24.1961Z" fill="url(#paint10_linear_0_1)"/>
<path d="M100.851 17.2893V47.7322C100.851 49.7283 101.585 51.2553 102.9 52.0189C103.515 52.3788 104.248 52.5642 105.036 52.5642C106.136 52.5642 107.355 52.2261 108.627 51.5498V50.6336C106.556 51.8443 104.615 52.0734 103.31 51.299C102.253 50.6772 101.66 49.412 101.66 47.7213V16.8093L100.851 17.2784V17.2893Z" fill="#FEFEFE"/>
<path d="M105.047 52.5641C105.866 52.5641 106.761 52.3787 107.689 51.9969C108.002 51.866 108.314 51.7242 108.627 51.5606V50.6444C107.355 51.3861 106.136 51.7569 105.079 51.7569C104.41 51.7569 103.817 51.6042 103.31 51.3097C102.253 50.688 101.66 49.4227 101.66 47.732V16.8201L101.185 17.0928L100.851 17.2891V47.732C100.851 47.7429 100.851 47.7539 100.851 47.7648C100.862 49.15 101.218 50.3062 101.887 51.1352C102.167 51.4951 102.512 51.7896 102.9 52.0187C103.515 52.3787 104.248 52.5641 105.036 52.5641H105.047Z" fill="#BAD3EF"/>
<path d="M83.1424 6L101.671 16.8094L100.851 17.2893L82.3336 6.46902L83.1424 6Z" fill="#FEFEFE"/>
<path d="M100.851 17.2893L101.671 16.8094L83.1424 6L82.3336 6.46902L100.851 17.2893Z" fill="#CADEF4"/>
<path d="M82.5172 57.189C83.3153 57.6471 83.9732 58.3889 84.4693 59.4033C84.9654 60.4177 85.2135 61.5084 85.2135 62.6755C85.2135 63.8426 84.9654 64.6498 84.4693 65.0861C83.9732 65.5224 83.3153 65.5006 82.5172 65.0315C81.7083 64.5625 81.0505 63.8208 80.5436 62.8173C80.0474 61.8138 79.7994 60.7231 79.7994 59.5451C79.7994 58.3561 80.0474 57.549 80.5436 57.1127C81.0397 56.6764 81.6976 56.6982 82.528 57.1781L82.5172 57.189ZM82.5064 58.5306C82.0535 58.2689 81.6868 58.2907 81.4171 58.5961C81.1475 58.9015 81.0073 59.4469 81.0073 60.2213C81.0073 61.0285 81.1367 61.7375 81.4064 62.3483C81.676 62.9591 82.0427 63.4063 82.5064 63.679C82.9594 63.9408 83.3261 63.919 83.5849 63.6027C83.8438 63.2863 83.9732 62.7301 83.9732 61.9338C83.9732 61.1485 83.8438 60.4504 83.5742 59.8396C83.3045 59.2287 82.9486 58.7815 82.4849 58.5197L82.5064 58.5306ZM90.6923 62.0865V69.58L89.4844 68.8819V62.7846L87.2411 61.4866V67.5839L86.0331 66.8858V59.3923L90.6923 62.0756V62.0865ZM96.2897 65.3151V72.8086L95.0818 72.1105V66.0132L93.6042 65.1624L93.5287 68.2929C93.4748 70.2999 92.9679 71.0307 91.9973 70.4744C91.7276 70.3217 91.5011 70.1472 91.3178 69.9618V68.631C91.4364 68.7837 91.5874 68.9146 91.7384 69.0019C91.9326 69.111 92.0728 69.0782 92.1806 68.9037C92.2885 68.7292 92.3424 68.2929 92.3532 67.6057L92.4502 63.1009L96.2789 65.3042L96.2897 65.3151ZM100.064 67.4857L102.157 76.19L100.895 75.4592L100.464 73.5394L98.4144 72.3614L97.9614 73.7794L96.7211 73.0704L98.8134 66.7768L100.054 67.4966L100.064 67.4857ZM100.162 72.176L99.4389 68.9692L98.7055 71.3361L100.162 72.176ZM106.126 70.998V72.3941L104.476 71.4452V77.5425L103.268 76.8444V70.7471L101.618 69.7981V68.402L106.136 71.0089L106.126 70.998ZM108.919 72.6014L111.011 81.3056L109.749 80.5748L109.318 78.6551L107.269 77.477L106.816 78.895L105.576 78.186L107.668 71.8924L108.908 72.6123L108.919 72.6014ZM109.016 77.2916L108.293 74.0848L107.56 76.4517L109.016 77.2916Z" fill="white"/>
</g>
<path d="M69.2189 133.171C69.4778 133.444 70.3622 134.044 71.1818 134.011C71.3004 134.011 71.4191 133.989 71.5377 133.956C72.4437 133.695 77.2106 131.36 77.5666 130.575C77.9225 129.79 78.4725 127.728 78.2784 127.456C78.0842 127.194 77.5989 126.932 77.243 127.03C76.8871 127.128 73.9644 128.306 72.7672 128.241C72.5515 128.23 72.3035 128.295 72.0338 128.415C70.8798 128.928 69.5209 130.433 69.5209 130.433C69.5209 130.433 68.917 132.844 69.2189 133.149V133.171Z" fill="#2D2829"/>
<path d="M71.1823 134C71.3009 134 71.4195 133.978 71.5382 133.945C72.4441 133.683 77.2111 131.349 77.567 130.564C77.869 129.888 78.322 128.284 78.322 127.673C78.322 127.564 78.3112 127.488 78.2788 127.455C78.1171 127.237 77.7396 127.008 77.4052 127.008C77.3513 127.008 77.2866 127.019 77.2327 127.03C76.9954 127.095 75.5394 127.673 74.2668 128.012L74.1805 130.597C74.1805 130.967 73.9432 131.338 73.4579 131.622C73.1883 131.786 72.8755 131.895 72.5304 131.971C72.4549 131.982 72.3794 132.004 72.3039 132.015L72.2824 132.058C72.2824 132.058 72.0882 133.16 71.1715 134.011L71.1823 134Z" fill="#2A2726"/>
<path d="M59.7066 127.805L59.739 128.044C59.8792 128.339 60.2998 129.059 61.1734 129.081C61.7342 129.103 62.2088 129.103 62.6833 128.972C63.1363 128.852 63.6 128.633 64.1824 128.208C64.7217 127.815 65.5414 126.43 66.3934 125.841C67.2454 125.252 68.7984 124.161 68.7984 124.161C68.7984 124.161 68.7661 123.278 68.6906 123.103C68.6043 122.929 66.2963 123.082 65.811 123.234C65.4011 123.354 63.5893 124.336 63.0392 124.63C62.9314 124.685 62.8774 124.718 62.8774 124.718L59.9871 125.743L59.7066 127.794V127.805Z" fill="#2D2829"/>
<path d="M62.6832 128.972C63.1362 128.852 63.5999 128.634 64.1823 128.208C64.7216 127.816 65.606 126.954 66.458 126.365C67.31 125.776 68.1836 125.22 68.4316 124.98C68.9277 124.511 68.8199 123.802 68.7444 123.616C68.7228 123.562 68.4748 123.54 68.1404 123.54C67.3963 123.54 66.2099 123.649 65.8756 123.747C65.6491 123.812 64.9481 123.616 64.3333 123.932C64.3441 124.685 64.3441 125.23 64.3441 125.47C64.3441 125.558 64.3441 125.601 64.3441 125.601C64.3441 125.885 64.2039 126.158 63.9235 126.408C63.8372 126.932 63.546 127.968 62.694 128.961L62.6832 128.972Z" fill="#2A2726"/>
<path d="M56.8162 101.561C56.9132 102.063 59.7065 104.124 59.7065 104.124L59.9654 103.59L60.7958 101.877L58.8869 96.8926L57.4417 97.1325L57.0319 97.547C57.0319 97.547 56.7191 101.048 56.8162 101.55V101.561Z" fill="#F9F9F9"/>
<path d="M57.0957 101.506C57.1604 101.812 58.9184 103.164 59.6086 103.688L60.4822 101.866L58.7027 97.2089L57.5703 97.4052L57.3006 97.6779C57.2467 98.256 57.0094 101.092 57.0957 101.496V101.506ZM59.5439 104.353C59.5331 104.342 56.6643 102.237 56.5457 101.616C56.4378 101.059 56.7506 97.547 56.7506 97.5361L56.7614 97.4379L57.3006 96.8817L59.0586 96.5872L61.0862 101.91L59.8028 104.571L59.5331 104.364L59.5439 104.353Z" fill="#2B2A29"/>
<path d="M59.189 102.837C59.0595 100.612 58.9193 98.5832 58.8978 98.1687C58.8007 98.2014 58.7036 98.2341 58.6066 98.256C58.3585 98.3105 58.0997 98.3432 57.8408 98.3432C57.7222 98.3432 57.6143 98.3432 57.4957 98.3323L57.6251 101.31L59.1997 102.837H59.189Z" fill="white"/>
<g filter="url(#filter1_d_0_1)">
<path d="M55.7267 97.1869C55.7591 97.4705 55.964 97.765 56.3415 97.9831C56.9562 98.3431 57.8406 98.4303 58.5955 98.2558C58.8544 98.1904 59.0917 98.1031 59.3074 97.9831C59.7172 97.7432 59.9221 97.4268 59.9221 97.1214L59.9113 97.0014L59.825 96.7615C59.7927 96.6633 59.7603 96.5433 59.7064 96.4015C59.5338 95.878 59.275 95.0272 59.0054 94.0237C58.4553 91.9512 57.8622 89.1807 57.9377 87.0429C58.0024 84.905 58.6603 83.0616 59.2319 81.829C59.7172 80.8037 60.1486 80.1929 60.1486 80.1929V72.8303C60.1054 72.8412 59.8574 72.9285 59.5231 73.1248C59.2858 73.2666 59.0162 73.4411 58.7465 73.692C58.0455 74.3356 54.6267 83.1598 54.3139 85.3304C54.0011 87.501 55.7267 97.1869 55.7267 97.1869Z" fill="url(#paint11_linear_0_1)"/>
</g>
<path d="M56.0073 97.1543C56.0181 97.2525 56.0612 97.3506 56.1367 97.4488C56.2122 97.547 56.3308 97.6451 56.4818 97.7433C56.7514 97.896 57.075 97.9942 57.4309 98.0378C57.7976 98.0814 58.1859 98.0596 58.531 97.9833C58.6496 97.9505 58.7682 97.9178 58.8653 97.8851C58.9732 97.8415 59.0702 97.7978 59.1565 97.7433C59.3291 97.6451 59.4477 97.5361 59.5232 97.427C59.5879 97.3288 59.631 97.2307 59.631 97.1325V97.067C59.5663 96.8816 59.4908 96.6853 59.4477 96.4998C59.3506 96.2162 59.232 95.8236 59.0918 95.3545C58.9839 94.9728 58.8545 94.5474 58.7467 94.1002C58.4663 93.0531 58.1859 91.8423 57.9702 90.6098C57.7545 89.3772 57.625 88.1338 57.6682 87.043C57.7005 85.9523 57.8839 84.9269 58.1319 84.0325C58.38 83.1381 58.6927 82.3528 58.9839 81.7201C59.383 80.8693 59.7389 80.313 59.8683 80.1167V73.2777L59.6634 73.3868C59.5556 73.4522 59.4369 73.5286 59.3075 73.6158C59.1889 73.7031 59.0594 73.8012 58.93 73.9212C58.5957 74.2266 57.5387 76.6808 56.5465 79.2986C55.6082 81.7637 54.7346 84.3597 54.5837 85.3851C54.2817 87.512 55.9857 97.1216 55.9965 97.1543V97.1652L56.0073 97.1543ZM55.6945 97.7978C55.5543 97.6233 55.4788 97.427 55.4465 97.2416C55.4465 97.2088 53.7209 87.512 54.0336 85.2978C54.1846 84.2289 55.069 81.5892 56.0288 79.0914C57.0534 76.4081 58.1643 73.8558 58.5633 73.4958C58.7035 73.3649 58.8437 73.245 58.9947 73.1468C59.1349 73.0486 59.2644 72.9614 59.3938 72.885C59.4908 72.8305 59.9546 72.5687 60.0193 72.5469L60.4723 72.5578L60.4399 80.2803L60.3968 80.3567C60.3968 80.3567 59.9762 80.9566 59.5016 81.9492C59.2212 82.5491 58.9192 83.3017 58.682 84.1743C58.4447 85.036 58.2613 86.0068 58.229 87.0539C58.1966 88.101 58.3261 89.3118 58.531 90.5116C58.7359 91.7223 59.0163 92.9222 59.2967 93.9584C59.4153 94.4165 59.534 94.831 59.6418 95.1909C59.7713 95.6272 59.8899 96.0199 59.987 96.3144C60.0193 96.4889 60.1272 96.7725 60.1919 96.9471L60.2027 97.1216C60.2027 97.3397 60.1272 97.5579 59.987 97.7542C59.8575 97.9287 59.685 98.0923 59.4477 98.2341C59.3291 98.3105 59.1996 98.365 59.0702 98.4196C58.9408 98.4741 58.8006 98.5068 58.6604 98.5396C58.2506 98.6377 57.7976 98.6595 57.3662 98.605C56.9456 98.5505 56.5357 98.4305 56.2014 98.2341C55.9857 98.1032 55.8239 97.9615 55.6945 97.7978Z" fill="#2B2A29"/>
<path d="M58.5736 97.9834C58.6707 97.9616 58.7677 97.9289 58.8648 97.8962C58.8648 97.8416 58.854 97.8198 58.854 97.8198C58.757 97.2308 58.8432 96.4673 58.9942 95.7146C58.8432 95.6056 58.7677 95.5401 58.7677 95.5401C58.7677 95.5401 58.8648 94.8529 58.9942 93.8058C58.4765 91.8752 57.9373 89.3337 57.9373 87.2831C57.9373 87.1631 57.9373 87.0431 57.9373 86.9341C58.002 84.8289 58.6491 83.0074 59.2099 81.7966C59.1452 81.2294 59.0697 80.6731 59.005 80.106C58.9511 80.1823 56.8372 83.3673 56.8049 86.4432C56.7725 89.072 58.1422 95.9001 58.5844 97.9834H58.5736Z" fill="#EB8825"/>
<path d="M58.8868 98.0924C58.8868 98.0924 59.4369 105.782 59.3937 108.575C59.3614 111.378 59.1888 113.058 59.1133 113.679C59.027 114.301 59.3722 125.612 59.3722 125.612C59.3722 125.983 59.6094 126.354 60.0948 126.637C60.8389 127.063 61.9174 127.172 62.8234 126.943C63.1038 126.877 63.3734 126.768 63.6107 126.637C64.096 126.354 64.3333 125.983 64.3333 125.612C64.3549 125.612 64.2254 114.585 64.3549 112.818C64.4411 111.574 65.1853 107.222 65.6167 104.779L69.2189 114.301V130.597C69.2189 130.968 69.467 131.339 69.9415 131.622C70.6425 132.037 71.6563 132.146 72.5299 131.971C72.875 131.906 73.1878 131.786 73.4574 131.622C73.9427 131.339 74.18 130.968 74.18 130.597L74.7085 114.105C74.7085 114.105 74.6006 102.128 72.5299 95.1364L69.9415 94.7547L59.7712 93.2385C59.7712 93.2385 58.6064 96.3799 58.8761 98.0815L58.8868 98.0924Z" fill="#2D283C"/>
<path d="M62.8235 126.943C63.1039 126.877 63.3735 126.768 63.6108 126.637C63.7294 126.572 63.8373 126.496 63.9236 126.419C64.204 126.179 64.3442 125.896 64.3442 125.612C64.3442 125.612 64.3442 125.569 64.3442 125.481C64.3442 124.696 64.3011 120.464 64.3011 117.061C64.3011 117.05 64.3011 117.05 64.3011 117.039C64.3011 117.028 64.3011 117.028 64.3011 117.017C64.3011 115.075 64.3118 113.407 64.355 112.807C64.4413 111.563 65.1854 107.211 65.6168 104.768L64.0314 101.899L62.6617 113.679L62.8235 126.943Z" fill="#31283C"/>
<path d="M72.5301 131.971C72.8753 131.906 73.188 131.786 73.4576 131.622C73.943 131.338 74.1802 130.968 74.1802 130.597L74.7087 114.105C74.7087 114.105 74.6116 103.71 72.9292 96.6416C72.5409 97.0561 71.786 97.4488 70.4702 97.7105C70.1143 97.776 69.7152 97.8414 69.2731 97.8851C69.8878 100.296 72.2821 109.796 72.5086 112.643C72.7135 115.304 72.5841 127.554 72.5301 131.96V131.971Z" fill="#31283C"/>
<path d="M86.5836 70.8342L88.3416 74.1392L88.6328 73.572L90.0456 70.7906C90.1534 70.5833 90.3584 70.4415 90.5956 70.4306C90.6927 70.4306 90.8221 70.4197 90.9731 70.387C91.5447 70.2888 91.8898 68.0091 91.782 67.4638C91.7496 67.3001 91.5663 67.0602 91.329 66.8202C90.8653 66.3512 90.2074 65.8385 90.0348 65.7076L89.9917 65.6749C89.9917 65.6749 91.1457 64.0715 91.3614 63.4389C91.4261 63.2534 91.4153 63.1226 91.3614 63.0353C91.2427 62.8171 90.9084 62.839 90.7898 62.8717C90.6388 62.9044 87.9102 65.664 87.2091 66.373C87.1013 66.4821 87.0366 66.6239 87.015 66.7875C86.9503 67.3765 86.8101 68.849 86.9072 69.2962C87.0258 69.8525 86.6591 70.8015 86.5944 70.8342H86.5836Z" fill="#FEFEFE"/>
<path d="M86.8959 70.8127L88.3411 73.5287L89.797 70.66C89.8725 70.5073 89.9912 70.3873 90.1206 70.2891C90.2608 70.2019 90.4118 70.1473 90.5844 70.1364L90.7353 70.1255L90.9295 70.0928C91.0697 70.0492 91.2315 69.5692 91.3501 69.0348C91.4903 68.4349 91.5442 67.7804 91.5119 67.5186V67.5077C91.5011 67.4641 91.4687 67.3986 91.4148 67.3223C91.3501 67.2241 91.253 67.115 91.1344 67.006C90.6922 66.5588 90.0559 66.0679 89.8833 65.9261C89.797 65.8607 89.7 65.7952 89.6137 65.7189L89.7863 65.4898C89.7863 65.4898 90.9079 63.93 91.1128 63.3301C91.1344 63.2647 91.1452 63.2211 91.1452 63.1883V63.1665L91.1344 63.1556C91.1344 63.1447 91.1128 63.1447 91.0912 63.1338C91.0158 63.112 90.9295 63.1229 90.8755 63.1229C90.8324 63.1447 90.1745 63.8101 89.4196 64.5518C88.6323 65.3262 87.7802 66.1988 87.4243 66.5479C87.392 66.5806 87.3596 66.6242 87.3488 66.6678C87.3273 66.7115 87.3165 66.7551 87.3165 66.7878C87.2733 67.1369 87.2086 67.824 87.1871 68.3912C87.1763 68.7403 87.1763 69.0457 87.1979 69.1984C87.2518 69.4493 87.2302 69.7438 87.1655 70.0274C87.1116 70.3 87.0037 70.5727 86.9174 70.7691L86.8959 70.8127ZM88.093 74.2704L86.2164 70.7363L86.4429 70.5946C86.4537 70.5946 86.5292 70.311 86.5939 69.9619C86.637 69.7438 86.6586 69.5256 86.6262 69.362C86.5831 69.1657 86.5831 68.8057 86.6047 68.413C86.6262 67.824 86.7017 67.126 86.7341 66.766C86.7449 66.6569 86.7772 66.5479 86.8204 66.4606C86.8635 66.3624 86.9282 66.2752 87.0037 66.1879C87.3596 65.828 88.2224 64.9663 89.0097 64.1809C89.8294 63.3738 90.5951 62.643 90.7246 62.6102H90.7353C90.8324 62.5884 91.0481 62.5666 91.2315 62.6211C91.3824 62.6648 91.5226 62.752 91.6089 62.9047C91.6629 62.992 91.6952 63.1011 91.6952 63.232C91.6952 63.3301 91.6736 63.4392 91.6413 63.5483C91.4687 64.0609 90.7246 65.1517 90.3902 65.6316C90.6706 65.8498 91.1667 66.2534 91.5334 66.6351C91.6629 66.766 91.7707 66.8969 91.8678 67.0169C91.9648 67.1587 92.0403 67.3005 92.0619 67.4205V67.4532C92.1158 67.7695 92.0511 68.5112 91.9001 69.1875C91.7383 69.9183 91.4472 70.5946 91.0373 70.6709C90.9726 70.6927 90.8648 70.6927 90.8001 70.7036L90.6167 70.7145C90.552 70.7145 90.4981 70.7364 90.4441 70.7691C90.3902 70.8018 90.3471 70.8563 90.3147 70.9218C89.6676 72.198 89.0205 73.4741 88.3734 74.7503L88.1254 74.2704H88.093Z" fill="#2B2A29"/>
<g filter="url(#filter2_d_0_1)">
<path d="M58.7897 95.7801C58.7897 95.7801 59.0917 96.0528 59.7173 96.4018C60.8605 97.0454 63.093 97.9834 66.501 98.0162C68.1943 98.038 69.4993 97.918 70.4807 97.7216C72.5514 97.3072 73.2309 96.5545 73.274 95.9546C73.328 95.082 71.9259 90.0318 72.3142 87.8067C72.4652 86.945 73.0152 85.6579 73.4897 84.2072C73.6192 83.7927 73.7486 83.3564 73.8564 82.9201C74.2015 81.513 74.3633 80.0296 73.9319 78.6662C73.7594 78.1208 73.5005 77.5972 73.123 77.1173C73.123 77.1173 71.3327 75.383 67.6227 74.1286C66.6952 73.8123 65.649 73.5178 64.4735 73.2997C63.1792 73.0488 61.7341 72.8852 60.1379 72.8416C60.1163 72.8743 60.0408 72.9834 59.933 73.1688C59.5231 73.8996 58.6172 75.8084 58.8329 78.3171C58.9407 79.5388 59.0917 80.6841 59.2211 81.8403C59.4584 83.7382 59.6525 85.6143 59.5447 87.8176C59.4476 89.9555 59.1888 92.4206 58.9947 94.0349C58.8652 95.0929 58.7682 95.791 58.7682 95.791L58.7897 95.7801Z" fill="url(#paint12_linear_0_1)"/>
</g>
<path d="M59.0919 95.66C59.2213 95.7581 59.4693 95.9327 59.8468 96.1508C60.4076 96.4671 61.2273 96.8489 62.3274 97.1652C63.4382 97.4815 64.8187 97.7106 66.5012 97.7324C67.2993 97.7433 68.0219 97.7215 68.6582 97.667C69.3376 97.6124 69.92 97.5361 70.4269 97.4379C71.3113 97.2634 71.9368 97.0234 72.3359 96.7616C72.7888 96.478 72.9722 96.1726 72.983 95.9327C72.9938 95.6709 72.8428 94.8855 72.6594 93.9039C72.282 91.9732 71.7643 89.2681 72.0231 87.752C72.1202 87.1739 72.3898 86.4213 72.7026 85.5596C72.8643 85.1124 73.0369 84.6324 73.2095 84.1089C73.2742 83.8907 73.3497 83.6835 73.4036 83.4762C73.4683 83.269 73.5222 83.0508 73.5762 82.8327C73.7487 82.1455 73.8674 81.4365 73.8997 80.7494C73.9321 80.0622 73.8674 79.3859 73.6624 78.7315C73.5869 78.4806 73.4791 78.2297 73.3605 77.9788C73.2418 77.7389 73.0908 77.5098 72.9183 77.2808C72.7565 77.128 71.0093 75.5465 67.5365 74.3684C67.0728 74.2048 66.5875 74.063 66.0698 73.9212C65.5521 73.7794 65.0021 73.6594 64.4305 73.5504C63.7726 73.4195 63.0715 73.3213 62.3382 73.245C61.6911 73.1795 61.0008 73.125 60.2998 73.1032L60.1919 73.2886C59.9978 73.6376 59.6743 74.2812 59.437 75.132C59.1997 75.9828 59.0272 77.0626 59.1242 78.2733C59.1997 79.2223 59.3183 80.1385 59.4262 81.0329L59.5125 81.7747C59.6311 82.7236 59.739 83.6726 59.8037 84.6652C59.8684 85.6578 59.89 86.6831 59.8468 87.8065C59.7929 88.8755 59.7066 90.0317 59.6095 91.1224C59.5017 92.235 59.3938 93.2494 59.2968 94.0457C59.2105 94.8092 59.1242 95.3873 59.0919 95.6491V95.66ZM59.5772 96.6526C58.9193 96.2817 58.5958 95.9872 58.585 95.9872L58.4879 95.889L58.5095 95.7472C58.5095 95.7472 58.6065 95.0601 58.736 93.9911C58.833 93.173 58.9517 92.1477 59.0487 91.0788C59.1458 89.999 59.2429 88.8537 59.286 87.7847C59.3399 86.694 59.3183 85.6905 59.2429 84.7088C59.1781 83.738 59.0703 82.8 58.9517 81.851L58.8654 81.1093C58.7575 80.204 58.6389 79.2877 58.5634 78.3279C58.4555 77.0299 58.6281 75.8955 58.8869 74.9902C59.1458 74.0848 59.4801 73.3977 59.6958 73.0159L59.8145 72.8196L59.9115 72.6669L59.9978 72.5469H60.1488C60.9361 72.5687 61.6803 72.6123 62.3921 72.6887C63.147 72.765 63.8588 72.8741 64.5275 73.005C65.1207 73.1141 65.6815 73.245 66.21 73.3868C66.7384 73.5286 67.2453 73.6813 67.7091 73.8449C71.4731 75.1211 73.3065 76.8881 73.3065 76.899L73.3389 76.9317C73.5438 77.1935 73.7056 77.4662 73.8458 77.7389C73.986 78.0116 74.1046 78.2952 74.1909 78.5788C74.4174 79.2877 74.4821 80.0404 74.4605 80.7821C74.4282 81.5238 74.2988 82.2655 74.1262 82.9854C74.0723 83.2036 74.0076 83.4326 73.9536 83.6508C73.8889 83.8798 73.8242 84.098 73.7595 84.2943C73.5977 84.7961 73.4144 85.2978 73.2526 85.7559C72.9506 86.5849 72.6918 87.3157 72.6055 87.8502C72.3682 89.2572 72.8751 91.9078 73.2418 93.7948C73.436 94.8201 73.5977 95.6273 73.5762 95.9654C73.5438 96.3799 73.2957 96.8489 72.6594 97.2416C72.1957 97.5361 71.5162 97.7978 70.5563 97.9942C70.0279 98.0923 69.4239 98.1796 68.7229 98.2341C68.0758 98.2778 67.3424 98.2996 66.5227 98.2996C64.7864 98.2778 63.3519 98.0378 62.2087 97.7106C61.0547 97.3834 60.1919 96.9798 59.5988 96.6526H59.5772Z" fill="#2B2A29"/>
<path d="M70.1472 97.4706C70.9669 97.307 72.9082 97.0124 72.9837 95.9108C72.9837 95.889 72.9837 95.8781 72.9837 95.8562C72.9837 94.9618 72.2503 91.1333 72.2503 88.7227C72.2503 88.3846 72.2719 88.0683 72.315 87.8065C72.466 86.9448 73.0161 85.6577 73.4906 84.207C73.3288 84.207 73.1994 84.207 73.0808 84.207C72.0131 84.207 71.1287 84.0979 70.5571 83.3562C70.4384 84.556 70.1472 87.2175 69.8453 89.1699C69.5325 91.2096 69.8453 95.5945 70.1472 97.4815V97.4706Z" fill="#E6791F"/>
<path d="M71.2141 77.8916C71.4946 77.6952 71.7642 77.5425 72.0014 77.4225C72.2279 77.3135 72.4652 77.2589 72.7133 77.2589C72.7456 77.2589 72.778 77.2589 72.8103 77.2589C72.8103 77.2589 71.3651 75.8627 68.3992 74.6738C68.3453 74.6847 67.8816 75.0229 67.1913 75.1756C67.1698 75.1865 67.1482 75.1865 67.1158 75.1865C69.6395 77.1389 69.2944 77.0844 71.2249 77.8806L71.2141 77.8916Z" fill="#E6791F"/>
<path d="M63.32 73.8341C63.32 73.8123 63.32 73.7904 63.32 73.7577C63.32 73.6377 63.32 73.5178 63.32 73.3978C62.3494 73.256 61.4326 73.136 60.311 73.1033C60.2894 73.136 60.2139 73.2451 60.1061 73.4305L60.4512 73.4632C61.3895 73.5505 62.5327 73.7359 63.32 73.8341Z" fill="#E6791F"/>
<path d="M63.277 72.3614C63.2878 72.6886 63.2986 73.0813 63.2986 73.4412C63.2986 73.8994 63.3094 73.7903 63.3094 73.6921C63.3201 73.8557 63.3849 74.2157 63.8378 74.4775C64.7546 74.9901 65.9409 75.1101 66.9116 75.0883C67.1165 75.0883 67.3106 75.0556 67.4939 75.0228C68.1842 74.8701 68.6587 74.532 68.7019 74.5211C68.6803 74.4229 68.6479 73.8339 68.594 72.6559C68.5832 72.5141 68.6803 72.3723 68.8097 72.3287C69.2303 72.1978 70.05 71.8815 70.5461 70.8343C70.902 70.0926 71.1069 66.3295 71.1069 66.2859C71.1069 66.2314 71.0422 66.2423 70.902 66.3077C70.7295 66.395 70.449 66.5804 70.0931 66.8313L69.9098 66.9622C67.7204 68.5438 63.2662 72.2414 63.2662 72.3614H63.277Z" fill="#FEFEFE"/>
<path d="M63.5565 72.3616C63.5673 72.6779 63.5673 73.0487 63.5781 73.3978V73.6814H63.5889V73.725C63.6105 73.7796 63.632 73.8341 63.632 73.8777L63.6536 73.9104C63.7075 74.0086 63.8046 74.1286 63.9771 74.2268C64.3654 74.4449 64.7968 74.5867 65.239 74.674C65.8106 74.783 66.393 74.8158 66.9107 74.8049C66.997 74.8049 67.0832 74.794 67.1803 74.783C67.2666 74.7721 67.3529 74.7612 67.4284 74.7394C67.8705 74.6412 68.2157 74.4558 68.4098 74.3577L68.3774 73.9104C68.3559 73.6159 68.3343 73.2124 68.3127 72.667C68.3019 72.5361 68.3451 72.3943 68.4206 72.2852C68.4961 72.1761 68.6039 72.0889 68.7333 72.0562C68.9275 71.9907 69.2079 71.8925 69.4991 71.6962C69.7795 71.4999 70.0815 71.1945 70.2972 70.7145C70.556 70.1692 70.7394 67.7041 70.8041 66.7006L70.7286 66.7551C70.6099 66.8315 70.4589 66.9405 70.2648 67.0714L70.0815 67.2023C69.1108 67.9004 67.698 69.0239 66.4146 70.0601C64.8723 71.3144 63.5565 72.3616 63.5565 72.3725V72.3616ZM63.0173 73.3978C63.0173 73.0597 63.0065 72.6888 62.9957 72.3725V72.3616C62.9957 72.2198 64.4193 70.9436 66.0694 69.602C67.3529 68.5658 68.7765 67.4314 69.7579 66.7333L69.9413 66.6024C70.103 66.4824 70.2648 66.3733 70.4266 66.2752C70.5668 66.177 70.6962 66.1116 70.7933 66.057C70.8904 66.0134 70.9658 65.9807 71.0306 65.9698C71.2894 65.937 71.4188 66.0461 71.3972 66.3079V66.3297C71.3757 66.6787 71.1708 70.2019 70.8041 70.9545C70.5344 71.5217 70.1678 71.9035 69.8118 72.1543C69.4559 72.4052 69.1216 72.5252 68.8951 72.6015L68.8843 72.6124L68.8736 72.6452C68.8951 73.1578 68.9167 73.5723 68.9383 73.8777C68.9598 74.2377 68.9706 74.4231 68.9814 74.4776L69.0353 74.7612L68.7441 74.8049C68.7549 74.8049 68.7549 74.8049 68.7549 74.8158C68.5608 74.9248 68.1294 75.1757 67.5578 75.2957C67.4607 75.3175 67.3529 75.3393 67.2558 75.3502C67.1587 75.3611 67.0509 75.3721 66.9322 75.3721C66.3714 75.383 65.7567 75.3502 65.1419 75.2303C64.6458 75.1321 64.1497 74.9685 63.7075 74.7285C63.4163 74.5649 63.2546 74.3686 63.1575 74.1831C63.1251 74.1068 63.0928 74.0413 63.0712 73.9759C63.0496 73.9432 63.0389 73.9104 63.0281 73.8777C63.0065 73.845 63.0065 73.4196 63.0065 73.3978H63.0173ZM68.7441 74.794C68.7333 74.794 68.7441 74.794 68.7441 74.794V74.794Z" fill="#2B2A29"/>
<path d="M61.4649 67.6275C61.6051 68.2056 62.1767 69.5036 62.2737 70.0817C62.36 70.5944 63.2767 72.3505 63.2767 72.3505C64.118 72.874 65.52 73.0486 66.2318 73.0049C66.3936 72.994 66.523 72.9722 66.5985 72.9395L66.8142 72.8413C67.5692 72.4923 68.13 71.8051 68.3241 70.9761L68.3673 70.7907C68.432 70.5071 68.4535 70.2126 68.432 69.9181C68.4212 69.7654 68.4104 69.5909 68.4212 69.4054C68.4751 68.4019 68.9281 68.2492 69.2732 68.1838C69.6291 68.1074 69.683 69.1982 69.683 69.1982L70.1576 69.0455L70.2223 67.4857C70.2223 67.3221 70.2762 67.1694 70.3841 67.0494C70.7615 66.6131 72.0773 66.3404 72.0665 64.6716C72.0665 63.908 71.2684 61.2575 67.278 61.2139C66.7495 61.2139 66.1563 61.2466 65.5092 61.3448C61.1844 61.9992 61.1089 66.155 61.4541 67.6166L61.4649 67.6275Z" fill="#2D2829"/>
<path d="M66.232 73.016C66.3938 73.0051 66.5232 72.9833 66.5987 72.9505L66.8144 72.8524C67.0733 72.7324 67.2998 72.5797 67.5047 72.3943C67.9037 72.0234 68.1949 71.5435 68.3351 70.9872L68.3783 70.8018C68.4322 70.5945 68.4538 70.3873 68.4538 70.18C68.4538 70.0928 68.4538 70.0164 68.443 69.9292C68.4322 69.831 68.4322 69.7219 68.4322 69.6019C68.4322 69.5365 68.4322 69.4819 68.4322 69.4165C68.4861 68.413 68.9391 68.2603 69.2842 68.1949C69.295 68.1949 69.3058 68.1949 69.3166 68.1949C69.6401 68.1949 69.694 69.2202 69.694 69.2202L70.1686 69.0675L70.2333 67.5077C70.2333 67.3441 70.2872 67.1914 70.3951 67.0714C70.7725 66.6351 72.0883 66.3624 72.0775 64.6935C72.0775 63.93 71.2794 61.2795 67.289 61.2358C68.5508 61.9012 70.7725 63.2974 69.6832 64.6281C68.2057 66.4387 67.9469 68.3148 67.8174 70.06C67.688 71.8925 66.9978 72.3943 66.232 73.0269V73.016Z" fill="#2A2726"/>
<g filter="url(#filter3_d_0_1)">
<path d="M69.984 80.8912C70.1781 83.5745 71.3106 83.8254 72.896 83.8254C72.993 83.8254 73.1224 83.8254 73.2626 83.8254C75.4196 83.7708 82.2358 83.3563 82.8829 82.9419C83.5192 82.5274 88.599 74.7503 89.2892 73.6813L89.3755 73.5614C89.4618 73.3977 89.5157 73.1905 89.5157 72.9505C89.5157 72.3506 89.2245 71.6525 88.7823 71.0635C88.4911 70.6818 88.1244 70.3327 87.7254 70.1037C86.9596 69.6565 86.3017 69.7655 86.0537 70.3109L80.7906 77.9462C80.5857 78.0444 79.4748 78.5243 78.0296 78.5461C76.455 78.5679 74.902 78.2298 73.4783 77.5644C73.3166 77.4881 73.1332 77.4444 72.9607 77.4335C72.7126 77.4226 72.4646 77.4663 72.2381 77.5753C72.0224 77.6844 71.7743 77.8153 71.5263 77.9898C70.7389 78.5461 69.9085 79.4733 70.0056 80.8912H69.984Z" fill="url(#paint13_linear_0_1)"/>
</g>
<path d="M70.2657 80.8692C70.352 82.1126 70.6432 82.7889 71.0854 83.1379C71.5276 83.487 72.1531 83.5415 72.8865 83.5415H73.2424C74.515 83.5088 77.4378 83.3561 79.735 83.1379C81.2665 82.9961 82.4959 82.8434 82.7116 82.7016C82.9921 82.5162 84.3941 80.4983 85.8177 78.3932C87.2737 76.2335 88.6973 74.052 89.0317 73.5284L89.1072 73.4193C89.1395 73.3648 89.1611 73.2993 89.1827 73.223C89.2042 73.1466 89.2042 73.0485 89.2042 72.9503C89.2042 72.6885 89.1395 72.4049 89.0317 72.1213C88.913 71.8159 88.7405 71.5105 88.5248 71.2378C88.3846 71.0524 88.2228 70.8779 88.061 70.7252C87.8992 70.5834 87.7267 70.4525 87.5541 70.3543L87.3708 70.2561C87.1012 70.1361 86.8639 70.0925 86.6698 70.1252C86.508 70.158 86.3786 70.2452 86.2923 70.387C85.2677 72.394 82.3557 76.1353 80.9321 78.175L80.8566 78.2077C80.7488 78.2623 80.4036 78.4041 79.8968 78.5459C79.3899 78.6877 78.732 78.8185 77.977 78.8295C77.1681 78.8404 76.37 78.764 75.5935 78.5895C74.8062 78.415 74.0405 78.1641 73.3071 77.8151C73.2424 77.7823 73.1669 77.7605 73.1022 77.7387C73.0267 77.7169 72.962 77.706 72.8865 77.706C72.7894 77.6951 72.6816 77.706 72.5845 77.7278C72.4874 77.7496 72.3904 77.7823 72.2933 77.826C72.1855 77.8805 72.0776 77.935 71.9482 78.0114C71.8403 78.0768 71.7325 78.1423 71.6246 78.2186C71.2579 78.4804 70.8805 78.8186 70.6108 79.2658C70.3412 79.7021 70.1794 80.2256 70.2226 80.8692H70.2657ZM70.7403 83.5851C70.1687 83.1379 69.802 82.3417 69.6941 80.9019C69.6402 80.1275 69.8343 79.4839 70.1579 78.9494C70.4706 78.4368 70.9128 78.0332 71.3334 77.7387C71.4521 77.6514 71.5815 77.5751 71.7001 77.5096C71.8296 77.4333 71.959 77.3679 72.0776 77.3024C72.2178 77.237 72.358 77.1824 72.4982 77.1606C72.6492 77.1279 72.7894 77.117 72.9404 77.1279C73.0483 77.1388 73.1561 77.1497 73.2532 77.1715C73.361 77.1933 73.4581 77.237 73.5552 77.2806C74.2454 77.6078 74.9788 77.8478 75.7229 78.0114C76.4671 78.175 77.2221 78.2514 77.9878 78.2405C78.678 78.2295 79.2928 78.1096 79.7673 77.9787C80.1556 77.8696 80.436 77.7605 80.5762 77.6951L85.7746 70.158L85.8177 70.0816C85.9903 69.7871 86.2491 69.6017 86.5835 69.5471C86.8854 69.4926 87.2414 69.5471 87.6188 69.7217C87.6943 69.7544 87.7698 69.798 87.8453 69.8416C88.061 69.9616 88.2551 70.1143 88.4385 70.2889C88.6326 70.4634 88.816 70.6706 88.9777 70.8779C89.2258 71.1942 89.4199 71.5541 89.5601 71.9032C89.7003 72.2522 89.7758 72.6013 89.7758 72.9394C89.7758 73.0812 89.7651 73.2121 89.7327 73.3321C89.7003 73.4629 89.6572 73.5829 89.6033 73.692C89.5817 73.7356 89.5386 73.7902 89.5062 73.8338C89.1503 74.3792 87.6943 76.6152 86.2815 78.7095C84.8255 80.8583 83.3803 82.9416 83.0136 83.1707C82.7116 83.367 81.3851 83.5524 79.7781 83.6942C77.4701 83.9124 74.5366 84.0651 73.2532 84.0978H72.8757C72.0345 84.0978 71.3011 84.0215 70.7295 83.5742L70.7403 83.5851Z" fill="#2B2A29"/>
<path d="M82.9487 82.4183C83.2507 82.2219 84.5772 80.324 85.9254 78.3279C87.2951 76.2991 88.6755 74.1831 88.9991 73.6704L89.0746 73.5614C89.1609 73.4086 89.204 73.2123 89.204 72.9833C89.204 72.4161 88.9344 71.7507 88.5138 71.2053C88.5138 71.2053 81.9133 82.3092 82.9487 82.4292V82.4183Z" fill="#EB8825"/>
<path d="M62.6932 73.3105C62.6393 73.1687 62.704 72.9942 62.855 72.9396C62.9952 72.8851 63.1677 72.9506 63.2217 73.1033C63.308 73.3214 63.4158 73.5832 63.5452 73.8013C63.6639 73.9977 63.8041 74.1504 63.9658 74.2267C64.8179 74.5976 65.713 74.7939 66.5327 74.8048C67.2984 74.8048 68.0102 74.6412 68.571 74.2813C68.7005 74.194 68.873 74.2376 68.9593 74.3685C69.0456 74.4994 69.0024 74.6739 68.873 74.7612C68.2151 75.1866 67.4063 75.372 66.5327 75.372C65.6267 75.3611 64.6561 75.143 63.7394 74.7503C63.4482 74.6303 63.2325 74.3794 63.0599 74.0958C62.9089 73.845 62.7903 73.5614 62.6932 73.3105Z" fill="#2B2A29"/>
<g filter="url(#filter4_i_0_1)">
<path d="M1.83344 19.32C2.04677 13.5067 3.8601 8.94666 7.27344 5.64C10.6868 2.28 15.3268 0.599997 21.1934 0.599997C26.7401 0.599997 31.2201 2.04 34.6334 4.92C38.1001 7.74666 39.8334 11.4267 39.8334 15.96C39.8334 18.68 39.1134 21.0533 37.6734 23.08C36.2868 25.0533 34.3934 26.36 31.9934 27C35.0868 27.7467 37.5134 29.2667 39.2734 31.56C41.0334 33.8 41.9134 36.5733 41.9134 39.88C41.9134 45.2133 39.9668 49.5867 36.0734 53C32.2334 56.36 27.2468 58.04 21.1134 58.04C14.7668 58.04 9.72677 56.28 5.99344 52.76C2.2601 49.24 0.393438 44.4933 0.393438 38.52V37.72H11.3534C11.4068 41.1867 12.2334 43.8533 13.8334 45.72C15.4868 47.5333 17.8334 48.44 20.8734 48.44C23.6468 48.44 25.8868 47.6667 27.5934 46.12C29.3001 44.52 30.1534 42.4667 30.1534 39.96C30.1534 37.0267 29.1934 34.92 27.2734 33.64C25.4068 32.3067 22.9801 31.64 19.9934 31.64C18.8734 31.64 17.9401 31.6667 17.1934 31.72V23.72C17.7801 23.7733 18.4201 23.8 19.1134 23.8C25.6201 23.8 28.8734 21.4533 28.8734 16.76C28.8734 14.6267 28.1534 12.92 26.7134 11.64C25.3268 10.36 23.4601 9.72 21.1134 9.72C18.4468 9.72 16.3668 10.5467 14.8734 12.2C13.4334 13.8533 12.6868 16.2267 12.6334 19.32H1.83344Z" fill="black" fill-opacity="0.03"/>
</g>
<defs>
<filter id="filter0_d_0_1" x="64.6363" y="4" width="61.3628" height="102.765" filterUnits="userSpaceOnUse" color-interpolation-filters="sRGB">
<feFlood flood-opacity="0" result="BackgroundImageFix"/>
<feColorMatrix in="SourceAlpha" type="matrix" values="0 0 0 0 0 0 0 0 0 0 0 0 0 0 0 0 0 0 127 0" result="hardAlpha"/>
<feOffset dx="-5" dy="4"/>
<feGaussianBlur stdDeviation="3"/>
<feColorMatrix type="matrix" values="0 0 0 0 0.545833 0 0 0 0 0.597443 0 0 0 0 1 0 0 0 1 0"/>
<feBlend mode="normal" in2="BackgroundImageFix" result="effect1_dropShadow_0_1"/>
<feBlend mode="normal" in="SourceGraphic" in2="effect1_dropShadow_0_1" result="shape"/>
</filter>
<filter id="filter1_d_0_1" x="44.276" y="66.8303" width="17.8726" height="37.5123" filterUnits="userSpaceOnUse" color-interpolation-filters="sRGB">
<feFlood flood-opacity="0" result="BackgroundImageFix"/>
<feColorMatrix in="SourceAlpha" type="matrix" values="0 0 0 0 0 0 0 0 0 0 0 0 0 0 0 0 0 0 127 0" result="hardAlpha"/>
<feOffset dx="-4"/>
<feGaussianBlur stdDeviation="3"/>
<feColorMatrix type="matrix" values="0 0 0 0 1 0 0 0 0 0.6 0 0 0 0 0 0 0 0 0.6 0"/>
<feBlend mode="normal" in2="BackgroundImageFix" result="effect1_dropShadow_0_1"/>
<feBlend mode="normal" in="SourceGraphic" in2="effect1_dropShadow_0_1" result="shape"/>
</filter>
<filter id="filter2_d_0_1" x="48.7682" y="66.8416" width="27.4238" height="37.1771" filterUnits="userSpaceOnUse" color-interpolation-filters="sRGB">
<feFlood flood-opacity="0" result="BackgroundImageFix"/>
<feColorMatrix in="SourceAlpha" type="matrix" values="0 0 0 0 0 0 0 0 0 0 0 0 0 0 0 0 0 0 127 0" result="hardAlpha"/>
<feOffset dx="-4"/>
<feGaussianBlur stdDeviation="3"/>
<feColorMatrix type="matrix" values="0 0 0 0 1 0 0 0 0 0.6 0 0 0 0 0 0 0 0 0.6 0"/>
<feBlend mode="normal" in2="BackgroundImageFix" result="effect1_dropShadow_0_1"/>
<feBlend mode="normal" in="SourceGraphic" in2="effect1_dropShadow_0_1" result="shape"/>
</filter>
<filter id="filter3_d_0_1" x="59.984" y="63.8257" width="31.5317" height="25.9996" filterUnits="userSpaceOnUse" color-interpolation-filters="sRGB">
<feFlood flood-opacity="0" result="BackgroundImageFix"/>
<feColorMatrix in="SourceAlpha" type="matrix" values="0 0 0 0 0 0 0 0 0 0 0 0 0 0 0 0 0 0 127 0" result="hardAlpha"/>
<feOffset dx="-4"/>
<feGaussianBlur stdDeviation="3"/>
<feColorMatrix type="matrix" values="0 0 0 0 1 0 0 0 0 0.6 0 0 0 0 0 0 0 0 0.6 0"/>
<feBlend mode="normal" in2="BackgroundImageFix" result="effect1_dropShadow_0_1"/>
<feBlend mode="normal" in="SourceGraphic" in2="effect1_dropShadow_0_1" result="shape"/>
</filter>
<filter id="filter4_i_0_1" x="0.393437" y="0.599976" width="41.52" height="61.4401" filterUnits="userSpaceOnUse" color-interpolation-filters="sRGB">
<feFlood flood-opacity="0" result="BackgroundImageFix"/>
<feBlend mode="normal" in="SourceGraphic" in2="BackgroundImageFix" result="shape"/>
<feColorMatrix in="SourceAlpha" type="matrix" values="0 0 0 0 0 0 0 0 0 0 0 0 0 0 0 0 0 0 127 0" result="hardAlpha"/>
<feOffset dy="4"/>
<feGaussianBlur stdDeviation="2"/>
<feComposite in2="hardAlpha" operator="arithmetic" k2="-1" k3="1"/>
<feColorMatrix type="matrix" values="0 0 0 0 0 0 0 0 0 0 0 0 0 0 0 0 0 0 0.1 0"/>
<feBlend mode="normal" in2="shape" result="effect1_innerShadow_0_1"/>
</filter>
<radialGradient id="paint0_radial_0_1" cx="0" cy="0" r="1" gradientUnits="userSpaceOnUse" gradientTransform="translate(88 77) rotate(90) scale(60)">
<stop stop-color="#7795FF"/>
<stop offset="1" stop-color="#331E87"/>
</radialGradient>
<linearGradient id="paint1_linear_0_1" x1="76.4342" y1="53.9226" x2="124.999" y2="53.9226" gradientUnits="userSpaceOnUse">
<stop stop-color="#00DBDE"/>
<stop offset="1" stop-color="#FC00FF"/>
</linearGradient>
<linearGradient id="paint2_linear_0_1" x1="118.863" y1="67.9495" x2="124.967" y2="67.9495" gradientUnits="userSpaceOnUse">
<stop stop-color="#00DBDE"/>
<stop offset="1" stop-color="#FC00FF"/>
</linearGradient>
<linearGradient id="paint3_linear_0_1" x1="77.6959" y1="68.4347" x2="113.599" y2="68.4347" gradientUnits="userSpaceOnUse">
<stop stop-color="#A445B2"/>
<stop offset="0.52" stop-color="#D41872"/>
<stop offset="1" stop-color="#FF0066"/>
</linearGradient>
<linearGradient id="paint4_linear_0_1" x1="112.348" y1="41.8968" x2="112.238" y2="49.6412" gradientUnits="userSpaceOnUse">
<stop stop-color="#57B2E5"/>
<stop offset="0.0117647" stop-color="#57B2E5"/>
<stop offset="1" stop-color="#37317A"/>
</linearGradient>
<linearGradient id="paint5_linear_0_1" x1="77.6959" y1="57.4945" x2="115.508" y2="57.4945" gradientUnits="userSpaceOnUse">
<stop stop-color="#231557"/>
<stop offset="0.29" stop-color="#44107A"/>
<stop offset="0.67" stop-color="#FF1361"/>
</linearGradient>
<linearGradient id="paint6_linear_0_1" x1="113.599" y1="78.3607" x2="115.508" y2="78.3607" gradientUnits="userSpaceOnUse">
<stop stop-color="#231557"/>
<stop offset="0.29" stop-color="#44107A"/>
<stop offset="0.67" stop-color="#FF1361"/>
</linearGradient>
<linearGradient id="paint7_linear_0_1" x1="103.828" y1="46.8378" x2="108.441" y2="50.4303" gradientUnits="userSpaceOnUse">
<stop stop-color="#FAF9FC"/>
<stop offset="0.0117647" stop-color="#FAF9FC"/>
<stop offset="0.988235" stop-color="#FAF9FC"/>
<stop offset="1" stop-color="#FAF9FC"/>
</linearGradient>
<linearGradient id="paint8_linear_0_1" x1="112.672" y1="-9.22684" x2="68.9853" y2="84.6723" gradientUnits="userSpaceOnUse">
<stop stop-color="#37317A"/>
<stop offset="0.988235" stop-color="#57B2E5"/>
<stop offset="1" stop-color="#57B2E5"/>
</linearGradient>
<linearGradient id="paint9_linear_0_1" x1="112.672" y1="-14.2268" x2="68.9853" y2="79.6723" gradientUnits="userSpaceOnUse">
<stop stop-color="#37317A"/>
<stop offset="0.988235" stop-color="#57B2E5"/>
<stop offset="1" stop-color="#57B2E5"/>
</linearGradient>
<linearGradient id="paint10_linear_0_1" x1="112.672" y1="-19.2268" x2="68.9853" y2="74.6723" gradientUnits="userSpaceOnUse">
<stop stop-color="#37317A"/>
<stop offset="0.988235" stop-color="#57B2E5"/>
<stop offset="1" stop-color="#57B2E5"/>
</linearGradient>
<linearGradient id="paint11_linear_0_1" x1="54.276" y1="85.5865" x2="60.1486" y2="85.5865" gradientUnits="userSpaceOnUse">
<stop stop-color="#F9D423"/>
<stop offset="1" stop-color="#FF4E50"/>
</linearGradient>
<linearGradient id="paint12_linear_0_1" x1="58.7682" y1="85.4301" x2="74.192" y2="85.4301" gradientUnits="userSpaceOnUse">
<stop stop-color="#F9D423"/>
<stop offset="1" stop-color="#FF4E50"/>
</linearGradient>
<linearGradient id="paint13_linear_0_1" x1="69.984" y1="76.8255" x2="89.5157" y2="76.8255" gradientUnits="userSpaceOnUse">
<stop stop-color="#F9D423"/>
<stop offset="1" stop-color="#FF4E50"/>
</linearGradient>
</defs>
</svg>
