<svg width="892" height="75" viewBox="0 0 892 75" fill="none" xmlns="http://www.w3.org/2000/svg">
<g filter="url(#filter0_d_0_1)">
<path d="M7 13.2128C48.1005 43.3853 159.873 92.2232 293.585 39.9622C397.305 -0.576604 471.307 -3.51402 607.662 36.6699C754.287 79.8805 836.347 40.3739 883 18.5627" stroke="#1A2C77"/>
</g>
<line x1="194.542" y1="53.9241" x2="201.549" y2="61.5904" stroke="#11236C" stroke-linecap="round"/>
<line x1="789.954" y1="42.8887" x2="798.362" y2="48.9854" stroke="#11236C" stroke-linecap="round"/>
<line x1="485.737" y1="1.85777" x2="491.423" y2="10.5485" stroke="#11236C" stroke-linecap="round"/>
<path d="M193.527 69.2288L201.507 61.9356" stroke="#11236C" stroke-linecap="round"/>
<path d="M792.045 58.0837L798.391 49.3317" stroke="#11236C" stroke-linecap="round"/>
<path d="M482.281 16.8015L491.328 10.8825" stroke="#11236C" stroke-linecap="round"/>
<line x1="190.201" y1="53.907" x2="197.207" y2="61.5733" stroke="#11236C" stroke-linecap="round"/>
<line x1="785.698" y1="43.7471" x2="794.106" y2="49.8438" stroke="#11236C" stroke-linecap="round"/>
<line x1="481.454" y1="1.14464" x2="487.14" y2="9.83535" stroke="#11236C" stroke-linecap="round"/>
<path d="M189.188 69.2112L197.167 61.918" stroke="#11236C" stroke-linecap="round"/>
<path d="M787.79 58.9414L794.136 50.1894" stroke="#11236C" stroke-linecap="round"/>
<path d="M478 16.0884L487.046 10.1693" stroke="#11236C" stroke-linecap="round"/>
<defs>
<filter id="filter0_d_0_1" x="0.704102" y="4.5" width="890.508" height="70.0004" filterUnits="userSpaceOnUse" color-interpolation-filters="sRGB">
<feFlood flood-opacity="0" result="BackgroundImageFix"/>
<feColorMatrix in="SourceAlpha" type="matrix" values="0 0 0 0 0 0 0 0 0 0 0 0 0 0 0 0 0 0 127 0" result="hardAlpha"/>
<feOffset dx="1" dy="4"/>
<feGaussianBlur stdDeviation="3.5"/>
<feColorMatrix type="matrix" values="0 0 0 0 0.294118 0 0 0 0 0.380392 0 0 0 0 0.721569 0 0 0 1 0"/>
<feBlend mode="normal" in2="BackgroundImageFix" result="effect1_dropShadow_0_1"/>
<feBlend mode="normal" in="SourceGraphic" in2="effect1_dropShadow_0_1" result="shape"/>
</filter>
</defs>
</svg>
